<svg width="1207" height="879" viewBox="0 0 1207 879" fill="none" xmlns="http://www.w3.org/2000/svg">
<g filter="url(#filter0_f_224_5872)">
<path fill-rule="evenodd" clip-rule="evenodd" d="M435.55 337.864C478.72 340.052 513.968 363.357 550.312 386.765C602.925 420.65 681.782 439.479 689.729 501.568C697.751 564.235 631.968 608.972 584.018 650.09C540.899 687.065 492.341 719.047 435.55 719.532C378.32 720.021 323.158 694.889 284.525 652.647C247.436 612.093 231.481 556.331 236.208 501.568C240.566 451.089 269.39 406.658 308.537 374.509C343.942 345.434 389.802 335.545 435.55 337.864Z" fill="#40EF24"/>
<path fill-rule="evenodd" clip-rule="evenodd" d="M764.242 431.104C818.103 429.434 873.851 397.131 919.65 425.567C972.013 458.077 1019.58 521.025 1006.01 581.21C992.724 640.096 913.273 647.148 862.373 679.489C829.421 700.426 802.924 729.662 764.242 734.824C719.339 740.815 674.005 734.304 635.943 709.702C586.86 677.977 530.361 639.593 526.584 581.21C522.721 521.501 567.632 466.831 618.166 434.914C660.996 407.862 713.631 432.673 764.242 431.104Z" fill="#70FF00"/>
<path fill-rule="evenodd" clip-rule="evenodd" d="M882.228 218.723C937.822 218.763 989.098 249.623 1024.89 292.22C1057.88 331.494 1067.34 383.846 1063.99 435.059C1060.88 482.608 1039.64 525.332 1007.34 560.328C973.44 597.055 931.861 626.4 882.228 631.989C826.51 638.262 759 637.023 725.412 592.072C692.798 548.423 732.551 489.512 735.082 435.059C737.384 385.521 711.48 332.999 739.359 292.01C770.671 245.976 826.601 218.682 882.228 218.723Z" fill="#09F33D"/>
<path fill-rule="evenodd" clip-rule="evenodd" d="M717.084 144.047C784.214 135.733 847.981 175.708 895.034 224.33C941.309 272.15 985.63 338.458 967.075 402.378C949.591 462.607 863.767 460.962 814.929 500.277C776.516 531.2 764.932 591.734 717.084 603.625C660.908 617.586 597.468 603.864 554.573 564.979C510.132 524.692 490.368 462.194 495.083 402.378C499.492 346.451 541.778 306.091 578.334 263.553C619.695 215.423 654.124 151.844 717.084 144.047Z" fill="#24FF00"/>
<path fill-rule="evenodd" clip-rule="evenodd" d="M324.465 150.571C376.266 149.081 422.906 182.925 454.931 223.663C483.576 260.102 489.288 308.017 484.473 354.114C480.193 395.079 456.681 428.297 430.253 459.891C400.011 496.044 371.53 542.784 324.465 545.399C276.376 548.07 239.375 507.278 206.231 472.336C174.261 438.631 143.974 400.557 143.024 354.114C142.06 306.913 169.881 266.203 201.297 230.96C235.21 192.916 273.518 152.037 324.465 150.571Z" fill="#25FC00"/>
<path fill-rule="evenodd" clip-rule="evenodd" d="M685.089 182.082C729.061 223.1 731.73 292.971 720.365 352.052C710.645 402.583 663.039 430.457 629.763 469.706C589.413 517.299 569.241 590.155 508.089 602.434C440.742 615.956 356.695 591.201 323.114 531.277C290.92 473.828 350.308 410.052 364.189 345.652C373.487 302.516 361.903 254.977 390.002 220.956C420.784 183.687 468.298 167.909 516.201 161.599C574.655 153.898 641.981 141.868 685.089 182.082Z" fill="#00FF47"/>
</g>
<defs>
<filter id="filter0_f_224_5872" x="0.934509" y="0.881042" width="1205.75" height="878.09" filterUnits="userSpaceOnUse" color-interpolation-filters="sRGB">
<feFlood flood-opacity="0" result="BackgroundImageFix"/>
<feBlend mode="normal" in="SourceGraphic" in2="BackgroundImageFix" result="shape"/>
<feGaussianBlur stdDeviation="71.0327" result="effect1_foregroundBlur_224_5872"/>
</filter>
</defs>
</svg>
