<svg width="150" height="60" viewBox="0 0 150 60" fill="none" xmlns="http://www.w3.org/2000/svg">
<path d="M24.8641 55.9459C38.5962 55.9459 49.7283 44.8741 49.7283 31.2162C49.7283 17.5584 38.5962 6.48648 24.8641 6.48648C11.1321 6.48648 0 17.5584 0 31.2162C0 44.8741 11.1321 55.9459 24.8641 55.9459Z" fill="#42D31C"/>
<path d="M18.3407 51.0811C21.7174 51.0811 24.4548 48.3585 24.4548 45C24.4548 41.6415 21.7174 38.9189 18.3407 38.9189C14.964 38.9189 12.2266 41.6415 12.2266 45C12.2266 48.3585 14.964 51.0811 18.3407 51.0811Z" fill="black"/>
<path d="M35.3277 43.5052C34.0755 43.142 32.8233 43.0641 32.8233 42.4933C32.8233 42.1041 33.7364 42.0003 34.3886 42.0003C35.9277 42.0003 37.0233 42.5452 37.8059 43.0901L39.8929 40.7809C38.7451 39.8209 37.3364 39.0166 34.519 39.0166C31.2581 39.0166 29.3016 40.3398 29.3016 42.9863C29.3016 44.7506 30.2407 46.3593 33.9712 47.1895C35.5103 47.5268 36.5016 47.449 36.5016 47.942C36.5016 48.4609 35.2755 48.4868 34.8059 48.4868C32.9016 48.4868 31.6494 47.916 30.9712 47.5009L28.832 49.862C30.632 50.9517 31.9103 51.4706 34.6755 51.4706C38.0668 51.4706 40.0233 49.9657 40.0233 47.3971C40.0233 45.529 39.032 44.569 35.3277 43.5052ZM43.6561 55.9074C46.5778 55.9074 48.43 54.0652 50.1257 50.4328L55.2909 39.4057H51.2474L47.8039 46.8003L44.3344 39.4057H40.2909L45.7431 51.0036C45.117 51.9895 44.4126 52.6382 43.3692 52.6382C42.8474 52.6382 42.43 52.5344 42.1692 52.4047L40.4474 55.2068C41.2561 55.6479 42.4822 55.9074 43.6561 55.9074ZM59.9906 51.0814V45.7106C59.9906 43.2717 61.1385 42.2598 62.5471 42.2598C64.008 42.2598 65.0515 43.2717 65.0515 44.8284V51.0814H68.9645V45.036C68.9645 40.9884 66.6167 39.0166 63.5384 39.0166C61.8167 39.0166 60.695 39.6133 59.9906 40.5733V39.4057H56.0776V51.0814H59.9906ZM70.7902 45.2436C70.7902 48.9798 73.5293 51.4706 76.8424 51.4706C78.6946 51.4706 79.9467 50.8739 80.7293 49.8101V51.0814H84.6424V19.9463H80.7293V40.6771C79.9467 39.6133 78.6946 39.0166 76.8424 39.0166C73.5293 39.0166 70.7902 41.5074 70.7902 45.2436ZM74.8337 45.2436C74.8337 43.4533 76.0076 42.2598 77.8076 42.2598C79.5554 42.2598 80.7293 43.4533 80.7293 45.2436C80.7293 47.0339 79.5554 48.2274 77.8076 48.2274C76.0076 48.2274 74.8337 47.0339 74.8337 45.2436ZM86.8687 35.3063C86.8687 36.7074 87.8079 37.6414 89.2166 37.6414C90.6253 37.6414 91.5644 36.7074 91.5644 35.3063C91.5644 33.9052 90.6253 32.9712 89.2166 32.9712C87.8079 32.9712 86.8687 33.9052 86.8687 35.3063ZM87.2601 51.0814H91.1731V39.4057H87.2601V51.0814ZM93.2601 45.3474C93.2601 49.2393 96.1818 51.5225 100.356 51.5225C103.095 51.5225 104.895 50.6663 105.99 49.862L103.669 47.2674C102.99 47.7084 101.869 48.2793 100.512 48.2793C98.5296 48.2793 97.3035 47.1895 97.3035 45.3733C97.3035 43.5052 98.4253 42.2598 100.121 42.2598C101.347 42.2598 102.338 42.8306 103.017 43.2717L105.338 40.6771C104.243 39.8728 102.547 39.0166 99.9644 39.0166C96.547 39.0166 93.2601 41.4555 93.2601 45.3474ZM106.533 45.2436C106.533 48.9798 109.272 51.4706 112.585 51.4706C114.437 51.4706 115.689 50.8739 116.472 49.8101V51.0814H120.385V39.4057H116.472V40.6771C115.689 39.6133 114.437 39.0166 112.585 39.0166C109.272 39.0166 106.533 41.5074 106.533 45.2436ZM110.576 45.2436C110.576 43.4533 111.75 42.2598 113.55 42.2598C115.298 42.2598 116.472 43.4533 116.472 45.2436C116.472 47.0339 115.298 48.2274 113.55 48.2274C111.75 48.2274 110.576 47.0339 110.576 45.2436ZM125.349 46.1257C125.349 49.2912 127.489 51.0814 130.463 51.0814C132.706 51.0814 134.167 50.2252 135.263 49.4209L132.941 46.8003C132.262 47.2414 131.584 47.8122 130.749 47.8122C129.576 47.8122 129.262 46.463 129.262 44.6468V42.5193H134.48V39.4057H129.262V30.3247H125.349V39.4057H121.958V42.5193H125.349V46.1257ZM146.722 47.2414C146.044 47.6825 144.922 48.2533 143.565 48.2533C142.052 48.2533 141.035 47.5787 140.592 46.489H149.018C149.174 45.7106 149.174 44.7506 149.044 43.9463C148.652 41.2479 146.435 39.0166 142.887 39.0166C138.974 39.0166 136.313 41.5074 136.313 45.2436C136.313 49.0057 139.026 51.5225 143.409 51.5225C146.148 51.5225 147.948 50.6663 149.044 49.862L146.722 47.2414ZM140.409 44.4133C140.618 42.9344 141.531 42.0003 142.939 42.0003C144.348 42.0003 145.157 43.2976 145.157 44.4133H140.409Z" fill="white"/>
<path d="M8.59682 27.1305C8.59682 29.9992 10.5354 31.6216 13.2305 31.6216C15.2637 31.6216 16.5876 30.8457 17.5805 30.1168L15.4764 27.7419C14.8618 28.1416 14.2471 28.6589 13.4906 28.6589C12.4267 28.6589 12.143 27.4362 12.143 25.7903V23.8622H16.8713V21.0405H12.143V12.8108H8.59682V21.0405H5.52344V23.8622H8.59682V27.1305ZM22.5516 31.6216V26.7543C22.5516 24.5441 23.5918 23.627 24.8685 23.627C26.1924 23.627 27.138 24.5441 27.138 25.9549V31.6216H30.6842V26.143C30.6842 22.4749 28.5565 20.6878 25.7668 20.6878C24.2065 20.6878 23.1899 21.2287 22.5516 22.0987V3.40541H19.0054V31.6216H22.5516ZM41.7717 28.1416C41.157 28.5414 40.1404 29.0587 38.9111 29.0587C37.5399 29.0587 36.6179 28.4473 36.216 27.4597H43.8521C43.994 26.7543 43.994 25.8843 43.8758 25.1554C43.5211 22.71 41.5116 20.6878 38.2964 20.6878C34.7502 20.6878 32.3388 22.9451 32.3388 26.3311C32.3388 29.7405 34.7975 32.0214 38.7692 32.0214C41.2516 32.0214 42.8828 31.2454 43.8758 30.5165L41.7717 28.1416ZM36.0505 25.5787C36.2396 24.2384 37.0671 23.3919 38.3437 23.3919C39.6203 23.3919 40.3532 24.5676 40.3532 25.5787H36.0505Z" fill="white"/>
</svg>
