<svg width="150" height="60" viewBox="0 0 150 60" fill="none" xmlns="http://www.w3.org/2000/svg">
<path d="M24.8641 55.9459C38.5962 55.9459 49.7283 44.8741 49.7283 31.2162C49.7283 17.5584 38.5962 6.48648 24.8641 6.48648C11.1321 6.48648 0 17.5584 0 31.2162C0 44.8741 11.1321 55.9459 24.8641 55.9459Z" fill="#FF4F00"/>
<path d="M18.3424 51.0811C21.7191 51.0811 24.4565 48.3585 24.4565 45C24.4565 41.6415 21.7191 38.9189 18.3424 38.9189C14.9656 38.9189 12.2283 41.6415 12.2283 45C12.2283 48.3585 14.9656 51.0811 18.3424 51.0811Z" fill="black"/>
<path d="M35.3267 43.5052C34.0745 43.142 32.8224 43.0641 32.8224 42.4933C32.8224 42.1041 33.7354 42.0003 34.3876 42.0003C35.9267 42.0003 37.0224 42.5452 37.805 43.0901L39.8919 40.7809C38.7441 39.8209 37.3354 39.0166 34.518 39.0166C31.2571 39.0166 29.3006 40.3398 29.3006 42.9863C29.3006 44.7506 30.2398 46.3593 33.9702 47.1895C35.5093 47.5268 36.5006 47.449 36.5006 47.942C36.5006 48.4609 35.2745 48.4868 34.805 48.4868C32.9006 48.4868 31.6484 47.916 30.9702 47.5009L28.8311 49.862C30.6311 50.9517 31.9093 51.4706 34.6745 51.4706C38.0658 51.4706 40.0224 49.9657 40.0224 47.3971C40.0224 45.529 39.0311 44.569 35.3267 43.5052ZM43.6551 55.9074C46.5769 55.9074 48.429 54.0652 50.1247 50.4328L55.2899 39.4057H51.2464L47.803 46.8003L44.3334 39.4057H40.2899L45.7421 51.0036C45.116 51.9895 44.4117 52.6382 43.3682 52.6382C42.8464 52.6382 42.429 52.5344 42.1682 52.4047L40.4464 55.2068C41.2551 55.6479 42.4812 55.9074 43.6551 55.9074ZM59.9896 51.0814V45.7106C59.9896 43.2717 61.1375 42.2598 62.5462 42.2598C64.007 42.2598 65.0505 43.2717 65.0505 44.8284V51.0814H68.9636V45.036C68.9636 40.9884 66.6157 39.0166 63.5375 39.0166C61.8157 39.0166 60.694 39.6133 59.9896 40.5733V39.4057H56.0766V51.0814H59.9896ZM70.7892 45.2436C70.7892 48.9798 73.5284 51.4706 76.8414 51.4706C78.6936 51.4706 79.9458 50.8739 80.7284 49.8101V51.0814H84.6414V19.9463H80.7284V40.6771C79.9458 39.6133 78.6936 39.0166 76.8414 39.0166C73.5284 39.0166 70.7892 41.5074 70.7892 45.2436ZM74.8327 45.2436C74.8327 43.4533 76.0066 42.2598 77.8066 42.2598C79.5545 42.2598 80.7284 43.4533 80.7284 45.2436C80.7284 47.0339 79.5545 48.2274 77.8066 48.2274C76.0066 48.2274 74.8327 47.0339 74.8327 45.2436ZM86.8678 35.3063C86.8678 36.7074 87.8069 37.6414 89.2156 37.6414C90.6243 37.6414 91.5634 36.7074 91.5634 35.3063C91.5634 33.9052 90.6243 32.9712 89.2156 32.9712C87.8069 32.9712 86.8678 33.9052 86.8678 35.3063ZM87.2591 51.0814H91.1721V39.4057H87.2591V51.0814ZM93.2591 45.3474C93.2591 49.2393 96.1808 51.5225 100.355 51.5225C103.094 51.5225 104.894 50.6663 105.99 49.862L103.668 47.2674C102.99 47.7084 101.868 48.2793 100.511 48.2793C98.5286 48.2793 97.3026 47.1895 97.3026 45.3733C97.3026 43.5052 98.4243 42.2598 100.12 42.2598C101.346 42.2598 102.337 42.8306 103.016 43.2717L105.337 40.6771C104.242 39.8728 102.546 39.0166 99.9634 39.0166C96.546 39.0166 93.2591 41.4555 93.2591 45.3474ZM106.532 45.2436C106.532 48.9798 109.271 51.4706 112.584 51.4706C114.436 51.4706 115.688 50.8739 116.471 49.8101V51.0814H120.384V39.4057H116.471V40.6771C115.688 39.6133 114.436 39.0166 112.584 39.0166C109.271 39.0166 106.532 41.5074 106.532 45.2436ZM110.575 45.2436C110.575 43.4533 111.749 42.2598 113.549 42.2598C115.297 42.2598 116.471 43.4533 116.471 45.2436C116.471 47.0339 115.297 48.2274 113.549 48.2274C111.749 48.2274 110.575 47.0339 110.575 45.2436ZM125.348 46.1257C125.348 49.2912 127.488 51.0814 130.462 51.0814C132.705 51.0814 134.166 50.2252 135.262 49.4209L132.94 46.8003C132.262 47.2414 131.583 47.8122 130.748 47.8122C129.575 47.8122 129.262 46.463 129.262 44.6468V42.5193H134.479V39.4057H129.262V30.3247H125.348V39.4057H121.957V42.5193H125.348V46.1257ZM146.721 47.2414C146.043 47.6825 144.921 48.2533 143.565 48.2533C142.051 48.2533 141.034 47.5787 140.591 46.489H149.017C149.173 45.7106 149.173 44.7506 149.043 43.9463C148.651 41.2479 146.434 39.0166 142.886 39.0166C138.973 39.0166 136.312 41.5074 136.312 45.2436C136.312 49.0057 139.025 51.5225 143.408 51.5225C146.147 51.5225 147.947 50.6663 149.043 49.862L146.721 47.2414ZM140.408 44.4133C140.617 42.9344 141.53 42.0003 142.938 42.0003C144.347 42.0003 145.156 43.2976 145.156 44.4133H140.408Z" fill="white"/>
<path d="M8.59598 27.1305C8.59598 29.9992 10.5346 31.6216 13.2297 31.6216C15.2628 31.6216 16.5867 30.8457 17.5797 30.1168L15.4756 27.7419C14.8609 28.1416 14.2463 28.6589 13.4897 28.6589C12.4259 28.6589 12.1422 27.4362 12.1422 25.7903V23.8622H16.8704V21.0405H12.1422V12.8108H8.59598V21.0405H5.5226V23.8622H8.59598V27.1305ZM22.5508 31.6216V26.7543C22.5508 24.5441 23.591 23.627 24.8676 23.627C26.1916 23.627 27.1372 24.5441 27.1372 25.9549V31.6216H30.6834V26.143C30.6834 22.4749 28.5557 20.6878 25.766 20.6878C24.2057 20.6878 23.1891 21.2287 22.5508 22.0987V3.40541H19.0046V31.6216H22.5508ZM41.7708 28.1416C41.1562 28.5414 40.1396 29.0587 38.9102 29.0587C37.5391 29.0587 36.617 28.4473 36.2151 27.4597H43.8513C43.9931 26.7543 43.9931 25.8843 43.8749 25.1554C43.5203 22.71 41.5108 20.6878 38.2956 20.6878C34.7494 20.6878 32.338 22.9451 32.338 26.3311C32.338 29.7405 34.7967 32.0214 38.7684 32.0214C41.2507 32.0214 42.882 31.2454 43.8749 30.5165L41.7708 28.1416ZM36.0497 25.5787C36.2388 24.2384 37.0662 23.3919 38.3429 23.3919C39.6195 23.3919 40.3524 24.5676 40.3524 25.5787H36.0497Z" fill="white"/>
</svg>
