<svg width="40" height="40" viewBox="0 0 40 40" fill="none" xmlns="http://www.w3.org/2000/svg">
<path d="M35.5 8H5.5C4.83696 8 4.20107 8.26339 3.73223 8.73223C3.26339 9.20107 3 9.83696 3 10.5V30.5C3 31.163 3.26339 31.7989 3.73223 32.2678C4.20107 32.7366 4.83696 33 5.5 33H35.5C36.163 33 36.7989 32.7366 37.2678 32.2678C37.7366 31.7989 38 31.163 38 30.5V10.5C38 9.83696 37.7366 9.20107 37.2678 8.73223C36.7989 8.26339 36.163 8 35.5 8ZM32.75 10.5L20.5 18.975L8.25 10.5H32.75ZM5.5 30.5V11.6375L19.7875 21.525C19.9967 21.6702 20.2453 21.7479 20.5 21.7479C20.7547 21.7479 21.0033 21.6702 21.2125 21.525L35.5 11.6375V30.5H5.5Z" fill="#42D31C"/>
</svg>
