<svg width="40" height="40" viewBox="0 0 40 40" fill="none" xmlns="http://www.w3.org/2000/svg">
<g clip-path="url(#clip0_87_1322)">
<path d="M36.88 22.24L35.5573 22.064C35.5131 22.3873 35.5891 22.7156 35.7707 22.9867L36.8773 22.24H36.88ZM17.76 3.12001L17.0133 4.22668C17.2826 4.40794 17.6088 4.48474 17.9307 4.44267L17.7573 3.12001H17.76ZM3.12 17.76L4.44267 17.9333C4.48618 17.6109 4.41031 17.2837 4.22933 17.0133L3.12 17.76ZM22.24 36.88L22.984 35.7733C22.7136 35.5924 22.3864 35.5165 22.064 35.56L22.24 36.88ZM38.2 22.4187C38.304 21.6453 38.376 20.8373 38.376 20H35.7093C35.7093 20.6853 35.6507 21.368 35.5573 22.064L38.1973 22.4187H38.2ZM38.376 20C38.3753 15.1266 36.439 10.453 32.993 7.007C29.547 3.56098 24.8734 1.62472 20 1.62401V4.29067C24.1662 4.29138 28.1615 5.9467 31.1074 8.89261C34.0533 11.8385 35.7086 15.8339 35.7093 20H38.376ZM20 1.62401C19.1927 1.63005 18.3866 1.68795 17.5867 1.79734L17.9307 4.44267C18.6347 4.35201 19.3173 4.29067 20 4.29067V1.62401ZM18.5013 2.01334C16.5457 0.698338 14.242 -0.00272375 11.8853 7.95278e-06V2.66667C13.784 2.66667 15.5493 3.24267 17.0133 4.22668L18.5013 2.01334ZM11.8853 7.95278e-06C10.3244 -0.000342379 8.77875 0.306842 7.3366 0.904012C5.89445 1.50118 4.58408 2.37664 3.48035 3.48036C2.37663 4.58408 1.50117 5.89445 0.904004 7.33661C0.306834 8.77876 -0.000350032 10.3244 2.99317e-07 11.8853H2.66667C2.66632 10.6746 2.90453 9.47571 3.36768 8.3571C3.83084 7.23848 4.50987 6.22208 5.36597 5.36598C6.22207 4.50988 7.23847 3.83085 8.35709 3.36769C9.47571 2.90453 10.6746 2.66632 11.8853 2.66667V7.95278e-06ZM2.99317e-07 11.8853C2.99317e-07 14.3333 0.744 16.6107 2.01333 18.5013L4.22667 17.0133C3.20715 15.4977 2.6639 13.712 2.66667 11.8853H2.99317e-07ZM1.8 17.584C1.68817 18.3846 1.62938 19.1917 1.624 20H4.29067C4.29067 19.3147 4.34933 18.632 4.44267 17.9333L1.8 17.584ZM1.624 20C1.624 24.8736 3.56004 29.5476 7.00621 32.9938C10.4524 36.44 15.1264 38.376 20 38.376V35.7093C15.8336 35.7093 11.8379 34.0543 8.89182 31.1082C5.94575 28.1621 4.29067 24.1664 4.29067 20H1.624ZM20 38.376C20.8373 38.376 21.6427 38.304 22.416 38.2L22.064 35.56C21.38 35.6551 20.6905 35.705 20 35.7093V38.376ZM21.496 37.9867C23.3893 39.2587 25.6667 40 28.1147 40V37.3333C26.2872 37.3362 24.5006 36.7929 22.984 35.7733L21.496 37.9867ZM28.1147 40C31.2669 40 34.2899 38.7478 36.5189 36.5189C38.7478 34.2899 40 31.2669 40 28.1147H37.3333C37.3333 29.3253 37.0949 30.524 36.6316 31.6425C36.1683 32.761 35.4893 33.7772 34.6332 34.6333C33.7772 35.4893 32.761 36.1683 31.6425 36.6316C30.524 37.0949 29.3253 37.3333 28.1147 37.3333V40ZM40 28.1147C40 25.6667 39.2533 23.3893 37.984 21.4987L35.7707 22.9867C36.7573 24.4533 37.3333 26.2133 37.3333 28.1173H40V28.1147ZM18.6667 21.3333H21.3333V18.6667H18.6667V21.3333ZM26.5253 14.0693C26.0139 13.0469 25.2278 12.187 24.2552 11.586C23.2826 10.985 22.1619 10.6667 21.0187 10.6667V13.3333C22.3413 13.3333 23.5493 14.08 24.1387 15.264L26.5253 14.0693ZM24 24C24 24.7073 23.719 25.3855 23.219 25.8856C22.7189 26.3857 22.0406 26.6667 21.3333 26.6667V29.3333C22.7478 29.3333 24.1044 28.7714 25.1046 27.7712C26.1048 26.771 26.6667 25.4145 26.6667 24H24ZM21.3333 21.3333C22.0406 21.3333 22.7189 21.6143 23.219 22.1144C23.719 22.6145 24 23.2928 24 24H26.6667C26.6667 22.5855 26.1048 21.229 25.1046 20.2288C24.1044 19.2286 22.7478 18.6667 21.3333 18.6667V21.3333ZM18.9813 26.6667C17.6587 26.6667 16.448 25.92 15.8613 24.736L13.4747 25.9307C13.9861 26.9532 14.7722 27.813 15.7448 28.414C16.7174 29.015 17.8381 29.3333 18.9813 29.3333V26.6667ZM13.3333 16C13.3333 17.4145 13.8952 18.7711 14.8954 19.7712C15.8956 20.7714 17.2522 21.3333 18.6667 21.3333V18.6667C17.9594 18.6667 17.2811 18.3857 16.781 17.8856C16.281 17.3855 16 16.7073 16 16H13.3333ZM16 16C16 15.2928 16.281 14.6145 16.781 14.1144C17.2811 13.6143 17.9594 13.3333 18.6667 13.3333V10.6667C17.2522 10.6667 15.8956 11.2286 14.8954 12.2288C13.8952 13.229 13.3333 14.5855 13.3333 16H16ZM21.3333 26.6667H18.9813V29.3333H21.3333V26.6667ZM21.0187 10.6667H18.6667V13.3333H21.0187V10.6667Z" fill="#FF4F00"/>
</g>
<defs>
<clipPath id="clip0_87_1322">
<rect width="40" height="40" fill="white"/>
</clipPath>
</defs>
</svg>
