<svg width="184" height="80" viewBox="0 0 184 80" fill="none" xmlns="http://www.w3.org/2000/svg">
<path fill-rule="evenodd" clip-rule="evenodd" d="M151.883 33.8497C149.521 33.8866 147.244 34.7458 145.431 36.2836V35.5215C145.427 35.2048 145.3 34.9027 145.078 34.6803C144.856 34.4579 144.557 34.3331 144.245 34.3328H142.131V51.4223H145.431V39.8138C147.01 38.0178 149.22 36.9233 151.586 36.7666C152.157 36.7187 152.732 36.7877 153.277 36.9697C153.821 37.1518 154.324 37.443 154.755 37.8262C155.101 38.2283 155.363 38.6973 155.526 39.2049C155.688 39.7126 155.748 40.2483 155.701 40.7799V51.442H159V40.2957C158.982 34.6856 154.532 33.8497 151.883 33.8497ZM130.045 33.8497C124.373 33.8497 120.259 37.5275 120.259 42.5992C120.259 48.3579 124.002 51.9435 130.045 51.9435C136.07 51.9435 139.795 48.3579 139.795 42.5992C139.795 37.5275 135.698 33.8497 130.045 33.8497ZM136.496 42.915C136.496 46.6678 134.031 49.0082 130.045 49.0082C126.097 49.0082 123.557 46.6113 123.557 42.915C123.55 42.0686 123.716 41.2299 124.045 40.4522C124.374 39.6745 124.859 38.975 125.47 38.3982C126.08 37.8215 126.802 37.3802 127.59 37.1024C128.378 36.8247 129.214 36.7166 130.045 36.7851C130.876 36.7079 131.714 36.8101 132.504 37.0851C133.293 37.3601 134.017 37.8016 134.626 38.3806C135.235 38.9597 135.717 39.6631 136.04 40.4446C136.362 41.2262 136.518 42.0681 136.496 42.9151M110.267 41.1524C107.506 40.8181 105.114 40.539 105.114 39.0345C105.114 37.0653 107.802 36.7678 109.397 36.7678C110.592 36.6925 111.788 36.9058 112.887 37.3901C113.985 37.8745 114.955 38.6162 115.717 39.5545L115.976 39.8888L118.257 37.809L118.053 37.53C117.404 36.6192 115.44 33.8325 109.433 33.8325C105.764 33.8325 101.834 35.2449 101.834 39.1833C101.834 43.2138 106.116 43.7349 109.897 44.1984C112.826 44.5524 115.366 44.8671 115.366 46.6137C115.366 48.3776 112.826 48.991 110.657 48.991C109.308 49.0462 107.965 48.7772 106.738 48.2058C105.51 47.6344 104.433 46.7769 103.595 45.7029L103.335 45.3686L100.888 47.6168L101.129 47.9143C102.277 49.2622 103.715 50.3248 105.332 51.0203C106.949 51.7158 108.701 52.0258 110.454 51.9263C115.681 51.9263 118.683 49.9203 118.683 46.4282C118.647 42.1555 114.197 41.6171 110.267 41.1524M90.916 41.1524C88.1536 40.8181 85.763 40.5391 85.763 39.0346C85.763 37.0653 88.4504 36.7679 90.0453 36.7679C91.2408 36.6927 92.4368 36.906 93.5354 37.3904C94.634 37.8747 95.604 38.6164 96.3658 39.5545L96.6249 39.8888L98.9054 37.809L98.7019 37.53C98.0528 36.6192 96.0872 33.8326 90.0816 33.8326C86.4109 33.8326 82.4823 35.2449 82.4823 39.1833C82.4823 43.2138 86.7634 43.735 90.5455 44.1984C93.4738 44.5524 96.0134 44.8671 96.0134 46.6137C96.0134 48.3776 93.4738 48.9911 91.3048 48.9911C89.9558 49.0464 88.6129 48.7774 87.3857 48.206C86.1586 47.6346 85.0818 46.777 84.2432 45.703L83.9828 45.3686L81.5365 47.6168L81.7775 47.9143C82.926 49.2621 84.3637 50.3246 85.98 51.0202C87.5964 51.7157 89.3484 52.0257 91.1014 51.9264C96.3282 51.9264 99.3316 49.9203 99.3316 46.4282C99.3135 42.1555 94.8459 41.6171 90.916 41.1525M76.1037 49.0648C73.6392 49.0648 73.1572 48.2289 73.1572 46.7981V37.3235H79.6267V35.578C79.6222 35.2614 79.4953 34.9592 79.2732 34.7368C79.0512 34.5144 78.7518 34.3896 78.4398 34.3893H73.139V30.1548C73.1341 29.84 73.0064 29.5401 72.7839 29.3207C72.5614 29.1014 72.2623 28.9805 71.9522 28.9846H69.8389V34.4078H66.3912V37.3431H69.8584V47.0586C69.8584 48.4144 69.8584 52 75.5673 52C76.9664 51.9416 78.3599 51.7864 79.7382 51.5353L80.0712 51.48V48.4881L79.3857 48.6185C78.3109 48.885 77.2111 49.0346 76.105 49.0647L76.1037 49.0648ZM56.1045 33.8129C50.7287 33.8129 46.8182 37.584 46.8182 42.786C46.8182 48.0789 50.8595 51.9066 56.4194 51.9066C61.7953 51.9066 63.63 49.9375 65.2431 48.2092L65.8547 47.559L63.2037 45.6464L62.8888 46.0545C62.1929 47.0511 61.2516 47.8449 60.1589 48.3567C59.0661 48.8686 57.8603 49.0805 56.6616 48.9714C55.1363 49.0789 53.6263 48.6055 52.4264 47.6436C51.2266 46.6817 50.423 45.3004 50.1728 43.7694H66.0957L66.1151 43.1192C66.1718 41.9247 65.989 40.731 65.5779 39.6104C65.1668 38.4897 64.5358 37.4654 63.7233 36.5995C62.6962 35.6495 61.4946 34.9143 60.1873 34.4362C58.88 33.958 57.4926 33.7462 56.1045 33.8129ZM50.3399 40.834C51.155 38.1593 53.2319 36.7469 56.3262 36.7469C60.8313 36.7469 62.1283 39.6073 62.4819 40.834H50.3399ZM35.5107 33.8694C33.01 33.806 30.5677 34.6415 28.615 36.2283V29.1886C28.6108 28.8721 28.4841 28.57 28.2622 28.3476C28.0404 28.1252 27.7412 28.0003 27.4293 28H25.3161V47.9867L25 51.4604H26.9461C27.8181 51.4604 28.0216 50.8667 28.133 50.3283L28.4103 49.2688C30.4388 51.1183 33.1015 52.0858 35.8255 51.9632C37.0287 52.0466 38.2359 51.8786 39.3725 51.4695C40.5091 51.0605 41.551 50.4192 42.4337 49.5851C43.3163 48.7511 44.021 47.7422 44.5042 46.6207C44.9873 45.4992 45.2387 44.289 45.2427 43.065C45.2233 39.6282 43.1839 33.8694 35.5107 33.8694ZM41.9244 43.1203C41.9244 46.0556 39.644 49.0279 35.2878 49.0279C32.7335 48.8387 30.3438 47.6775 28.5968 45.7766C28.5592 45.2198 28.5592 40.4088 28.5968 39.7954C29.4483 38.8401 30.4902 38.0795 31.6534 37.5639C32.8165 37.0483 34.0744 36.7895 35.3435 36.8048C38.5322 36.8048 41.9244 38.458 41.9244 43.1203" fill="white"/>
</svg>
