<svg width="184" height="80" viewBox="0 0 184 80" fill="none" xmlns="http://www.w3.org/2000/svg">
<path d="M28.1468 46.8324C28.4719 46.9294 28.8053 46.997 29.143 47.0344C29.5199 47.0764 29.8989 47.0987 30.2782 47.1013C30.92 47.1268 31.5594 47.0097 32.1485 46.7589C32.7377 46.508 33.2613 46.1298 33.6804 45.6526C34.6486 44.3857 35.1129 42.8165 34.9863 41.2384C35.12 39.7171 34.6666 38.2021 33.7157 36.9927C33.3104 36.5479 32.8118 36.1943 32.254 35.956C31.6963 35.7178 31.0926 35.6004 30.4844 35.6121C30.0809 35.6085 29.6779 35.6421 29.2808 35.7125C28.895 35.7832 28.5157 35.8847 28.1468 36.0161L28.1468 46.8324ZM28.1468 30.2882C28.8009 30.1001 29.4669 29.9539 30.1405 29.8507C30.9372 29.7373 31.7412 29.6809 32.5463 29.6823C34.0709 29.662 35.5824 29.9607 36.98 30.5584C38.2376 31.1075 39.3625 31.9112 40.2808 32.9167C41.1872 33.9667 41.876 35.1799 42.3087 36.4883C42.7835 37.9008 43.0154 39.3808 42.9952 40.8679C43.0442 42.7097 42.7171 44.5425 42.0331 46.2587C41.4345 47.6952 40.5188 48.9839 39.3517 50.0322C38.1576 51.0396 36.7658 51.7967 35.2619 52.2567C33.59 52.7516 31.8527 53.0013 30.1063 52.9978C28.2466 53.0225 26.3899 52.8416 24.5715 52.4587C23.0133 52.1453 21.4842 51.7059 20 51.1451V22H28.1468L28.1468 30.2882Z" fill="white"/>
<path d="M59.1723 38.807C59.1436 37.7901 58.7505 36.8136 58.0589 36.0414C57.7687 35.7211 57.4108 35.4636 57.0089 35.2857C56.6069 35.1078 56.1702 35.0137 55.7274 35.0096C55.2631 35.0056 54.8031 35.0954 54.3775 35.2732C53.952 35.451 53.5703 35.7127 53.2576 36.0414C52.5268 36.8019 52.0854 37.7764 52.0048 38.807H59.1723ZM51.9703 43.0382C51.9555 43.6076 52.0647 44.1737 52.2909 44.7006C52.517 45.2274 52.8553 45.7034 53.284 46.0983C53.7127 46.4931 54.2226 46.7982 54.7812 46.9941C55.3397 47.19 55.9348 47.2725 56.5284 47.2362C57.4526 47.2626 58.3702 47.0799 59.2068 46.7032C60.0008 46.2851 60.6988 45.7184 61.2594 45.0367L66.3052 48.8353C65.8081 49.4439 65.2353 49.992 64.5994 50.4675C63.9073 50.9844 63.1611 51.4311 62.3727 51.8007C61.4572 52.2239 60.4861 52.5264 59.4858 52.7001C58.2805 52.9094 57.0573 53.0095 55.8324 52.9991C54.2682 53.0168 52.7132 52.7687 51.2396 52.2664C49.8482 51.8091 48.5695 51.0834 47.4825 50.1342C46.3701 49.1412 45.5024 47.9236 44.9423 46.5696C44.2844 44.9806 43.965 43.2816 44.003 41.5726C43.9779 39.8999 44.2849 38.2378 44.9078 36.6749C45.4589 35.3132 46.3 34.0763 47.3775 33.0429C48.4276 32.049 49.6841 31.2775 51.0655 30.7784C52.5602 30.2618 54.1384 30.0021 55.7274 30.0114C57.2514 29.9419 58.7728 30.1921 60.1853 30.7445C61.5977 31.297 62.867 32.1383 63.9044 33.2096C65.9225 35.3417 66.9654 38.6073 67 43.0382H51.9703Z" fill="white"/>
<path d="M66 36.4329V30.7513H69.2542V25H77.4572V30.7513H80.9533L82.9967 36.4329H77.4928V45.5925C77.4635 46.2103 77.5454 46.8284 77.7347 47.4175C77.8252 47.6371 77.9865 47.8206 78.1932 47.9391C78.3999 48.0576 78.6404 48.1045 78.8768 48.0723C79.4405 48.066 79.9959 47.9368 80.5039 47.6936C80.9927 47.4664 81.4565 47.1892 81.8878 46.8666L84 51.825C82.9801 52.5481 81.8451 53.0953 80.6427 53.4437C79.2823 53.8363 77.8701 54.0221 76.454 53.9946C75.2976 54.035 74.1445 53.8478 73.061 53.4437C72.202 53.1404 71.4381 52.6181 70.8457 51.9289C70.2679 51.2373 69.8541 50.4252 69.6349 49.5529C69.3867 48.5272 69.2703 47.4743 69.2885 46.4195V36.4329H66Z" fill="white"/>
<path d="M90.1407 53L80 25H87.9255L93.8088 42.4948L97.3383 30.6399H102.702L106.233 42.4948L109.624 30.6399H118L109.866 53H103.568L99.9696 41.2792L96.4044 53H90.1407Z" fill="white"/>
<path d="M130.028 42.6268L128.619 42.7276C128.134 42.7612 127.652 42.8282 127.176 42.9282C126.391 42.9976 125.658 43.3426 125.114 43.899C124.71 44.3667 124.49 44.9597 124.495 45.5712C124.489 45.8658 124.547 46.1583 124.665 46.4294C124.784 46.7005 124.96 46.944 125.183 47.1437C125.709 47.5746 126.386 47.7903 127.072 47.7454C127.622 47.7455 128.168 47.6552 128.688 47.4784C129.17 47.2993 129.621 47.0513 130.028 46.7425V42.6268ZM131.196 52.6634L130.543 50.9236C129.814 51.569 128.962 52.069 128.035 52.3952C126.859 52.8176 125.611 53.0221 124.357 52.9981C123.364 53.0037 122.376 52.8452 121.437 52.5293C120.578 52.2517 119.788 51.8016 119.119 51.2081C118.451 50.6146 117.917 49.891 117.554 49.0841C117.165 48.1968 116.977 47.2381 117.004 46.2737C116.969 45.3328 117.162 44.3971 117.568 43.5426C117.974 42.6881 118.582 41.9388 119.341 41.3557C120.11 40.7634 120.967 40.2895 121.884 39.9505C122.867 39.5728 123.894 39.3145 124.943 39.1815C125.938 39.0142 126.866 38.9145 127.726 38.8468C128.585 38.7804 129.375 38.7127 130.063 38.6796V38.1443C130.089 37.7646 130.022 37.3842 129.867 37.035C129.711 36.6858 129.472 36.378 129.169 36.1375C128.562 35.7057 127.824 35.482 127.072 35.5013C126.198 35.4986 125.333 35.6694 124.529 36.0033C123.701 36.3546 122.926 36.8163 122.228 37.3752L118.551 33.428C119.79 32.3812 121.194 31.5342 122.708 30.9191C124.476 30.2763 126.355 29.9693 128.241 30.0148C130.793 29.8836 133.311 30.6296 135.355 32.1225C137.142 33.5277 138 35.7018 138 38.6795V52.6634H131.196Z" fill="white"/>
<path d="M139.84 55.1175C140.323 55.3877 140.833 55.6057 141.361 55.7682C141.876 55.9322 142.411 56.0241 142.95 56.0413C143.431 56.0654 143.91 55.9589 144.337 55.7329C144.738 55.4432 145.045 55.038 145.216 54.57L146.501 51.6612L137 30H145.723L150.254 43.2082L154.75 30H163L151.809 56.828C151.196 58.4901 150.055 59.8986 148.564 60.8317C147.094 61.6437 145.437 62.0455 143.762 61.9959C142.681 61.9996 141.603 61.8733 140.55 61.6196C139.591 61.3772 138.652 61.0569 137.744 60.6617L139.84 55.1175Z" fill="white"/>
</svg>
