<svg width="184" height="80" viewBox="0 0 184 80" fill="none" xmlns="http://www.w3.org/2000/svg">
<path fill-rule="evenodd" clip-rule="evenodd" d="M69.7877 48.5969C69.7877 49.0224 69.5273 49.1356 69.5273 49.9335C69.5273 51.1279 70.2842 52.3957 72.7196 52.3957C74.2952 52.3957 75.5317 51.6581 75.5317 50.3336C75.5317 48.5451 73.715 47.9376 71.9118 46.9228C70.8144 46.4342 69.8899 45.6286 69.2582 44.6105C68.6266 43.5925 68.3169 42.409 68.3695 41.2137C68.3695 37.3654 71.8452 35.0478 76.6676 35.0466C78.3772 34.9602 80.0708 35.4105 81.5093 36.3338C82.1175 35.1554 83.0469 34.1715 84.1912 33.4947C85.3354 32.8179 86.6481 32.4757 87.9788 32.5073C92.4488 32.5073 94.4058 35.3492 94.4058 37.7054C94.4058 41.0354 90.8115 46.6577 90.8115 49.6985C90.8092 49.8421 90.8365 49.9846 90.8916 50.1174C90.9467 50.2502 91.0284 50.3703 91.1318 50.4705C91.2352 50.5707 91.3581 50.6489 91.493 50.7001C91.6278 50.7514 91.7717 50.7747 91.9159 50.7687C95.2039 50.7687 98.7475 42.2069 98.9352 36.1314C98.9388 35.9089 99.0157 35.6939 99.1539 35.5191C99.2922 35.3443 99.4842 35.2194 99.7005 35.1636C100.067 35.078 100.443 35.0379 100.82 35.0442C101.318 35.0012 101.82 35.0656 102.291 35.233C102.762 35.4005 103.191 35.667 103.55 36.0145C103.908 36.3621 104.187 36.7823 104.367 37.2468C104.547 37.7112 104.625 38.2088 104.594 38.7058C104.557 43.4567 101.226 47.6991 101.226 50.0083C101.243 50.1927 101.296 50.372 101.383 50.5353C101.471 50.6986 101.591 50.8427 101.736 50.9587C101.881 51.0746 102.048 51.1602 102.227 51.2102C102.406 51.2602 102.593 51.2737 102.778 51.2496C106.221 51.2496 108.883 43.1831 108.883 36.8305C108.883 36.1724 109.563 35.6529 111.15 35.6529C113.24 35.6529 114.69 36.8666 114.563 40.0713C114.734 39.8158 117.464 35.0468 121.644 35.0468C122.17 34.9968 122.702 35.0641 123.199 35.2439C123.696 35.4237 124.147 35.7114 124.519 36.0862C124.891 36.461 125.174 36.9135 125.348 37.4108C125.522 37.9081 125.583 38.4377 125.526 38.9613C126.136 37.7745 127.065 36.7798 128.21 36.0884C129.355 35.3971 130.671 35.0365 132.01 35.0468C132.589 34.998 133.172 35.078 133.717 35.281C134.261 35.484 134.753 35.8049 135.157 36.2206C135.562 36.6362 135.868 37.1362 136.054 37.6842C136.241 38.2322 136.302 38.8146 136.234 39.3891C136.234 43.6206 132.394 48.2258 132.394 50.3192C132.386 50.4519 132.407 50.5847 132.457 50.7081C132.507 50.8315 132.583 50.9423 132.681 51.0326C132.78 51.1228 132.897 51.1902 133.024 51.2298C133.152 51.2695 133.286 51.2803 133.419 51.2617C134.358 51.1532 135.249 50.7879 135.992 50.2063C136.736 49.6246 137.303 48.8495 137.631 47.9667C138.194 46.4311 139.906 42.0117 143.396 42.0117C144.592 42.0117 144.87 42.5094 144.87 42.9963C144.87 44.0292 143.772 44.3329 143.772 48.0173C143.772 50.7917 144.629 51.9933 145.992 51.9933C147.901 51.9933 150.797 47.9847 150.797 43.0012C150.838 42.4372 150.754 41.8711 150.553 41.3424C150.351 40.8137 150.036 40.3351 149.63 39.94C149.223 39.5448 148.735 39.2426 148.199 39.0545C147.663 38.8663 147.093 38.7967 146.527 38.8504C144.25 38.8504 143.677 39.5495 142.757 39.5495C142.634 39.5512 142.512 39.5284 142.399 39.4823C142.285 39.4362 142.182 39.3678 142.095 39.2813C142.009 39.1947 141.941 39.0916 141.895 38.9783C141.849 38.8649 141.827 38.7436 141.829 38.6215C141.829 37.1896 145.392 35.0468 149.446 35.0468C155.374 35.0468 157 40.2786 157 43.2784C157 50.9135 150.583 56.9793 145.038 56.9793C143.744 57.0825 142.448 56.7981 141.317 56.1626C140.186 55.5271 139.271 54.5696 138.691 53.413L138.689 53.4179C137.664 54.5085 136.431 55.3851 135.061 55.9965C133.692 56.608 132.214 56.942 130.714 56.9793C127.643 56.9793 125.894 55.58 125.894 52.7996C125.894 49.2478 129.581 43.5797 129.581 41.8695C129.581 41.4417 129.495 41.2283 129.11 41.2283C125.903 41.2283 121.762 49.7553 121.14 55.3294C121.092 55.8058 120.86 56.2451 120.492 56.5533C120.124 56.8616 119.649 57.0144 119.169 56.9793C118.662 57.0079 118.154 56.9292 117.68 56.7483C117.205 56.5674 116.775 56.2884 116.416 55.9298C116.058 55.5712 115.78 55.1411 115.601 54.6678C115.422 54.1945 115.346 53.6888 115.378 53.1841C115.378 49.5913 119.213 43.5363 119.212 41.8683C119.212 41.4838 119.083 41.2283 118.658 41.2283C116.784 41.2283 114.714 44.2269 113.204 47.8293C112.186 50.2266 111.486 52.7459 111.123 55.3233C111.076 55.8018 110.843 56.2429 110.473 56.5525C110.104 56.8622 109.627 57.0158 109.146 56.9805C108.371 57.0136 107.606 56.8038 106.957 56.3805C106.309 55.9573 105.811 55.3422 105.533 54.6219C104.187 55.9746 102.403 56.8097 100.497 56.9793C96.9975 56.9793 95.7417 55.3113 95.6109 53.5155C94.916 54.6022 93.9511 55.492 92.8095 56.0988C91.6678 56.7056 90.3881 57.0089 89.0942 56.9793C86.8392 56.9793 84.6642 55.1196 84.6642 51.187C84.6642 46.7675 87.1965 43.4845 88.1387 39.4687C88.4221 38.1201 87.3224 37.3487 86.0884 37.3487C84.5104 37.3487 83.7317 38.4479 83.7317 40.2328C83.7697 40.7064 83.7014 41.1824 83.5317 41.6265C83.3621 42.0705 83.0954 42.4715 82.7509 42.8003C82.4065 43.1292 81.9928 43.3777 81.54 43.5279C81.0871 43.6782 80.6063 43.7263 80.1325 43.6689C80.0105 43.6695 79.8895 43.6458 79.7768 43.5992C79.6641 43.5526 79.5619 43.4841 79.4761 43.3977C79.3898 43.3111 79.3216 43.2084 79.2752 43.0955C79.2289 42.9825 79.2054 42.8616 79.206 42.7397C79.206 42.4914 79.2872 42.2359 79.2872 41.5995C79.2802 41.244 79.1986 40.8939 79.0476 40.5717C78.8966 40.2494 78.6796 39.9622 78.4104 39.7284C78.1413 39.4946 77.8259 39.3194 77.4847 39.214C77.1435 39.1087 76.7839 39.0755 76.429 39.1167C74.9781 39.1167 74.2963 39.847 74.2963 40.9595C74.2963 42.8577 76.2438 43.5109 78.1499 44.463C79.981 45.3754 81.7734 46.5613 81.7734 49.3791C81.7734 54.2554 77.5129 56.9792 72.2254 56.9792C69.5296 56.9792 67.564 56.385 66.4391 55.0761C65.1333 56.3153 63.393 56.9981 61.5889 56.9792C61.1009 57.0276 60.6081 56.9781 60.1396 56.8337C59.6712 56.6892 59.2367 56.4527 58.8617 56.1382C58.4867 55.8237 58.1789 55.4375 57.9565 55.0025C57.7341 54.5675 57.6017 54.0926 57.567 53.6058C57.567 53.6058 55.7407 56.9792 50.2365 56.9792C49.0563 57.0709 47.8789 56.7702 46.8891 56.1241C45.8993 55.478 45.153 54.5231 44.7674 53.4093C41.9134 55.8358 38.2491 57.1095 34.4977 56.9792C26.9165 56.9792 23 52.315 23 45.1524C23 37.5077 29.582 25 39.8941 25C45.4286 25 48.2637 28.2697 48.2637 31.9227C48.268 32.8429 48.0899 33.755 47.7397 34.6067C47.3894 35.4584 46.8738 36.233 46.2224 36.8862C45.571 37.5394 44.7966 38.0583 43.9435 38.4133C43.0903 38.7684 42.1752 38.9525 41.2505 38.9551C38.9277 38.9551 38.2906 38.1549 38.2906 37.5944C38.2906 36.5387 40.9429 35.8854 40.9429 32.9122C40.9762 32.5832 40.9411 32.2509 40.8397 31.9361C40.7384 31.6212 40.573 31.3304 40.3539 31.0819C40.1347 30.8334 39.8665 30.6325 39.566 30.4916C39.2654 30.3507 38.9389 30.2729 38.6068 30.2631C34.8137 30.2631 29.7516 37.9343 29.7516 44.1267C29.7516 49.1428 32.0308 51.822 36.445 51.822C39.1032 51.822 42.8539 49.8527 43.8106 47.0288C45.2687 42.7202 48.725 35.043 58.2402 35.043C63.0081 35.043 64.6745 37.7463 64.6745 38.9769C64.6746 39.2221 64.577 39.4573 64.4031 39.631C64.2292 39.8048 63.9932 39.9028 63.7468 39.9037C62.3235 39.415 60.8349 39.1404 59.3302 39.089C58.1153 39.0608 56.9072 39.2756 55.7772 39.7206C54.6473 40.1656 53.6186 40.8318 52.7521 41.6796C51.8856 42.5274 51.1989 43.5397 50.7326 44.6565C50.2664 45.7733 50.0301 46.9718 50.0378 48.1811C50.0378 50.4156 50.854 51.4942 52.2043 51.4942C54.9498 51.4942 55.3604 49.0477 56.4539 45.4947C56.664 44.5205 57.1996 43.6459 57.9733 43.0135C58.747 42.3812 59.7132 42.0284 60.7143 42.0128C62.9378 42.0128 62.922 42.9963 62.9196 43.1529C62.8766 43.5575 62.7474 43.9482 62.5406 44.2991C61.8568 45.8045 61.4684 47.4261 61.3961 49.0766C61.3961 50.0203 61.7655 51.4677 63.4318 51.4677C65.7002 51.4677 65.734 47.6677 68.8597 47.6677C68.9825 47.6662 69.1043 47.6893 69.2179 47.7356C69.3315 47.7818 69.4346 47.8503 69.5211 47.937C69.6076 48.0236 69.6758 48.1267 69.7215 48.2401C69.7673 48.3534 69.7897 48.4747 69.7875 48.5969" fill="white"/>
</svg>
