<svg width="184" height="80" viewBox="0 0 184 80" fill="none" xmlns="http://www.w3.org/2000/svg">
<path d="M78.6472 48.9752C78.6472 48.9752 83.2475 35.5247 84.4647 32.7502C85.6818 29.9744 85.7302 29.9744 87.6532 29.9993C89.8204 30.0241 90.8672 31.525 90.0875 33.3498C89.3574 35.0493 88.0919 37.5246 82.6637 39.2998L82.5416 40.2246L86.3393 48.9752H93.0574C93.0574 48.9752 92.1568 47.5005 90.9638 45.3255C89.8919 43.3559 88.9251 41.3277 88.0678 39.2502C91.2563 38.3005 95.0299 36.9251 95.8821 33.2753C96.9288 28.7753 90.7209 29.0248 88.6033 29H78.5746L78.1601 30.2501C79.6939 30.5492 79.3772 31.4492 78.7197 33.3994C76.9671 38.5747 76.0666 40.8503 74.7285 44.3746C73.3892 47.9001 73 49 73 49H78.6471L78.6472 48.9752Z" fill="white"/>
<path d="M66.6743 38.7787C64.2509 47.2631 59.4769 48.302 57.621 48.2265C53.8614 48.0493 52.3028 45.0093 53.6636 40.2225C56.0881 31.7368 60.861 30.698 62.7169 30.7747C66.4765 30.9521 68.0351 33.9906 66.6743 38.7787ZM62.5438 29.0013C58.8332 29.0516 49.4582 30.166 47.2327 40.9055C45.9712 46.96 49.904 50.0753 57.4478 49.9986C61.1583 49.9483 70.5333 48.834 72.7589 38.0945C74.0461 32.0412 70.1133 28.9259 62.5438 29.0013Z" fill="white"/>
<path d="M128.205 29L127.799 30.2116C128.777 30.4829 129.255 31.2255 128.706 33.2522C127.918 36.1688 123 49 123 49C123 49 138.71 49 138.854 48.9742L140 45.4144H130.402C131.714 41.9786 135.941 29 135.941 29H128.205Z" fill="white"/>
<path d="M112.872 40.6941H107.24C107.166 40.6941 107.067 40.5694 107.142 40.4953C107.289 40.2471 110.377 35.9194 111.81 34.0551C112.131 36.2303 112.559 38.388 113.094 40.5201C113.119 40.6201 113.021 40.6941 112.872 40.6941M109.364 30.8472C108.524 31.8165 96 48.9741 96 48.9741H101.459L106.177 42.5598H113.465L115.145 49H121C121 49 116.726 31.6424 116.257 30.0768C115.787 28.5099 111.34 28.5593 109.364 30.8472" fill="white"/>
<path d="M32.2974 46.9541C28.7047 46.7579 27.9615 43.8859 28.9274 39.5402C30.6376 31.7826 35.2712 31.4388 37.0552 31.5619C39.1358 31.6838 39.6562 32.5932 40.1521 34.1145H46C44.7856 31.4144 41.9115 28.8363 35.8654 29.0081C33.9572 29.0569 23.7242 30.1126 22.0889 39.4171C21.5685 42.4121 23.104 49.2616 32.8424 48.9923C34.2795 48.9423 41.044 48.746 43.4482 44.0578H37.2533C36.8063 44.9699 36.0977 45.7312 35.2162 46.2464C34.3347 46.7615 33.3194 47.0077 32.2974 46.9541Z" fill="white"/>
<path d="M142 43C143.813 41.5542 146.691 39.6096 149.882 40.2075C151.646 40.74 153.524 40.7142 155.274 40.1332C153.819 39.7203 152.573 38.7479 151.792 37.4162C153.287 36.9939 154.707 36.3292 156 35.4469C154.854 34.4851 153.415 33.9729 151.937 34.0011C148.504 33.9764 146.593 35.1968 143.934 36.9669L142 43Z" fill="white"/>
<path d="M161 30C160.154 30.8392 158.654 32.2056 155.391 30.9106C154.313 30.5165 153.158 30.3764 152.017 30.5012C150.875 30.626 149.779 31.0123 148.814 31.6295L147 37C149.007 35.8014 151.256 34.7218 153.65 35.6336C154.523 36.0835 155.503 36.292 156.486 36.2371C157.468 36.1822 158.418 35.866 159.235 35.3217L161 30Z" fill="white"/>
<path d="M161 30C160.154 30.8392 158.654 32.2056 155.391 30.9106C154.313 30.5165 153.158 30.3764 152.017 30.5012C150.875 30.626 149.779 31.0123 148.814 31.6295L147 37C149.007 35.8014 151.256 34.7218 153.65 35.6336C154.523 36.0835 155.503 36.292 156.486 36.2371C157.468 36.1822 158.418 35.866 159.235 35.3217L161 30Z" stroke="white" stroke-width="0.403" stroke-linecap="round" stroke-linejoin="round"/>
<path d="M144 35C146.767 33.199 148.754 31.9559 152.327 31.9811C155.396 32.0076 157.358 31.6524 160 28C158.969 28.6687 157.797 29.0837 156.578 29.2114C155.358 29.3392 154.126 29.1762 152.981 28.7355C151.795 28.349 150.54 28.2258 149.303 28.3745C148.065 28.5232 146.874 28.9403 145.811 29.597L144 35Z" fill="white"/>
<path d="M144 35C146.767 33.199 148.754 31.9559 152.327 31.9811C155.396 32.0076 157.358 31.6524 160 28C158.969 28.6687 157.797 29.0837 156.578 29.2114C155.358 29.3392 154.126 29.1762 152.981 28.7355C151.795 28.349 150.54 28.2258 149.303 28.3745C148.065 28.5232 146.874 28.9403 145.811 29.597L144 35Z" stroke="white" stroke-width="0.403" stroke-linecap="round" stroke-linejoin="round"/>
</svg>
