<svg width="184" height="80" viewBox="0 0 184 80" fill="none" xmlns="http://www.w3.org/2000/svg">
<path d="M152.068 40.8235C152.599 40.819 153.123 40.7058 153.607 40.4911C154.092 40.2763 154.526 39.9648 154.883 39.576C155.641 38.8065 156.06 37.7712 156.048 36.6967C156.055 36.2328 155.956 35.7734 155.757 35.3529C155.559 34.8517 155.262 34.3948 154.883 34.009C154.521 33.6265 154.086 33.3192 153.602 33.105C153.119 32.8908 152.597 32.774 152.068 32.7614H145.756V36.9846C145.782 37.2134 145.714 37.4428 145.569 37.6226C145.423 37.8024 145.212 37.9181 144.981 37.9443C144.495 37.9443 144.203 37.5602 144.203 36.9846V31.8968C144.203 31.4176 144.397 30.9371 144.883 30.9371H152.068C152.867 30.9581 153.657 31.1208 154.398 31.4176C155.108 31.7204 155.739 32.1801 156.242 32.7614C156.783 33.3152 157.212 33.9669 157.504 34.6809C157.803 35.347 157.968 36.0644 157.99 36.793C157.988 37.6476 157.824 38.4941 157.504 39.2881C157.233 39.9854 156.801 40.6103 156.242 41.1125C155.717 41.6448 155.09 42.0688 154.398 42.36C153.657 42.6563 152.867 42.8187 152.068 42.8393H144.883C144.626 42.839 144.379 42.7378 144.197 42.5579C144.015 42.378 143.913 42.134 143.912 41.8795C143.895 41.7449 143.907 41.6081 143.948 41.4786C143.989 41.3491 144.058 41.23 144.151 41.1295C144.243 41.029 144.356 40.9496 144.483 40.8968C144.609 40.844 144.746 40.8189 144.883 40.8235L152.068 40.8235ZM151.097 27.0981H144.981C144.729 27.1148 144.491 27.2213 144.313 27.3978C144.134 27.5743 144.027 27.8088 144.01 28.0578C144.007 28.1845 144.031 28.3104 144.079 28.4279C144.127 28.5455 144.198 28.6522 144.289 28.7418C144.379 28.8314 144.487 28.9021 144.606 28.9494C144.725 28.9968 144.852 29.02 144.981 29.0176H151.193C152.926 28.882 154.658 29.2892 156.143 30.1813C157.628 31.0734 158.792 32.4052 159.469 33.9878C160.146 35.5704 160.301 37.3235 159.914 38.9985C159.527 40.6735 158.616 42.1854 157.31 43.3198C156.913 43.6691 156.492 43.9899 156.048 44.2796C155.885 44.3963 155.767 44.5647 155.714 44.7569C155.661 44.949 155.677 45.1532 155.757 45.3356L157.892 50.327C157.979 50.4865 158.105 50.6224 158.257 50.7228C158.409 50.8231 158.585 50.8849 158.767 50.9027C158.904 50.9168 159.041 50.8827 159.155 50.8063C159.362 50.698 159.531 50.5311 159.64 50.327C159.64 50.2307 159.64 50.2307 159.738 50.1344V50.0393C159.752 49.9039 159.718 49.7678 159.64 49.6551L157.796 45.5271C158.153 45.3151 158.479 45.0572 158.767 44.7601C165.562 37.9442 160.999 27.0981 151.097 27.0981M142.262 28.0578V49.9428C142.266 50.1826 142.178 50.415 142.016 50.5931C141.854 50.7713 141.629 50.8819 141.387 50.9026C141.258 50.9103 141.128 50.8907 141.007 50.8452C140.886 50.7997 140.775 50.7293 140.684 50.6386C140.592 50.5479 140.521 50.439 140.475 50.319C140.429 50.1991 140.409 50.0709 140.417 49.9428V27.9614C140.442 27.7243 140.556 27.5049 140.735 27.3455C140.914 27.1861 141.147 27.0979 141.388 27.0979C141.629 27.0979 141.862 27.1861 142.041 27.3455C142.221 27.5049 142.334 27.7243 142.359 27.9614L142.262 28.0578ZM92.2622 28.0578V45.2393C92.251 45.4745 92.1577 45.6986 91.9983 45.8736C91.8389 46.0485 91.6232 46.1636 91.3878 46.1991H91.2915C91.082 46.1948 90.8786 46.1281 90.7081 46.0076L72.068 30.0736V49.9428C72.0675 50.1972 71.9651 50.4411 71.7831 50.621C71.6012 50.8009 71.3546 50.9021 71.0972 50.9026C70.9677 50.9103 70.838 50.8908 70.7167 50.8453C70.5954 50.7997 70.4853 50.7293 70.3935 50.6386C70.3018 50.5479 70.2305 50.439 70.1845 50.319C70.1384 50.1991 70.1187 50.0709 70.1264 49.9428V28.0578C70.1227 27.9316 70.1467 27.8061 70.197 27.69C70.2473 27.574 70.3225 27.4702 70.4175 27.3858C70.5747 27.212 70.7938 27.1049 71.0289 27.087C71.264 27.069 71.4971 27.1416 71.6794 27.2895L90.3207 43.2234V28.0578C90.321 27.8033 90.4234 27.5593 90.6053 27.3794C90.7873 27.1995 91.0341 27.0983 91.2915 27.098C91.5433 27.1149 91.7804 27.2215 91.9589 27.3979C92.1373 27.5744 92.2451 27.8088 92.2622 28.0578M88.3781 28.0578V37.6565C88.3778 37.9109 88.2755 38.1549 88.0935 38.3348C87.9115 38.5148 87.6647 38.616 87.4073 38.6162C87.2778 38.6239 87.1482 38.6044 87.0269 38.5589C86.9056 38.5133 86.7954 38.4429 86.7037 38.3522C86.6119 38.2615 86.5407 38.1526 86.4946 38.0327C86.4486 37.9127 86.4288 37.7845 86.4366 37.6565V28.0578C86.438 27.8041 86.5408 27.5613 86.7227 27.3824C86.9046 27.2035 87.1508 27.1031 87.4073 27.1031C87.6639 27.1031 87.91 27.2035 88.0919 27.3824C88.2738 27.5613 88.3767 27.8041 88.3781 28.0578M91.4851 49.2709C91.5809 49.3528 91.6595 49.4525 91.7163 49.5644C91.7731 49.6763 91.8071 49.7982 91.8162 49.9231C91.8254 50.048 91.8095 50.1734 91.7696 50.2923C91.7296 50.4111 91.6664 50.521 91.5835 50.6156C91.5005 50.7103 91.3996 50.7878 91.2863 50.8438C91.173 50.8999 91.0497 50.9333 90.9234 50.9421C90.7971 50.951 90.6702 50.9352 90.5501 50.8955C90.4299 50.8559 90.3189 50.7932 90.2233 50.7111L75.7572 38.3284V49.9428C75.7579 50.0693 75.7333 50.1947 75.6848 50.3117C75.6364 50.4287 75.565 50.5351 75.4748 50.6248C75.3845 50.7144 75.2773 50.7856 75.1592 50.8341C75.0411 50.8827 74.9144 50.9077 74.7865 50.9077C74.6586 50.9077 74.532 50.8827 74.4138 50.8341C74.2957 50.7856 74.1885 50.7144 74.0983 50.6248C74.0081 50.5351 73.9367 50.4287 73.8882 50.3117C73.8397 50.1947 73.8151 50.0693 73.8158 49.9428V36.3126C73.827 36.0611 73.9304 35.8222 74.1068 35.6406C74.1882 35.5439 74.2885 35.4643 74.4017 35.4068C74.5149 35.3493 74.6388 35.3151 74.7657 35.3061C74.8927 35.2971 75.0202 35.3135 75.1405 35.3545C75.2609 35.3954 75.3717 35.46 75.4661 35.5443L91.4851 49.2709ZM26.8257 32.8565V46.199C26.8233 46.4522 26.7199 46.6942 26.538 46.8724C26.3561 47.0506 26.1104 47.1506 25.8543 47.1506C25.5982 47.1506 25.3525 47.0506 25.1706 46.8724C24.9887 46.6942 24.8853 46.4522 24.8829 46.199V31.8967C24.8753 31.7466 24.9071 31.5971 24.9752 31.4627C25.0433 31.3283 25.1453 31.2136 25.2715 31.1297C25.4488 31.0229 25.6483 30.957 25.8549 30.9371H30.6112C31.6899 30.9129 32.7629 31.1004 33.7679 31.4887C34.773 31.8769 35.6902 32.4582 36.4667 33.199C37.2432 33.9399 37.8635 34.8255 38.2917 35.8047C38.72 36.7839 38.9477 37.8373 38.9617 38.904C38.9454 41.0886 38.0603 43.179 36.4978 44.7236C34.9352 46.2682 32.8207 47.143 30.6112 47.1588H29.3494C29.0928 47.1575 28.8472 47.0558 28.6663 46.8759C28.4853 46.6961 28.3838 46.4528 28.3838 46.1991C28.3838 45.9454 28.4853 45.7021 28.6663 45.5222C28.8472 45.3424 29.0928 45.2407 29.3494 45.2394H30.515C32.1944 45.2047 33.7938 44.523 34.9725 43.3397C36.1512 42.1564 36.816 40.5648 36.8254 38.904C36.8451 38.1046 36.7003 37.3095 36.3999 36.5669C36.0994 35.8244 35.6496 35.15 35.0776 34.5845C34.5057 34.019 33.8235 33.5743 33.0725 33.2772C32.3215 32.9802 31.5173 32.8371 30.7086 32.8566L26.8257 32.8565ZM30.9035 29.0175H25.8549C25.727 29.0182 25.6002 28.9939 25.4819 28.9459C25.3635 28.898 25.2559 28.8274 25.1652 28.7382C25.0745 28.6491 25.0025 28.543 24.9534 28.4263C24.9043 28.3095 24.8791 28.1843 24.8791 28.0578C24.8791 27.9313 24.9043 27.8061 24.9534 27.6893C25.0025 27.5726 25.0745 27.4665 25.1652 27.3774C25.2559 27.2882 25.3635 27.2176 25.4819 27.1697C25.6002 27.1217 25.727 27.0974 25.8549 27.0981H30.9035C31.9205 27.0778 32.9348 27.2072 33.9131 27.4822C34.0094 27.4822 34.1068 27.5773 34.3005 27.5773C34.4954 27.6737 34.5928 27.6737 34.7865 27.7699C34.8839 27.7699 34.9802 27.8663 35.0776 27.8663C35.1751 27.8663 35.2724 27.9614 35.4661 27.9614C35.808 28.0824 36.134 28.2438 36.4368 28.4419C36.5343 28.4419 36.6318 28.537 36.728 28.537C37.0075 28.6622 37.2688 28.8238 37.505 29.0175C37.6987 29.1138 37.7962 29.209 37.9898 29.3053C38.4663 29.6268 38.9204 29.9796 39.3491 30.3613L39.9325 30.9369C40.0287 31.0333 40.1261 31.1296 40.1261 31.2248C40.3211 31.5138 40.6121 31.7052 40.8058 31.993C41.1857 32.5022 41.5111 33.049 41.7766 33.6247C41.7766 33.7211 41.8739 33.8173 41.8739 33.9125C41.8739 34.0088 41.9714 34.1052 41.9714 34.2003C41.9714 34.2967 42.0676 34.2967 42.0676 34.3929C42.1721 34.7222 42.302 35.0431 42.4562 35.3527C42.4562 35.449 42.4562 35.449 42.5536 35.5442C42.864 36.671 43.0269 37.8325 43.0383 39.0002C43.0479 41.9466 41.9397 44.7893 39.9325 46.9672L39.7377 47.1587C39.2248 47.7435 38.6372 48.2601 37.9898 48.6954C37.7961 48.7905 37.6987 48.8868 37.505 48.9831C37.2139 49.1747 37.0191 49.271 36.728 49.4624C36.6318 49.4624 36.5343 49.5588 36.4368 49.5588C36.0483 49.7514 35.5635 49.9429 35.0776 50.1344C34.9801 50.1344 34.8839 50.2307 34.7865 50.2307L33.9132 50.5185C32.9348 50.7935 31.9205 50.9229 30.9036 50.9027H21.9707C21.7146 50.9008 21.4695 50.7988 21.289 50.619C21.1085 50.4393 21.0073 50.1962 21.0073 49.9429C21.0073 49.6896 21.1085 49.4466 21.289 49.2668C21.4695 49.087 21.7146 48.9851 21.9707 48.9832H30.9035C33.5794 48.9801 36.1447 47.927 38.0357 46.0552C39.9268 44.1834 40.989 41.646 40.989 39.0004C40.989 36.3548 39.9268 33.8174 38.0357 31.9456C36.1447 30.0738 33.5794 29.0207 30.9035 29.0176M21.9707 47.1589C21.7134 47.1584 21.4668 47.0572 21.2848 46.8773C21.1029 46.6974 21.0005 46.4535 21 46.1991V28.0578C21.0005 27.8034 21.1029 27.5595 21.2849 27.3796C21.4668 27.1998 21.7134 27.0985 21.9707 27.098C22.1003 27.0903 22.2299 27.1099 22.3512 27.1554C22.4725 27.2009 22.5827 27.2713 22.6744 27.362C22.7662 27.4527 22.8374 27.5616 22.8834 27.6816C22.9295 27.8015 22.9493 27.9297 22.9415 28.0578V46.1039C22.9437 46.3682 22.845 46.6237 22.665 46.8192C22.4851 47.0148 22.2372 47.136 21.9707 47.1588M100.805 32.8565V46.199C100.804 46.4527 100.701 46.6955 100.519 46.8744C100.337 47.0533 100.091 47.1537 99.8345 47.1537C99.5779 47.1537 99.3318 47.0533 99.1499 46.8744C98.968 46.6955 98.8651 46.4527 98.8638 46.199V31.8967C98.8562 31.7466 98.8879 31.5971 98.956 31.4627C99.0241 31.3283 99.1261 31.2136 99.2523 31.1297C99.4292 31.0229 99.6283 30.9571 99.8345 30.9371H104.592C105.671 30.9131 106.743 31.1006 107.748 31.4889C108.753 31.8773 109.67 32.4586 110.447 33.1994C111.223 33.9402 111.843 34.8258 112.271 35.8049C112.7 36.7841 112.927 37.8374 112.941 38.904C112.925 41.0884 112.04 43.1786 110.478 44.7232C108.916 46.2678 106.801 47.1427 104.592 47.1588H103.33C103.074 47.1575 102.828 47.0558 102.647 46.8759C102.466 46.6961 102.365 46.4528 102.365 46.1991C102.365 45.9454 102.466 45.7021 102.647 45.5222C102.828 45.3424 103.074 45.2407 103.33 45.2394H104.495C106.174 45.2049 107.774 44.5234 108.953 43.34C110.132 42.1567 110.797 40.565 110.806 38.904C110.826 38.1046 110.681 37.3095 110.38 36.5671C110.08 35.8246 109.63 35.1502 109.058 34.5847C108.486 34.0193 107.804 33.5745 107.053 33.2775C106.302 32.9804 105.498 32.8372 104.689 32.8566L100.805 32.8565ZM104.883 29.0175H99.8345C99.7066 29.0182 99.5798 28.9939 99.4614 28.9459C99.3431 28.898 99.2355 28.8274 99.1448 28.7382C99.0541 28.6491 98.9821 28.543 98.933 28.4263C98.8839 28.3095 98.8586 28.1843 98.8586 28.0578C98.8586 27.9313 98.8839 27.8061 98.933 27.6893C98.9821 27.5726 99.0541 27.4665 99.1448 27.3774C99.2355 27.2882 99.3431 27.2176 99.4614 27.1697C99.5798 27.1217 99.7066 27.0974 99.8345 27.0981H104.883C105.9 27.0777 106.914 27.2072 107.893 27.4822C107.99 27.4822 108.088 27.5773 108.281 27.5773C108.475 27.6737 108.572 27.6737 108.767 27.7699C108.863 27.7699 108.961 27.8663 109.058 27.8663C109.155 27.8663 109.252 27.9614 109.447 27.9614C109.789 28.0824 110.115 28.2438 110.418 28.4419C110.514 28.4419 110.611 28.537 110.709 28.537C110.806 28.7297 111.097 28.826 111.291 29.0175C111.486 29.1138 111.582 29.209 111.777 29.3053C112.253 29.6274 112.707 29.9802 113.136 30.3613L113.718 30.9369C113.816 31.0333 113.912 31.1296 113.912 31.2248C114.107 31.5138 114.398 31.7052 114.592 31.993C114.972 32.5022 115.297 33.049 115.562 33.6247C115.562 33.7211 115.66 33.8173 115.66 33.9125C115.66 34.0088 115.757 34.1052 115.757 34.2003C115.757 34.2967 115.855 34.2967 115.855 34.3929C115.958 34.7224 116.088 35.0433 116.242 35.3527C116.242 35.449 116.242 35.449 116.339 35.5442C116.65 36.6709 116.814 37.8324 116.825 39.0002C116.835 41.9467 115.726 44.7895 113.718 46.9672L113.523 47.1587C113.011 47.7435 112.424 48.2601 111.777 48.6954C111.582 48.7905 111.486 48.8868 111.291 48.9831C111 49.1747 110.806 49.271 110.514 49.4624C110.418 49.4624 110.32 49.5588 110.223 49.5588C109.834 49.7514 109.349 49.9429 108.863 50.1344C108.767 50.1344 108.67 50.2307 108.572 50.2307L107.699 50.5185C106.721 50.7936 105.706 50.923 104.689 50.9027H95.7566C95.5005 50.9008 95.2554 50.7988 95.0749 50.619C94.8944 50.4393 94.7932 50.1962 94.7932 49.9429C94.7932 49.6896 94.8944 49.4466 95.0749 49.2668C95.2554 49.087 95.5005 48.9851 95.7566 48.9832H104.689C106.018 48.9922 107.335 48.7402 108.564 48.2417C109.793 47.7432 110.91 47.0082 111.849 46.0794C112.789 45.1507 113.532 44.0466 114.037 42.8313C114.541 41.6161 114.796 40.3139 114.787 39.0004C114.817 37.6973 114.584 36.4012 114.099 35.1889C113.615 33.9765 112.89 32.8724 111.967 31.9418C111.043 31.0112 109.941 30.2729 108.724 29.7707C107.508 29.2685 106.202 29.0124 104.883 29.0176M95.9516 47.1589C95.6942 47.1586 95.4474 47.0574 95.2654 46.8775C95.0834 46.6976 94.9811 46.4536 94.9808 46.1991V28.0578C94.9822 27.8041 95.085 27.5613 95.2669 27.3824C95.4488 27.2035 95.695 27.1031 95.9515 27.1031C96.2081 27.1031 96.4542 27.2035 96.6361 27.3824C96.818 27.5613 96.9209 27.8041 96.9223 28.0578V46.1039C96.9243 46.3682 96.8255 46.6235 96.6456 46.819C96.4657 47.0145 96.2179 47.1358 95.9515 47.1588M120.515 47.3514C120.4 47.3519 120.286 47.3299 120.18 47.2866C120.073 47.2433 119.977 47.1796 119.895 47.0993C119.814 47.0189 119.75 46.9233 119.706 46.8182C119.662 46.7131 119.64 46.6004 119.64 46.4867V28.0578C119.641 27.8292 119.734 27.6103 119.897 27.449C120.061 27.2877 120.283 27.1972 120.514 27.1972C120.745 27.1972 120.967 27.2877 121.131 27.449C121.295 27.6103 121.387 27.8292 121.388 28.0578V46.4868C121.389 46.6004 121.366 46.713 121.323 46.818C121.279 46.9231 121.215 47.0186 121.134 47.0989C121.052 47.1793 120.956 47.243 120.85 47.2864C120.744 47.3297 120.63 47.3518 120.515 47.3514M136.534 49.1746C136.765 49.1755 136.986 49.2669 137.149 49.4289C137.313 49.5908 137.404 49.81 137.404 50.0386C137.404 50.2672 137.313 50.4864 137.149 50.6484C136.986 50.8103 136.765 50.9017 136.534 50.9026H120.515C120.4 50.9031 120.286 50.8811 120.179 50.8378C120.073 50.7946 119.976 50.731 119.895 50.6508C119.813 50.5705 119.748 50.4751 119.704 50.37C119.66 50.265 119.637 50.1524 119.637 50.0386C119.637 49.9249 119.66 49.8122 119.704 49.7072C119.748 49.6021 119.813 49.5067 119.895 49.4265C119.976 49.3462 120.073 49.2826 120.179 49.2394C120.286 49.1962 120.4 49.1742 120.515 49.1746H136.534ZM131.583 41.4954H125.077V45.527H136.631C136.862 45.5279 137.084 45.6193 137.247 45.7813C137.41 45.9432 137.502 46.1625 137.502 46.391C137.502 46.6196 137.41 46.8388 137.247 47.0008C137.084 47.1627 136.862 47.2541 136.631 47.255H124.204C124.089 47.2556 123.975 47.2336 123.869 47.1904C123.763 47.1472 123.666 47.0837 123.585 47.0034C123.504 46.9231 123.439 46.8278 123.395 46.7227C123.352 46.6177 123.329 46.5052 123.33 46.3916V40.5357C123.329 40.4221 123.352 40.3095 123.395 40.2045C123.439 40.0995 123.504 40.0041 123.585 39.9239C123.666 39.8436 123.763 39.78 123.869 39.7369C123.975 39.6937 124.089 39.6717 124.204 39.6722H131.679C131.794 39.6717 131.908 39.6937 132.014 39.7369C132.12 39.78 132.217 39.8436 132.298 39.9239C132.379 40.0041 132.444 40.0995 132.488 40.2045C132.531 40.3095 132.554 40.4221 132.553 40.5357C132.553 40.7901 132.45 41.0339 132.269 41.2138C132.087 41.3937 131.84 41.4949 131.583 41.4954M136.631 30.8418C136.863 30.8418 137.085 30.9328 137.249 31.0947C137.413 31.2567 137.505 31.4763 137.505 31.7053C137.505 31.9343 137.413 32.1539 137.249 32.3158C137.085 32.4777 136.863 32.5687 136.631 32.5687H125.077V36.0247H131.583C131.814 36.0256 132.035 36.1171 132.198 36.279C132.362 36.4409 132.453 36.6602 132.453 36.8887C132.453 37.1173 132.362 37.3366 132.198 37.4985C132.035 37.6604 131.814 37.7519 131.583 37.7528H124.107C123.992 37.7532 123.878 37.7312 123.772 37.6879C123.665 37.6446 123.569 37.5809 123.488 37.5005C123.406 37.4201 123.342 37.3246 123.298 37.2195C123.255 37.1144 123.233 37.0018 123.233 36.8882V31.609C123.233 31.4954 123.255 31.3829 123.299 31.2779C123.342 31.1729 123.407 31.0776 123.488 30.9973C123.569 30.917 123.666 30.8534 123.772 30.8102C123.878 30.767 123.992 30.745 124.107 30.7455H136.631V30.8418ZM124.204 28.9211C123.947 28.9207 123.7 28.8194 123.518 28.6395C123.336 28.4597 123.234 28.2158 123.233 27.9614C123.225 27.8333 123.245 27.7051 123.291 27.5851C123.337 27.4651 123.408 27.3562 123.5 27.2655C123.592 27.1747 123.702 27.1043 123.823 27.0588C123.945 27.0134 124.075 26.9939 124.204 27.0017H136.631C136.888 27.0024 137.135 27.1037 137.317 27.2835C137.499 27.4634 137.601 27.7071 137.602 27.9614C137.61 28.0895 137.59 28.2177 137.544 28.3376C137.498 28.4575 137.427 28.5664 137.335 28.6571C137.243 28.7478 137.133 28.8183 137.012 28.8638C136.89 28.9093 136.761 28.9288 136.631 28.9211H124.204ZM56.5337 50.9989C55.0653 50.9999 53.612 50.7057 52.2621 50.1343C50.9844 49.5482 49.8054 48.7712 48.7665 47.8307C47.7732 46.8372 46.9822 45.6644 46.4366 44.3758C45.8596 43.041 45.5625 41.6044 45.5632 40.1527V28.1541C45.5646 27.9004 45.6675 27.6576 45.8494 27.4787C46.0313 27.2998 46.2774 27.1994 46.534 27.1994C46.7905 27.1994 47.0367 27.2998 47.2186 27.4787C47.4005 27.6576 47.5033 27.9004 47.5047 28.1541V40.1527C47.4862 41.3385 47.7177 42.5151 48.1844 43.6075C48.625 44.661 49.2867 45.6099 50.1258 46.3917C50.9425 47.1909 51.8959 47.8407 52.9419 48.3111C54.0445 48.7815 55.2369 49.0108 56.4375 48.983C57.6368 49.0013 58.8269 48.7725 59.9319 48.3111C60.9973 47.8755 61.9572 47.2213 62.7479 46.3917C63.5563 45.5843 64.2136 44.6417 64.6893 43.6075C65.1656 42.518 65.3975 41.3393 65.369 40.1527V28.154C65.3704 27.9004 65.4732 27.6576 65.6551 27.4787C65.837 27.2998 66.0832 27.1994 66.3397 27.1994C66.5963 27.1994 66.8424 27.2998 67.0243 27.4787C67.2062 27.6576 67.3091 27.9004 67.3105 28.154V40.1527C67.3112 41.6043 67.0141 43.041 66.4372 44.3758C65.8441 45.6387 65.0583 46.8039 64.1071 47.8307C63.1022 48.8132 61.9154 49.5953 60.6115 50.1343C59.3361 50.7244 57.9416 51.0201 56.5336 50.9989M56.5336 47.0636C55.596 47.067 54.6688 46.8702 53.8151 46.4868C53.0017 46.1213 52.249 45.6362 51.5825 45.0478C50.9232 44.4391 50.4234 43.6812 50.1259 42.8393C49.7374 41.8277 49.5401 40.7543 49.5437 39.6722V31.8016C49.543 31.6752 49.5676 31.5498 49.6161 31.4328C49.6646 31.3158 49.736 31.2094 49.8262 31.1197C49.9164 31.03 50.0236 30.9589 50.1417 30.9103C50.2598 30.8618 50.3865 30.8368 50.5144 30.8368C50.6423 30.8368 50.769 30.8618 50.8871 30.9103C51.0052 30.9589 51.1124 31.03 51.2026 31.1197C51.2928 31.2094 51.3642 31.3158 51.4127 31.4328C51.4612 31.5498 51.4858 31.6752 51.4851 31.8016V39.6722C51.4628 41.1459 51.9802 42.5778 52.9419 43.7039C53.9048 44.6268 55.1933 45.1429 56.5344 45.1429C57.8755 45.1429 59.1639 44.6268 60.1268 43.7039C61.0881 42.5777 61.6051 41.1457 61.5823 39.6722V28.0578C61.5745 27.9297 61.5943 27.8015 61.6404 27.6816C61.6864 27.5616 61.7576 27.4527 61.8494 27.362C61.9411 27.2713 62.0513 27.2009 62.1726 27.1554C62.2939 27.1099 62.4235 27.0903 62.5531 27.098C62.8104 27.0985 63.057 27.1998 63.2389 27.3796C63.4209 27.5595 63.5233 27.8034 63.5238 28.0578V39.6722C63.528 40.7543 63.3307 41.8279 62.9416 42.8393C62.5718 43.6441 62.0806 44.3887 61.4849 45.0478C60.8696 45.6993 60.1034 46.1931 59.2523 46.4868C58.3987 46.8703 57.4713 47.0671 56.5337 47.0636M145.563 49.9428C145.573 50.0634 145.558 50.1846 145.519 50.2992C145.48 50.4139 145.418 50.5194 145.336 50.6093C145.254 50.6992 145.155 50.7716 145.043 50.822C144.932 50.8725 144.812 50.8999 144.689 50.9026C144.56 50.9104 144.43 50.8909 144.309 50.8455C144.188 50.8 144.077 50.7295 143.986 50.6388C143.894 50.5481 143.823 50.4391 143.777 50.3192C143.731 50.1992 143.711 50.0709 143.719 49.9428V45.5271C143.719 45.1429 143.912 44.6636 144.786 44.6636H152.844C153.033 44.654 153.22 44.7048 153.377 44.8085C153.535 44.9121 153.655 45.0632 153.718 45.2392L153.912 45.6234L155.271 48.6953L155.66 49.655C155.737 49.7676 155.772 49.9037 155.757 50.0392V50.1343C155.757 50.2306 155.757 50.3269 155.66 50.3269C155.55 50.5313 155.381 50.6983 155.174 50.8062C155.061 50.8827 154.923 50.9169 154.787 50.9026C154.599 50.9044 154.416 50.8505 154.26 50.7479C154.104 50.6452 153.983 50.4985 153.912 50.3269L153.33 49.1745L152.068 46.4867H145.369L145.563 49.9428Z" fill="white"/>
</svg>
