<svg width="185" height="80" viewBox="0 0 185 80" fill="none" xmlns="http://www.w3.org/2000/svg">
<path d="M82.5832 63.0373C81.3426 64.7873 79.9268 66.4081 78.3572 67.8749C76.113 69.7617 74.0197 69.5159 72.5333 68.0672C71.0458 66.6174 70.8667 64.9375 71.3904 64.9643C75.3147 65.1688 77.6129 62.655 79.7479 60.1267C79.7898 60.0862 79.8419 60.0576 79.8988 60.0439C79.9564 60.0464 80.0108 60.0708 80.0508 60.112C80.6502 60.6302 81.3471 61.0253 82.1012 61.2746C82.9009 61.6434 83.2037 62.1486 82.5832 63.0373ZM92.3314 32.7381C90.5826 35.0206 82.9964 45.8036 80.7523 45.5711C78.1365 45.4896 88.8755 33.6268 85.7227 32.6967C84.9513 32.4642 81.3863 32.6967 81.2073 33.421C79.0452 42.3732 73.1662 45.0379 75.0523 49.6297C76.8428 53.9487 85.199 49.6991 89.8395 42.7968C88.4623 45.2838 83.8501 52.3638 81.1104 56.2592C80.4077 57.2696 79.6376 58.3226 78.784 59.3342C76.2921 62.2716 73.1245 64.6088 69.4074 62.7232C68.6643 62.3544 68.8151 66.4677 70.895 69.0095C71.3096 69.542 71.8259 69.9883 72.4144 70.3228C73.0028 70.6572 73.6519 70.8733 74.3245 70.9586C74.9971 71.044 75.6801 70.997 76.3344 70.8202C76.9887 70.6435 77.6015 70.3405 78.1377 69.9286C78.2457 69.8458 78.3512 69.7582 78.4529 69.6657C79.9675 68.4629 82.5832 65.5656 86.1078 59.6885C89.6322 53.8125 98.3061 35.7864 96.8333 32.5738C96.5034 31.8495 93.1028 31.7133 92.3314 32.7381" fill="white"/>
<path d="M34.5528 32.9587C39.4088 30.0655 53.581 23.9919 59.9775 24.9921C65.6658 25.8971 65.8432 31.0669 66.7155 31.012C68.7615 30.8752 72.7039 22.4151 67.1797 18.4788C62.0648 14.8454 47.4832 18.1223 35.7118 25.9521C33.9805 27.0903 33.5031 33.5755 34.5528 32.9587Z" fill="white"/>
<path d="M60.7549 39.1433C59.4915 38.3592 58.146 37.4971 56.7174 36.7402C57.7473 35.9431 58.7637 35.6108 59.5869 36.156C60.0419 36.506 60.3906 36.9683 60.5962 37.4942C60.8018 38.02 60.8566 38.5898 60.7549 39.1433M59.615 42.8733C57.9393 46.2462 54.7946 48.9154 53.0921 47.9988C51.1008 46.9238 52.0756 43.4575 53.6962 40.5376C53.8614 40.2313 54.04 39.9392 54.2185 39.6471C56.1682 40.2313 58.146 41.0544 60.0956 41.8113C59.9587 42.1436 59.7935 42.5019 59.615 42.8603V42.8733ZM70.2159 53.4957C70.902 54.1733 76.6971 52.7388 75.956 52.0091C74.5823 50.681 72.2071 48.9154 72.7562 41.9047C74.2671 40.7505 75.8491 39.6862 77.4934 38.7176C78.2762 37.8684 79.6216 33.4075 78.6749 33.6062C77.2194 33.8983 75.1451 35.5445 73.0168 37.5894C73.0168 34.9344 72.6193 33.2077 72.0554 32.7832C71.4927 32.3586 67.1678 32.212 67.6069 33.4998C68.4106 36.0467 68.9667 38.6607 69.2679 41.3075C67.6484 42.5292 65.7123 41.997 63.5008 40.8156C64.4341 36.8324 63.8715 32.9818 60.7549 31.5213C58.3515 30.3268 54.9598 31.8666 52.1172 34.9876C51.3877 34.8033 50.6434 34.6786 49.8923 34.615C48.4263 34.4958 46.9538 34.4693 45.4842 34.5358C46.5288 32.8092 47.5856 31.1771 48.6154 29.7556C49.4667 28.5482 43.5896 28.6274 41.3794 31.1771C38.3167 34.615 31.5051 45.0116 31.0391 51.6638C30.8597 53.1609 31.3027 54.6656 32.2707 55.8468C33.2387 57.028 34.6523 57.7891 36.2006 57.9625C36.575 58.0039 36.9526 58.011 37.3284 57.9838C38.7007 57.7047 36.9847 56.6557 38.1516 50.9329C39.0932 47.2497 40.4757 43.6853 42.271 40.3117C44.5393 39.5719 46.8988 39.1253 49.2881 38.9836C46.322 44.5206 45.6359 51.2119 49.9339 52.9516C55.0967 55.0354 60.2877 49.606 62.7181 43.325C62.7547 43.1503 62.8148 42.981 62.8967 42.8213C64.3072 43.2883 65.7858 43.5346 67.2767 43.5509C63.8029 47.4146 59.5734 52.4597 59.1612 53.7748C58.8872 54.6381 64.9013 54.9822 65.3404 53.9734C66.4092 51.2087 67.7331 48.5426 69.2961 46.0073C69.0074 51.7028 69.4881 52.805 70.2159 53.4956" fill="white"/>
<path d="M107.91 53.6812L107.527 52.5544C107.301 52.9984 106.941 53.3713 106.491 53.6279C106.042 53.8844 105.522 54.0133 104.995 53.9989C102.565 53.9989 101.001 52.3548 101.001 49.7965V36.2042C100.982 35.1071 101.431 34.048 102.249 33.2597C103.068 32.4714 104.188 32.0185 105.365 32.0007H105.465C106.025 31.9911 106.582 32.0845 107.103 32.2756C107.624 32.4666 108.1 32.7516 108.503 33.1142C108.907 33.4768 109.229 33.9099 109.453 34.3888C109.677 34.8678 109.797 35.3831 109.808 35.9054C109.81 36.0047 109.808 36.1051 109.801 36.2042V40.1823H106.488V36.0719C106.501 35.9557 106.487 35.8382 106.445 35.728C106.403 35.6178 106.335 35.5178 106.246 35.4353C106.156 35.3514 106.046 35.2875 105.926 35.2484C105.805 35.2094 105.676 35.1962 105.55 35.2098C105.422 35.2024 105.294 35.2199 105.175 35.2609C105.055 35.302 104.945 35.3658 104.853 35.4483C104.762 35.5278 104.691 35.6247 104.645 35.7324C104.598 35.8401 104.577 35.956 104.583 36.0719V50.0882C104.577 50.21 104.598 50.3317 104.644 50.4457C104.691 50.5597 104.762 50.6636 104.853 50.7509C104.943 50.8375 105.052 50.9057 105.172 50.9512C105.292 50.9968 105.42 51.0186 105.55 51.0154C105.682 51.0239 105.815 51.0056 105.939 50.9619C106.063 50.9181 106.175 50.8499 106.269 50.7619C106.362 50.6738 106.433 50.5681 106.479 50.4518C106.524 50.3356 106.542 50.2115 106.531 50.0882V45.7252H105.622V43.1657H110V53.6812H107.91Z" fill="white"/>
<path d="M115.533 37.9714L114.714 47.0854H116.056L115.533 37.9714ZM116.579 54L116.364 50.228H114.38L114.057 54H111L113.588 32H117.411L120 54H116.579Z" fill="white"/>
<path d="M129.74 54V37.2471L129.28 42.275L127.859 54H125.614L124.356 42.275L123.963 37.2471V54H121V32H125.452L126.642 40.6494L127.102 45.6365L127.521 40.6494L128.617 32H133V54H129.74Z" fill="white"/>
<path d="M135 54V32H142V35.1695H138.342V41.1818H140.763V44.1879H138.342V50.7338H142V54H135Z" fill="white"/>
<path d="M147.514 53.9999C144.639 53.9999 143 52.3959 143 49.5445V47.2895H146.148V49.796C146.148 50.565 146.537 51.1226 147.341 51.1226C148.147 51.1226 148.507 50.6454 148.507 49.796C148.366 47.7862 147.619 45.8526 146.35 44.2137C144.984 42.2245 143.129 39.2798 143.129 36.8134C143.129 34.347 144.566 32 147.787 32C150.246 32 151.885 33.6301 151.885 36.4555V38.7896H148.708V36.1366C148.708 35.4338 148.276 35.0499 147.729 35.0499C147.592 35.0437 147.454 35.0625 147.324 35.1053C147.195 35.1481 147.075 35.2141 146.973 35.2994C146.871 35.3848 146.789 35.4878 146.73 35.6027C146.671 35.7176 146.637 35.842 146.63 35.9689C146.627 36.0249 146.629 36.0811 146.637 36.1367C146.637 38.6042 147.442 39.4653 148.923 41.8395C150.404 44.2138 152 46.7722 152 49.2788C152 52.6204 149.8 54 147.514 54" fill="white"/>
</svg>
