<svg width="184" height="80" viewBox="0 0 184 80" fill="none" xmlns="http://www.w3.org/2000/svg">
<path d="M63.5026 74L66.3353 66.6484L58.7977 67.0588C56.8656 50.3452 54.933 33.628 53 16.907L58.618 16.4593L58.2189 10.0394L91.4233 8L91.7947 13.8331L119.278 11.6569C118.823 19.768 118.371 27.8424 117.916 35.9534L136 35.0629C135.92 35.544 135.847 35.9891 135.771 36.4335C135.379 38.7122 134.986 40.9908 134.592 43.2694C134.037 46.4891 133.481 49.7088 132.926 52.9285C132.412 55.92 131.9 58.9118 131.391 61.9041C131.334 62.2384 131.268 62.5715 131.22 62.907C131.196 63.0717 131.121 63.1233 130.954 63.1319C128.457 63.2603 125.961 63.3931 123.464 63.5301C121.365 63.6446 119.265 63.7661 117.165 63.8809C115.354 63.9799 113.542 64.0716 111.731 64.1706C109.604 64.2869 107.478 64.4091 105.351 64.5257C103.576 64.6231 101.8 64.7146 100.025 64.8113C97.88 64.9282 95.7354 65.0464 93.5909 65.166C92.113 65.2466 90.6347 65.3219 89.1567 65.4025C87.0211 65.5189 84.8855 65.6368 82.7499 65.7561C81.8038 65.8085 80.8575 65.8587 79.9118 65.9191C79.7786 65.9303 79.649 65.9673 79.5302 66.0278C75.5482 68.007 71.5674 69.9886 67.5878 71.9725C66.3309 72.5988 65.0746 73.2262 63.8189 73.8548C63.7337 73.8973 63.6457 73.9345 63.5026 74ZM100.25 38.3633L94.9633 31.7064C95.1098 31.6141 95.2236 31.543 95.3369 31.4709C96.6985 30.6667 97.7399 29.424 98.2869 27.9508C98.6748 26.745 98.7523 25.4623 98.5123 24.2193C98.3848 23.2533 98.0276 22.3311 97.4701 21.5282C96.9126 20.7254 96.1707 20.0649 95.3053 19.6009C93.5571 18.6761 91.5732 18.2793 89.5993 18.4596C86.283 18.6338 82.9702 18.8727 79.6559 19.0854C79.3183 19.107 78.9811 19.1356 78.6293 19.162L79.9975 39.6857L86.9415 39.2312L86.556 33.3753C86.9504 33.3466 87.328 33.3343 87.7008 33.2866C87.8012 33.2695 87.9044 33.2831 87.9967 33.3257C88.089 33.3683 88.1659 33.4379 88.2171 33.525C89.5256 35.2444 90.8453 36.9554 92.1542 38.6746C92.1993 38.7443 92.2638 38.7996 92.3399 38.8338C92.4161 38.8681 92.5006 38.8798 92.5833 38.8675C94.0418 38.7661 95.5009 38.6751 96.9597 38.58C98.0302 38.5102 99.1005 38.439 100.25 38.3633H100.25ZM61.8944 63.298C62.0465 63.298 62.1628 63.3036 62.2785 63.2971C64.7289 63.1598 67.1792 63.0216 69.6295 62.8826C71.9453 62.8159 74.2206 62.2644 76.3055 61.2644C77.4745 60.7218 78.5143 59.9407 79.3566 58.9722C80.199 58.0037 80.8248 56.8698 81.193 55.6449C81.7956 53.582 81.8081 51.3941 81.229 49.3246C80.9114 48.0059 80.2807 46.7812 79.3893 45.7519C78.4978 44.7227 77.3714 43.9187 76.1032 43.4066C73.7844 42.4798 71.2773 42.1079 68.7859 42.3213C66.6774 42.4284 64.5697 42.5514 62.4618 42.6699C61.8894 42.7021 61.3175 42.7433 60.7233 42.7818L61.8944 63.298ZM105.323 60.6098C105.251 60.4596 105.2 60.3489 105.147 60.2395C103.591 57.0778 102.036 53.9161 100.481 50.7545C98.8476 47.4321 97.2185 44.1078 95.5933 40.7817C95.5506 40.6555 95.4625 40.5493 95.3458 40.4832C95.2291 40.417 95.0919 40.3957 94.9604 40.4231C92.8894 40.5556 90.8173 40.6708 88.7449 40.7806C88.6712 40.7754 88.5981 40.7972 88.5396 40.8418C88.481 40.8864 88.4411 40.9507 88.4272 41.0225C87.9127 42.4797 87.3895 43.934 86.8693 45.3893C85.0655 50.436 83.2619 55.4827 81.4585 60.5295C81.2909 60.9988 81.1278 61.4695 80.9546 61.9624C81.0636 61.9624 81.1431 61.9662 81.2222 61.9618C83.5287 61.834 85.8351 61.7025 88.142 61.5818C88.3389 61.5715 88.4024 61.4792 88.4525 61.3209C88.7004 60.538 88.9562 59.7575 89.204 58.9745C89.2519 58.8234 89.3146 58.7403 89.4994 58.7349C89.9952 58.7203 90.49 58.6749 90.9856 58.6474C92.7605 58.5488 94.5357 58.4555 96.3102 58.3505C96.3747 58.3365 96.4422 58.347 96.4992 58.38C96.5563 58.4129 96.5988 58.4659 96.6183 58.5283C96.9548 59.269 97.309 60.0019 97.6395 60.7451C97.6639 60.837 97.7224 60.9164 97.8033 60.9676C97.8842 61.0187 97.9816 61.0377 98.0761 61.0209C99.508 60.9316 100.941 60.8629 102.374 60.7834C103.337 60.73 104.301 60.6702 105.323 60.6098V60.6098ZM76.9005 33.1233C76.8798 32.8309 76.8597 32.5666 76.8425 32.302C76.7489 30.8582 76.6566 29.4142 76.5655 27.9702C76.5563 27.8205 76.5054 27.7625 76.351 27.7788C76.1179 27.8035 75.8834 27.8154 75.6493 27.8308C73.0287 28.0034 70.4081 28.1758 67.7874 28.3478C67.4846 28.3677 67.1814 28.3836 66.8629 28.4022L66.6874 25.8145L77.1074 25.1323C77.0905 24.8622 77.0763 24.6238 77.0605 24.3855C76.9519 22.7456 76.8436 21.1057 76.7354 19.4657C76.727 19.3372 76.7189 19.2514 76.5389 19.2636C74.6751 19.3895 72.8106 19.504 70.9466 19.6262C69.1636 19.743 67.3811 19.8676 65.5982 19.9844C63.59 20.116 61.5816 20.2439 59.5729 20.3682C59.3948 20.3791 59.3429 20.4369 59.3573 20.612C59.4012 21.146 59.427 21.6815 59.4637 22.2162C59.6006 24.2121 59.742 26.2077 59.876 28.2038C59.9945 29.9682 60.1037 31.7332 60.2203 33.4978C60.3775 35.8773 60.5415 38.2565 60.6914 40.6365C60.7055 40.8605 60.767 40.9217 60.9927 40.9062C62.7573 40.7852 64.5228 40.6765 66.2879 40.5618C66.7355 40.5327 67.1827 40.4955 67.661 40.4597L67.2187 33.7566L76.9005 33.1233ZM114.369 60.1693C114.369 60.0768 114.372 60.0329 114.369 59.9893C114.234 57.6894 114.095 55.3898 113.97 53.0895C113.965 52.8963 114.01 52.705 114.1 52.5334C116.095 48.6816 118.094 44.8323 120.099 40.9857C120.403 40.4016 120.704 39.8164 121.025 39.196C120.901 39.196 120.823 39.1922 120.746 39.1966C118.34 39.3336 115.935 39.4697 113.53 39.605C113.469 39.6019 113.408 39.6189 113.357 39.6532C113.307 39.6876 113.269 39.7374 113.25 39.7952C112.398 41.6568 111.543 43.517 110.685 45.3758C110.512 45.7517 110.334 46.1254 110.142 46.5351C110.061 46.408 110.007 46.3266 109.956 46.2429C108.756 44.249 107.557 42.2542 106.36 40.2585C106.324 40.1791 106.263 40.1136 106.186 40.072C106.109 40.0304 106.02 40.015 105.934 40.0282C103.519 40.1684 101.105 40.2969 98.6901 40.4298C98.6162 40.4338 98.5432 40.452 98.4357 40.469C99.1607 41.5552 99.8598 42.6052 100.562 43.6534C102.674 46.809 104.786 49.965 106.898 53.1211C106.963 53.2158 107.003 53.3251 107.013 53.4389C107.131 55.4267 107.241 57.4149 107.354 59.403C107.376 59.7821 107.404 60.1609 107.43 60.5545L114.369 60.1693ZM112.947 22.001L112.599 17.0749L100.173 17.9271L100.517 22.8561L103.156 22.6794L103.873 33.4444L101.27 33.6265L101.617 38.5489C101.765 38.542 101.882 38.539 101.998 38.5308C103.195 38.447 104.392 38.3594 105.589 38.2784C108.334 38.0926 111.08 37.9095 113.826 37.7293C114.007 37.7175 114.045 37.6604 114.032 37.4844C113.942 36.2912 113.866 35.0969 113.783 33.9032C113.758 33.5345 113.725 33.1663 113.694 32.7797L110.819 32.9648C110.578 29.3574 110.341 25.7905 110.102 22.2064L112.947 22.001ZM130.794 38.7279L122.25 39.1113C122.367 40.0831 122.478 41.0124 122.59 41.9416C122.78 43.5104 122.97 45.0792 123.16 46.6479C123.334 48.0927 123.51 49.5374 123.676 50.983C123.698 51.1723 123.767 51.2377 123.961 51.2408C125.423 51.2636 126.885 51.2912 128.346 51.3316C128.578 51.338 128.65 51.2649 128.687 51.0461C129.196 48.0363 129.71 45.0275 130.23 42.0196C130.415 40.9387 130.6 39.8578 130.794 38.7279ZM126.093 52.5652C125.348 52.5666 124.621 52.7863 124.003 53.1966C123.385 53.6068 122.903 54.1891 122.619 54.8701C122.335 55.5511 122.261 56.3001 122.407 57.0226C122.552 57.7451 122.911 58.4087 123.437 58.9296C123.963 59.4506 124.634 59.8054 125.364 59.9494C126.094 60.0935 126.851 60.0202 127.538 59.7388C128.226 59.4574 128.815 58.9807 129.229 58.3686C129.643 57.7566 129.865 57.0367 129.867 56.3C129.87 55.8085 129.775 55.3213 129.586 54.8666C129.398 54.412 129.12 53.9989 128.769 53.6514C128.418 53.3039 128 53.0289 127.541 52.8425C127.081 52.656 126.589 52.5618 126.093 52.5652L126.093 52.5652ZM83.7873 9.71493C83.303 9.74326 82.863 9.77024 82.4227 9.79438C82.0397 9.81539 82.0432 9.81373 82.0683 10.188C82.1085 10.7877 82.1435 11.3878 82.1851 12.0585C82.0519 11.9168 81.9673 11.8281 81.8841 11.738C81.3789 11.1907 80.8752 10.6421 80.3674 10.0971C80.3092 10.0346 80.2276 9.94573 80.1594 9.94784C79.6396 9.96391 79.1204 9.99956 78.5872 10.0299C78.5872 10.1325 78.5835 10.2026 78.5877 10.2722C78.6402 11.1369 78.6934 12.0016 78.7474 12.8663C78.7912 13.5615 78.8343 14.2569 78.8881 14.9514C78.8941 15.0281 78.9708 15.1646 79.0115 15.1635C79.5481 15.1482 80.0841 15.1131 80.6331 15.0822L80.4964 12.8192L80.5746 12.7746C80.6217 12.8476 80.6731 12.9178 80.7284 12.9849C81.287 13.5927 81.8473 14.1989 82.4093 14.8035C82.4623 14.8604 82.5329 14.9465 82.5929 14.9446C83.0926 14.9285 83.5918 14.8948 84.108 14.8656L83.7873 9.71493ZM84.3953 12.1797C84.4206 12.4126 84.4611 12.6437 84.5166 12.8715C84.7286 13.5339 85.185 14.0928 85.7948 14.4368C86.4047 14.7808 87.1231 14.8846 87.8069 14.7276C88.2108 14.6617 88.5947 14.5068 88.93 14.2744C89.2654 14.042 89.5437 13.7379 89.7445 13.3847C89.9452 13.0315 90.0632 12.6382 90.0897 12.2338C90.1162 11.8294 90.0506 11.4243 89.8977 11.0484C89.6239 10.4635 89.1581 9.98754 88.5763 9.69788C87.9944 9.40823 87.3307 9.32194 86.693 9.45304C86.0554 9.58415 85.4813 9.92493 85.0641 10.42C84.6469 10.915 84.4112 11.5352 84.3953 12.1797V12.1797ZM75.7364 10.8189C75.6545 10.7662 75.5829 10.7156 75.507 10.6721C74.9669 10.3772 74.3575 10.2292 73.7409 10.2431C73.1424 10.2043 72.5457 10.3407 72.025 10.6351C71.7467 10.7983 71.5246 11.0408 71.3877 11.331C71.2509 11.6211 71.2057 11.9454 71.258 12.2614C71.2889 12.5308 71.4038 12.784 71.5868 12.9858C71.7697 13.1876 72.0116 13.328 72.2789 13.3875C72.6705 13.5144 73.0845 13.5736 73.4887 13.6625C73.6992 13.7088 73.9131 13.7439 74.1188 13.8058C74.1804 13.8244 74.2657 13.9237 74.2578 13.973C74.231 14.0529 74.1754 14.1202 74.1016 14.1621C74.0364 14.1929 73.9646 14.2076 73.8924 14.2049C73.3038 14.2575 72.7131 14.1305 72.1995 13.8411C72.1328 13.8022 72.0611 13.7716 71.9847 13.7337L71.1285 14.8819C71.2351 14.9562 71.3185 15.0228 71.4095 15.0765C72.2358 15.5336 73.1923 15.7054 74.1281 15.5646C74.5809 15.5298 75.0157 15.3739 75.386 15.1137C75.6203 14.9514 75.8055 14.729 75.9217 14.4704C76.0379 14.2118 76.0808 13.9267 76.0458 13.6458C76.0316 13.3846 75.9375 13.1339 75.7758 12.927C75.6141 12.72 75.3926 12.5668 75.1408 12.4875C74.8097 12.3722 74.4704 12.2817 74.1256 12.2167C73.8449 12.1548 73.5536 12.1376 73.2757 12.0671C73.1792 12.0427 73.1086 11.9179 73.0262 11.839C73.1221 11.7727 73.2105 11.6692 73.3155 11.6488C73.4754 11.6183 73.6399 11.6209 73.7987 11.6564C74.1966 11.749 74.5882 11.8677 75.0076 11.9828C75.2125 11.6616 75.4386 11.3075 75.6638 10.9529C75.6869 10.9166 75.705 10.8772 75.7364 10.8189ZM65.293 16.0237C65.792 15.9928 66.2412 15.9373 66.6892 15.9459C67.068 15.9531 67.2735 15.8241 67.3119 15.4472C67.3331 15.2395 67.4623 15.1793 67.6645 15.1749C68.0791 15.166 68.4948 15.1472 68.907 15.1044C68.9971 15.0839 69.0918 15.0994 69.1703 15.1477C69.2489 15.1959 69.305 15.273 69.3264 15.362C69.4987 15.7714 69.5117 15.7671 69.9547 15.7389C70.426 15.7088 70.8971 15.6766 71.3848 15.6442C71.3759 15.5958 71.3632 15.5483 71.3468 15.5019C70.5536 13.9091 69.7579 12.3176 68.9594 10.7275C68.9331 10.6918 68.8988 10.6626 68.8593 10.6421C68.8198 10.6216 68.776 10.6104 68.7314 10.6092C68.2808 10.6236 67.8311 10.662 67.3806 10.6807C67.3102 10.6769 67.2408 10.6986 67.1855 10.742C67.1302 10.7853 67.0929 10.8472 67.0806 10.9159C66.7879 11.778 66.4784 12.6345 66.1768 13.4937C65.8874 14.3178 65.6006 15.1427 65.293 16.0237H65.293ZM65.2533 14.7149C64.8536 14.5239 64.4416 14.3466 64.0506 14.132C63.8424 14.0178 63.7595 14.054 63.6344 14.2467C63.5537 14.3925 63.4349 14.5141 63.2904 14.599C63.1459 14.6838 62.9811 14.7287 62.8131 14.729C62.6451 14.7292 62.4801 14.6848 62.3354 14.6004C62.1906 14.516 62.0714 14.3947 61.9902 14.2491C61.8782 14.0588 61.8151 13.8442 61.8064 13.6242C61.7977 13.4041 61.8438 13.1853 61.9405 12.9869C62.0182 12.8144 62.1491 12.6707 62.3143 12.5763C62.4796 12.4819 62.6708 12.4417 62.8606 12.4614C63.0339 12.4846 63.1994 12.5474 63.344 12.6448C63.4886 12.7422 63.6084 12.8715 63.6939 13.0225L65.0602 12.1143C64.7494 11.6129 64.276 11.2306 63.7173 11.0298C63.1586 10.8291 62.5477 10.8218 61.9843 11.0091C61.5469 11.139 61.1495 11.3754 60.8283 11.6967C60.5071 12.018 60.2725 12.4139 60.146 12.8482C60.0194 13.2825 60.005 13.7412 60.1039 14.1825C60.2029 14.6237 60.4122 15.0334 60.7125 15.3738C61.0128 15.7143 61.3947 15.9747 61.823 16.1313C62.2514 16.2879 62.7126 16.3356 63.1644 16.27C63.6162 16.2045 64.0442 16.0277 64.4091 15.7561C64.774 15.4844 65.0643 15.1264 65.2533 14.7149V14.7149ZM76.2317 10.1769L76.5533 15.3349L78.3084 15.2158L77.9794 10.0646L76.2317 10.1769Z" fill="white"/>
<path d="M101 37.6943C99.8307 37.7691 98.7415 37.8393 97.6522 37.9082C96.1677 38.0022 94.683 38.092 93.1989 38.1922C93.1148 38.2043 93.0288 38.1927 92.9513 38.1589C92.8739 38.1251 92.8082 38.0705 92.7623 38.0017C91.4305 36.3042 90.0876 34.6148 88.7561 32.9171C88.704 32.831 88.6257 32.7624 88.5318 32.7203C88.4379 32.6782 88.3329 32.6648 88.2308 32.6817C87.8513 32.7288 87.4672 32.7409 87.0658 32.7692L87.4581 38.5513L80.3923 39L79 18.7355C79.358 18.7094 79.701 18.6812 80.0447 18.6598C83.4171 18.4498 86.7881 18.214 90.1626 18.0419C92.1711 17.8639 94.1899 18.2557 95.9688 19.1688C96.8494 19.6269 97.6043 20.2791 98.1716 21.0718C98.7389 21.8645 99.1023 22.7751 99.2321 23.7288C99.4764 24.9562 99.3975 26.2226 99.0027 27.4132C98.4462 28.8678 97.3865 30.0948 96.0009 30.8889C95.8857 30.9601 95.7699 31.0303 95.6209 31.1215L101 37.6943ZM86.7296 27.8926C86.7776 27.9013 86.8263 27.9066 86.8752 27.9085C87.9646 27.8347 89.0546 27.7679 90.1429 27.6811C90.6405 27.6452 91.1193 27.4831 91.5304 27.2115C91.828 27.0231 92.0619 26.7553 92.2035 26.4411C92.3451 26.1269 92.3882 25.7798 92.3276 25.4424C92.3175 25.1169 92.203 24.8023 91.9996 24.5417C91.7962 24.2811 91.514 24.0872 91.1915 23.9866C90.7405 23.841 90.2677 23.7674 89.7919 23.7687C88.7378 23.791 87.6853 23.8882 86.6323 23.9566C86.5749 23.9651 86.5182 23.9779 86.4628 23.9947L86.7296 27.8926Z" fill="#1D1D1B"/>
<path d="M62.1749 62.9977L61 42.5181C61.5961 42.4797 62.1699 42.4385 62.7442 42.4064C64.8591 42.2881 66.9737 42.1653 69.0891 42.0584C71.5888 41.8455 74.1041 42.2166 76.4306 43.1418C77.7029 43.653 78.8331 44.4556 79.7275 45.483C80.6218 46.5103 81.2546 47.7329 81.5733 49.0493C82.1543 51.115 82.1418 53.2991 81.5372 55.3583C81.1677 56.581 80.5398 57.7128 79.6947 58.6796C78.8496 59.6464 77.8064 60.4261 76.6335 60.9677C74.5418 61.9659 72.259 62.5165 69.9355 62.583C67.4771 62.7217 65.0187 62.8597 62.5602 62.9968C62.4443 63.0034 62.3276 62.9977 62.1749 62.9977Z" fill="#1D1D1B"/>
<path d="M68.5174 57C68.9659 56.9776 69.3658 56.962 69.7651 56.9367C70.7206 56.8986 71.6616 56.6955 72.5444 56.3369C73.1026 56.1361 73.603 55.807 74.0031 55.3776C74.4032 54.9482 74.6913 54.431 74.8429 53.87C75.0169 53.1334 75.0467 52.3713 74.9306 51.6239C74.8751 50.8598 74.5763 50.1316 74.0759 49.541C73.5756 48.9504 72.8986 48.527 72.1395 48.3297C71.1676 48.0471 70.15 47.9448 69.1394 48.0281C68.7632 48.0523 68.3869 48.0732 68 48.0963L68.5174 57Z" fill="#1D1D1B"/>
<path d="M105 60.6177C103.993 60.6794 103.045 60.7405 102.096 60.795C100.685 60.8761 99.273 60.9462 97.8627 61.0374C97.7697 61.0546 97.6738 61.0351 97.5941 60.9829C97.5144 60.9308 97.4568 60.8497 97.4327 60.7559C97.1072 59.9972 96.7585 59.2491 96.427 58.4931C96.4078 58.4293 96.3659 58.3753 96.3097 58.3417C96.2535 58.308 96.1871 58.2973 96.1235 58.3115C94.3759 58.4188 92.6274 58.5139 90.8794 58.6146C90.3913 58.6427 89.904 58.689 89.4157 58.7039C89.2337 58.7094 89.1719 58.7943 89.1248 58.9485C88.8807 59.7478 88.6288 60.5445 88.3846 61.3436C88.3352 61.5052 88.2727 61.5995 88.0787 61.61C85.8067 61.7331 83.5351 61.8674 81.2635 61.9978C81.1856 62.0023 81.1073 61.9984 81 61.9984C81.1706 61.4954 81.3312 61.0148 81.4962 60.5358C83.2722 55.3842 85.0485 50.2326 86.8253 45.0813C87.3376 43.5957 87.8529 42.1113 88.3597 40.6238C88.3733 40.5505 88.4127 40.4848 88.4704 40.4393C88.528 40.3938 88.5999 40.3716 88.6725 40.3768C90.7136 40.2648 92.7544 40.1471 94.7941 40.0119C94.9237 39.9839 95.0588 40.0057 95.1737 40.0732C95.2887 40.1407 95.3754 40.2492 95.4175 40.378C97.0114 43.7765 98.6159 47.1698 100.231 50.5578C101.762 53.7856 103.294 57.013 104.826 60.2398C104.879 60.3515 104.93 60.4645 105 60.6177Z" fill="#1D1D1B"/>
<path d="M91 54L95 53.786L92.7015 49L91 54Z" fill="#1D1D1B"/>
<path d="M76.7902 33.0875L66.9733 33.7312L67.4218 40.5439C66.9368 40.5803 66.4834 40.6182 66.0295 40.6477C64.2398 40.7643 62.4497 40.8747 60.6604 40.9977C60.4316 41.0134 60.3693 40.9512 60.355 40.7236C60.203 38.3047 60.0368 35.8866 59.8773 33.4681C59.7591 31.6747 59.6484 29.8809 59.5283 28.0876C59.3923 26.0589 59.249 24.0306 59.1101 22.002C59.073 21.4586 59.0468 20.9144 59.0023 20.3716C58.9877 20.1937 59.0404 20.135 59.2209 20.1238C61.2576 19.9982 63.2941 19.8682 65.3302 19.7338C67.1381 19.6151 68.9454 19.4885 70.7532 19.3697C72.6432 19.2455 74.5338 19.1291 76.4236 19.0012C76.606 18.9888 76.6143 19.076 76.6228 19.2066C76.7313 20.8734 76.8412 22.5402 76.9524 24.2068C76.9684 24.449 76.9829 24.6913 77 24.9659L66.4346 25.6592L66.6126 28.2892C66.9355 28.2703 67.2429 28.2541 67.55 28.2339C70.2072 28.0592 72.8644 27.8841 75.5215 27.7084C75.7588 27.6927 75.9967 27.6807 76.233 27.6557C76.3896 27.639 76.4412 27.698 76.4505 27.8502C76.5406 29.3179 76.6343 30.7854 76.7314 32.2528C76.7487 32.5216 76.7691 32.7903 76.7902 33.0875Z" fill="#1D1D1B"/>
<path d="M114.223 59.6212L107.157 60C107.131 59.6131 107.103 59.2407 107.081 58.8679C106.966 56.9133 106.853 54.9586 106.733 53.0043C106.723 52.8924 106.682 52.785 106.616 52.6919C104.468 49.5877 102.318 46.4849 100.164 43.3837C99.45 42.3532 98.7382 41.321 98 40.2531C98.1095 40.2364 98.1838 40.2185 98.259 40.2145C100.717 40.0838 103.176 39.9576 105.634 39.8197C105.723 39.8067 105.813 39.8218 105.891 39.8627C105.97 39.9036 106.032 39.9681 106.068 40.0461C107.284 42.01 108.505 43.9712 109.73 45.9297C109.781 46.0119 109.836 46.092 109.919 46.2169C110.114 45.8141 110.295 45.4467 110.472 45.0772C111.344 43.249 112.214 41.4201 113.083 39.5906C113.103 39.5338 113.141 39.4848 113.193 39.451C113.244 39.4173 113.306 39.4006 113.368 39.4036C115.818 39.2738 118.267 39.14 120.715 39.0021C120.794 38.9977 120.874 39.0015 121 39.0015C120.673 39.6114 120.366 40.1867 120.057 40.761C118.019 44.5446 115.983 48.329 113.949 52.1141C113.857 52.2828 113.812 52.4708 113.817 52.6608C113.944 54.9224 114.085 57.1832 114.223 59.4443C114.225 59.4871 114.223 59.5303 114.223 59.6212Z" fill="#1D1D1B"/>
<path d="M112.902 21.8173L110.028 22.0182C110.269 25.5232 110.509 29.0114 110.752 32.5391L113.656 32.3581C113.687 32.7362 113.72 33.0963 113.746 33.4568C113.83 34.6242 113.907 35.7921 113.998 36.959C114.011 37.1311 113.972 37.1869 113.789 37.1985C111.016 37.3736 108.243 37.5526 105.47 37.7354C104.261 37.8146 103.052 37.9003 101.843 37.9823C101.726 37.9902 101.608 37.9932 101.458 38L101.107 33.1863L103.737 33.0081L103.012 22.4808L100.348 22.6536L100 17.8334L112.55 17L112.902 21.8173Z" fill="#1D1D1B"/>
<path d="M131 39C130.796 40.1654 130.601 41.2803 130.406 42.3951C129.862 45.4982 129.32 48.6015 128.78 51.7052C128.741 51.9308 128.665 52.0062 128.421 51.9996C126.882 51.9579 125.342 51.9295 123.803 51.9059C123.598 51.9028 123.525 51.8353 123.502 51.6401C123.327 50.149 123.142 48.6589 122.958 47.1687C122.759 45.5506 122.559 43.9326 122.359 42.3147C122.24 41.3563 122.123 40.3978 122 39.3954L131 39Z" fill="#1D1D1B"/>
<path d="M125.99 53C127.046 52.9982 128.061 53.3617 128.812 54.0113C129.563 54.6608 129.99 55.5437 130 56.4674C130.01 57.3912 129.602 58.2808 128.864 58.9425C128.127 59.6042 127.121 59.9841 126.065 59.9996C125.537 60.0068 125.013 59.9227 124.523 59.7521C124.032 59.5815 123.586 59.3278 123.208 59.0056C122.83 58.6834 122.529 58.299 122.322 57.8746C122.114 57.4501 122.005 56.9941 122 56.5326C121.995 56.0711 122.095 55.6134 122.293 55.1856C122.491 54.7579 122.784 54.3687 123.155 54.0404C123.526 53.712 123.967 53.4511 124.454 53.2726C124.94 53.094 125.462 53.0014 125.99 53V53Z" fill="#1D1D1B"/>
<path d="M84.6515 10L85 14.7266C84.4392 14.7535 83.8968 14.7843 83.3539 14.7991C83.2887 14.8009 83.2119 14.7219 83.1544 14.6696C82.5437 14.1149 81.9349 13.5586 81.3281 13.0008C81.268 12.9392 81.2122 12.8747 81.161 12.8077L81.076 12.8487L81.2245 14.9254C80.6281 14.9537 80.0457 14.9859 79.4627 15C79.4185 15.001 79.3351 14.8757 79.3286 14.8054C79.2701 14.168 79.2233 13.5299 79.1757 12.8919C79.1163 12.0985 79.0585 11.305 79.0022 10.5114C78.9976 10.4475 79.0016 10.3832 79.0016 10.2891C79.5809 10.2612 80.145 10.2285 80.7098 10.2137C80.784 10.2118 80.8727 10.2934 80.9359 10.3507C81.4876 10.8508 82.0349 11.3543 82.5837 11.8565C82.6741 11.9392 82.766 12.0206 82.9107 12.1506C82.8656 11.5351 82.8276 10.9845 82.7839 10.4341C82.7566 10.0907 82.7528 10.0922 83.169 10.0729C83.6472 10.0508 84.1254 10.026 84.6515 10Z" fill="#1D1D1B"/>
<path d="M84 11.5772C84.0167 10.9811 84.2649 10.4075 84.704 9.94957C85.1431 9.49168 85.7474 9.17647 86.4186 9.05521C87.0898 8.93394 87.7885 9.01376 88.4009 9.28167C89.0134 9.54959 89.5036 9.98984 89.7919 10.5308C89.9528 10.8785 90.0219 11.2533 89.994 11.6273C89.966 12.0013 89.8418 12.3651 89.6306 12.6918C89.4193 13.0185 89.1263 13.2997 88.7733 13.5147C88.4203 13.7297 88.0163 13.8729 87.5911 13.9339C86.8713 14.0791 86.1151 13.9831 85.4732 13.6649C84.8313 13.3467 84.3508 12.8298 84.1277 12.2171C84.0693 12.0064 84.0267 11.7927 84 11.5772V11.5772ZM88.1388 11.5021C88.1452 11.3657 88.1206 11.2297 88.0664 11.1016C88.0123 10.9736 87.9297 10.856 87.8233 10.7558C87.7169 10.6555 87.5888 10.5745 87.4464 10.5173C87.304 10.4602 87.15 10.428 86.9933 10.4226C86.8387 10.4251 86.6862 10.4547 86.5451 10.5095C86.4039 10.5644 86.2769 10.6434 86.1716 10.7419C86.0664 10.8404 85.985 10.9563 85.9323 11.0828C85.8797 11.2092 85.8569 11.3436 85.8652 11.4779C85.8534 11.7533 85.9676 12.0216 86.1828 12.2239C86.3981 12.4262 86.6968 12.5459 87.0134 12.5569C87.1682 12.5553 87.3209 12.5263 87.4624 12.4718C87.6039 12.4172 87.7311 12.3382 87.8364 12.2395C87.9417 12.1409 88.0227 12.0246 88.0747 11.8978C88.1267 11.7711 88.1485 11.6364 88.1388 11.5021V11.5021Z" fill="#1D1D1B"/>
<path d="M75.6741 10.5415C75.6423 10.5957 75.6239 10.6324 75.6005 10.6662C75.372 10.996 75.1427 11.3253 74.9349 11.6241C74.5095 11.517 74.1122 11.4066 73.7086 11.3205C73.5475 11.2875 73.3806 11.2851 73.2184 11.3135C73.112 11.3324 73.0222 11.4286 72.925 11.4903C73.0086 11.5637 73.0802 11.6798 73.1781 11.7025C73.46 11.768 73.7555 11.784 74.0402 11.8416C74.3899 11.9021 74.7341 11.9863 75.0699 12.0935C75.3254 12.1672 75.5501 12.3098 75.7141 12.5022C75.8781 12.6947 75.9736 12.9279 75.988 13.1708C76.0235 13.4321 75.98 13.6972 75.8621 13.9377C75.7442 14.1782 75.5563 14.3851 75.3187 14.5361C74.9431 14.7781 74.5021 14.9231 74.0427 14.9555C73.0935 15.0864 72.1232 14.9266 71.2851 14.5015C71.1927 14.4515 71.1081 14.3896 71 14.3205L71.8685 13.2525C71.9461 13.2878 72.0187 13.3163 72.0864 13.3524C72.6074 13.6216 73.2066 13.7397 73.8036 13.6908C73.8768 13.6933 73.9497 13.6797 74.0158 13.651C74.0907 13.6121 74.1471 13.5494 74.1742 13.4751C74.1823 13.4293 74.0958 13.3369 74.0333 13.3196C73.8247 13.262 73.6076 13.2294 73.3941 13.1863C72.9841 13.1037 72.5641 13.0486 72.1669 12.9306C71.8958 12.8752 71.6504 12.7447 71.4649 12.557C71.2793 12.3693 71.1627 12.1338 71.1314 11.8832C71.0783 11.5893 71.1242 11.2877 71.263 11.0178C71.4018 10.748 71.6271 10.5224 71.9094 10.3706C72.4376 10.0968 73.0429 9.96998 73.6499 10.006C74.2755 9.99305 74.8936 10.1307 75.4415 10.405C75.5183 10.4454 75.591 10.4925 75.6741 10.5415Z" fill="#1D1D1B"/>
<path d="M65 16C65.3029 15.1865 65.5855 14.4247 65.8705 13.6637C66.1676 12.8703 66.4724 12.0794 66.7606 11.2832C66.7728 11.2198 66.8095 11.1626 66.864 11.1226C66.9184 11.0826 66.9868 11.0625 67.0561 11.0661C67.4999 11.0488 67.9428 11.0134 68.3866 11C68.4305 11.0011 68.4736 11.0115 68.5125 11.0305C68.5515 11.0494 68.5852 11.0763 68.6112 11.1092C69.4007 12.5762 70.1845 14.0459 70.9626 15.5182C70.9787 15.561 70.9912 15.6049 71 15.6496C70.5197 15.6795 70.0556 15.7093 69.5915 15.737C69.1552 15.7631 69.1424 15.767 68.9727 15.389C68.9515 15.3068 68.8963 15.2356 68.8189 15.1911C68.7415 15.1465 68.6483 15.1321 68.5595 15.1511C68.1535 15.1907 67.7442 15.208 67.3357 15.2162C67.1366 15.2202 67.0093 15.2759 66.9885 15.4676C66.9506 15.8157 66.7483 15.9349 66.3751 15.9281C65.9339 15.9202 65.4915 15.9715 65 16ZM68.3355 14.0173L67.8071 12.9344L67.43 14.0743L68.3355 14.0173Z" fill="#1D1D1B"/>
<path d="M65 14.5322C64.8202 14.9127 64.5427 15.244 64.1931 15.4958C63.8436 15.7476 63.4331 15.9116 62.9995 15.973C62.5659 16.0343 62.123 15.9909 61.7116 15.8468C61.3003 15.7026 60.9335 15.4624 60.6452 15.1481C60.3569 14.8338 60.1562 14.4556 60.0616 14.0482C59.967 13.6409 59.9815 13.2174 60.1039 12.8167C60.2262 12.4161 60.4523 12.0512 60.7616 11.7554C61.0708 11.4597 61.4532 11.2428 61.8736 11.1245C62.4124 10.9522 62.9967 10.9589 63.531 11.1435C64.0653 11.3281 64.5181 11.6797 64.8153 12.1408L63.5087 12.9759C63.4269 12.837 63.3123 12.7181 63.174 12.6286C63.0357 12.5391 62.8774 12.4813 62.7117 12.4599C62.5302 12.4418 62.3473 12.4788 62.1892 12.5656C62.0312 12.6524 61.906 12.7846 61.8317 12.9432C61.7392 13.1256 61.6952 13.3268 61.7035 13.5292C61.7118 13.7316 61.7721 13.9289 61.8793 14.1039C61.9569 14.2377 62.0709 14.3493 62.2093 14.4269C62.3478 14.5045 62.5056 14.5454 62.6662 14.5451C62.8269 14.5449 62.9845 14.5036 63.1227 14.4256C63.2609 14.3476 63.3745 14.2357 63.4518 14.1016C63.5714 13.9245 63.6507 13.8911 63.8498 13.9962C64.2238 14.1936 64.6178 14.3565 65 14.5322Z" fill="#1D1D1B"/>
<path d="M76 10.1065L77.6832 10L78 14.887L76.3097 15L76 10.1065Z" fill="#1D1D1B"/>
<path d="M86.2717 27.9847L86 24.2184C86.0564 24.2021 86.1142 24.1898 86.1727 24.1816C87.2451 24.1155 88.3169 24.0216 89.3904 24C89.8749 23.9988 90.3564 24.0699 90.8157 24.2105C91.1442 24.3078 91.4316 24.4951 91.6387 24.7469C91.8459 24.9987 91.9625 25.3027 91.9728 25.6172C92.0346 25.9432 91.9906 26.2786 91.8464 26.5822C91.7022 26.8858 91.464 27.1445 91.1609 27.3266C90.7422 27.589 90.2546 27.7456 89.7478 27.7803C88.6395 27.8642 87.5294 27.9287 86.42 28C86.3702 27.9982 86.3207 27.9931 86.2717 27.9847Z" fill="white"/>
<path d="M68.5174 57L68 48.0963C68.3868 48.0732 68.7632 48.0523 69.1394 48.0281C70.1499 47.9448 71.1676 48.0471 72.1395 48.3297C72.8986 48.527 73.5756 48.9504 74.0759 49.541C74.5763 50.1316 74.8751 50.8598 74.9306 51.6239C75.0467 52.3713 75.0169 53.1334 74.8429 53.87C74.6913 54.431 74.4032 54.9482 74.0031 55.3776C73.603 55.807 73.1026 56.1361 72.5444 56.3369C71.6617 56.6955 70.7207 56.8986 69.7652 56.9367C69.3659 56.962 68.9659 56.9776 68.5174 57Z" fill="white"/>
<path d="M91 54L92.7015 49L95 53.786L91 54Z" fill="white"/>
<path d="M87.998 12.0115C88.0066 12.1374 87.9874 12.2636 87.9417 12.3824C87.8961 12.5013 87.8249 12.6102 87.7324 12.7027C87.64 12.7951 87.5282 12.8692 87.404 12.9203C87.2797 12.9714 87.1456 12.9985 87.0097 13C86.7317 12.9897 86.4694 12.8775 86.2804 12.688C86.0914 12.4984 85.9911 12.247 86.0015 11.9889C85.9941 11.8631 86.0142 11.7372 86.0604 11.6187C86.1066 11.5002 86.1781 11.3915 86.2705 11.2992C86.363 11.207 86.4745 11.1329 86.5985 11.0815C86.7224 11.0301 86.8563 11.0024 86.992 11C87.1297 11.005 87.2649 11.0352 87.3899 11.0888C87.515 11.1423 87.6275 11.2183 87.7209 11.3122C87.8144 11.4062 87.8869 11.5163 87.9345 11.6363C87.982 11.7563 88.0036 11.8838 87.998 12.0115V12.0115Z" fill="white"/>
<path d="M69 13.95L68 14L68.4164 13L69 13.95Z" fill="white"/>
</svg>
