<svg width="184" height="80" viewBox="0 0 184 80" fill="none" xmlns="http://www.w3.org/2000/svg">
<path d="M49 23.0123C47.4003 25.1759 45.9158 27.2099 44.3883 29.2097C44.1456 29.4098 43.838 29.5088 43.5271 29.4869C40.589 29.5281 37.645 29.4361 34.7135 29.5927C33.1943 29.6415 31.7205 30.1336 30.4655 31.0109C29.2106 31.8883 28.2268 33.1145 27.6302 34.5449C26.8889 35.9738 26.5631 37.5902 26.6914 39.2027C26.8198 40.8152 27.3968 42.3563 28.3544 43.6437C29.1943 44.8387 30.3088 45.8037 31.5995 46.4535C32.8903 47.1034 34.3175 47.418 35.7553 47.3697C37.025 47.3941 38.2958 47.3887 39.5658 47.3705C39.945 47.3928 40.3248 47.3358 40.6819 47.2032C41.039 47.0705 41.366 46.8649 41.643 46.5989C41.92 46.3328 42.1412 46.0119 42.2932 45.6557C42.4452 45.2994 42.5248 44.9152 42.5272 44.5265C42.5295 44.1378 42.4546 43.7526 42.3069 43.3944C42.1592 43.0363 41.9418 42.7126 41.668 42.4431C41.3942 42.1736 41.0697 41.9639 40.7143 41.8267C40.3588 41.6896 39.9798 41.6279 39.6002 41.6453C37.3592 41.6108 35.1173 41.6334 32.8759 41.6315C32.6048 41.6312 32.3338 41.6315 31.8901 41.6315C32.3257 41.0229 32.6698 40.5202 33.0358 40.0348C34.1598 38.5447 35.2852 37.0555 36.4304 35.5825C36.5778 35.3913 36.7926 35.2668 37.0286 35.2359C39.4687 35.2186 41.909 35.2334 44.3492 35.2432C44.3921 35.2434 44.4349 35.2852 44.5168 35.328C44.4453 36.3437 44.3196 37.3746 44.3094 38.4067C44.2608 42.5954 45.6969 46.6602 48.3519 49.8488C48.5728 50.1419 48.6894 50.5034 48.6823 50.8735C48.6737 51.3019 48.5809 51.7242 48.4093 52.1151C48.2378 52.506 47.991 52.8576 47.6838 53.1488C47.3766 53.44 47.0152 53.665 46.6212 53.8102C46.2272 53.9554 45.8087 54.0179 45.3905 53.994C42.0283 54.0014 38.666 54.002 35.3037 53.9956C32.0159 54.0492 28.8027 52.9916 26.1621 50.9867C23.5215 48.9818 21.601 46.1416 20.6983 42.9063C19.9277 40.4554 19.7922 37.8419 20.3051 35.3214C20.818 32.8009 21.9617 30.4598 23.6242 28.5274C25.0262 26.7456 26.8122 25.3201 28.8423 24.3622C30.8724 23.4044 33.0917 22.9402 35.3263 23.0062C39.585 23.035 43.8441 23.0122 48.103 23.0123H49Z" fill="white"/>
<path d="M54.307 35.0083C54.1494 35.7548 53.9888 36.3966 53.8805 37.0474C53.6854 38.2159 53.7267 39.4125 54.0018 40.5642C54.2769 41.7159 54.7801 42.7985 55.4807 43.7457C56.1812 44.693 57.0643 45.485 58.0761 46.0735C59.0878 46.6619 60.207 47.0344 61.3651 47.1682C63.2209 47.3329 65.0849 47.3829 66.9467 47.318C67.3136 47.3154 67.6765 47.2388 68.0141 47.0926C68.3518 46.9464 68.6576 46.7336 68.9137 46.4663C69.1699 46.1991 69.3713 45.8828 69.5064 45.5359C69.6415 45.1889 69.7075 44.8181 69.7006 44.445C69.7 44.0663 69.6256 43.6916 69.4816 43.3424C69.3376 42.9932 69.1269 42.6766 68.8617 42.4108C68.5964 42.145 68.282 41.9354 67.9365 41.7941C67.591 41.6528 67.2214 41.5826 66.8491 41.5877C64.4566 41.5465 62.063 41.5706 59.6699 41.567C59.4022 41.5666 59.1344 41.567 58.6689 41.567C59.441 40.5294 60.0911 39.6415 60.7563 38.7653C61.5399 37.7332 62.3672 36.7337 63.1128 35.6744C63.2326 35.4839 63.4017 35.3306 63.6015 35.2313C63.8013 35.132 64.0241 35.0905 64.2455 35.1113C66.9157 35.1284 69.586 35.1148 72.2563 35.1207C72.7609 35.0584 73.2728 35.114 73.753 35.2832C74.2332 35.4524 74.6692 35.7308 75.0276 36.0972C75.3861 36.4635 75.6576 36.9083 75.8215 37.3975C75.9854 37.8867 76.0374 38.4074 75.9735 38.9202C75.9852 42.2985 75.9789 45.677 75.9746 49.0554C75.9931 49.7202 75.9757 50.3855 75.9223 51.0483C75.899 51.459 75.7963 51.8609 75.6202 52.2312C75.444 52.6015 75.1978 52.9329 74.8957 53.2064C74.5935 53.4799 74.2413 53.6902 73.8592 53.8252C73.4771 53.9603 73.0726 54.0174 72.6687 53.9935C69.142 54.0023 65.6152 54.0022 62.0884 53.9932C58.6915 53.9441 55.4071 52.7478 52.7521 50.5925C50.0972 48.4372 48.2226 45.4453 47.4233 42.0878C46.9333 39.9661 46.868 37.7659 47.2312 35.618C47.2894 35.2638 47.3511 34.996 47.8141 35C49.9528 35.0188 52.0917 35.0083 54.307 35.0083Z" fill="white"/>
<path d="M146.996 43.6904C146.996 44.7883 147.007 45.8121 146.991 46.8355C146.983 47.3817 146.553 47.2246 146.264 47.2253C142.747 47.234 139.231 47.2358 135.714 47.231H134.889C135.148 47.9051 135.601 48.4811 136.186 48.8814C136.772 49.2817 137.462 49.4873 138.164 49.4704C140.808 49.487 143.451 49.4764 146.095 49.4772C146.363 49.4773 146.631 49.4772 146.951 49.4772V52.9612C146.708 52.9738 146.489 52.9949 146.271 52.9951C143.578 52.9971 140.884 53.0058 138.191 52.9938C136.273 52.9762 134.441 52.1753 133.093 50.766C131.746 49.3567 130.993 47.4537 131 45.4729C131.007 43.4922 131.773 41.5948 133.13 40.1955C134.487 38.7962 136.325 38.0088 138.243 38.0055C140.911 37.9949 143.58 38.0029 146.248 38.0027H146.957V41.4474C146.682 41.4635 146.419 41.4919 146.156 41.4922C143.563 41.4959 140.969 41.4856 138.375 41.4997C137.825 41.487 137.278 41.5946 136.771 41.8154C136.263 42.0362 135.807 42.3653 135.431 42.781C135.207 43.0701 135 43.3739 134.813 43.6904L146.996 43.6904Z" fill="white"/>
<path d="M160.636 49.0393L166 52.8186L165.952 52.9671C164.399 52.9671 162.836 53.0683 161.297 52.9157C160.708 52.8573 160.163 52.2332 159.614 51.8423C157.999 50.6914 156.406 49.5061 154.773 48.382C154.522 48.2367 154.327 48.0059 154.223 47.7288C154.118 47.4517 154.11 47.1456 154.199 46.8629C154.272 46.5985 154.434 46.3702 154.657 46.22C154.879 46.0698 155.147 46.0078 155.41 46.0456C156.927 46.03 158.444 46.0478 159.961 46.0341C160.475 46.0618 160.983 45.9148 161.408 45.6157C161.833 45.3165 162.152 44.8816 162.316 44.3774C162.483 43.8748 162.491 43.3299 162.338 42.8224C162.185 42.315 161.878 41.8715 161.464 41.5569C161.18 41.3101 160.831 41.1567 160.462 41.1164C157.679 41.0814 154.896 41.0966 152.017 41.0966V52.9299H149V38.1089C149.064 38.0754 149.106 38.0341 149.148 38.034C152.978 38.0278 156.809 37.9558 160.637 38.0423C163.943 38.1171 166.167 41.7641 165.146 45.2899C164.847 46.3121 164.256 47.217 163.451 47.886C162.647 48.555 161.665 48.957 160.636 49.0393Z" fill="white"/>
<path d="M83.1136 53H80V38.044C80.2596 38.0289 80.5076 38.002 80.7557 38.0018C84.3312 37.9993 87.9067 37.9994 91.4823 38.0023C92.2101 37.988 92.9334 38.1213 93.6087 38.3944C94.284 38.6675 94.8974 39.0746 95.4123 39.5914C95.9273 40.1082 96.333 40.7241 96.6053 41.4021C96.8775 42.0801 97.0107 42.8064 96.9969 43.5373C97.0217 44.2692 96.8973 44.9984 96.6313 45.6803C96.3654 46.3622 95.9635 46.9823 95.4503 47.5025C94.9371 48.0228 94.3234 48.4323 93.647 48.7058C92.9705 48.9793 92.2455 49.1111 91.5165 49.0931C89.4588 49.1115 87.4005 49.075 85.3432 49.1107C84.724 49.1215 84.5126 48.9204 84.5625 48.3146C84.6026 47.7996 84.6029 47.2823 84.5633 46.7673C84.5238 46.2261 84.7253 46.0483 85.2643 46.0546C87.2962 46.0784 89.3285 46.0724 91.3606 46.059C92.007 46.0869 92.6385 45.8588 93.119 45.4237C93.5995 44.9887 93.8907 44.3815 93.9298 43.7329C93.9689 43.0844 93.7528 42.4464 93.328 41.9563C92.9032 41.4662 92.3037 41.1632 91.6587 41.1127C89.0358 41.0643 86.4114 41.1035 83.7879 41.074C83.1754 41.067 83.1442 41.3718 83.1455 41.8395C83.1555 45.3497 83.1567 48.86 83.1491 52.3703C83.1489 52.5488 83.1295 52.7273 83.1136 53Z" fill="white"/>
<path d="M105.964 52.9996C104.92 53.0073 103.886 52.8076 102.919 52.4121C101.953 52.0165 101.074 51.433 100.334 50.6951C99.5933 49.9572 99.0059 49.0796 98.6054 48.1128C98.2049 47.146 97.9991 46.1093 98.0001 45.0624C97.9951 44.0063 98.1981 42.9596 98.5972 41.9823C98.9964 41.005 99.584 40.1164 100.326 39.3674C101.069 38.6184 101.951 38.0237 102.923 37.6174C103.895 37.2112 104.937 37.0014 105.99 37C107.043 36.9986 108.085 37.2058 109.058 37.6095C110.031 38.0132 110.915 38.6056 111.659 39.3527C112.403 40.0998 112.993 40.9869 113.395 41.9632C113.797 42.9394 114.002 43.9856 114 45.0417C113.997 46.0947 113.787 47.1368 113.381 48.1079C112.975 49.0789 112.382 49.9598 111.634 50.6996C110.887 51.4394 110.002 52.0235 109.029 52.4182C108.055 52.813 107.014 53.0106 105.964 52.9996ZM106.059 39.9725C105.059 39.9623 104.078 40.2502 103.241 40.7997C102.404 41.3492 101.748 42.1356 101.357 43.0593C100.966 43.9829 100.857 45.0022 101.044 45.9879C101.231 46.9737 101.705 47.8816 102.407 48.5967C103.109 49.3117 104.007 49.8016 104.987 50.0044C105.966 50.2072 106.984 50.1136 107.911 49.7357C108.838 49.3577 109.632 48.7123 110.192 47.8813C110.753 47.0502 111.055 46.071 111.06 45.0675C111.058 43.7303 110.533 42.4473 109.598 41.4945C108.663 40.5417 107.392 39.9952 106.059 39.9725V39.9725Z" fill="white"/>
<path d="M131.924 52.997C130.577 52.997 129.228 53.0097 127.881 52.9827C127.667 52.9406 127.469 52.8321 127.314 52.6713C125.155 50.8358 123 48.995 120.848 47.1489C120.585 46.9564 120.37 46.6997 120.222 46.401C120.074 46.1023 119.998 45.7704 120 45.434C120.002 45.0976 120.082 44.7667 120.233 44.4698C120.384 44.1729 120.602 43.9189 120.867 43.7296C122.876 42.0278 124.874 40.3128 126.862 38.5845C127.068 38.3861 127.309 38.2325 127.571 38.1325C127.834 38.0326 128.113 37.9884 128.392 38.0026C129.564 38.0528 130.739 38.0172 131.978 38.1717C130.969 39.0509 129.965 39.9363 128.95 40.8079C127.409 42.1318 125.857 43.4424 124.316 44.7663C123.771 45.2344 123.767 45.6872 124.33 46.1745C126.664 48.1944 129.003 50.2072 131.349 52.213C131.572 52.4048 131.783 52.6112 132 52.8109L131.924 52.997Z" fill="white"/>
<path d="M119 53H116V38H119V53Z" fill="white"/>
<path d="M62.135 30C62.1819 29.9968 62.2247 29.986 62.272 29.9834C65.2941 29.8177 68.329 29.915 71.358 29.8713C71.6785 29.8946 71.9955 29.7898 72.2457 29.5778C73.8204 27.4595 75.3508 25.3048 77 23.013H76.0753C71.6847 23.013 67.294 23.0372 62.9037 23.0065C60.6 22.9367 58.3122 23.4283 56.2194 24.443C54.1265 25.4576 52.2854 26.9676 50.84 28.855C50.5392 29.2313 50.2638 29.6142 50 30H62.135Z" fill="white"/>
</svg>
