<svg width="128" height="40" viewBox="0 0 128 40" fill="none" xmlns="http://www.w3.org/2000/svg">
<g clip-path="url(#clip0_224_69)">
<path d="M73.6037 26.7141C73.8688 26.7141 74.1114 26.6126 74.3089 26.4151C74.5063 26.2177 74.6079 25.9807 74.6079 25.7099V1.63656C74.6079 1.37139 74.5063 1.1288 74.3089 0.931337C74.1114 0.733876 73.8688 0.632324 73.6037 0.632324H68.6956C68.4192 0.632324 68.1879 0.733876 67.9904 0.931337C67.7929 1.1288 67.6914 1.37139 67.6914 1.63656V25.7099C67.6914 25.9863 67.7929 26.2177 67.9904 26.4151C68.1879 26.6126 68.4248 26.7141 68.6956 26.7141H73.6037Z" fill="white"/>
<path d="M91.4927 26.7139C92.4574 26.7139 93.1175 26.2231 93.4672 25.2245L101.072 1.93535C101.123 1.76046 101.145 1.65326 101.162 1.60249C101.179 1.55171 101.185 1.50094 101.185 1.45016C101.185 1.22449 101.1 1.03267 100.937 0.86906C100.773 0.711091 100.581 0.626465 100.361 0.626465H95.6618C95.1653 0.626465 94.8155 0.733658 94.6068 0.942403C94.3924 1.15679 94.2683 1.35989 94.2175 1.55735L89.033 17.9523L83.8485 1.55735C83.7977 1.35989 83.6679 1.15679 83.4592 0.942403C83.2448 0.733658 82.8951 0.626465 82.4043 0.626465H77.7049C77.4792 0.626465 77.2874 0.711091 77.1295 0.86906C76.9658 1.03267 76.8869 1.22449 76.8869 1.45016C76.8869 1.50094 76.8869 1.55171 76.9038 1.60249C76.9094 1.65326 76.9433 1.76046 76.9941 1.93535L84.5988 25.2245C84.9486 26.2231 85.603 26.7139 86.5733 26.7139H91.4927Z" fill="white"/>
<path d="M118.23 17.7717L126.845 1.93535C126.946 1.76046 126.997 1.60249 126.997 1.45016C126.997 1.22449 126.912 1.03267 126.755 0.86906C126.591 0.711091 126.399 0.626465 126.179 0.626465H121.068C120.571 0.626465 120.193 0.750583 119.945 0.99882C119.697 1.24706 119.556 1.43888 119.505 1.55735L114.755 10.7252L110.044 1.55735C109.994 1.43888 109.847 1.24706 109.593 0.99882C109.345 0.750583 108.978 0.626465 108.476 0.626465H103.365C103.139 0.626465 102.947 0.711091 102.789 0.86906C102.626 1.03267 102.547 1.22449 102.547 1.45016C102.547 1.60249 102.598 1.76046 102.699 1.93535L111.308 17.7717V25.7097C111.308 25.9861 111.41 26.2174 111.607 26.4149C111.805 26.6124 112.042 26.7139 112.312 26.7139H117.22C117.486 26.7139 117.728 26.6124 117.926 26.4149C118.123 26.2174 118.225 25.9805 118.225 25.7097V17.7717H118.23Z" fill="white"/>
<path d="M5.42148 16.429C5.42148 16.429 5.42148 12.4572 5.42148 10.1554C5.42148 5.03266 3.4526 3.42476 1.81092 3.43041C1.10009 3.43605 0.468244 3.72942 0 4.23718C1.94632 1.69275 4.99272 0.0566406 8.41711 0.0566406C14.2899 0.0566406 19.0513 3.85354 19.0513 10.8211V28.2936C14.0022 28.2936 5.42148 24.948 5.42148 16.429ZM37.6739 35.7407V10.8211C37.6739 3.8479 32.9068 0.0566406 27.034 0.0566406C23.6097 0.0566406 20.5633 1.69275 18.6169 4.23718C19.0852 3.72942 19.717 3.43041 20.4279 3.43041C22.0695 3.42476 24.0384 5.03831 24.0384 10.1554C24.0384 12.4572 24.0384 23.8817 24.0384 23.8817C24.0384 32.3951 32.6191 35.7407 37.6739 35.7407ZM56.2908 39.9889V10.8211C56.2908 3.8479 51.5294 0.0566406 45.651 0.0566406C42.2266 0.0566406 39.1802 1.69275 37.2339 4.23718C37.7021 3.72942 38.334 3.43041 39.0448 3.43041C40.6865 3.42476 42.6553 5.03831 42.6553 10.1554C42.6553 12.4572 42.6553 28.1243 42.6553 28.1243C42.6553 36.6377 51.2361 39.9889 56.2908 39.9889Z" fill="#CEBA80"/>
<path d="M74.1379 40.0002L71.2833 32.3838H70.5725L67.6953 40.0002H68.581L69.4611 37.6588H72.3326L73.2296 40.0002H74.1379ZM69.7601 37.0721L70.6007 34.5728C70.7304 34.1497 70.8376 33.766 70.911 33.4106C71.0182 33.8676 71.131 34.2625 71.2382 34.5728L72.0731 37.0721H69.7601Z" fill="white"/>
<path d="M76.8644 36.4853H79.8488V35.8986H76.8644V32.9705H80.0463V32.3838H75.9844V40.0002H76.8644V36.4853Z" fill="white"/>
<path d="M82.9738 36.4853H85.9582V35.8986H82.9738V32.9705H86.1556V32.3838H82.0938V40.0002H82.9738V36.4853Z" fill="white"/>
<path d="M89.1184 40.0002V32.3838H88.2383V40.0002H89.1184Z" fill="white"/>
<path d="M96.0098 40.0002V39.4134H92.8449V32.3838H91.9648V40.0002H96.0098Z" fill="white"/>
<path d="M98.9973 40.0002V32.3838H98.1172V40.0002H98.9973Z" fill="white"/>
<path d="M107.296 40.0002L104.442 32.3838H103.731L100.859 40.0002H101.745L102.625 37.6588H105.497L106.394 40.0002H107.296ZM102.924 37.0721L103.765 34.5728C103.894 34.1497 104.002 33.766 104.075 33.4106C104.182 33.8676 104.295 34.2625 104.402 34.5728L105.237 37.0721H102.924Z" fill="white"/>
<path d="M111.501 32.9705H113.898V32.3838H108.234V32.9705H110.632V40.0002H111.501V32.9705Z" fill="white"/>
<path d="M120.067 39.4134H116.755V36.4853H119.864V35.8986H116.755V32.9705H120.067V32.3838H115.875V40.0002H120.067V39.4134Z" fill="white"/>
<path d="M126.42 36.6892C126.116 36.3789 125.568 36.0742 124.773 35.8034C124.299 35.6398 123.938 35.4931 123.712 35.3521C123.475 35.2167 123.312 35.0587 123.216 34.8951C123.114 34.7315 123.069 34.5171 123.069 34.2632C123.069 33.8626 123.199 33.5467 123.464 33.321C123.729 33.0897 124.096 32.9712 124.57 32.9712C125.157 32.9712 125.766 33.1066 126.409 33.3662L126.685 32.7004C126.042 32.4973 125.348 32.3901 124.598 32.3901C123.865 32.3901 123.284 32.565 122.844 32.9035C122.404 33.242 122.184 33.6934 122.184 34.2576C122.184 34.8048 122.33 35.2449 122.641 35.5834C122.945 35.9219 123.447 36.2152 124.158 36.4522C124.671 36.6327 125.044 36.7907 125.292 36.9261C125.54 37.0615 125.715 37.2082 125.822 37.3774C125.93 37.5411 125.986 37.7554 125.986 38.0093C125.986 38.4607 125.828 38.8048 125.54 39.053C125.236 39.3013 124.79 39.4198 124.203 39.4198C123.837 39.4198 123.464 39.3859 123.098 39.3126C122.731 39.2392 122.392 39.1377 122.082 39.0023V39.7413C122.567 39.9219 123.261 40.0065 124.169 40.0065C125.004 40.0065 125.659 39.826 126.144 39.4593C126.629 39.0925 126.877 38.5904 126.877 37.9303C126.877 37.4169 126.719 37.0051 126.42 36.6892Z" fill="white"/>
</g>
<defs>
<clipPath id="clip0_224_69">
<rect width="127.046" height="40" fill="white"/>
</clipPath>
</defs>
</svg>
