<svg width="184" height="80" viewBox="0 0 184 80" fill="none" xmlns="http://www.w3.org/2000/svg">
<path d="M32.5766 50.8714C32.4846 51.3152 32.2592 51.4452 31.7625 51.524C29.4152 51.7201 27.0584 51.7854 24.7035 51.7196C21.7077 51.7519 19.1819 49.6496 20.2491 45.6874C21.6871 40.2767 25.2269 27.0001 25.2269 27.0001H29.7333L24.8089 45.4273C24.7362 45.8115 24.6769 46.1778 24.6502 46.4975C24.5509 47.7634 25.0948 48.1559 26.6381 48.1559H32.6432C32.7093 48.154 32.7752 48.165 32.837 48.1882C32.8988 48.2114 32.9554 48.2464 33.0034 48.2912C33.0515 48.3359 33.0901 48.3896 33.117 48.4491C33.144 48.5086 33.1588 48.5728 33.1605 48.6379C33.1631 48.7125 33.1472 48.7866 33.1144 48.8538L32.5766 50.8714M44.0899 36.8824C41.2733 36.8824 40.0461 38.8403 39.3436 41.452L38.4689 44.7676C38.359 45.1974 38.2749 45.6332 38.217 46.0728C37.9988 47.8743 38.9535 48.4817 40.2521 48.4817C41.7348 48.3766 43.1686 47.9149 44.4279 47.137L47.1585 37.0913C46.1399 36.9466 45.1118 36.8768 44.0827 36.8825M51.9375 35.1334L47.6951 51.0671C47.6404 51.2433 47.5337 51.3995 47.3885 51.5158C47.2433 51.632 47.0662 51.703 46.8798 51.7197H44.2292C43.8574 51.7197 43.7387 51.4453 43.798 51.1518L43.9906 50.1854C42.5128 51.3327 40.6887 51.9621 38.807 51.9738C35.8111 51.9738 33.7372 50.0159 33.9625 46.21C34.0521 45.5507 34.1803 44.8969 34.3465 44.2521C34.5718 43.2333 34.8504 42.1369 35.0091 41.4842C36.4277 36.4912 39.7216 33.456 44.9513 33.456C47.1288 33.488 49.2943 33.7817 51.3997 34.3305C51.8976 34.4605 52.003 34.6371 51.871 35.1728M70.9593 27.0002H66.6043L64.8549 33.5991C63.845 33.4835 62.8296 33.4201 61.813 33.4094C56.576 33.4094 53.3222 35.6226 51.8309 41.4449C51.8309 41.4449 51.3475 43.2858 51.1682 43.9324C51.0037 44.5076 50.9014 45.0983 50.863 45.6946C50.5916 49.2321 52.2755 51.9679 56.828 51.9679C59.1101 51.9479 61.3826 51.6741 63.6023 51.1518C64.3704 50.9693 64.5569 50.7855 64.7156 50.2904L70.9593 27.0002ZM60.8645 36.8633C61.6265 36.8633 63.0184 36.9743 63.8931 37.0721L60.9312 48.305C59.8829 48.4398 58.8265 48.5032 57.7693 48.4947C55.6349 48.4947 54.9928 47.6918 55.1188 45.9165C55.1855 45.2451 55.303 44.5795 55.4702 43.9252C55.6022 43.3442 56.1328 41.4388 56.1328 41.4388C56.9274 38.332 58.0807 36.8693 60.8912 36.8693M84.3468 41.4316C84.5186 40.7899 84.6341 40.1349 84.6921 39.4738C85.0361 35.8516 83.2069 33.3961 78.7271 33.3961C77.6617 33.4068 76.5975 33.4701 75.5386 33.5858L77.3351 27H73.0066C73.0066 27 67.8302 46.4843 66.7375 50.4203C66.5776 50.9942 67.4001 51.1254 67.4001 51.1445C69.4704 51.6803 71.6014 51.9545 73.7419 51.9606C79.1243 51.9606 82.2922 49.2845 83.6842 43.9252L84.3468 41.4316ZM77.8184 36.8562C79.959 36.8562 80.5562 37.8154 80.4229 39.5585C80.3794 40.1985 80.2616 40.8313 80.0716 41.4448L79.409 43.9324C78.7463 46.315 77.4937 48.5019 74.6772 48.5019C73.6465 48.5163 72.6161 48.4529 71.5953 48.3122L74.5973 37.0722C75.5591 36.9672 77.0237 36.8634 77.7917 36.8634M97.3575 34.0561C97.3999 33.9423 97.3948 33.8166 97.3432 33.7065C97.2917 33.5965 97.1979 33.5111 97.0825 33.469H97.0789C97.0264 33.4595 96.9726 33.4595 96.9201 33.469C95.1034 33.3985 93.3161 33.9368 91.8503 34.9962L92.0151 34.3436C92.0606 34.2241 92.0562 34.0918 92.0028 33.9755C91.9494 33.8592 91.8515 33.7685 91.7304 33.7232C91.6678 33.6965 91.5996 33.6855 91.5317 33.691H88.6946C88.5081 33.7 88.3297 33.7685 88.1863 33.8863C88.0429 34.004 87.9424 34.1645 87.8999 34.3436C87.8999 34.3436 84.1553 48.2991 83.4128 50.9883C83.2868 51.4453 83.4128 51.7782 83.9033 51.7782H86.8387C87.0289 51.7688 87.2112 51.7007 87.3599 51.5836C87.5086 51.4664 87.6161 51.3062 87.6672 51.1256L91.1343 38.2139C92.6131 37.4429 94.2657 37.0522 95.9388 37.0781C96.1232 37.0623 96.2983 36.9912 96.4406 36.8746C96.5828 36.7579 96.6855 36.6012 96.7347 36.4255C96.7347 36.4255 97.1261 34.9759 97.3441 34.0953M111.661 39.7351C111.972 36.3729 110.162 33.4427 105.696 33.4427C100.579 33.4427 97.1914 36.1511 95.7535 41.4185C95.7535 41.4185 95.3488 42.8681 95.1369 43.6448C94.9564 44.2734 94.828 44.9154 94.7528 45.5645C94.4682 48.9457 96.2369 52 100.718 52C105.874 52 109.155 49.3239 110.66 44.0039L111.323 41.5104C111.495 40.9302 111.615 40.3361 111.68 39.7351M104.747 37.0327C106.65 37.0327 107.491 38.0767 107.3 39.9701C107.261 40.4485 107.178 40.9224 107.054 41.3863L106.324 43.9967C105.51 47.0201 103.979 48.3778 101.686 48.3778C101.296 48.4307 100.899 48.3885 100.53 48.2548C100.161 48.1212 99.8311 47.9002 99.5692 47.6113C99.3072 47.3224 99.1214 46.9745 99.0281 46.5982C98.9348 46.222 98.9369 45.8289 99.0341 45.4536C99.1129 44.88 99.2327 44.3127 99.3926 43.7558C99.5453 43.1032 100.055 41.4185 100.055 41.4185C100.936 38.2402 102.706 37.065 104.741 37.065M129.396 34.2911C129.709 34.0238 129.761 33.5991 129.191 33.5991H125.307C125.15 33.595 124.995 33.6285 124.854 33.6967C124.713 33.7648 124.591 33.8656 124.498 33.9904L117.414 40.89L121.151 27.0001H116.824C116.824 27.0001 112.377 44.0434 110.408 51.0145C110.385 51.0754 110.373 51.1402 110.375 51.2054C110.377 51.2705 110.392 51.3346 110.419 51.3941C110.446 51.4535 110.485 51.507 110.533 51.5517C110.581 51.5963 110.638 51.6311 110.7 51.654L110.739 51.6671C110.794 51.6767 110.85 51.6767 110.905 51.6671H113.893C114.083 51.6592 114.266 51.5915 114.414 51.4741C114.562 51.3567 114.668 51.1956 114.716 51.0145L116.751 43.3836L120.064 51.0336C120.119 51.2076 120.224 51.3621 120.366 51.478C120.509 51.594 120.683 51.6664 120.866 51.6862H124.559C124.694 51.6933 124.826 51.6472 124.927 51.5582C125.027 51.4691 125.088 51.3444 125.095 51.2114V51.2102C125.102 51.1191 125.081 51.0283 125.035 50.9489C124.339 49.448 120.82 42.2477 120.82 42.2477L129.396 34.2911ZM142.433 42.2084C142.646 41.4715 142.797 40.7184 142.884 39.957C143.262 36.1379 141.419 33.3509 137.091 33.3509C132.081 33.3509 128.668 35.564 127.037 41.5629C127.037 41.5629 126.772 42.4374 126.547 43.3907C126.385 44.0793 126.264 44.7764 126.182 45.4786C125.791 50.3285 129.151 51.9153 132.048 51.9153C134.269 51.9248 136.486 51.7435 138.675 51.3736C139.338 51.2818 139.418 51.073 139.571 50.5576C139.571 50.5576 140.233 47.9459 140.233 47.8815C138.005 48.1671 135.76 48.3129 133.512 48.3182C131.06 48.3182 130.311 47.1561 130.423 45.4011C130.475 44.9596 130.564 44.523 130.689 44.0959H141.293C141.744 44.0959 142.029 43.8214 142.155 43.312C142.155 43.312 142.267 42.9076 142.447 42.1762M136.157 36.9862C137.933 36.9862 138.848 37.992 138.682 39.8592C138.637 40.2686 138.562 40.6741 138.456 41.0726H131.485C132.101 38.7365 133.472 36.9862 136.124 36.9862M157.485 34.0429C155.622 33.5942 153.71 33.375 151.792 33.3903C148.696 33.3903 144.833 34.3699 144.501 38.6518C144.445 39.386 144.579 40.1223 144.889 40.7921C145.2 41.4619 145.677 42.0435 146.277 42.4828L150.002 45.1529C150.29 45.3033 150.527 45.531 150.688 45.8094C150.849 46.0878 150.926 46.4054 150.911 46.7254C150.751 48.2012 149.584 48.4817 147.988 48.4817C147.252 48.4817 144.329 48.3314 142.798 48.156C142.618 48.1358 142.435 48.1756 142.28 48.269C142.126 48.3623 142.007 48.504 141.943 48.6714L141.433 50.6686C141.412 50.7333 141.405 50.8014 141.411 50.8688C141.418 50.9363 141.438 51.0018 141.47 51.0618C141.502 51.1217 141.545 51.1748 141.598 51.2181C141.651 51.2614 141.712 51.294 141.778 51.3141L141.803 51.3212H141.857C143.772 51.7243 145.724 51.9298 147.682 51.9345C151.54 51.9345 155.013 50.257 155.411 46.2363C155.507 45.4385 155.36 44.6308 154.99 43.9152C154.619 43.1996 154.042 42.6081 153.33 42.2156L149.758 39.6039C149.134 39.1863 148.862 38.7556 148.889 38.2987C148.975 36.9349 150.533 36.8168 151.54 36.8168C153.25 36.83 154.958 36.9612 156.651 37.2094C157.207 37.3 157.399 36.8109 157.491 36.5556L157.969 34.754C158.019 34.607 158.008 34.4463 157.939 34.307C157.869 34.1677 157.747 34.0612 157.598 34.0107H157.531" fill="white"/>
</svg>
