<svg width="184" height="80" viewBox="0 0 184 80" fill="none" xmlns="http://www.w3.org/2000/svg">
<path d="M162.54 41.0814C162.908 40.7391 163.193 40.3165 163.372 39.8462C163.552 39.3759 163.622 38.8705 163.576 38.3688C163.584 37.3498 163.23 36.3613 162.577 35.5813C160.843 34.1981 158.685 33.4625 156.471 33.5002C155.278 33.4042 154.079 33.5933 152.973 34.0519C151.867 34.5106 150.884 35.2258 150.106 36.1391C150.07 36.0641 149.995 35.9904 149.958 35.9155C148.7 34.3921 146.627 33.537 143.63 33.537C142.697 33.5321 141.766 33.6318 140.854 33.8343V33.7975H132.677V34.2803C132.233 33.983 131.9 33.5002 129.791 33.5002C128.758 33.5001 127.736 33.7184 126.792 34.1408C125.848 34.5633 125.004 35.1805 124.313 35.9524C123.525 35.1234 122.569 34.475 121.509 34.0518C120.449 33.6286 119.31 33.4404 118.171 33.5002H117.911V28H95.0796V33.5738H94.8203C93.5701 33.5404 92.3276 33.7789 91.1779 34.273C90.0281 34.7671 88.9984 35.5051 88.1594 36.4363C87.3841 35.4648 86.388 34.6945 85.2546 34.1899C84.1213 33.6854 82.8839 33.4615 81.6465 33.537C79.6789 33.4927 77.7606 34.1582 76.2398 35.4128C74.7189 36.6674 73.6963 38.428 73.3574 40.375H68.4361V35.5445H70.7298V28.0737H58V35.5813H59.9989V43.0888H58V50.5952H75.541V48.3285C77.3914 50.0375 79.8377 50.9454 82.35 50.8557C84.5568 50.926 86.7418 50.3999 88.6769 49.3323L89.1589 48.9969C90.7778 50.2195 92.7585 50.8611 94.7837 50.8188C96.3113 50.8625 97.8229 50.4964 99.1628 49.758C100.503 49.0197 101.622 47.936 102.406 46.6184L103.48 48.7377C103.723 49.3881 104.166 49.9439 104.745 50.3247C105.323 50.7054 106.008 50.8914 106.699 50.8557C107.372 50.8747 108.036 50.6899 108.603 50.3253C109.171 49.9608 109.616 49.4334 109.882 48.8115L110.843 46.7672C111.704 48.1102 112.905 49.1997 114.322 49.9245C115.739 50.6493 117.323 50.9833 118.911 50.8926C120.339 50.9117 121.761 50.7112 123.129 50.298V51.599C123.121 52.0148 123.2 52.4276 123.359 52.8114C123.518 53.1952 123.755 53.5416 124.055 53.8288C125.94 55.338 128.308 56.1043 130.716 55.9835C131.898 56.0606 133.082 55.8664 134.178 55.4158C135.275 54.9652 136.255 54.27 137.044 53.3827C137.866 52.3308 138.378 51.0691 138.524 49.7401C139.678 50.4965 141.032 50.8853 142.409 50.8557C143.21 50.8564 144.008 50.7439 144.778 50.5215V50.5583H151.882V50.2242C153.296 50.7325 154.785 50.9963 156.286 51.0043C160.393 51.0043 163.983 48.96 163.983 45.1319C164.042 44.3926 163.944 43.6492 163.695 42.9509C163.446 42.2526 163.053 41.6154 162.54 41.0814" fill="white"/>
<path d="M156.623 40.5515C154.858 40.0671 154.196 39.7306 154.196 39.0601C154.196 38.4266 154.821 37.8671 156.109 37.8671C156.674 37.8657 157.234 37.9667 157.764 38.1653C157.732 38.3372 157.72 38.5121 157.727 38.6867C157.721 38.8889 157.758 39.0899 157.835 39.2765C157.912 39.463 158.028 39.6307 158.174 39.7684C158.32 39.906 158.494 40.0105 158.683 40.0748C158.872 40.139 159.073 40.1616 159.271 40.141C159.47 40.1437 159.667 40.1041 159.849 40.0249C160.032 39.9456 160.196 39.8285 160.331 39.681C160.466 39.5336 160.569 39.359 160.634 39.1686C160.698 38.9783 160.723 38.7763 160.706 38.5758C160.705 38.2975 160.649 38.0223 160.542 37.7663C160.434 37.5102 160.278 37.2784 160.081 37.0844C158.975 36.1906 157.596 35.7159 156.182 35.7422C152.945 35.7422 151.438 37.6428 151.438 39.4706C151.438 41.4832 152.798 42.2659 155.962 43.1237C157.727 43.6081 158.241 43.9445 158.241 44.5411C158.241 45.3977 157.286 45.8081 156.145 45.8081C155.43 45.8164 154.719 45.6901 154.049 45.4358C154.08 45.2759 154.092 45.113 154.086 44.9502C154.091 44.7431 154.055 44.5371 153.979 44.3447C153.903 44.1523 153.789 43.9776 153.645 43.8311C153.5 43.6847 153.328 43.5696 153.138 43.4929C152.948 43.4162 152.745 43.3795 152.541 43.385C152.337 43.3831 152.136 43.4223 151.947 43.5003C151.759 43.5783 151.588 43.6935 151.444 43.8392C151.301 43.985 151.187 44.1583 151.11 44.3491C151.033 44.5398 150.995 44.7442 150.996 44.9503C150.987 45.2446 151.041 45.5374 151.155 45.8081C151.27 46.0787 151.441 46.3207 151.658 46.5168C152.943 47.4819 154.51 47.9807 156.109 47.933C158.719 47.933 161 46.629 161 44.1677C161 41.9677 159.418 41.2972 156.623 40.5515M132.902 43.7572C132.223 44.466 131.3 44.8804 130.327 44.9133C129.903 44.9293 129.48 44.8526 129.087 44.6884C128.695 44.5242 128.342 44.2763 128.052 43.9616C127.763 43.6469 127.543 43.2727 127.409 42.8644C127.275 42.4561 127.229 42.0233 127.274 41.5954C127.218 41.1619 127.256 40.7212 127.386 40.3041C127.515 39.8871 127.733 39.5037 128.024 39.1806C128.314 38.8576 128.671 38.6027 129.069 38.4337C129.466 38.2648 129.896 38.1858 130.327 38.2023C131.26 38.2012 132.166 38.5161 132.902 39.0971L132.902 43.7572ZM133.011 36.9353C132.1 36.1128 130.922 35.6611 129.702 35.667C128.961 35.6914 128.233 35.8646 127.559 36.1767C126.885 36.4888 126.279 36.9336 125.776 37.4851C125.273 38.0367 124.883 38.6841 124.629 39.3897C124.375 40.0953 124.261 40.845 124.295 41.5954C124.246 42.3309 124.346 43.0689 124.59 43.7634C124.834 44.4579 125.216 45.0942 125.713 45.6326C126.209 46.1711 126.81 46.6002 127.477 46.8933C128.144 47.1864 128.864 47.3372 129.591 47.3364C130.217 47.3454 130.837 47.2168 131.408 46.9593C131.98 46.7018 132.489 46.3217 132.902 45.8451V47.5237C132.94 48.2443 132.76 48.9595 132.386 49.5734C132.105 49.9233 131.743 50.1981 131.333 50.3736C130.923 50.5492 130.476 50.6201 130.033 50.5803C129.444 50.5731 128.861 50.4724 128.304 50.2821C128.335 50.1352 128.348 49.9848 128.341 49.8347C128.34 49.6247 128.297 49.4172 128.214 49.2249C128.13 49.0326 128.009 48.8596 127.858 48.7165C127.706 48.5733 127.527 48.4631 127.332 48.3926C127.137 48.3221 126.93 48.2927 126.723 48.3064C126.515 48.3093 126.309 48.3543 126.118 48.4387C125.927 48.5231 125.755 48.6452 125.611 48.798C125.467 48.9507 125.355 49.131 125.28 49.3282C125.206 49.5255 125.171 49.7358 125.178 49.9469C125.174 50.2313 125.227 50.5137 125.334 50.7766C125.442 51.0394 125.601 51.2772 125.803 51.4751C127.094 52.5179 128.715 53.0481 130.363 52.9665C131.081 53.0518 131.808 52.9738 132.492 52.7382C133.176 52.5026 133.8 52.1154 134.318 51.6047C134.836 51.094 135.235 50.4726 135.486 49.7858C135.737 49.0991 135.834 48.3642 135.77 47.6347V38.3514H137.499V35.8914H133.011V36.9353ZM115.138 32.7214V30H108.26V32.7214H110.173L106.458 42.378L102.706 32.7214H104.546V30H97.6682V32.7214H99.25L105.576 47.8221H107.267L113.593 32.7214L115.138 32.7214ZM145.848 44.6902C145.009 45.3348 143.994 45.6995 142.942 45.7341C141.912 45.7341 141.213 45.2116 141.213 44.2798C141.213 43.1989 142.059 42.5641 143.456 42.5641C144.26 42.5651 145.062 42.6526 145.848 42.8254V44.6902ZM148.643 40.2162C148.689 39.1609 148.378 38.1214 147.76 37.2705C147.23 36.7071 146.58 36.2732 145.86 36.0018C145.139 35.7304 144.368 35.6286 143.603 35.704C140.477 35.704 139.006 37.2336 139.006 38.6867C139.007 39.0985 139.167 39.4937 139.453 39.7866C139.738 40.0795 140.126 40.2465 140.532 40.2515C140.939 40.2565 141.33 40.0991 141.623 39.8134C141.916 39.5277 142.085 39.1366 142.096 38.7249C142.092 38.5212 142.054 38.3196 141.985 38.1284C142.349 37.9896 142.737 37.9259 143.125 37.941C143.545 37.8901 143.971 37.9414 144.368 38.0906C144.765 38.2397 145.121 38.4825 145.406 38.7988C145.73 39.2662 145.886 39.8324 145.848 40.4023V41.3341C144.882 41.1138 143.895 41.0013 142.905 40.9988C140.147 40.9988 138.271 42.341 138.271 44.5411C138.271 46.7399 140.036 47.822 142.023 47.822C143.45 47.781 144.822 47.2559 145.921 46.3307V47.5977H150.37V45.1746H148.643L148.643 40.2162ZM114.88 40.7006C114.928 39.9657 115.253 39.2775 115.786 38.778C116.32 38.2785 117.023 38.0058 117.749 38.0162C118.109 37.9875 118.471 38.0363 118.811 38.1595C119.151 38.2828 119.462 38.4776 119.722 38.7311C119.983 38.9847 120.187 39.2913 120.323 39.6307C120.458 39.9702 120.521 40.3348 120.507 40.7006H114.88ZM117.749 35.6671C116.963 35.6552 116.182 35.8066 115.455 36.1121C114.728 36.4175 114.07 36.8706 113.522 37.4434C112.974 38.0161 112.548 38.6965 112.269 39.4426C111.991 40.1886 111.865 40.9846 111.902 41.7816C111.902 45.4359 114.512 47.8221 118.3 47.8221C119.83 47.8769 121.344 47.5024 122.677 46.7398L122.713 46.4798L122.163 44.5028C121.08 45.0212 119.902 45.3009 118.705 45.3236C117.867 45.4369 117.018 45.2333 116.319 44.7517C115.62 44.2702 115.121 43.5444 114.917 42.7132H123.265C123.353 42.2336 123.402 41.7477 123.413 41.2601C123.444 40.5044 123.318 39.7505 123.042 39.0477C122.767 38.3448 122.348 37.7087 121.814 37.1809C121.279 36.6531 120.641 36.2455 119.941 35.9846C119.24 35.7237 118.494 35.6155 117.749 35.667M70.747 44.9503H65.9653V32.7214H68.2461V30H61V32.7214H62.9866V44.9133H61V47.6347H73.615V42.4532H70.747V44.9503ZM99.3594 41.4833L99.1394 41.3711C99.2123 41.185 99.323 40.9989 99.3971 40.8128C99.4206 41.0368 99.4079 41.2633 99.3594 41.4832M99.25 42.2659C99.2123 42.4902 99.1758 42.7515 99.1394 42.9745C99.0584 43.1042 98.9507 43.2146 98.8238 43.2982C98.6968 43.3817 98.5535 43.4366 98.4038 43.4589C98.2931 43.4589 98.1825 43.5341 98.1095 43.4971C97.9944 43.4767 97.8829 43.4389 97.7789 43.3849C97.6793 43.3451 97.5908 43.2812 97.5212 43.1988C97.1163 42.8254 97.5576 41.7445 97.9259 41.5584C98.2931 41.4832 98.6615 41.4092 99.0287 41.371C99.1394 41.4462 99.2123 41.4832 99.3229 41.5584C99.3703 41.7962 99.3448 42.043 99.25 42.2658M97.2269 40.5144C97.1049 40.6316 96.9513 40.7093 96.7855 40.7375C96.6512 40.7561 96.515 40.7561 96.3807 40.7375C96.2996 40.6796 96.2133 40.6297 96.123 40.5884C96.05 40.5514 96.0135 40.5144 95.9394 40.4762C95.8816 40.1124 95.923 39.7395 96.059 39.3979C96.1951 39.0562 96.4207 38.7587 96.7114 38.5375C96.8059 38.5048 96.9061 38.4922 97.0056 38.5005C97.3155 38.8327 97.4871 39.2733 97.4846 39.7305C97.4908 39.8934 97.4782 40.0563 97.4469 40.2162C97.4469 40.3271 97.3376 40.4392 97.2269 40.5144M95.9394 46.1063C95.3145 46.2554 94.2105 45.5098 93.6962 45.3606C92.9607 45.0993 92.1509 45.7711 91.6002 45.3606C91.395 45.0661 91.2502 44.7328 91.1744 44.3805C91.0986 44.0283 91.0933 43.6641 91.1589 43.3097C91.306 43.1606 91.4531 43.0497 91.6002 42.9005C91.8691 42.4868 92.1904 42.1105 92.5558 41.7814C92.8136 41.6693 93.0713 41.5201 93.3278 41.4092C93.4686 41.3044 93.5928 41.1785 93.6962 41.0358C93.8308 40.893 94.001 40.79 94.1887 40.7374C94.3764 40.6849 94.5747 40.6849 94.7624 40.7375C94.9122 40.8221 95.0731 40.8847 95.2402 40.9236C95.7549 41.7534 96.1979 42.6268 96.5642 43.5341C96.6748 43.8323 97.1162 43.9814 97.1904 44.3167C97.2229 44.7165 97.1153 45.1152 96.8865 45.4426C96.6576 45.7699 96.3222 46.0049 95.9393 46.1063M91.3789 38.6127C91.4497 38.5689 91.5284 38.5397 91.6104 38.5268C91.6924 38.5139 91.7761 38.5175 91.8567 38.5375C92.0779 38.6496 92.2615 38.7618 92.4828 38.874C92.612 39.0504 92.6998 39.2544 92.7393 39.4705C92.9242 39.9549 93.1078 40.2531 92.777 40.5144C92.6941 40.5581 92.6079 40.5951 92.5193 40.6254C92.3357 40.7005 92.2251 40.9236 91.9673 40.9236C91.1588 40.9988 91.1211 39.2462 91.3789 38.6127ZM91.5625 37.7548C91.53 37.9689 91.5556 38.1879 91.6366 38.3884V38.4266C91.5584 38.4342 91.4828 38.4595 91.4154 38.5005C91.3809 38.3732 91.3762 38.2395 91.4018 38.11C91.4273 37.9805 91.4824 37.8589 91.5625 37.7548ZM93.8797 38.4266C93.9747 38.224 94.113 38.0455 94.2846 37.904C94.3711 37.8452 94.4752 37.819 94.5788 37.83C94.6153 37.867 94.726 37.9409 94.7989 38.0161C94.8674 38.1497 94.9291 38.2867 94.9837 38.4266C95.2038 38.9109 95.3144 39.5445 94.946 39.8797C94.82 40.0124 94.6495 40.0924 94.4682 40.104C94.174 39.9179 93.7327 39.6936 93.622 39.3583C93.5126 39.134 93.6597 38.7618 93.8797 38.4266ZM94.7624 37.1953L94.6518 37.7548C94.5899 37.7461 94.5286 37.7338 94.4682 37.7179C94.5047 37.5317 94.5788 37.2705 94.7624 37.1953M97.0056 37.867C97.0891 38.0537 97.115 38.2617 97.0797 38.4635C97.0161 38.4733 96.9512 38.4603 96.8961 38.4266L96.8584 38.3884C96.8981 38.212 96.9472 38.0379 97.0056 37.867M94.7625 35.704C93.96 35.6728 93.1597 35.8075 92.4103 36.1C91.6609 36.3924 90.9781 36.8365 90.4034 37.4051C89.8288 37.9737 89.3743 38.6549 89.0678 39.4073C88.7612 40.1597 88.6089 40.9675 88.6203 41.7815C88.5997 42.598 88.7456 43.4101 89.0489 44.1668C89.3523 44.9235 89.8064 45.6086 90.383 46.1791C90.9596 46.7496 91.6462 47.1933 92.3998 47.4824C93.1534 47.7714 93.9577 47.8997 94.7625 47.859C95.5649 47.8903 96.3653 47.7557 97.1147 47.4633C97.8642 47.1709 98.5471 46.7268 99.1217 46.1582C99.6964 45.5896 100.151 44.9083 100.457 44.1558C100.764 43.4034 100.916 42.5955 100.905 41.7815C100.925 40.965 100.779 40.1529 100.476 39.3962C100.173 38.6395 99.7185 37.9544 99.1419 37.3839C98.5653 36.8134 97.8787 36.3697 97.1251 36.0806C96.3715 35.7916 95.5672 35.6634 94.7625 35.704ZM78.6168 40.7006C78.6649 39.9658 78.9894 39.2776 79.5232 38.7782C80.0571 38.2787 80.7597 38.006 81.4861 38.0162C81.8461 37.9876 82.208 38.0365 82.5481 38.1597C82.8882 38.2829 83.1987 38.4777 83.4592 38.7312C83.7198 38.9848 83.9244 39.2913 84.0598 39.6307C84.1952 39.9701 84.2582 40.3347 84.2447 40.7006H78.6168ZM81.5226 35.6671C80.7357 35.6553 79.9548 35.8068 79.2279 36.1123C78.5009 36.4178 77.8433 36.8708 77.2955 37.4436C76.7477 38.0163 76.3213 38.6967 76.0426 39.4427C75.7638 40.1887 75.6386 40.9847 75.6746 41.7816C75.6746 45.4359 78.2861 47.8221 82.0746 47.8221C83.6039 47.8767 85.1185 47.5022 86.4514 46.7399L86.4879 46.5169L85.9359 44.5412C84.8665 45.0583 83.7004 45.3377 82.5159 45.3608C81.6784 45.4745 80.8289 45.2712 80.13 44.7898C79.4311 44.3084 78.9317 43.5827 78.7275 42.7515H87.0763C87.1632 42.2715 87.2124 41.7852 87.2234 41.2972C87.251 40.5376 87.1212 39.7805 86.8424 39.0748C86.5637 38.3691 86.1422 37.7305 85.6051 37.2001C85.068 36.6696 84.4272 36.2592 83.7241 35.9951C83.0209 35.7311 82.271 35.6194 81.5226 35.6671" fill="#1D1D1B"/>
<path d="M38.9993 24C41.9661 23.9999 44.8663 24.8502 47.3331 26.4434C49.7999 28.0366 51.7226 30.3012 52.858 32.9508C53.9935 35.6003 54.2906 38.5158 53.7118 41.3286C53.1331 44.1414 51.7045 46.7251 49.6066 48.753C47.5088 50.7809 44.836 52.1619 41.9262 52.7214C39.0165 53.2809 36.0004 52.9937 33.2595 51.8961C30.5186 50.7986 28.1759 48.94 26.5277 46.5554C24.8795 44.1708 23.9999 41.3673 24 38.4994C24.006 34.6557 25.5881 30.9711 28.3998 28.2532C31.2114 25.5352 35.0231 24.0058 38.9993 24Z" fill="#1D1D1B"/>
<path d="M44.3134 34.383C44.3861 34.383 44.4224 34.3466 44.4224 34.2001C44.4331 33.8099 44.3582 33.4222 44.2032 33.064C44.093 32.8811 43.8362 32.4414 43.5806 32.3312C43.2059 32.2645 42.8248 32.2401 42.4446 32.2586C42.159 32.2326 41.8714 32.2794 41.6088 32.3946C41.3462 32.5098 41.117 32.6897 40.9427 32.9174C40.6859 33.1742 40.4292 33.1742 40.319 33.3946C40.2859 33.471 40.272 33.5543 40.2786 33.6373C40.2851 33.7203 40.3119 33.8004 40.3565 33.8706C40.3928 33.9808 40.5757 33.8706 40.5757 33.8706C41.1492 33.4594 41.7958 33.161 42.4809 32.9914C43.9102 32.6983 44.2395 34.274 44.2395 34.274C44.2395 34.274 44.2759 34.383 44.3134 34.383M31.9656 30.2432L30.4273 28.814C29.9985 29.1642 29.5946 29.5438 29.2186 29.9501L31.0136 31.5621C31.2164 31.0502 31.5436 30.5969 31.9656 30.2432M39 53.6914C36.0942 53.6913 33.2536 52.8295 30.8376 51.215C28.4216 49.6005 26.5385 47.3059 25.4266 44.6212C24.3147 41.9365 24.0239 38.9824 24.5909 36.1324C25.1579 33.2825 26.5573 30.6646 28.6121 28.61C30.667 26.5553 33.2849 25.1562 36.1349 24.5894C38.9849 24.0226 41.939 24.3137 44.6236 25.4258C47.3082 26.538 49.6027 28.4212 51.217 30.8374C52.8313 33.2536 53.6928 36.0942 53.6927 39C53.6928 40.9294 53.3129 42.84 52.5746 44.6226C51.8362 46.4052 50.7539 48.0249 49.3896 49.3892C48.0252 50.7535 46.4054 51.8356 44.6227 52.5738C42.8401 53.312 40.9295 53.6917 39 53.6914ZM39 22C35.6377 22 32.3509 22.997 29.5553 24.865C26.7597 26.733 24.5807 29.388 23.2941 32.4944C22.0074 35.6007 21.6707 39.0189 22.3267 42.3165C22.9826 45.6142 24.6017 48.6433 26.9792 51.0208C29.3567 53.3983 32.3858 55.0174 35.6835 55.6733C38.9811 56.3293 42.3993 55.9926 45.5056 54.7059C48.612 53.4193 51.267 51.2403 53.135 48.4447C55.003 45.6491 56 42.3623 56 39C55.9968 34.4923 54.2047 30.1702 51.0172 26.9827C47.8298 23.7953 43.5077 22.0032 39 22ZM35.3362 34.3103C34.8386 34.3755 34.3692 34.5786 33.9809 34.8965C33.9083 34.9692 33.9083 35.0431 34.0172 35.1533C34.1275 35.226 34.3842 35.1533 34.3842 35.1533C34.4865 35.2478 34.5967 35.3333 34.7137 35.4089C35.0779 35.3961 35.4369 35.4987 35.7395 35.702C35.96 35.8485 35.9963 36.0689 36.1792 36.1792C36.3257 36.2518 36.5086 36.2155 36.5825 36.2518C36.6927 36.3257 36.7291 36.5449 36.9119 36.4723C37.0948 36.3984 36.9858 36.2518 36.9858 36.0689C36.975 35.6599 36.9132 35.2539 36.8017 34.8602C36.6927 34.4932 35.8497 34.3467 35.3362 34.3103ZM41.6379 46.7671C41.3824 47.4635 40.2827 48.0122 39.9169 48.3792C39.5657 48.8114 39.2585 49.2776 39 49.7709C39 49.7709 38.2309 48.7825 37.9742 48.4156C37.7186 48.0498 37.3516 48.0861 36.9483 47.7192C36.5089 47.2545 36.1278 46.738 35.8135 46.181C35.6669 45.814 35.6293 45.7777 35.8498 45.5948C36.2471 45.411 36.6651 45.2756 37.0948 45.1915C37.681 45.0086 37.6084 44.4224 38.9636 44.4224C39.4499 44.464 39.9232 44.601 40.3565 44.8257C40.9052 45.0813 41.7481 44.7881 42.1151 45.0449C42.4808 45.3017 41.8947 46.0708 41.6379 46.7672M52.3362 39C52.3373 38.4487 52.3009 37.8979 52.2272 37.3516L45.4857 37.7912L51.934 35.6656C51.7874 35.1157 51.6034 34.567 51.4205 34.0535L46.4741 35.1896L50.6877 32.5516C50.4167 32.0658 50.1107 31.6003 49.7721 31.1588L45.6324 33.3571C45.7051 33.6138 45.7789 33.9808 45.8516 34.2C45.9297 34.8583 45.9175 35.5241 45.8153 36.1791C45.7414 36.7278 44.8996 37.205 44.3497 37.5344C44.1521 37.6316 43.9777 37.7704 43.8385 37.9411C43.6992 38.1119 43.5985 38.3107 43.5431 38.5239C43.47 38.74 43.4089 38.9599 43.3602 39.1828C43.3419 39.3044 43.3419 39.4281 43.3602 39.5498C43.3378 39.4809 43.3001 39.4179 43.2499 39.3657C43.0671 39.0726 42.9205 39.0726 42.8479 39.1464C42.7377 39.2191 42.9944 39.4395 43.141 39.769C43.2703 40.038 43.3687 40.3208 43.4341 40.612C43.6107 41.2696 43.6356 41.9587 43.5068 42.6273C43.428 43.1693 43.1546 43.6639 42.7377 44.019C42.2299 44.319 41.6257 44.4111 41.0517 44.2758C40.2463 43.8724 39.9169 44.1292 39.6601 43.8361C39.401 43.5078 39.2364 43.115 39.1841 42.7C39.4098 42.1305 39.7903 41.6354 40.2826 41.2708C40.6847 40.9742 41.1142 40.7167 41.5652 40.5018C41.616 40.4617 41.6583 40.4119 41.6897 40.3554C41.7211 40.2988 41.741 40.2366 41.7481 40.1723C41.7845 39.9894 41.8584 39.8792 41.7481 39.8429C41.6755 39.8053 41.6379 39.8429 41.5289 39.9155C41.3824 40.0621 41.2358 40.2087 41.1983 40.1723C41.1619 40.136 41.1983 40.136 41.1619 40.0621C41.1207 39.9341 41.0448 39.8201 40.9427 39.7327C40.6496 39.4759 39.7327 40.136 38.9999 40.136C38.2672 40.136 37.572 39.6963 37.205 39.8792C37.1365 39.9015 37.0742 39.9396 37.0233 39.9906C36.9723 40.0415 36.9342 40.1038 36.9119 40.1723C36.8755 40.2825 36.9482 40.2825 36.9119 40.3189C36.8392 40.3552 36.8017 40.2087 36.6926 40.0984C36.5824 39.9894 36.5461 39.9519 36.4359 40.0258C36.3257 40.0984 36.4359 40.136 36.5461 40.3552C36.6262 40.5128 36.7245 40.6604 36.8392 40.7948C37.1248 41.1285 37.4734 41.4026 37.8651 41.6015C38.2611 41.8913 38.5865 42.2668 38.8171 42.7C38.9273 42.9205 38.5602 43.5793 38.524 43.6532L38.1945 43.9826C37.7781 44.3992 37.2788 44.7235 36.729 44.9346C36.2893 45.0448 35.7758 45.2277 35.4827 44.8983C34.9617 44.1534 34.6114 43.3027 34.4568 42.4069C34.4218 41.9166 34.5101 41.4252 34.7136 40.9777C34.8238 40.6846 34.8601 40.3189 34.9341 40.0985C35.1517 39.6093 35.3964 39.1326 35.6668 38.6705C35.5566 38.5603 35.0067 38.8171 34.7499 39.2931L34.641 39.0726C34.6034 39 34.5307 38.9261 34.4568 38.8171C34.4205 38.7432 34.3478 38.6705 34.274 38.524C33.7855 38.0332 33.2716 37.5682 32.7345 37.1311C32.2222 36.6188 32.4051 35.8861 32.3687 34.7136C32.3312 34.2178 32.3934 33.7195 32.5516 33.2481L28.1916 31.269C27.8562 31.7181 27.562 32.1964 27.3123 32.6982L31.4897 35.2998L26.5795 34.1637C26.3705 34.6882 26.1993 35.2269 26.0672 35.7758L32.0394 37.7174L25.7741 37.3879C25.7006 37.9221 25.6637 38.4607 25.6638 39V39.0363L32.2961 39.4396L25.7741 40.6847C25.8482 41.2411 25.9583 41.7921 26.1035 42.3343L32.6256 41.0517L26.617 43.9088C26.8239 44.4272 27.0688 44.9295 27.3497 45.4118L33.3584 42.5535L28.2291 46.8035C28.5585 47.2432 28.9243 47.6828 29.2913 48.0861L34.3842 43.7998L30.5363 49.2949C30.9642 49.6568 31.4176 49.9875 31.8929 50.2845L35.0431 46.181L33.322 51.0535C33.8311 51.2989 34.3573 51.507 34.8966 51.6761L36.6188 48.2327L36.5086 52.0794C37.065 52.1909 37.6283 52.2645 38.1946 52.2998L39 49.955L39.8066 52.2998C40.3726 52.2646 40.9354 52.1909 41.4914 52.0794L41.2358 48.0123L43.1034 51.6761C43.6431 51.5072 44.1697 51.2992 44.6791 51.0535L42.6637 45.6311L46.181 50.2106C46.6564 49.9142 47.1097 49.5839 47.5375 49.2223L43.9463 44.2395L48.7098 48.1225C49.0756 47.7192 49.4426 47.2795 49.772 46.8399L44.5688 42.5536L50.6876 45.4119C50.9568 44.9289 51.1896 44.4265 51.384 43.9089L45.2654 41.0516L51.8965 42.2967C52.0301 41.7542 52.128 41.2036 52.1897 40.6483L45.5585 39.4032L52.3362 39ZM45.9618 30.0603C46.4742 30.5363 46.8775 30.9033 46.8775 31.5622V31.6724L48.71 29.8399C48.2703 29.4378 47.867 29.0708 47.4637 28.7038L45.9256 30.024L45.9618 30.0603ZM37.2051 33.614C36.7291 33.4311 36.069 32.3689 35.8498 32.2223C35.6709 32.1172 35.4704 32.0543 35.2636 32.0382C34.934 32.02 34.6037 32.02 34.2741 32.0382C34.035 32.0944 33.8258 32.2384 33.6879 32.4416C33.5418 32.6278 33.4303 32.8386 33.3584 33.0641C33.3584 33.0641 33.4686 33.4674 33.7981 33.3948C34.2741 33.2482 35.0807 32.662 35.7759 33.3948C36.2531 33.8707 36.4723 34.3831 36.912 34.4569C37.6811 34.5296 38.2673 34.0173 37.2051 33.6139M41.1257 34.5671C41.0155 34.8966 40.7586 36.2156 41.0155 36.2882C41.1984 36.3621 41.3449 36.069 41.3449 36.069C41.9394 35.9429 42.5265 35.784 43.1035 35.593C43.3147 35.3747 43.5106 35.142 43.6897 34.8966C43.6897 34.8966 43.9828 35.0069 44.0931 34.8966C44.2033 34.7864 44.2033 34.7137 44.1293 34.6399C43.7296 34.289 43.2305 34.0714 42.7014 34.0173C42.1152 34.0537 41.2359 34.2365 41.1258 34.5672M34.2742 29.364C34.5274 29.7158 34.7365 30.0973 34.8967 30.5001C35.451 30.1441 36.1106 29.989 36.7655 30.0604C37.1924 30.0665 37.613 30.1646 37.9986 30.3479C38.3843 30.5311 38.7259 30.7954 39.0002 31.1226C39.1944 30.7564 39.4932 30.4564 39.8586 30.2608C40.224 30.0651 40.6394 29.9827 41.0518 30.0241C41.7128 30.1034 42.3638 30.2507 42.9946 30.4637C43.1412 30.5001 43.4706 30.0604 43.8363 29.4742C44.0568 29.1072 44.6066 29.2174 45.119 29.4742L46.0346 27.678C45.5586 27.3849 45.0826 27.1293 44.5691 26.8726L42.7013 29.5104L43.0308 26.2863C42.4926 26.1093 41.9415 25.9745 41.3824 25.883L40.0998 29.4377L39.7327 25.7001C39.4772 25.7001 39.2204 25.6637 39 25.6637C38.6822 25.6577 38.3644 25.6698 38.048 25.7001L37.6811 29.5843L36.3996 25.9193C35.8412 26.0318 35.2903 26.1786 34.75 26.3589L35.0806 29.4002L33.2118 26.9451C32.7036 27.1903 32.2138 27.4721 31.7463 27.7881L32.7346 29.6206C33.3947 29.29 34.0912 29.1434 34.274 29.3638" fill="white"/>
</svg>
