<svg width="184" height="80" viewBox="0 0 184 80" fill="none" xmlns="http://www.w3.org/2000/svg">
<path d="M141.73 31.0223V36.6177C142.416 36.6162 143.102 36.5804 143.785 36.5105C144.274 36.4889 144.741 36.306 145.114 35.9909C145.486 35.6757 145.741 35.2463 145.838 34.7711C145.987 34.1702 146.001 33.5442 145.878 32.9374C145.841 32.4884 145.644 32.0671 145.322 31.7484C145.001 31.4297 144.576 31.2342 144.123 31.1968C143.352 31.0766 142.555 31.0766 141.73 31.0224M135.002 26.0032H135.204C138.191 26.0032 141.177 25.9903 144.163 26.0162C145.841 25.9793 147.508 26.2941 149.055 26.9401C150.066 27.3563 150.943 28.0371 151.593 28.9097C152.243 29.7823 152.641 30.8137 152.744 31.8932C152.985 33.3446 152.826 34.8337 152.283 36.2029C151.97 37.0121 151.48 37.7432 150.85 38.3445C150.22 38.9459 149.464 39.4028 148.636 39.683C148.568 39.7101 148.5 39.7372 148.447 39.7631C148.433 39.7631 148.419 39.7902 148.392 39.8032C150.257 42.8554 152.122 45.9077 154 48.9859C153.892 48.9859 153.824 49 153.756 49H146.581C146.447 49 146.352 49 146.271 48.8527C144.973 46.5099 143.676 44.1761 142.38 41.8513C142.163 41.4766 142.001 41.0617 141.798 40.6741C141.77 40.6314 141.739 40.5912 141.704 40.5538V48.9859H135.015C135.002 41.3434 134.997 33.6825 135.002 26.0032" fill="white"/>
<path d="M118 26H133V31.4408H124.689V34.7248H132.014V39.8594H124.689V43.5038H133V49H118V26Z" fill="white"/>
<path d="M94.4895 49H87.5133V31.6856H83V26H99V31.6724H94.4895V49Z" fill="white"/>
<path d="M111.489 49H104.512V31.6856H100V26H116V31.6724H111.489V49Z" fill="white"/>
<path d="M30.0131 26H36.6937V43.2465H42V49H30C30.0131 41.342 30.0174 33.6753 30.0131 26" fill="white"/>
<path d="M63.0006 17C59.2427 16.9999 55.5692 18.0848 52.4446 20.1176C49.3199 22.1503 46.8846 25.0396 45.4464 28.4201C44.0083 31.8005 43.632 35.5203 44.3651 39.109C45.0982 42.6977 46.9077 45.9942 49.565 48.5815C52.2222 51.1688 55.6077 52.9307 59.2934 53.6446C62.9791 54.3584 66.7994 53.9919 70.2713 52.5917C73.7431 51.1914 76.7105 48.8201 78.7982 45.7777C80.8859 42.7353 82.0001 39.1584 82 35.4994C81.9995 30.5932 79.9977 25.8881 76.4347 22.4189C72.8717 18.9497 68.0394 17.0005 63.0006 17ZM63.0006 24.1006C65.3162 24.1005 67.5798 24.769 69.5052 26.0215C71.4306 27.274 72.9312 29.0544 73.8174 31.1374C74.7036 33.2204 74.9355 35.5124 74.4838 37.7238C74.0321 39.9351 72.917 41.9663 71.2796 43.5606C69.6423 45.1549 67.5562 46.2405 65.2851 46.6804C63.014 47.1202 60.66 46.8944 58.5207 46.0316C56.3814 45.1687 54.5529 43.7075 53.2665 41.8328C51.9801 39.9581 51.2936 37.7541 51.2937 35.4994C51.2975 32.4774 52.5321 29.5802 54.7268 27.4433C56.9214 25.3064 59.8969 24.1043 63.0006 24.1006Z" fill="white"/>
<path d="M85.4346 56.0566L85.194 58.1058C85.8997 58.0075 86.5806 57.7805 87.2016 57.4366C87.7759 57.1256 88.0632 56.7688 88.0632 56.4134C88.0632 55.9821 87.7148 55.7599 87.0208 55.7599C86.4802 55.7824 85.9458 55.8824 85.4346 56.0566M85.0876 58.9957C85.0278 59.6047 84.9826 60.0791 84.9826 60.4502C84.9835 60.5904 84.9352 60.7266 84.8456 60.8357C84.804 60.8904 84.7491 60.9341 84.6859 60.9626C84.6228 60.9911 84.5533 61.0037 84.484 60.9991C84.1516 60.9991 84 60.807 84 60.4358C84 60.228 84.0758 59.5302 84.2274 58.3579C84.347 57.3922 84.4082 56.8288 84.4082 56.6355C84.416 56.5157 84.4057 56.3955 84.3776 56.2787C84.2939 56.2349 84.2251 56.168 84.1795 56.0863C84.1339 56.0046 84.1136 55.9116 84.121 55.8187C84.121 55.5965 84.484 55.4031 85.194 55.2398C85.7969 55.0937 86.4145 55.0143 87.0354 55.0033C87.539 54.9778 88.0388 55.1017 88.47 55.3587C88.6383 55.4617 88.7759 55.6066 88.8689 55.7787C88.9618 55.9509 89.0068 56.1441 88.9992 56.3389C88.9818 56.6586 88.8828 56.9689 88.7113 57.2411C88.5398 57.5134 88.3014 57.7388 88.0179 57.8967C87.3029 58.3717 86.4952 58.6952 85.646 58.8467C85.3296 58.9369 85.1328 58.9813 85.0876 58.9957" fill="white"/>
<path d="M90.5262 55C90.848 55 91 55.1292 91 55.399C91.0006 55.5337 90.978 55.6678 90.9329 55.798C90.8808 55.9397 90.7631 56.2877 90.5605 56.8409C90.4046 57.276 90.2916 57.7193 90.2223 58.1671C90.1538 58.6432 90.1031 59.0173 90.1031 59.2871C90.1031 59.5704 90.1374 59.9184 90.1881 60.305C90.1995 60.373 90.205 60.4415 90.2045 60.5101C90.2071 60.576 90.1903 60.6414 90.1552 60.7017C90.1201 60.7619 90.0677 60.8154 90.0019 60.8581C89.9483 60.903 89.883 60.9388 89.8101 60.9633C89.7372 60.9877 89.6584 61.0001 89.5788 60.9998C89.4826 61.0021 89.3881 60.9809 89.309 60.9392C89.2299 60.8976 89.1704 60.8378 89.1393 60.7686C89.0319 60.5152 88.986 60.249 89.0037 59.9831C89.0194 59.041 89.144 58.1018 89.3762 57.1764C89.4655 56.5233 89.6704 55.8823 89.9855 55.271C90.0373 55.1942 90.1143 55.1289 90.2091 55.0814C90.3038 55.0339 90.4131 55.0059 90.5263 55" fill="white"/>
<path d="M93.5322 57.7711C93.2739 57.7711 92.9434 58.0365 92.5407 58.5547C92.1978 58.9306 91.9867 59.394 91.9354 59.8832C91.9354 60.0692 91.9797 60.1756 92.0658 60.1756C92.3672 60.1756 92.7268 59.9358 93.1587 59.4447C93.5215 59.0973 93.7492 58.6485 93.8058 58.1687C93.8121 58.0696 93.7817 57.9715 93.7196 57.8904C93.7024 57.8572 93.676 57.8287 93.6431 57.8078C93.6102 57.7868 93.572 57.7742 93.5323 57.7711M93.7627 59.7101C93.5629 60.0343 93.2852 60.3118 92.9511 60.5215C92.617 60.7311 92.2353 60.8672 91.8354 60.9194C91.723 60.9198 91.6118 60.8974 91.5099 60.8537C91.4079 60.8101 91.3176 60.7463 91.2453 60.6668C91.0781 60.4913 90.9905 60.263 91.0008 60.0294C91.0542 59.2968 91.3675 58.601 91.8923 58.0494C92.0843 57.7585 92.3465 57.5124 92.6584 57.3304C92.9703 57.1485 93.3236 57.0355 93.6906 57.0004C93.8289 56.9956 93.9648 57.0353 94.0749 57.1127C94.1851 57.1901 94.2627 57.3005 94.2946 57.4249C94.582 57.4249 94.7264 57.5313 94.7264 57.7313C94.7138 57.9102 94.685 58.0878 94.6403 58.2623C94.5497 58.6422 94.4967 59.029 94.482 59.4178C94.4735 59.6281 94.4978 59.8384 94.5543 60.0423C94.5792 60.1246 94.6127 60.2045 94.6543 60.2808C94.6695 60.3206 94.7404 60.3616 94.8417 60.4013C94.8853 60.4139 94.9238 60.4384 94.9521 60.4716C94.9803 60.5048 94.997 60.5451 95 60.5873C94.9967 60.6479 94.9764 60.7067 94.9411 60.758C94.9058 60.8092 94.8567 60.8511 94.7987 60.8796C94.6807 60.9564 94.5402 60.998 94.396 60.9989C93.9211 61.0246 93.7197 60.5873 93.7628 59.7101" fill="white"/>
<path d="M98.9451 58.7335C98.9056 59.2909 98.8365 59.846 98.7379 60.3965C98.6462 60.8967 98.5025 61.3866 98.309 61.8587C98.1868 62.2034 97.9773 62.5128 97.6997 62.7587C97.4712 62.9214 97.1935 63.0062 96.91 62.9997C96.5875 63.003 96.2676 62.9436 95.9693 62.8248C95.7192 62.7266 95.4893 62.5858 95.2904 62.4091C95.1381 62.3036 95.034 62.1447 95.0004 61.9662C94.9963 61.8703 95.0255 61.7759 95.0833 61.6981C95.1104 61.6671 95.1445 61.6426 95.183 61.6265C95.2214 61.6103 95.2632 61.6029 95.305 61.6048C95.3431 61.6017 95.3812 61.6087 95.4154 61.6252C95.4496 61.6416 95.4784 61.6668 95.4988 61.6981C95.6599 61.8934 95.8674 62.048 96.1037 62.1486C96.3399 62.2492 96.5977 62.2928 96.8551 62.2756C97.0904 62.2756 97.3255 62.0335 97.5473 61.5504C97.7853 60.9903 97.9301 60.3971 97.9763 59.793C97.5021 60.2419 96.8988 60.5412 96.2458 60.6516C96.1238 60.6542 96.0031 60.6273 95.8944 60.5735C95.7857 60.5197 95.6925 60.4407 95.6231 60.3434C95.4656 60.1332 95.383 59.8791 95.388 59.6194C95.4092 59.2017 95.4787 58.7878 95.5952 58.3851C95.6605 58.0355 95.7771 57.6966 95.9412 57.3789C95.9954 57.3092 96.0671 57.2541 96.1494 57.2187C96.2317 57.1834 96.322 57.169 96.4116 57.1769C96.4652 57.1763 96.5179 57.1897 96.5642 57.2157C96.6105 57.2416 96.6487 57.2792 96.6749 57.3245C96.7362 57.4217 96.7699 57.533 96.7723 57.647C96.7036 57.8513 96.6155 58.049 96.5091 58.2375C96.3226 58.5919 96.2143 58.9801 96.1911 59.3773C96.1854 59.5059 96.2092 59.6342 96.2606 59.7529C96.302 59.8332 96.3568 59.8875 96.4117 59.8875C96.5606 59.8773 96.7064 59.8409 96.8419 59.78C97.0489 59.6861 97.244 59.5692 97.4231 59.4316C97.5841 59.3217 97.7285 59.1905 97.8521 59.0419C97.9295 58.9433 97.9817 58.8283 98.0044 58.7064C98.0548 58.4046 98.0869 58.1001 98.1007 57.7946C98.1056 57.624 98.1194 57.4537 98.1421 57.2844C98.1605 57.21 98.2043 57.1438 98.2664 57.0966C98.3497 57.0343 98.4524 57.0014 98.5576 57.0033C98.6812 56.9888 98.8056 57.0224 98.9037 57.0966C98.9732 57.164 99 57.3115 99 57.5667L98.9451 58.7335Z" fill="white"/>
<path d="M101.999 55.4803C101.994 55.5677 101.971 55.653 101.93 55.7307C101.889 55.8083 101.832 55.8764 101.762 55.9303C101.653 56.0355 101.512 56.1027 101.36 56.1216C101.286 56.1228 101.212 56.1075 101.145 56.0769C101.078 56.0463 101.018 56.0011 100.971 55.9447C100.874 55.8498 100.815 55.7232 100.805 55.5886C100.802 55.5105 100.815 55.4326 100.843 55.3597C100.872 55.2869 100.916 55.2206 100.971 55.1651C101.037 55.1074 101.114 55.0633 101.198 55.0352C101.281 55.0071 101.37 54.9956 101.458 55.0015C101.605 54.9941 101.749 55.0433 101.86 55.1386C101.908 55.1816 101.945 55.2346 101.969 55.2938C101.993 55.3529 102.003 55.4167 101.999 55.4803ZM100.236 58.4315C100.288 58.188 100.325 57.9418 100.347 57.694C100.342 57.5347 100.385 57.3775 100.472 57.2428C100.506 57.1868 100.555 57.1408 100.614 57.1096C100.673 57.0783 100.739 57.0628 100.805 57.0648C100.943 57.0594 101.079 57.0978 101.194 57.1743C101.237 57.2032 101.272 57.242 101.296 57.2873C101.32 57.3326 101.332 57.383 101.332 57.4341C101.311 57.6347 101.264 57.8319 101.194 58.0212L101.166 58.103C101.05 58.4727 100.971 58.8527 100.93 59.2375C100.902 59.5251 100.888 59.7704 100.888 59.9485C100.895 60.1465 100.923 60.3433 100.971 60.5356C100.982 60.5712 100.986 60.6082 100.985 60.6451C100.985 60.6993 100.93 60.7678 100.832 60.8641C100.738 60.9515 100.614 61.0002 100.485 61C100.166 61 100 60.7546 100 60.2757C100.008 59.7745 100.069 59.2754 100.181 58.7863C100.193 58.6672 100.211 58.5487 100.236 58.4314" fill="white"/>
<path d="M105.439 60.3682C105.27 59.956 105.179 59.5174 105.169 59.0735C105.108 58.4119 104.988 58.0883 104.778 58.0883C104.583 58.0883 104.267 58.4275 103.787 59.1188C103.432 59.5876 103.143 60.1021 102.931 60.6478C102.904 60.7393 102.858 60.8243 102.796 60.8977C102.773 60.9281 102.744 60.9532 102.71 60.9709C102.676 60.9886 102.639 60.9986 102.6 61C102.196 61 102 60.8239 102 60.4562C102.024 60.1797 102.064 59.9048 102.12 59.6328C102.232 58.957 102.281 58.2729 102.27 57.5885C102.281 57.4471 102.339 57.3131 102.435 57.2066C102.473 57.1488 102.524 57.1003 102.584 57.0647C102.644 57.029 102.711 57.0071 102.781 57.0007C102.908 56.9939 103.032 57.0363 103.126 57.1185C103.231 57.302 103.273 57.5133 103.247 57.7218C103.212 58.2024 103.137 58.6792 103.021 59.1473C103.592 57.8384 104.237 57.1768 104.928 57.1768C105.543 57.1768 105.904 57.6476 106.01 58.5893C106.114 59.5448 106.235 60.0303 106.369 60.0303C106.442 60.0279 106.513 60.013 106.58 59.9863C106.652 59.9599 106.728 59.9451 106.806 59.9422C106.925 59.9422 107 60.0147 107 60.1624C106.974 60.3313 106.883 60.484 106.745 60.5883C106.56 60.7395 106.324 60.8183 106.084 60.8097C105.947 60.7964 105.815 60.7489 105.702 60.6716C105.589 60.5942 105.498 60.4898 105.439 60.3682" fill="white"/>
<path d="M109.761 57.7231C109.476 57.7585 109.209 57.8657 108.991 58.032C108.643 58.2635 108.346 58.5491 108.114 58.8749C107.884 59.128 107.743 59.4354 107.708 59.7591C107.708 59.8793 107.753 59.9465 107.858 59.9465C108.236 59.9373 108.597 59.8036 108.87 59.5716C109.194 59.333 109.47 59.0476 109.686 58.7275C109.854 58.5121 109.963 58.2645 110.003 58.0049C110.003 57.9321 109.977 57.8611 109.927 57.8033C109.908 57.7793 109.883 57.7595 109.855 57.7456C109.826 57.7316 109.793 57.7239 109.761 57.7231M109.656 59.692C109.366 59.9864 109.018 60.2313 108.629 60.4146C108.322 60.5798 107.975 60.6765 107.617 60.6964C107.498 60.7047 107.378 60.6898 107.265 60.6527C107.153 60.6157 107.051 60.5574 106.967 60.4818C106.808 60.3137 106.727 60.0984 106.741 59.8794C106.766 59.4424 106.928 59.0204 107.209 58.6604C107.546 58.1961 107.988 57.7994 108.508 57.4956C108.94 57.2032 109.46 57.0309 110.003 57.0005C110.23 56.9939 110.454 57.0554 110.637 57.175C110.682 57.2009 110.713 57.228 110.743 57.241C110.821 57.2995 110.883 57.3728 110.924 57.4555C110.973 57.5336 110.999 57.6211 111 57.7102C110.968 57.8575 110.917 58.0011 110.848 58.1381C110.745 58.3754 110.674 58.6228 110.637 58.875C110.592 59.1166 110.516 59.7049 110.396 60.6422C110.364 61.2983 110.093 61.9277 109.625 62.4365C109.455 62.6092 109.247 62.7485 109.013 62.8456C108.779 62.9426 108.524 62.9952 108.266 63C107.715 62.9892 107.181 62.8251 106.741 62.5308C106.242 62.2231 106 61.9684 106 61.768C106 61.5935 106.09 61.4992 106.287 61.4992C106.457 61.5376 106.616 61.6062 106.755 61.7008C107.208 62.0012 107.747 62.1822 108.311 62.223C108.494 62.2094 108.668 62.1507 108.815 62.0536C108.962 61.9565 109.075 61.8249 109.142 61.6737C109.437 61.043 109.61 60.3732 109.656 59.6919" fill="white"/>
<path d="M116.999 55.4803C116.994 55.5677 116.971 55.653 116.93 55.7307C116.889 55.8083 116.832 55.8764 116.762 55.9303C116.653 56.0356 116.512 56.1027 116.36 56.1216C116.286 56.1228 116.212 56.1075 116.145 56.0769C116.078 56.0463 116.018 56.0011 115.971 55.9447C115.874 55.8498 115.815 55.7232 115.805 55.5886C115.802 55.5105 115.815 55.4326 115.843 55.3597C115.872 55.2869 115.916 55.2206 115.971 55.1651C116.037 55.1074 116.114 55.0633 116.198 55.0352C116.281 55.0071 116.37 54.9956 116.458 55.0015C116.605 54.9941 116.749 55.0433 116.86 55.1386C116.908 55.1816 116.945 55.2346 116.969 55.2938C116.993 55.3529 117.003 55.4167 116.999 55.4803ZM115.236 58.4315C115.288 58.188 115.325 57.9417 115.347 57.694C115.342 57.5347 115.385 57.3775 115.472 57.2428C115.506 57.1868 115.556 57.1408 115.614 57.1095C115.673 57.0783 115.739 57.0628 115.805 57.0648C115.943 57.0594 116.079 57.0978 116.194 57.1742C116.237 57.2032 116.272 57.242 116.296 57.2873C116.32 57.3326 116.332 57.383 116.332 57.4341C116.311 57.6347 116.264 57.8319 116.194 58.0212L116.166 58.103C116.05 58.4727 115.971 58.8527 115.93 59.2375C115.902 59.525 115.888 59.7704 115.888 59.9485C115.895 60.1465 115.923 60.3433 115.971 60.5356C115.982 60.5712 115.986 60.6082 115.985 60.6451C115.985 60.6992 115.93 60.7678 115.832 60.8641C115.738 60.9515 115.614 61.0001 115.485 61C115.166 61 115 60.7546 115 60.2757C115.008 59.7745 115.069 59.2754 115.181 58.7863C115.193 58.6672 115.211 58.5487 115.236 58.4315Z" fill="white"/>
<path d="M117.983 58.1297C117.87 58.3717 117.793 58.6242 117.753 58.8817C117.668 59.18 117.607 59.4825 117.568 59.7873C117.56 59.9176 117.586 60.0479 117.645 60.1689C117.665 60.2052 117.698 60.2357 117.739 60.2563C117.781 60.2769 117.828 60.2867 117.876 60.2845C118.023 60.2828 118.168 60.2611 118.307 60.2205C118.508 60.1475 118.694 60.0486 118.859 59.9276C118.953 59.8472 119.079 59.7975 119.213 59.7873C119.246 59.7849 119.28 59.7882 119.311 59.7968C119.343 59.8055 119.372 59.8195 119.397 59.8378C119.42 59.8535 119.439 59.873 119.452 59.895C119.465 59.917 119.473 59.9411 119.474 59.9657C119.474 60.1565 119.289 60.3855 118.905 60.6279C118.566 60.8661 118.136 60.9973 117.691 60.9982C117.54 61.0064 117.388 60.9866 117.247 60.9402C117.107 60.8938 116.98 60.822 116.877 60.73C116.677 60.5157 116.579 60.2482 116.601 59.978C116.666 59.3648 116.805 58.7585 117.015 58.1678C116.845 58.1802 116.724 58.1937 116.661 58.1937H116.569C116.433 58.1875 116.301 58.1524 116.185 58.0915C116.124 58.0563 116.074 58.0084 116.042 57.9525C116.01 57.8966 115.996 57.8346 116.001 57.7728C116.001 57.582 116.124 57.4923 116.385 57.4923L117.246 57.4664C117.353 57.1994 117.476 56.8425 117.599 56.4093C117.676 56.1411 117.845 56.0008 118.106 56.0008C118.168 55.9975 118.229 56.0046 118.286 56.0217C118.344 56.0388 118.397 56.0656 118.441 56.1003C118.486 56.135 118.522 56.177 118.546 56.2235C118.57 56.2701 118.583 56.3204 118.583 56.3711C118.583 56.4093 118.475 56.7527 118.245 57.4036C119.105 57.3396 119.566 57.3138 119.658 57.3138C119.755 57.3027 119.853 57.3206 119.934 57.3643C119.987 57.423 120.009 57.4963 119.997 57.5685C119.997 57.7728 119.796 57.9007 119.382 57.9512L117.983 58.1297Z" fill="white"/>
<path d="M127.561 58.5615C127.493 58.8108 127.438 59.0633 127.397 59.318C127.351 59.546 127.324 59.777 127.315 60.009V60.5566C127.317 60.6437 127.293 60.7296 127.246 60.8045C127.208 60.868 127.15 60.9183 127.08 60.948C127.014 60.9848 126.938 61.0028 126.861 60.9996C126.729 60.9999 126.601 60.9533 126.504 60.8688C126.454 60.834 126.413 60.789 126.385 60.737C126.356 60.6851 126.341 60.6277 126.339 60.5692C126.36 60.4024 126.392 60.2371 126.436 60.0744C126.49 59.8127 126.545 59.5912 126.587 59.396C125.974 59.8865 125.216 60.1827 124.417 60.2432C124.038 60.2595 123.668 60.1333 123.387 59.8919C123.254 59.7637 123.151 59.6103 123.085 59.4418C123.019 59.2733 122.991 59.0934 123.003 58.9139C123.008 58.2437 123.223 57.5901 123.62 57.0359C124.027 56.4416 124.56 55.9352 125.186 55.5494C125.717 55.2049 126.342 55.0146 126.985 55.0018C127.242 54.9891 127.498 55.0431 127.726 55.1579C127.807 55.198 127.875 55.2578 127.923 55.3313C127.971 55.4048 127.998 55.4892 128 55.5758C127.987 55.7471 127.92 55.9108 127.808 56.0453C127.685 56.2152 127.561 56.2932 127.438 56.2932C127.406 56.2966 127.373 56.2936 127.343 56.2845C127.312 56.2754 127.283 56.2604 127.259 56.2404C127.202 56.1907 127.16 56.1278 127.136 56.0579C127.103 55.9743 127.052 55.8987 126.985 55.8364C126.907 55.7899 126.815 55.7671 126.723 55.7709C126.26 55.8073 125.822 55.9858 125.475 56.2794C125.014 56.6086 124.627 57.021 124.335 57.4927C124.064 57.895 123.912 58.3588 123.895 58.8358C123.895 59.2789 124.102 59.5131 124.499 59.5131C124.759 59.5035 125.015 59.4507 125.255 59.3569C125.586 59.234 125.899 59.072 126.188 58.8748C126.442 58.7334 126.648 58.5248 126.779 58.2745C126.846 58.0788 126.897 57.8785 126.93 57.6753C126.932 57.6235 126.946 57.5728 126.972 57.5273C126.998 57.4818 127.035 57.4428 127.08 57.4135C127.184 57.3683 127.296 57.3463 127.41 57.3493C127.726 57.3493 127.877 57.4537 127.877 57.6489C127.86 57.7851 127.818 57.9176 127.753 58.0403C127.679 58.2103 127.614 58.3843 127.561 58.5614" fill="white"/>
<path d="M130.526 55C130.848 55 131 55.1292 131 55.399C131.001 55.5337 130.978 55.6678 130.933 55.798C130.882 55.9397 130.763 56.2877 130.56 56.8409C130.405 57.2761 130.292 57.7194 130.222 58.1671C130.154 58.6432 130.103 59.0173 130.103 59.2871C130.103 59.5704 130.137 59.9184 130.188 60.305C130.2 60.373 130.205 60.4415 130.205 60.5101C130.207 60.576 130.19 60.6414 130.155 60.7017C130.12 60.7619 130.068 60.8154 130.002 60.8581C129.948 60.903 129.883 60.9388 129.81 60.9632C129.737 60.9877 129.658 61.0001 129.579 60.9998C129.483 61.0021 129.388 60.9809 129.309 60.9392C129.23 60.8976 129.17 60.8378 129.139 60.7686C129.032 60.5152 128.986 60.249 129.004 59.983C129.019 59.041 129.144 58.1018 129.376 57.1764C129.465 56.5233 129.67 55.8823 129.986 55.271C130.037 55.1942 130.114 55.1288 130.209 55.0814C130.304 55.0339 130.413 55.0059 130.526 55" fill="white"/>
<path d="M132.837 57.9367C132.605 58.1385 132.417 58.3741 132.281 58.6327C132.103 58.9306 132.008 59.2606 132.004 59.5961C131.997 59.7631 132.04 59.9288 132.127 60.0777C132.155 60.1322 132.201 60.1786 132.258 60.2118C132.315 60.2449 132.382 60.2633 132.451 60.265C132.658 60.2457 132.858 60.1894 133.039 60.0996C133.22 60.0098 133.377 59.8885 133.501 59.7433C133.849 59.4309 134.042 59.0129 134.04 58.5786C134.047 58.3685 133.988 58.1607 133.87 57.9768C133.82 57.9037 133.747 57.8439 133.66 57.8039C133.573 57.7639 133.475 57.7451 133.377 57.7495C133.176 57.751 132.983 57.8179 132.836 57.9368M134.935 59.0473C134.759 59.5901 134.399 60.0746 133.902 60.4381C133.487 60.7786 132.945 60.9781 132.375 60.9998C132.187 61.0027 132.001 60.9694 131.831 60.9024C131.66 60.8354 131.508 60.7363 131.387 60.6124C131.124 60.3549 130.986 60.0196 131.001 59.6761C131.015 59.029 131.263 58.402 131.71 57.8837C131.889 57.6218 132.141 57.4034 132.443 57.2489C132.745 57.0945 133.088 57.009 133.438 57.0005C133.652 56.9952 133.865 57.0322 134.06 57.1087C134.255 57.1852 134.428 57.2992 134.565 57.4421C134.853 57.7363 135.007 58.1123 134.997 58.4984C135.009 58.683 134.988 58.8681 134.935 59.0472" fill="white"/>
<path d="M135.838 59.0728C135.871 59.1363 135.922 59.1911 135.986 59.2317C136.051 59.2723 136.127 59.2973 136.206 59.3041C136.504 59.2824 136.787 59.1789 137.015 59.0082C137.336 58.7868 137.597 58.5053 137.779 58.1842C137.963 57.9139 138.073 57.6103 138.102 57.2967C138.102 57.0768 138.058 56.9612 137.985 56.9612C137.704 57.0002 137.437 57.0903 137.199 57.2256C136.961 57.3609 136.758 57.5384 136.603 57.7467C136.183 58.0998 135.914 58.5676 135.838 59.0729M135.382 56.6654C135.498 55.8866 135.68 55.1164 135.926 54.3611C135.961 54.253 136.036 54.1584 136.141 54.0929C136.245 54.0274 136.371 53.9949 136.5 54.0007C136.705 54.0007 136.823 54.1673 136.823 54.4892C136.771 54.9614 136.663 55.4276 136.5 55.8799C136.337 56.4016 136.205 56.9301 136.103 57.4634C136.394 57.1162 136.746 56.812 137.147 56.5623C137.438 56.3604 137.791 56.2392 138.162 56.2143C138.279 56.2147 138.395 56.2395 138.5 56.2865C138.605 56.3336 138.695 56.4017 138.764 56.4852C138.924 56.6699 139.007 56.8971 138.999 57.129C138.983 57.8575 138.659 58.5548 138.088 59.0853C137.862 59.3543 137.571 59.5759 137.235 59.7341C136.9 59.8923 136.528 59.9831 136.147 60C135.945 59.9985 135.747 59.9496 135.574 59.8583C135.493 59.8208 135.423 59.7675 135.37 59.7027C135.316 59.6379 135.28 59.5632 135.265 59.4843C135.261 59.4255 135.241 59.3683 135.206 59.3177C135.173 59.2905 135.144 59.26 135.118 59.227C135.038 59.1498 134.996 59.048 135 58.9436C135.023 58.6504 135.062 58.3583 135.118 58.0686L135.382 56.6654Z" fill="white"/>
<path d="M141.532 57.7711C141.274 57.7711 140.943 58.0365 140.541 58.5547C140.198 58.9306 139.987 59.394 139.935 59.8832C139.935 60.0692 139.98 60.1756 140.066 60.1756C140.367 60.1756 140.727 59.9358 141.159 59.4447C141.522 59.0973 141.749 58.6485 141.806 58.1687C141.812 58.0696 141.782 57.9715 141.72 57.8904C141.704 57.8562 141.678 57.8268 141.645 57.8057C141.612 57.7845 141.573 57.7726 141.532 57.7711M141.763 59.7101C141.563 60.0343 141.285 60.3118 140.951 60.5215C140.617 60.7311 140.235 60.8672 139.835 60.9194C139.723 60.9198 139.612 60.8974 139.51 60.8537C139.408 60.8101 139.318 60.7463 139.245 60.6668C139.078 60.4913 138.991 60.263 139.001 60.0294C139.054 59.2968 139.368 58.601 139.892 58.0494C140.084 57.7585 140.347 57.5124 140.658 57.3304C140.97 57.1485 141.324 57.0355 141.691 57.0004C141.829 56.9956 141.965 57.0353 142.075 57.1127C142.185 57.1901 142.263 57.3005 142.295 57.4249C142.582 57.4249 142.726 57.5313 142.726 57.7313C142.714 57.9102 142.685 58.0878 142.64 58.2623C142.55 58.6422 142.497 59.029 142.482 59.4178C142.473 59.6281 142.498 59.8384 142.554 60.0423C142.579 60.1246 142.613 60.2045 142.654 60.2808C142.669 60.3206 142.74 60.3616 142.842 60.4013C142.885 60.4139 142.924 60.4384 142.952 60.4716C142.98 60.5048 142.997 60.5451 143 60.5873C142.997 60.6479 142.976 60.7067 142.941 60.758C142.906 60.8092 142.857 60.8511 142.799 60.8796C142.681 60.9564 142.54 60.998 142.396 60.9989C141.935 61.0246 141.72 60.5873 141.763 59.7101" fill="white"/>
<path d="M145.526 55C145.848 55 146 55.1292 146 55.399C146.001 55.5337 145.978 55.6678 145.933 55.798C145.882 55.9397 145.763 56.2877 145.56 56.8409C145.405 57.2761 145.292 57.7194 145.222 58.1671C145.154 58.6432 145.103 59.0173 145.103 59.2871C145.103 59.5704 145.137 59.9184 145.188 60.305C145.2 60.373 145.205 60.4415 145.205 60.5101C145.207 60.576 145.19 60.6414 145.155 60.7017C145.12 60.7619 145.068 60.8154 145.002 60.8581C144.948 60.903 144.883 60.9388 144.81 60.9633C144.737 60.9877 144.658 61.0001 144.579 60.9998C144.483 61.0021 144.388 60.9809 144.309 60.9392C144.23 60.8976 144.17 60.8378 144.139 60.7686C144.032 60.5152 143.986 60.249 144.004 59.9831C144.019 59.041 144.144 58.1018 144.376 57.1764C144.465 56.5233 144.67 55.8823 144.985 55.271C145.036 55.1932 145.112 55.1271 145.207 55.0794C145.302 55.0318 145.413 55.0044 145.526 55" fill="white"/>
<path d="M31.8573 17.1972C31.8573 17.3056 31.7941 17.7654 31.7065 18.6039C31.6304 19.2684 31.5882 19.9368 31.5802 20.6062C31.5849 20.8379 31.606 21.0689 31.6433 21.2971C31.6589 21.3401 31.6675 21.3856 31.6688 21.4317C31.6721 21.5726 31.6319 21.7108 31.5547 21.8247C31.5233 21.8799 31.4789 21.9252 31.4259 21.956C31.373 21.9867 31.3134 22.0019 31.2532 21.9998C31.138 21.9906 31.0281 21.9436 30.9385 21.8652C30.8731 21.8125 30.819 21.7454 30.7798 21.6684C30.7406 21.5913 30.7172 21.5061 30.7112 21.4186C30.6836 21.1444 30.671 20.8688 30.6736 20.5931C30.6898 19.9006 30.7405 19.2096 30.8254 18.5229C30.9252 17.6033 30.9883 17.1435 31.0016 17.1162C30.9252 17.1162 30.6492 17.1435 30.1582 17.1841C30.0037 17.2083 29.8475 17.2171 29.6916 17.2103C29.3014 17.2103 29 17.1698 29 16.7648C29 16.3038 29.4278 16.3312 29.982 16.3312C30.5631 16.3457 31.1443 16.305 31.7188 16.2098C32.5123 16.074 32.6509 16.0609 33.0532 16.0204C33.6074 15.9656 33.7581 16.0204 33.8844 16.1955C33.9387 16.2556 33.9759 16.3311 33.9916 16.4131C34.0073 16.4952 34.0009 16.5803 33.973 16.6586C33.9452 16.7368 33.8971 16.8048 33.8345 16.8547C33.7719 16.9046 33.6973 16.9341 33.6196 16.9399C33.3679 16.9399 32.8393 16.8994 32.5123 16.8994C31.8573 16.859 31.8695 16.8863 31.8573 17.1972" fill="white"/>
<path d="M35.1879 19.9098C35.4962 19.271 35.9012 18.6819 36.3889 18.1626C36.6536 17.8817 37.0194 17.714 37.408 17.6953C37.52 17.6934 37.6312 17.7145 37.7345 17.7573C37.8377 17.8 37.9309 17.8634 38.0079 17.9435C38.2375 18.3267 38.3581 18.7638 38.3571 19.2088C38.3798 19.4717 38.4172 19.7332 38.4689 19.9921C38.5062 20.1702 38.5576 20.345 38.6226 20.5152C38.6791 20.6714 38.7645 20.8159 38.8746 20.9414C38.9516 21.0297 38.9958 21.1411 39 21.2574C38.9991 21.3106 38.986 21.363 38.9618 21.4106C38.9375 21.4582 38.9027 21.4997 38.8599 21.5323C38.7678 21.613 38.6488 21.6574 38.5255 21.657C38.3891 21.649 38.2567 21.6084 38.1398 21.5388C38.0228 21.4692 37.9248 21.3726 37.8543 21.2574C37.6378 20.924 37.5171 20.5391 37.5051 20.1435C37.4878 19.7736 37.4413 19.4057 37.3662 19.0429C37.3097 18.8782 37.2261 18.8092 37.1007 18.8092C36.9335 18.8092 36.6262 19.1264 36.1517 19.7718C35.776 20.2616 35.4355 20.7766 35.1326 21.313C35.0564 21.511 34.9578 21.6998 34.8387 21.8761C34.8074 21.9157 34.7671 21.9476 34.7209 21.969C34.6748 21.9905 34.6242 22.0009 34.5732 21.9996C34.4235 22.0049 34.2762 21.9615 34.154 21.8761C34.1011 21.8331 34.0596 21.7782 34.0331 21.716C34.0065 21.6538 33.9957 21.5861 34.0016 21.5189C34.0016 21.4498 34.0433 21.2162 34.1122 20.8178C34.3925 19.3322 34.6298 17.7642 34.8105 16.0861C34.8145 15.7873 34.9067 15.4962 35.076 15.2482C35.2161 15.0969 35.3416 15 35.4534 15C35.5266 14.9995 35.599 15.0139 35.6663 15.0422C35.7336 15.0705 35.7942 15.1122 35.8443 15.1647C35.9021 15.2281 35.9466 15.3022 35.9753 15.3826C36.0039 15.463 36.0163 15.5482 36.0115 15.6333C36.0034 15.9932 35.966 16.352 35.8997 16.706C35.8295 17.1044 35.6771 17.751 35.4816 18.6312C35.3621 19.0523 35.264 19.479 35.1878 19.9097" fill="white"/>
<path d="M41.1275 19.5632C41.5713 19.4814 41.9843 19.2806 42.322 18.9825C42.6626 18.6859 42.8341 18.4305 42.8341 18.1899C42.8362 18.1019 42.8055 18.0162 42.7478 17.9494C42.7258 17.9174 42.696 17.8916 42.6611 17.8744C42.6262 17.8571 42.5875 17.8491 42.5486 17.851C42.3797 17.8793 42.2189 17.9432 42.0768 18.0384C41.9347 18.1336 41.8147 18.2579 41.7247 18.403C41.4401 18.7398 41.2359 19.1365 41.1275 19.5632M43.9999 20.3133C43.9999 20.6112 43.7445 20.9638 43.2461 21.3751C42.7746 21.7771 42.1741 21.9981 41.5532 21.9982C41.342 22.0087 41.131 21.9737 40.9347 21.8954C40.7385 21.817 40.5616 21.6974 40.4162 21.5446C40.1243 21.1912 39.9767 20.7414 40.003 20.2847C40.0128 19.4624 40.3154 18.6702 40.857 18.0491C41.0579 17.7491 41.325 17.4987 41.6379 17.3171C41.9508 17.1355 42.3013 17.0274 42.6626 17.001C42.8045 16.9947 42.9462 17.0179 43.0786 17.0692C43.211 17.1205 43.3312 17.1987 43.4314 17.2989C43.6169 17.4935 43.7189 17.7523 43.7157 18.0205C43.7012 18.2924 43.6305 18.5584 43.5081 18.802C43.3858 19.0455 43.2143 19.2614 43.0045 19.4362C42.4892 19.9041 41.8546 20.2222 41.1701 20.3558C41.1323 20.3597 41.0976 20.3782 41.0734 20.4074C41.0493 20.4365 41.0377 20.474 41.0411 20.5116C41.0428 20.5868 41.0601 20.6609 41.092 20.7291C41.1239 20.7973 41.1697 20.8582 41.2264 20.9079C41.2898 20.9703 41.3654 21.0189 41.4486 21.0506C41.5318 21.0823 41.6208 21.0965 41.7098 21.0923C42.039 21.0681 42.3599 20.9779 42.6532 20.8272C42.9465 20.6764 43.2061 20.4682 43.4165 20.215C43.494 20.1191 43.6066 20.0577 43.7295 20.0443C43.9148 20.0306 44 20.129 44 20.3135" fill="white"/>
</svg>
