<svg width="184" height="80" viewBox="0 0 184 80" fill="none" xmlns="http://www.w3.org/2000/svg">
<path d="M153.74 36.5135H154.279V38.5651H155.02V36.5135H155.628V35.8503H153.74V36.5135ZM77.2652 41.8776H77.3318C77.9805 41.8593 78.626 41.9767 79.2268 42.2223C79.8277 42.4678 80.3708 42.8362 80.8214 43.3038C81.2721 43.7714 81.6203 44.328 81.844 44.938C82.0676 45.548 82.1617 46.1979 82.1202 46.8464C82.1457 47.4533 82.0502 48.0593 81.8395 48.629C81.6287 49.1986 81.3069 49.7206 80.8927 50.1645C80.4785 50.6085 79.9802 50.9654 79.4269 51.2147C78.8735 51.4639 78.2762 51.6005 77.6697 51.6163H77.333C76.0738 51.5787 74.8782 51.0536 73.9977 50.1516C73.1171 49.2496 72.6202 48.0409 72.6114 46.7797C72.6027 45.5184 73.0827 44.3029 73.9506 43.3887C74.8185 42.4745 76.0066 41.9328 77.2652 41.8776ZM50.6948 31.3458L50.0201 30.8827C49.8221 30.0739 49.9426 29.2198 50.3568 28.4977C50.6446 28.0104 50.8929 27.5007 51.0991 26.9736C51.1909 26.8249 51.3044 26.6909 51.4358 26.5759C52.3814 27.241 53.2419 28.0196 53.9984 28.8942C53.1925 30.0491 52.0328 30.9097 50.6948 31.3458ZM45.0296 48.8336L44.4906 48.1704C44.4273 47.2761 44.6139 46.3819 45.0296 45.5878V48.8336ZM75.3772 20.0854C75.0484 20.4309 74.7547 20.8082 74.5004 21.2118C73.9933 20.1555 73.19 19.2699 72.1885 18.6631C71.1788 18.0506 70.0154 17.7397 68.8351 17.7671C65.1257 17.7671 63.9122 19.6877 63.4399 20.4831H63.3733V18.4291H57.8436V28.1L57.6413 27.7035C56.8049 26.5075 55.7794 25.4558 54.6052 24.5898C54.3474 24.3801 54.1207 24.1348 53.9319 23.8611C53.7006 23.5393 53.4528 23.2297 53.1895 22.9336C52.7391 22.524 52.4119 21.9965 52.2449 21.4107C52.2434 21.308 52.2103 21.2082 52.15 21.1251C52.0897 21.042 52.0053 20.9795 51.9082 20.9463C51.4626 20.7427 50.9809 20.6302 50.4913 20.6153C50.1021 20.5857 49.7245 20.4691 49.3862 20.2742C49.048 20.0793 48.7576 19.8109 48.5366 19.4889L48.8733 18.4291L49.8179 18.1648C50.1145 18.1355 50.3898 17.997 50.5903 17.7762C50.7907 17.5553 50.9022 17.2677 50.903 16.9693C50.9033 16.926 50.9013 16.8827 50.8969 16.8396C50.8834 16.6776 50.8373 16.52 50.7613 16.3764L50.1545 15.3821C50.1833 14.9594 50.1271 14.5351 49.9891 14.1346C49.8511 13.734 49.6341 13.3652 49.3511 13.0502C49.0681 12.7352 48.7247 12.4802 48.3415 12.3005C47.9582 12.1208 47.5427 12.02 47.1198 12.0041H46.7153C46.466 11.99 46.2159 12.0124 45.973 12.0708C45.649 12.1369 45.3454 12.2796 45.0876 12.4869C44.8298 12.6942 44.6251 12.9602 44.4907 13.2627C43.8827 13.3948 43.276 13.2627 42.8715 13.7925C42.8394 13.8221 42.8138 13.858 42.7963 13.898C42.7788 13.9379 42.7698 13.9811 42.7698 14.0247C42.7698 14.0684 42.7788 14.1115 42.7963 14.1515C42.8138 14.1915 42.8394 14.2274 42.8715 14.2569L43.6805 15.3166C43.528 16.2922 43.6936 17.2909 44.1528 18.1648C43.5821 19.1579 42.6719 19.9107 41.5901 20.2842C40.7811 20.5498 39.9721 20.8808 39.0953 21.2118C38.9597 21.2773 38.8931 21.344 38.8931 21.4094C38.6056 21.9656 38.3575 22.5413 38.1507 23.1324C37.9485 23.7289 37.8141 24.3243 37.6784 24.8541C37.5625 25.5975 37.3822 26.3294 37.1395 27.0415C36.6006 28.0345 36.3305 29.0942 35.7904 30.0218C34.9739 31.7016 34.2534 33.4266 33.6323 35.1882C33.3257 35.8268 33.0776 36.492 32.8911 37.1755C32.8622 37.4081 32.7721 37.6288 32.6299 37.815C32.4878 38.0012 32.2987 38.1462 32.0822 38.2352C31.2746 38.629 30.6475 39.3163 30.3286 40.1571C30.1596 40.408 30.0583 40.6984 30.0345 41.0001C30.0108 41.3018 30.0653 41.6045 30.1929 41.8788C30.2608 41.9455 30.2608 42.011 30.2608 42.1431C30.2119 42.4633 30.1211 42.7756 29.9907 43.0719L29.654 44.065C29.4518 44.5948 29.3161 45.058 29.1139 45.6545C29.0207 45.9407 28.8713 46.2053 28.6746 46.4329C28.4779 46.6604 28.2377 46.8464 27.9682 46.9798C27.909 47.0285 27.8604 47.089 27.8256 47.1575C27.7908 47.2259 27.7705 47.3008 27.766 47.3775V47.8407C27.8467 48.3445 27.8917 48.8534 27.9004 49.3635C27.8533 49.9269 27.7403 50.4828 27.5638 51.0198C27.0237 52.9416 26.4847 54.7955 26.0124 56.6506C25.656 58.2863 25.4304 59.9478 25.3379 61.6194C25.297 62.1404 25.1832 62.653 25 63.1423H25.1356L25.2701 63.0756L25.6758 61.8838C25.878 61.3539 26.2147 60.8907 26.8214 59.4333C27.6199 57.601 28.2298 55.6919 28.6416 53.7358C28.8439 52.8749 29.0461 51.9473 29.1818 51.0865C29.1839 50.8726 29.2408 50.6629 29.347 50.4773C29.4532 50.2918 29.6052 50.1367 29.7885 50.0268C30.3369 49.6429 30.797 49.146 31.1376 48.5693C31.2033 48.4715 31.2384 48.3562 31.2384 48.2383C31.2384 48.1204 31.2033 48.0052 31.1376 47.9073L30.5975 47.2441C30.5025 47.1347 30.4542 46.9923 30.463 46.8476L30.6653 44.2638C30.7205 43.2178 30.9485 42.1882 31.3398 41.2168L31.4065 41.1501C32.0144 41.1501 32.6211 40.9513 33.2279 41.4157C33.2369 41.4242 33.244 41.4344 33.2489 41.4458C33.2538 41.4571 33.2563 41.4694 33.2563 41.4817C33.2563 41.4941 33.2538 41.5064 33.2489 41.5177C33.244 41.5291 33.2369 41.5393 33.2279 41.5478L32.9578 42.1444C32.9382 42.1878 32.928 42.2348 32.9277 42.2825C32.9275 42.3301 32.9372 42.3773 32.9562 42.4209C32.9753 42.4645 33.0033 42.5037 33.0384 42.5358C33.0735 42.568 33.1149 42.5924 33.1601 42.6075C33.2279 42.6075 33.2945 42.6742 33.4301 42.6075C33.5498 42.5554 33.6459 42.4608 33.7002 42.342C33.8583 42.1301 33.952 41.8771 33.9702 41.6133C34.0358 41.103 33.9158 40.5862 33.6324 40.1571V39.957L34.4425 38.3675C34.5092 38.302 34.5092 38.2353 34.6448 38.1686C34.9669 37.9103 35.2404 37.5967 35.4525 37.2423C36.1949 35.917 37.0039 34.593 37.7463 33.201C38.5533 31.9246 39.2312 30.5708 39.7699 29.1598C39.8638 28.8966 40.0005 28.6508 40.1744 28.4323C40.5789 28.6299 40.5111 28.8955 40.5789 29.1598C40.6455 30.3529 40.7134 31.6114 40.849 32.8033C40.9156 33.3999 40.9834 33.9964 41.1178 34.7252C41.1283 34.8612 41.1054 34.9977 41.0512 35.1229C40.7587 36.019 40.6665 36.9686 40.7812 37.9044V38.3019C40.7961 38.9526 40.7049 39.6013 40.5111 40.2225C40.3063 41.0488 40.171 41.8908 40.1066 42.7397C40.0388 44.727 40.1066 46.7142 40.0388 48.7015C40.0156 49.1539 40.1089 49.6047 40.3097 50.0107C40.5106 50.4166 40.8122 50.7641 41.1856 51.0198C42.3991 51.9474 43.4782 53.0071 44.6929 54.0013C44.6858 54.3149 44.6402 54.6264 44.5572 54.9289C43.9446 56.4156 43.758 58.0439 44.0183 59.631L43.9505 59.7643C44.0223 60.0015 44.0674 60.2459 44.0849 60.493V61.2206C44.095 61.3142 44.0713 61.4083 44.0183 61.4861V62.4136C43.9873 62.546 44.0041 62.6851 44.0657 62.8063C44.1273 62.9275 44.2298 63.0229 44.355 63.0757L44.625 63.209C44.7257 63.2738 44.8427 63.3082 44.9623 63.3082C45.0819 63.3082 45.199 63.2738 45.2997 63.209C45.4341 63.1423 45.5019 63.209 45.5685 63.3412C45.6233 63.4424 45.6469 63.5576 45.6363 63.6722C45.6306 63.909 45.7016 64.1412 45.8386 64.3342C45.9923 64.544 46.2029 64.7051 46.4453 64.7986C46.581 64.8653 46.7154 64.8653 46.851 64.9308C46.9176 64.9975 46.9854 64.9975 47.1211 64.9975H47.7944C47.9548 65.0081 48.1156 64.9854 48.2667 64.9308C48.3333 64.9308 48.4011 64.8641 48.469 64.8641L48.6034 64.7986C48.6712 64.7319 48.739 64.6652 48.739 64.5998V64.3355C48.6581 63.9294 48.5451 63.5305 48.4011 63.1423C48.1997 62.7959 47.9743 62.4641 47.7265 62.1493L47.1876 61.4194C47.121 61.3539 47.121 61.2872 47.0532 61.2206C46.9357 61.0358 46.8448 60.8354 46.7831 60.6252C46.7831 60.5585 46.7153 60.4264 46.7831 60.2942C46.7781 60.0367 46.8484 59.7834 46.9854 59.5655V59.4988L47.5921 57.5782L48.3333 58.1748L49.7502 57.5115L50.6948 59.1678C50.807 59.2838 50.8984 59.4184 50.9649 59.5655C51.0927 59.7079 51.2055 59.8631 51.3015 60.0287C51.436 60.1608 51.5716 60.361 51.706 60.4931L51.7726 60.5585V60.6252C51.8405 60.7574 51.9083 60.8895 51.8405 61.0229V61.0896C51.8509 61.2252 51.828 61.3613 51.7739 61.4861C51.706 61.8171 51.6382 62.1493 51.5716 62.5458V63.2757C51.5786 63.4035 51.6121 63.5284 51.6701 63.6424C51.7281 63.7564 51.8092 63.857 51.9083 63.9378C51.9749 64.0699 52.1783 64.0699 52.3128 64.0032L52.3794 63.9378C52.4472 63.8711 52.5828 63.8044 52.6494 63.6722C52.9823 63.2722 53.2552 62.8257 53.4596 62.347C53.7331 61.7929 53.8495 61.1743 53.7963 60.5585V58.1747H53.9985C54.1862 57.7216 54.344 57.2566 54.4708 56.7828C54.6052 56.3196 54.8075 55.7231 54.2686 55.392C53.8271 55.2504 53.3763 55.1398 52.9195 55.061C52.4451 55.0719 51.9721 55.1161 51.5038 55.1932C50.5003 54.2513 49.5965 53.2083 48.8068 52.0807C49.0091 50.8876 49.2113 49.7624 49.3457 48.5693C49.4814 47.1774 49.6836 45.7211 49.9525 44.3292C50.0191 44.0649 50.0869 43.6672 50.1547 43.4016C50.3569 41.9454 50.4914 40.4868 50.6949 38.9639C50.6949 38.8972 50.6949 38.8972 50.7615 38.8317L51.3016 38.2352C51.3682 38.1685 51.436 38.0363 51.3682 37.9709L51.0315 35.5192L51.436 34.9893L51.7061 33.7974L51.8405 33.9296C52.2522 33.7235 52.6571 33.5028 53.0552 33.2676C53.5459 32.9966 53.9991 32.6623 54.4031 32.2733C55.4821 31.4792 56.4933 30.6183 57.5736 29.7562L57.8436 29.4919V37.5065H63.7099V27.5046C63.7099 26.3782 63.7099 23.1978 67.0149 23.1978C69.982 23.1978 69.982 26.1793 69.982 27.2391V39.0306C68.9088 40.0348 68.0642 41.2586 67.5057 42.6187C66.9471 43.9789 66.6875 45.4435 66.7448 46.9131C66.6958 48.2395 66.9171 49.562 67.3953 50.8C67.8735 52.0379 68.5984 53.1655 69.526 54.1138C70.4536 55.0621 71.5644 55.8114 72.7906 56.3159C74.0168 56.8204 75.3328 57.0696 76.6584 57.0483C77.7248 57.1161 78.7896 56.8931 79.7394 56.4031C80.6893 55.9131 81.4887 55.1744 82.0524 54.2656H82.1203V54.8621C82.1203 60.0286 78.0741 60.0952 77.333 60.0952C76.6361 60.1381 75.9415 59.9799 75.3317 59.6395C74.7219 59.2991 74.2224 58.7907 73.8924 58.1747H67.0815C67.486 60.9561 70.0498 64.9307 76.8607 64.9307C81.7158 64.9307 85.2907 62.8112 86.8409 60.3608C87.7853 58.382 88.1814 56.1856 87.9878 54.0012V37.1088H82.1202V38.8973H82.0536C81.421 38.0806 80.599 37.4306 79.6589 37.0036C78.7188 36.5766 77.6889 36.3855 76.6584 36.4468H75.8482V27.1737C75.8482 26.1139 75.8482 23.1991 79.0866 23.1991C82.1215 23.1991 82.1215 25.9151 82.1215 27.5047V36.1158H87.9878V27.1737C87.9878 22.8681 87.7177 21.6095 85.8297 19.6877C84.3814 18.3727 82.4762 17.678 80.5224 17.7523C78.5686 17.8267 76.7216 18.6642 75.3771 20.0854H75.3772ZM158.057 35.8503L157.516 37.5732H157.449L156.91 35.8503H155.965V38.5675H156.707L156.64 36.7123H156.707L157.246 38.5675H157.787L158.259 36.7123H158.325L158.259 38.5675H159V35.8503H158.057ZM135.464 50.3578H129.665C129.276 50.9375 128.743 51.4062 128.119 51.7181C127.491 52.0318 126.793 52.1792 126.091 52.1461C125.01 52.2219 123.94 51.89 123.091 51.2157C122.243 50.5414 121.677 49.5736 121.505 48.5026H135.464L135.464 50.3578ZM126.023 41.2822C127.036 41.2189 128.039 41.5168 128.854 42.1232C129.669 42.7295 130.242 43.6052 130.474 44.5948H121.573C121.825 43.6165 122.404 42.7543 123.214 42.1516C124.023 41.5488 125.015 41.242 126.023 41.2822ZM110.714 50.3578C110.325 50.9374 109.793 51.4062 109.169 51.7181C108.54 52.0318 107.842 52.1792 107.141 52.1461C106.06 52.2215 104.99 51.8895 104.141 51.2153C103.293 50.5411 102.727 49.5734 102.554 48.5026H115.839C115.957 49.1304 116.115 49.75 116.312 50.3577L110.714 50.3578ZM107.275 41.3489C108.286 41.2954 109.284 41.5971 110.097 42.2019C110.909 42.8067 111.485 43.6766 111.725 44.6615H102.824C103.037 43.6693 103.603 42.7889 104.418 42.1855C105.241 41.5755 106.254 41.2788 107.275 41.3489ZM151.38 38.1031C149.908 37.0359 148.139 36.4567 146.321 36.4468C145.268 36.351 144.209 36.5551 143.267 37.0356C142.324 37.5161 141.536 38.2535 140.994 39.1628H140.926V37.11H135.464V42.5408C134.664 40.7075 133.342 39.1514 131.662 38.0674C129.983 36.9833 128.021 36.4196 126.023 36.4468C124.022 36.4464 122.064 37.0285 120.388 38.1224C118.711 39.2162 117.388 40.7745 116.581 42.6075C115.514 40.1311 113.511 38.1778 111.011 37.1743C108.493 36.1568 105.679 36.1572 103.161 37.1755C101.787 37.7538 100.547 38.6109 99.5194 39.6926V36.3813C98.6182 36.2836 97.7075 36.4358 96.8869 36.8213C96.0663 37.2069 95.3674 37.811 94.8666 38.5675V36.9767H88.999V56.3196H94.8665V45.7212C94.8071 45.309 94.8353 44.8889 94.9492 44.4884C95.0632 44.0879 95.2603 43.716 95.5277 43.397C95.795 43.078 96.1267 42.8192 96.5009 42.6374C96.8751 42.4555 97.2834 42.3549 97.6991 42.3419C96.9495 43.8932 96.6112 45.6115 96.7168 47.3316C96.8225 49.0516 97.3684 50.7155 98.3022 52.1631C99.2437 53.6233 100.538 54.8216 102.066 55.6467C103.604 56.4788 105.325 56.9147 107.073 56.9149C109.07 56.9261 111.023 56.3253 112.67 55.1932C114.286 54.0608 115.586 52.5331 116.446 50.7554C117.285 52.5934 118.633 54.1514 120.331 55.2436C122.029 56.3359 124.005 56.9165 126.023 56.9161C128.02 56.9261 129.973 56.325 131.619 55.1932C133.236 54.0609 134.536 52.5332 135.397 50.7554V56.3196H141.264V45.92C141.264 44.7269 141.264 41.8788 144.636 41.8788C147.738 41.8788 147.738 44.5281 147.738 45.8533V56.4518H153.605V44.3293C153.673 40.5535 152.459 39.0306 151.38 38.1031H151.38ZM94.8665 27.1069C94.8665 24.1921 96.7545 23.5955 99.5194 23.5301V17.7659C98.5191 17.6541 97.5088 17.8552 96.6273 18.3415C95.7458 18.8279 95.0364 19.5756 94.5965 20.4819H94.5299V18.4291H88.999V36.1158H94.8665V27.1069Z" fill="white"/>
</svg>
