<svg width="184" height="80" viewBox="0 0 184 80" fill="none" xmlns="http://www.w3.org/2000/svg">
<path d="M86.0793 43.173C86.0793 46.5049 86.0905 49.6219 86.0757 52.7387C86.0637 55.2783 85.4564 55.8034 82.6098 55.8089C79.5837 55.8148 79.0116 55.3477 79.0085 52.6923C78.9961 42.1429 78.9973 31.5935 79.012 21.0441C79.0154 18.5878 79.6171 17.9776 82.098 18.0006C86.6657 18.043 91.2416 18.0029 95.798 18.2687C98.3971 18.414 100.851 19.5048 102.694 21.3332C104.536 23.1616 105.637 25.5999 105.787 28.1834C106.384 35.098 104.109 39.0962 97.3957 42.4039C99.2887 44.3508 100.957 46.3557 102.912 48.0295C114.818 58.2219 133.785 55.5403 143.218 47.2867C143.8 46.838 144.474 46.5218 145.192 46.3606C145.91 46.1993 146.656 46.1969 147.375 46.3535C148.094 46.5101 148.77 46.822 149.355 47.2669C149.94 47.7119 150.419 48.2791 150.759 48.9285C151.019 49.5187 151.07 50.1792 150.904 50.8021C150.738 51.425 150.364 51.9733 149.843 52.3575C145.455 56.8353 139.783 59.8581 133.603 61.0138C121.65 63.3205 110.324 61.7813 100.483 54.2599C97.3522 51.628 94.5959 48.5854 92.2894 45.2157C91.1378 43.6775 90.1587 42.9201 88.3208 43.1599C87.5745 43.2069 86.8261 43.2113 86.0793 43.173ZM86.2123 24.4492V36.7167C88.5894 36.7167 90.8347 36.7891 93.0734 36.6997C96.3946 36.5671 98.4343 34.3346 98.615 30.7904C98.7966 27.2289 97.0127 24.8212 93.605 24.494C91.1976 24.2628 88.7495 24.4492 86.2123 24.4492Z" fill="#FFFFFD"/>
<path d="M65.441 30.414C63.0928 36.0221 60.7293 41.4878 58.5287 47.0174C58.2575 47.8605 57.6939 48.58 56.9387 49.0472C56.1835 49.5145 55.286 49.6991 54.4066 49.5679C53.5539 49.6591 52.6962 49.4492 51.983 48.975C51.2699 48.5008 50.7467 47.7923 50.5047 46.9732C48.2411 41.2686 45.823 35.6246 43.531 30.1152C43.2197 34.6694 42.9062 39.4273 42.5651 44.1831C42.338 47.3504 42.0524 50.5135 41.8307 53.6811C41.8507 54.0009 41.7997 54.3212 41.6814 54.6192C41.5631 54.9172 41.3803 55.1857 41.1461 55.4055C40.9118 55.6253 40.6319 55.791 40.3261 55.891C40.0202 55.991 39.6961 56.0227 39.3765 55.984C38.7376 55.988 38.0981 56.0035 37.4599 55.9813C35.6068 55.9169 34.8774 55.177 35.0166 53.3753C35.5009 47.1068 36.0151 40.8406 36.5244 34.574C36.8741 30.2699 37.2609 25.9686 37.5811 21.6624C37.7934 18.8072 38.3286 18.2608 41.1975 18.2534C45.137 18.2432 45.1634 18.233 46.6033 21.9047C49.1275 28.3413 51.6148 34.7922 54.1228 41.2351C54.234 41.4748 54.3598 41.7075 54.4992 41.9321C57.0324 35.5435 59.5373 29.2262 62.0422 22.909C62.159 22.6144 62.2757 22.3197 62.3945 22.0258C63.9352 18.2136 65.3169 17.4842 69.4405 18.2982C69.9831 18.3803 70.4761 18.6592 70.8248 19.0813C71.1734 19.5033 71.353 20.0387 71.3292 20.5846C71.9647 28.561 72.6081 36.5368 73.2593 44.512C73.4964 47.4234 73.8045 50.3301 73.984 53.2448C74.114 55.354 73.4706 55.9454 71.3248 55.9872C67.6326 56.0593 67.3123 55.7024 67.0643 52.1076C66.5665 44.8941 65.9898 37.6859 65.441 30.414Z" fill="#FFFFFD"/>
<path d="M138.924 41.4157C138.845 41.3299 139.094 41.6088 139.352 41.8801C140.863 43.4701 140.89 44.6624 139.447 46.2091C137.845 47.9266 136.588 48.1282 134.992 46.6072C134.037 45.6966 133.375 45.9039 132.34 46.386C129.95 47.5703 127.29 48.1191 124.622 47.9784C121.954 47.8378 119.368 47.0127 117.118 45.5837C114.867 44.1547 113.029 42.1707 111.783 39.8258C110.536 37.4808 109.925 34.8552 110.007 32.2054C110.276 24.3298 116.652 18.3723 125.179 18.0298C127.279 17.8972 129.384 18.2081 131.354 18.9421C133.324 19.676 135.115 20.8164 136.608 22.2878C138.101 23.7591 139.262 25.5281 140.015 27.4777C140.768 29.4273 141.096 31.5133 140.976 33.5978C140.815 36.1217 139.696 38.5855 138.924 41.4157ZM132.737 35.6628C133.464 34.0624 133.611 32.2616 133.153 30.5659C132.695 28.8702 131.659 27.3841 130.222 26.3598C128.709 25.3087 126.883 24.7947 125.039 24.9009C123.195 25.0071 121.441 25.7273 120.061 26.9451C118.701 28.3646 117.863 30.1973 117.681 32.1475C117.499 34.0978 117.984 36.052 119.059 37.6949C119.982 39.1154 121.376 40.1716 123 40.6813C124.625 41.1909 126.377 41.1221 127.956 40.4866C126.285 38.2912 126.25 37.4279 127.768 35.8467C129.515 34.0277 130.37 33.9961 132.737 35.6628Z" fill="#FFFFFD"/>
<path d="M117.301 17C116.996 17 116.701 16.8908 116.467 16.6914C116.233 16.4919 116.075 16.215 116.021 15.9088C115.967 15.6027 116.019 15.2868 116.17 15.0164C116.321 14.746 116.56 14.5382 116.845 14.4293C121.767 12.6071 127.145 12.5249 132.117 14.1959C132.444 14.3089 132.713 14.5494 132.865 14.8646C133.018 15.1798 133.042 15.544 132.932 15.8772C132.822 16.2103 132.587 16.4853 132.278 16.6417C131.969 16.7981 131.613 16.8232 131.286 16.7114C126.88 15.2355 122.117 15.3073 117.756 16.9153C117.61 16.9713 117.456 17 117.301 17Z" fill="#FFFFFD"/>
<path d="M128.685 11.9004C128.762 11.932 128.821 11.9676 128.894 12H128.903C129.087 11.1928 129.008 10.3532 128.677 9.58739C128.347 8.82162 127.779 8.16413 127.046 7.69812C126.107 7.23622 125.061 6.99644 123.999 7.00004C122.937 7.00364 121.892 7.25051 120.957 7.71876C120.246 8.16589 119.689 8.79454 119.353 9.52892C119.018 10.2633 118.919 11.0721 119.067 11.8577C122.204 10.9706 125.557 10.9855 128.685 11.9004Z" fill="#FFFFFD"/>
</svg>
