<svg width="184" height="80" viewBox="0 0 184 80" fill="none" xmlns="http://www.w3.org/2000/svg">
<path d="M51.7633 38L53.1599 33.1959H59.6666C61.1508 33.3232 62.6306 32.9085 63.8219 32.0315C65.0133 31.1544 65.832 29.8769 66.121 28.4442L66.6485 26.6629C67.8604 22.557 65.8839 20 61.564 20H33.2693L28 38H51.7633ZM61.5373 24.8291L60.4312 28.754H54.4763L55.6092 24.8554H61.5373V24.8291Z" fill="white"/>
<path d="M69.0708 38L70.791 34.9826H78.7635V38H84V20H73.7086L63 38H69.0708ZM76.6009 24.8998H78.7635V30.6254H73.2914L76.6009 24.8998Z" fill="white"/>
<path d="M106.165 28.2784L106.645 26.6532C107.87 22.5021 105.871 20 101.503 20H91.328L86 38H91.5664L93.0315 33.0482H96.495L98.0669 38H103.794L102.116 32.7138C103.138 32.3916 104.053 31.8104 104.765 31.0305C105.477 30.2505 105.961 29.3003 106.165 28.2784M95.4564 24.8483H101.451L100.331 28.7424H94.3109L95.4564 24.8483Z" fill="white"/>
<path d="M111.621 38L117 20H111.351L106 38H111.621Z" fill="white"/>
<path d="M76.8587 41L70.6421 48.1846L68.0858 41H44.2431L39 59H62.7639L65.6628 49.0604L67.5854 54.6223H71.1425L76.2795 48.6989L73.25 59H78.7569L84 41H76.8587Z" fill="white"/>
<path d="M91.735 41L81 59H87.0708L88.791 55.9826H96.7635V59H102V41.025L91.735 41ZM91.3179 51.6503L94.6009 45.9248H96.7635V51.6503H91.3179Z" fill="white"/>
<path d="M120.518 46.1512L122 41H105.483L104 46.1512H109.982L106.263 59H111.7L115.419 46.1512H120.518Z" fill="white"/>
<path d="M128.936 46.155H137.444L139 41.0225H129.929C128.417 40.8955 126.91 41.3098 125.697 42.1857C124.483 43.0616 123.649 44.3374 123.355 45.7682L121.368 52.3454C120.107 56.5498 122.147 59 126.548 59H133.605L135.136 53.8663H126.628L128.936 46.155Z" fill="white"/>
<path d="M152.391 41L150.457 47.4377H144.043L145.949 41H140.341L135 59H140.608L142.514 52.5623H148.928L147.022 59H152.659L158 41H152.391Z" fill="white"/>
</svg>
