<svg width="184" height="80" viewBox="0 0 184 80" fill="none" xmlns="http://www.w3.org/2000/svg">
<path d="M49.2782 31.2394C46.6708 31.3713 45.2672 31.4661 44.9521 31.4768C45.5896 29.6571 46.2373 27.8297 46.8951 25.9948C48.0406 25.9613 49.1873 25.9229 50.3328 25.9229C53.5875 25.9229 53.3014 31.0512 49.2782 31.2502V31.2394ZM144 19H131.038C130.065 19.941 121.728 27.9884 119.929 29.7158C121.333 26.2334 122.845 22.5172 124.249 19C120.398 19 116.49 19.0335 112.634 19C112.423 19.5155 105.226 37.0043 101.914 45.1008C103.002 45.1008 112.274 45.1404 113.695 45.162C114.519 43.1348 117.815 34.988 118.639 32.9789C119.537 37.1027 120.441 41.2376 121.35 45.3838C125.265 45.5169 129.18 45.7015 133.095 45.9376C132.023 41.5992 130.949 37.2741 129.876 32.9621C131.021 31.8209 140.59 22.4285 144 19M109.999 19H83.9278C83.6866 19.609 82.0077 23.8743 81.3774 25.3907C85.0405 25.3583 88.7021 25.3343 92.362 25.3188C90.9462 26.4875 77.0391 38.3446 75.7057 39.5577C74.8245 41.7431 73.9647 43.936 73.1263 46.1366C81.8126 45.6055 90.5086 45.2771 99.2143 45.1512L101.748 38.9368C98.0798 38.9595 94.4142 39.0075 90.751 39.0806C93.4844 36.7658 105.959 26.4816 107.369 25.3463L109.999 19ZM69.3105 19V19.0444C68.468 21.1602 59.4205 44.8911 58.5549 47.2442C62.4848 46.8762 66.4194 46.5626 70.3589 46.3032C71.2184 44.0315 78.2089 25.845 80.9023 19H69.3105ZM53.2094 19H29.4413C31.6644 20.7335 36.0427 24.1008 36.0245 24.1452C35.8124 24.7601 27.7285 48.7619 27 51C30.9237 50.415 34.8528 49.8776 38.787 49.3877C39.9749 45.8657 41.1745 42.3417 42.3859 38.8157L45.8236 48.5401C49.4007 48.1337 52.9818 47.7645 56.567 47.4324C55.3463 44.215 52.9681 37.7848 52.9681 37.7848C63.3914 36.3894 69.5734 19 53.2093 19" fill="#1D1D1B"/>
<path d="M49.2783 31.2395C46.6709 31.3713 45.2672 31.4661 44.9521 31.4768C45.5897 29.6571 46.2374 27.8297 46.8952 25.9948C48.0407 25.9613 49.1873 25.9229 50.3328 25.9229C53.5875 25.9229 53.3014 31.0512 49.2783 31.2502V31.2395ZM144 19H131.038C130.065 19.941 121.728 27.9884 119.929 29.7158C121.333 26.2334 122.845 22.5172 124.249 19C120.398 19 116.49 19.0335 112.634 19C112.423 19.5155 105.226 37.0043 101.914 45.1008C103.002 45.1008 112.274 45.1404 113.695 45.162C114.519 43.1349 117.815 34.988 118.639 32.9789C119.537 37.1027 120.441 41.2377 121.35 45.3838C125.265 45.5169 129.18 45.7015 133.095 45.9376C132.023 41.5993 130.95 37.2741 129.876 32.9621C131.021 31.8209 140.59 22.4285 144 19V19ZM109.999 19H83.9278C83.6866 19.609 82.0078 23.8743 81.3774 25.3906C85.0406 25.3583 88.7021 25.3343 92.362 25.3187C90.9462 26.4875 77.0391 38.3446 75.7058 39.5577C74.8245 41.7431 73.9647 43.936 73.1263 46.1366C81.8126 45.6055 90.5086 45.277 99.2143 45.1512L101.748 38.9368C98.0798 38.9595 94.4142 39.0075 90.7511 39.0806C93.4845 36.7658 105.959 26.4815 107.369 25.3463L109.999 19ZM69.3104 19V19.0444C68.4679 21.1602 59.4204 44.8911 58.5549 47.2442C62.4847 46.8762 66.4194 46.5626 70.3589 46.3032C71.2183 44.0315 78.2089 25.845 80.9023 19H69.3104ZM53.2093 19H29.4413C31.6644 20.7334 36.0427 24.1008 36.0245 24.1451C35.8124 24.7601 27.7285 48.7619 27 51C30.9238 50.415 34.8528 49.8776 38.787 49.3877C39.9749 45.8657 41.1745 42.3417 42.3859 38.8157L45.8236 48.5401C49.4007 48.1337 52.9818 47.7645 56.567 47.4325C55.3463 44.215 52.9681 37.7848 52.9681 37.7848C63.3914 36.3894 69.5735 19 53.2093 19V19Z" stroke="black" stroke-width="0.946" stroke-linejoin="round"/>
<path d="M152 25.6286L143.658 19L127.662 21.9692L123.965 19L111.744 20.5853L109.756 19L83.0405 20.8376L80.744 19L66.5983 25.87L61.0047 21.3482C61.0796 21.4089 42.7907 25.4551 42.7907 25.4551L27 51.3764L35.3407 58C39.2506 57.4032 43.1682 56.8578 47.0934 56.3638C47.653 54.6717 48.2243 52.9793 48.8073 51.2865L54.1264 55.5062C57.6907 55.1023 61.2614 54.7287 64.8385 54.3855L63.9127 51.8979L66.8219 54.2012C70.7391 53.8277 74.6619 53.5119 78.5903 53.2539L79.2756 51.4273L81.3496 53.0683C90.0107 52.5311 98.6814 52.2008 107.362 52.0774C107.579 51.5171 107.802 50.9567 108.019 50.4351L110.036 52.0604C111.122 52.0604 118.949 52.0604 121.782 52.1271C122.354 50.6425 122.965 49.1579 123.559 47.6782L129.41 52.3237C133.317 52.4583 137.223 52.6451 141.127 52.884C140.082 48.4945 139.012 44.1106 137.917 39.7324C142.652 35.0724 147.347 30.3711 152 25.6286" fill="white"/>
<path d="M152 25.6286L143.658 19L127.662 21.9692L123.965 19L111.744 20.5853L109.756 19L83.0405 20.8376L80.7441 19L66.5983 25.87L61.0047 21.3482C61.0797 21.4089 42.7907 25.4551 42.7907 25.4551L27 51.3763L35.3408 58C39.2506 57.4032 43.1682 56.8578 47.0935 56.3638C47.653 54.6717 48.2243 52.9793 48.8073 51.2865L54.1265 55.5062C57.6907 55.1023 61.2614 54.7287 64.8385 54.3855L63.9128 51.8979L66.8219 54.2012C70.7391 53.8277 74.6619 53.5119 78.5903 53.2539L79.2756 51.4273L81.3496 53.0683C90.0107 52.5311 98.6814 52.2008 107.362 52.0774C107.579 51.5171 107.802 50.9567 108.019 50.4351L110.036 52.0604C111.122 52.0604 118.949 52.0604 121.782 52.1271C122.354 50.6425 122.965 49.1579 123.559 47.6782L129.41 52.3237C133.317 52.4583 137.223 52.6451 141.127 52.884C140.082 48.4945 139.012 44.1106 137.917 39.7324C142.652 35.0724 147.347 30.3711 152 25.6286Z" stroke="black" stroke-width="0.946" stroke-linejoin="round"/>
<path d="M49.2782 31.2394C46.6708 31.3713 45.2672 31.4661 44.9521 31.4768C45.5896 29.6571 46.2373 27.8297 46.8951 25.9948C48.0406 25.9613 49.1873 25.9229 50.3328 25.9229C53.5875 25.9229 53.3014 31.0512 49.2782 31.2502V31.2394ZM144 19H131.038C130.065 19.941 121.728 27.9884 119.929 29.7158C121.333 26.2334 122.845 22.5172 124.249 19C120.398 19 116.49 19.0335 112.634 19C112.423 19.5155 105.226 37.0043 101.914 45.1008C103.002 45.1008 112.274 45.1404 113.695 45.162C114.519 43.1348 117.815 34.988 118.639 32.9789C119.537 37.1027 120.441 41.2376 121.35 45.3838C125.265 45.5169 129.18 45.7015 133.095 45.9376C132.023 41.5992 130.949 37.2741 129.876 32.9621C131.021 31.8209 140.59 22.4285 144 19M109.999 19H83.9278C83.6866 19.609 82.0077 23.8743 81.3774 25.3907C85.0405 25.3583 88.7021 25.3343 92.362 25.3188C90.9462 26.4875 77.0391 38.3446 75.7057 39.5577C74.8245 41.7431 73.9647 43.936 73.1263 46.1366C81.8126 45.6055 90.5086 45.2771 99.2143 45.1512L101.748 38.9368C98.0798 38.9595 94.4142 39.0075 90.751 39.0806C93.4844 36.7658 105.959 26.4816 107.369 25.3463L109.999 19ZM69.3105 19V19.0444C68.468 21.1602 59.4205 44.8911 58.5549 47.2442C62.4848 46.8762 66.4194 46.5626 70.3589 46.3032C71.2184 44.0315 78.2089 25.845 80.9023 19H69.3105ZM53.2094 19H29.4413C31.6644 20.7335 36.0427 24.1008 36.0245 24.1452C35.8124 24.7601 27.7285 48.7619 27 51C30.9237 50.415 34.8528 49.8776 38.787 49.3877C39.9749 45.8657 41.1745 42.3417 42.3859 38.8157L45.8236 48.5401C49.4007 48.1337 52.9818 47.7645 56.567 47.4324C55.3463 44.215 52.9681 37.7848 52.9681 37.7848C63.3914 36.3894 69.5734 19 53.2093 19" fill="#1D1D1B"/>
<path d="M155.783 19H154.809L154.309 20.6387L153.797 19H152.834L152.612 22H153.437L153.516 20.484L153.984 22H154.629L155.092 20.4973L155.176 22H156L155.783 19ZM150 19.7147H150.704V22H151.541V19.7147H152.245V19H150L150 19.7147Z" fill="white"/>
</svg>
