<svg width="184" height="80" viewBox="0 0 184 80" fill="none" xmlns="http://www.w3.org/2000/svg">
<path d="M145.747 23H38.2529C33.6771 23 29.2888 24.7911 26.0533 27.9792C22.8177 31.1673 21 35.4913 21 40C21 44.5087 22.8177 48.8327 26.0533 52.0208C29.2888 55.2089 33.6771 57 38.2529 57H145.747C150.323 57 154.711 55.2089 157.947 52.0208C161.182 48.8327 163 44.5087 163 40C163 35.4913 161.182 31.1673 157.947 27.9792C154.711 24.7911 150.323 23 145.747 23Z" fill="#1D1D1B"/>
<path d="M146.001 26C148.77 26.0001 151.476 26.792 153.778 28.2754C156.081 29.7589 157.875 31.8673 158.934 34.3341C159.994 36.8008 160.271 39.5152 159.731 42.1339C159.191 44.7526 157.857 47.158 155.899 49.0459C153.942 50.9339 151.447 52.2197 148.731 52.7406C146.016 53.2615 143.201 52.9942 140.643 51.9725C138.085 50.9508 135.898 49.2205 134.36 47.0006C132.821 44.7806 132 42.1706 132 39.5006C132 37.7276 132.362 35.972 133.065 34.3339C133.769 32.6959 134.8 31.2075 136.1 29.9538C137.4 28.7002 138.944 27.7057 140.643 27.0273C142.341 26.3489 144.162 25.9998 146.001 26Z" fill="white"/>
<path d="M132.803 51.9337C131.123 50.301 129.789 48.3626 128.88 46.2292C127.97 44.0958 127.502 41.8092 127.502 39.5C127.502 37.1908 127.97 34.9042 128.88 32.7708C129.789 30.6374 131.123 28.699 132.803 27.0663C133.189 26.693 133.588 26.3329 134 26H37.8946C34.2095 26 30.6754 27.4223 28.0696 29.9541C25.4639 32.4858 24 35.9196 24 39.5C24 43.0804 25.4639 46.5142 28.0696 49.0459C30.6754 51.5777 34.2095 53 37.8946 53H134C133.588 52.6672 133.189 52.307 132.803 51.9337Z" fill="white"/>
<path d="M90.5811 36.2883H89.1341C89.0111 36.2882 88.8892 36.312 88.7755 36.3584C88.6618 36.4049 88.5585 36.473 88.4714 36.559C88.3844 36.6449 88.3154 36.747 88.2684 36.8593C88.2214 36.9717 88.1973 37.0921 88.1975 37.2136L88.1694 47.8225C88.1694 47.9458 88.1939 48.0678 88.2417 48.1817C88.2894 48.2956 88.3594 48.3991 88.4476 48.4863C88.5358 48.5734 88.6406 48.6425 88.7559 48.6897C88.8712 48.7368 88.9948 48.7611 89.1195 48.761H90.5811C90.7059 48.7611 90.8295 48.7368 90.9447 48.6897C91.06 48.6425 91.1648 48.5734 91.253 48.4862C91.3412 48.3991 91.4112 48.2956 91.4589 48.1817C91.5067 48.0678 91.5312 47.9458 91.5312 47.8225V37.2268C91.5312 37.1036 91.5067 36.9815 91.4589 36.8676C91.4112 36.7538 91.3412 36.6503 91.253 36.5631C91.1648 36.476 91.06 36.4068 90.9447 36.3597C90.8295 36.3125 90.7059 36.2883 90.5811 36.2883M61.0869 36.2883H59.6399C59.5169 36.2882 59.395 36.312 59.2813 36.3584C59.1676 36.4049 59.0643 36.473 58.9773 36.559C58.8902 36.6449 58.8213 36.747 58.7742 36.8593C58.7272 36.9717 58.7031 37.0921 58.7033 37.2136L58.6753 47.8225C58.6752 47.9458 58.6997 48.0678 58.7475 48.1817C58.7952 48.2956 58.8652 48.3991 58.9534 48.4862C59.0416 48.5734 59.1464 48.6425 59.2617 48.6897C59.377 48.7368 59.5005 48.7611 59.6253 48.761H61.0722C61.197 48.7611 61.3205 48.7368 61.4358 48.6897C61.5511 48.6425 61.6559 48.5734 61.7441 48.4862C61.8323 48.3991 61.9023 48.2956 61.95 48.1817C61.9978 48.0678 62.0223 47.9458 62.0223 47.8225V37.2268C62.0232 36.9802 61.9254 36.7431 61.7501 36.5673C61.5749 36.3915 61.3365 36.2913 61.0868 36.2883M76.2804 37.5638C75.8982 37.0844 75.4076 36.7003 74.848 36.4424C74.1959 36.1596 73.4878 36.0255 72.7761 36.0501C72.0554 36.0388 71.3429 36.2013 70.7002 36.5235C70.0575 36.8458 69.5041 37.318 69.0879 37.8994V37.1426C69.0882 37.0247 69.0649 36.9079 69.0193 36.799C68.9737 36.69 68.9068 36.591 68.8223 36.5077C68.7379 36.4244 68.6376 36.3584 68.5272 36.3135C68.4169 36.2687 68.2986 36.2458 68.1793 36.2462H66.775C66.6557 36.2459 66.5376 36.2689 66.4273 36.3138C66.3171 36.3588 66.217 36.4248 66.1326 36.5081C66.0483 36.5914 65.9815 36.6903 65.936 36.7992C65.8905 36.9081 65.8673 37.0248 65.8676 37.1426V47.8779C65.8674 47.9994 65.8915 48.1198 65.9385 48.2321C65.9856 48.3445 66.0545 48.4465 66.1416 48.5325C66.2286 48.6184 66.3319 48.6866 66.4456 48.733C66.5593 48.7795 66.6812 48.8033 66.8042 48.8031H68.2366C68.3596 48.8032 68.4815 48.7793 68.5951 48.7328C68.7088 48.6864 68.8121 48.6182 68.8991 48.5323C68.9861 48.4463 69.0551 48.3443 69.1021 48.232C69.1492 48.1197 69.1733 47.9994 69.1733 47.8779V42.7208C69.1733 42.4681 69.1733 42.1601 69.1867 41.7955C69.196 41.47 69.2389 41.1463 69.3146 40.8293C69.3687 40.6145 69.4497 40.4071 69.5557 40.2121C69.6766 39.9748 69.84 39.7612 70.038 39.5816C70.2629 39.3756 70.5221 39.2095 70.8042 39.0907C71.1542 38.9459 71.5322 38.8789 71.9113 38.8945C72.2747 38.8838 72.6364 38.9461 72.9747 39.0774C73.2699 39.2056 73.5038 39.4413 73.6275 39.7356C73.7951 40.2222 73.8675 40.7359 73.8407 41.2492V47.8646C73.8405 47.986 73.8646 48.1062 73.9115 48.2184C73.9585 48.3306 74.0274 48.4326 74.1143 48.5184C74.2012 48.6042 74.3044 48.6723 74.4179 48.7187C74.5315 48.7651 74.6532 48.7888 74.7761 48.7887H76.2097C76.3327 48.7889 76.4544 48.7651 76.5681 48.7188C76.6818 48.6724 76.785 48.6044 76.872 48.5185C76.959 48.4327 77.0281 48.3308 77.0751 48.2185C77.1222 48.1063 77.1464 47.9861 77.1464 47.8646V41.1927C77.1423 40.5746 77.1041 39.9573 77.0319 39.3433C76.9485 38.694 76.6888 38.0791 76.2804 37.5638M61.0868 32H59.6399C59.5169 31.9998 59.3951 32.0236 59.2815 32.0699C59.1678 32.1163 59.0646 32.1843 58.9776 32.2701C58.8906 32.356 58.8215 32.4579 58.7745 32.5701C58.7274 32.6823 58.7032 32.8026 58.7032 32.9241V34.0323C58.7031 34.1538 58.7272 34.2742 58.7743 34.3864C58.8213 34.4987 58.8903 34.6007 58.9773 34.6865C59.0643 34.7724 59.1677 34.8404 59.2814 34.8867C59.3951 34.933 59.5169 34.9567 59.6399 34.9564H61.0868C61.2097 34.9566 61.3314 34.9328 61.445 34.8864C61.5586 34.8401 61.6618 34.772 61.7487 34.6862C61.8356 34.6003 61.9045 34.4984 61.9514 34.3862C61.9984 34.274 62.0224 34.1537 62.0223 34.0323V32.9242C62.0201 32.6797 61.9209 32.4459 61.7459 32.2731C61.571 32.1002 61.3343 32.0022 61.0868 32.0001M55.4121 32.4765C55.035 32.3233 54.6227 32.2746 54.2196 32.3358C53.227 32.3358 52.9005 32.2383 52.5461 33.0793C52.5461 33.0793 49.9213 43.3514 49.864 43.6882C49.7934 43.9818 49.7507 44.2345 49.7227 44.4162C49.6947 44.2068 49.6375 43.9542 49.5668 43.6317C49.4962 43.3092 46.8994 36.5687 46.8994 36.5687C46.8513 36.3541 46.7531 36.1536 46.6127 35.9832C46.4723 35.8127 46.2935 35.677 46.0906 35.5869C45.8904 35.5188 45.6775 35.495 45.467 35.5171H44.1479C44.0193 35.5245 43.8936 35.5581 43.7788 35.6158C43.5757 35.688 43.3941 35.8091 43.2503 35.9682C43.1066 36.1272 43.0052 36.3191 42.9554 36.5266C42.9554 36.5266 40.5158 43.2671 40.4585 43.5763C40.3879 43.8976 40.3452 44.178 40.288 44.4451C40.2466 44.2068 40.1747 43.9121 40.1041 43.5475C40.0334 43.1828 37.5085 33.0793 37.5085 33.0793C37.182 32.2383 36.7984 32.266 35.8337 32.2804C35.368 32.2336 34.8976 32.2907 34.4573 32.4477C34.3041 32.5437 34.1807 32.6797 34.1008 32.8407C34.0208 33.0016 33.9874 33.1812 34.0042 33.3597C34.0145 33.6562 34.0716 33.9493 34.1735 34.2284L38.1601 47.5278C38.2078 47.709 38.2929 47.8786 38.41 48.0258C38.5272 48.173 38.6739 48.2947 38.841 48.3833C38.9899 48.4609 39.1549 48.5037 39.3233 48.5084H41.2112C41.3282 48.5098 41.4442 48.486 41.551 48.4386C41.7334 48.3757 41.8967 48.2682 42.0257 48.1262C42.1548 47.9842 42.2454 47.8123 42.2891 47.6265C42.2891 47.6265 44.9554 39.8199 44.97 39.6936C44.9846 39.8344 47.5802 47.5555 47.5802 47.5555C47.624 47.7422 47.709 47.9171 47.8293 48.0675C47.9495 48.2179 48.102 48.3401 48.2757 48.4255C48.4696 48.5011 48.6777 48.5344 48.8859 48.5229H50.6447C50.7774 48.5235 50.9085 48.4948 51.0284 48.4387C51.203 48.3694 51.3591 48.2613 51.4846 48.1227C51.6101 47.9842 51.7015 47.8189 51.7519 47.6398L55.7092 34.2839C55.7701 34.1258 55.813 33.9616 55.8371 33.7942C55.8638 33.6552 55.878 33.5142 55.8797 33.3728C55.9001 33.1945 55.8665 33.0142 55.7833 32.8547C55.7 32.6952 55.5709 32.5636 55.412 32.4765M105.719 37.5638C105.336 37.0846 104.845 36.7006 104.285 36.4424C103.632 36.1644 102.925 36.0305 102.214 36.0501C101.493 36.0386 100.781 36.201 100.138 36.5233C99.4948 36.8455 98.9412 37.3179 98.525 37.8994V37.1426C98.5253 37.0248 98.502 36.9081 98.4565 36.7992C98.411 36.6903 98.3442 36.5914 98.2599 36.5081C98.1756 36.4248 98.0754 36.3588 97.9652 36.3138C97.855 36.2689 97.7368 36.2459 97.6176 36.2462H96.2132C96.0938 36.2458 95.9756 36.2687 95.8652 36.3135C95.7548 36.3584 95.6546 36.4244 95.5701 36.5077C95.4857 36.591 95.4187 36.69 95.3731 36.799C95.3276 36.9079 95.3042 37.0247 95.3045 37.1426V47.8779C95.3044 47.9994 95.3285 48.1198 95.3755 48.2321C95.4225 48.3445 95.4915 48.4465 95.5785 48.5325C95.6655 48.6184 95.7688 48.6866 95.8825 48.733C95.9963 48.7795 96.1181 48.8033 96.2412 48.8031H97.6736C97.7966 48.8033 97.9185 48.7795 98.0322 48.733C98.1459 48.6866 98.2493 48.6185 98.3363 48.5325C98.4233 48.4466 98.4923 48.3445 98.5393 48.2321C98.5863 48.1198 98.6104 47.9994 98.6102 47.8779C98.6102 47.8779 98.6102 42.1601 98.6248 41.81C98.633 41.484 98.6759 41.1597 98.7528 40.8426C98.8061 40.6279 98.8872 40.4208 98.9939 40.2265C99.1145 39.9891 99.2779 39.7754 99.4762 39.596C99.7007 39.3895 99.96 39.2234 100.242 39.1051C100.592 38.9602 100.97 38.8932 101.348 38.909C101.712 38.8985 102.074 38.9603 102.413 39.0907C102.708 39.2194 102.941 39.4556 103.064 39.75C103.233 40.2365 103.305 40.7503 103.278 41.2637V47.8779C103.277 47.9994 103.302 48.1198 103.349 48.2322C103.396 48.3445 103.465 48.4466 103.552 48.5325C103.639 48.6185 103.742 48.6866 103.856 48.733C103.969 48.7795 104.091 48.8033 104.214 48.8032H105.647C105.77 48.8033 105.892 48.7795 106.005 48.733C106.119 48.6866 106.222 48.6185 106.309 48.5325C106.396 48.4465 106.465 48.3445 106.512 48.2322C106.559 48.1198 106.583 47.9994 106.583 47.8779V41.2071C106.579 40.5891 106.541 39.9718 106.47 39.3578C106.383 38.7051 106.124 38.0864 105.719 37.5638M112.557 40.9966C112.571 40.652 112.656 40.314 112.807 40.0032C112.959 39.6925 113.172 39.4155 113.436 39.1893C113.839 38.8752 114.319 38.6721 114.827 38.6007C115.336 38.5292 115.854 38.592 116.33 38.7826C116.62 38.918 116.876 39.1143 117.081 39.3578C117.279 39.5881 117.428 39.8547 117.521 40.1423C117.617 40.4171 117.665 40.7059 117.664 40.9966H112.557ZM120.997 42.5391V41.8665C121.043 40.3173 120.49 38.809 119.45 37.648C118.91 37.1086 118.261 36.6875 117.545 36.4122C116.829 36.1369 116.062 36.0136 115.295 36.0501C114.323 36.0233 113.357 36.215 112.471 36.6108C111.716 36.9569 111.047 37.464 110.513 38.0956C109.995 38.7166 109.613 39.4374 109.392 40.2121C109.154 41.008 109.034 41.8342 109.038 42.6643C109.017 43.6229 109.171 44.5773 109.492 45.4823C109.761 46.2311 110.203 46.9076 110.783 47.458C111.37 47.9955 112.074 48.3935 112.84 48.6215C113.714 48.883 114.623 49.0104 115.536 48.9993C116.243 48.9968 116.947 48.9119 117.634 48.7467C117.861 48.6966 118.084 48.6311 118.302 48.5505C118.443 48.5102 118.581 48.4587 118.714 48.3965C119.316 48.1484 119.884 47.8236 120.402 47.4303C120.493 47.3744 120.571 47.3013 120.633 47.2152C120.695 47.1291 120.739 47.0317 120.763 46.9287C120.787 46.8256 120.789 46.719 120.771 46.6149C120.753 46.5108 120.714 46.4113 120.656 46.3222L120.018 45.3138C119.959 45.2264 119.883 45.1514 119.795 45.0933C119.706 45.0352 119.607 44.9951 119.503 44.9755C119.398 44.9559 119.291 44.9571 119.187 44.979C119.083 45.001 118.985 45.0432 118.898 45.1033C118.304 45.489 117.672 45.8132 117.011 46.0707C116.561 46.2161 116.093 46.2963 115.62 46.3089C115.211 46.3582 114.795 46.3191 114.403 46.1943C114.01 46.0696 113.65 45.8621 113.346 45.5862C113.043 45.3104 112.804 44.9728 112.645 44.5967C112.487 44.2206 112.413 43.815 112.429 43.4079H120.075C120.194 43.414 120.314 43.396 120.425 43.3551C120.537 43.3141 120.639 43.251 120.726 43.1697C120.812 43.0884 120.881 42.9905 120.927 42.8821C120.974 42.7737 120.998 42.657 120.997 42.5392M83.4021 32.0421H81.8978C81.7749 32.042 81.6532 32.0657 81.5396 32.1121C81.4261 32.1585 81.3229 32.2266 81.236 32.3124C81.1491 32.3982 81.0802 32.5002 81.0332 32.6124C80.9863 32.7246 80.9622 32.8448 80.9624 32.9662V47.8357C80.9622 47.9572 80.9862 48.0775 81.0332 48.1898C81.0801 48.3021 81.149 48.4041 81.2359 48.49C81.3227 48.576 81.4259 48.6442 81.5395 48.6907C81.6531 48.7372 81.7749 48.7611 81.8978 48.761H83.3448C83.4678 48.7612 83.5897 48.7374 83.7034 48.6909C83.8171 48.6445 83.9204 48.5763 84.0075 48.4904C84.0945 48.4044 84.1635 48.3024 84.2105 48.19C84.2575 48.0777 84.2816 47.9573 84.2814 47.8357V32.9662C84.2892 32.8475 84.2721 32.7286 84.2314 32.6167C84.1907 32.5048 84.1271 32.4024 84.0447 32.3157C83.9622 32.2291 83.8626 32.1601 83.7521 32.113C83.6416 32.066 83.5224 32.0418 83.4021 32.0421M89.1194 34.9708H90.5664C90.6894 34.971 90.8113 34.9472 90.925 34.9007C91.0387 34.8543 91.142 34.7861 91.229 34.7002C91.316 34.6142 91.385 34.5122 91.432 34.3998C91.479 34.2875 91.5031 34.1671 91.503 34.0456V32.9386C91.503 32.8171 91.4789 32.6967 91.4318 32.5844C91.3848 32.4721 91.3158 32.3701 91.2288 32.2842C91.1418 32.1982 91.0385 32.1301 90.9249 32.0836C90.8112 32.0371 90.6894 32.0132 90.5664 32.0133H89.1194C88.9964 32.0132 88.8746 32.0371 88.7609 32.0836C88.6472 32.1301 88.5439 32.1982 88.457 32.2842C88.37 32.3701 88.301 32.4721 88.2539 32.5844C88.2069 32.6967 88.1827 32.8171 88.1828 32.9386V34.0456C88.1826 34.1671 88.2067 34.2875 88.2537 34.3998C88.3007 34.5122 88.3697 34.6143 88.4567 34.7002C88.5437 34.7862 88.6471 34.8543 88.7608 34.9008C88.8745 34.9472 88.9964 34.971 89.1194 34.9708Z" fill="#1D1D1B"/>
</svg>
