<svg width="80" height="54" viewBox="0 0 80 54" fill="none" xmlns="http://www.w3.org/2000/svg">
<g clip-path="url(#clip0_224_628)">
<path d="M77.1091 -2.88965H1.13021C-1.45189 -2.88965 -3.55469 -0.74835 -3.55469 1.88104V52.7841C-3.55469 55.4135 -1.45189 57.5548 1.13021 57.5548H77.0937C79.6758 57.5548 81.7786 55.3978 81.7786 52.7841V1.88104C81.794 -0.74835 79.6758 -2.88965 77.1091 -2.88965Z" fill="#00008B"/>
<path fill-rule="evenodd" clip-rule="evenodd" d="M28.3171 32.8623L29.7421 37.2974L34.1301 35.6413L31.534 39.543L35.5693 41.9149L30.8991 42.322L31.5481 46.9535L28.3171 43.557L25.0719 46.9535L25.721 42.322L21.0508 41.9149L25.0861 39.543L22.4899 35.6413L26.8779 37.2974L28.3171 32.8623Z" fill="white"/>
<path fill-rule="evenodd" clip-rule="evenodd" d="M66.5427 40.8623L67.22 42.9676L69.3082 42.1816L68.0806 44.0342L69.9995 45.1711L67.7702 45.3676L68.0806 47.5711L66.5427 45.957L65.0048 47.5711L65.3011 45.3676L63.0859 45.1711L65.0048 44.0342L63.7632 42.1816L65.8514 42.9676L66.5427 40.8623Z" fill="white"/>
<path fill-rule="evenodd" clip-rule="evenodd" d="M66.5427 7.92188L67.22 10.0271L69.3082 9.24117L68.0806 11.0938L69.9995 12.2306L67.7702 12.4271L68.0806 14.6306L66.5427 13.0166L65.0048 14.6306L65.3011 12.4271L63.0859 12.2306L65.0048 11.0938L63.7632 9.24117L65.8514 10.0271L66.5427 7.92188Z" fill="white"/>
<path fill-rule="evenodd" clip-rule="evenodd" d="M56.7927 21.2974L57.4841 23.4167L59.5723 22.6307L58.3306 24.4833L60.2495 25.6202L58.0344 25.8026L58.3306 28.0061L56.7927 26.3921L55.2548 28.0061L55.5652 25.8026L53.3359 25.6202L55.2548 24.4833L54.0273 22.6307L56.1155 23.4167L56.7927 21.2974Z" fill="white"/>
<path fill-rule="evenodd" clip-rule="evenodd" d="M77.574 17.9993L78.2653 20.1186L80.3535 19.3326L79.1119 21.1852L81.0308 22.3221L78.8156 22.5186L79.1119 24.708L77.574 23.108L76.0361 24.708L76.3465 22.5186L74.1172 22.3221L76.0361 21.1852L74.8085 19.3326L76.8967 20.1186L77.574 17.9993Z" fill="white"/>
<path fill-rule="evenodd" clip-rule="evenodd" d="M71.5027 27.9219L72.0388 29.2412L73.4639 29.3394L72.3774 30.2517L72.7161 31.6412L71.5027 30.8973L70.2892 31.6412L70.6279 30.2517L69.5273 29.3394L70.9665 29.2412L71.5027 27.9219Z" fill="white"/>
<path d="M-2.48273 2.10771L38.5253 23.1219H43.7366V20.4589L2.38715 -0.737793H1.67449C-0.181416 -0.737793 -1.79976 0.433886 -2.48273 2.10771ZM43.7366 -0.737793V1.92511L2.38715 23.1219H-2.82422V20.4589L38.5253 -0.737793H43.7366Z" fill="white"/>
<path d="M16.5811 -0.737793V23.1219H24.3462V-0.737793H16.5811ZM-2.82422 7.2205V15.1788H43.7366V7.2205H-2.82422Z" fill="white"/>
<path d="M-2.82422 8.80302V13.581H43.7366V8.80302H-2.82422ZM18.1252 -0.737793V23.1219H22.7872V-0.737793H18.1252Z" fill="#FF0000"/>
<path d="M-2.82422 23.1219L12.6911 15.1636H16.1654L0.650028 23.1219H-2.82422ZM-2.11155 1.40775C-1.81461 0.936034 -1.44343 0.525186 -1.01286 0.19042L12.706 7.2205H9.23171L-2.11155 1.40775ZM24.747 7.2205L40.2624 -0.737793H43.7366L28.2064 7.2205H24.747ZM43.7366 23.1219L28.2064 15.1636H31.6807L43.7218 21.3415V23.1219H43.7366Z" fill="#FF0000"/>
</g>
<defs>
<clipPath id="clip0_224_628">
<rect width="80" height="53.3333" fill="white" transform="translate(0 0.666016)"/>
</clipPath>
</defs>
</svg>
