<svg width="110" height="74" viewBox="0 0 110 74" fill="none" xmlns="http://www.w3.org/2000/svg">
<g clip-path="url(#clip0_224_1053)">
<path d="M0 0H149.383V73.3333H0V0Z" fill="#3F9C35"/>
<path d="M0 0H149.383V48.8889H0V0Z" fill="#ED2939"/>
<path d="M0 0H149.383V24.4444H0V0Z" fill="#00B9E4"/>
<path d="M52.7584 47.6667C58.946 47.6667 63.9621 42.7419 63.9621 36.6667C63.9621 30.5916 58.946 25.6667 52.7584 25.6667C46.5708 25.6667 41.5547 30.5916 41.5547 36.6667C41.5547 42.7419 46.5708 47.6667 52.7584 47.6667Z" fill="white"/>
<path d="M55.2466 45.8333C60.4029 45.8333 64.583 41.7293 64.583 36.6667C64.583 31.6041 60.4029 27.5 55.2466 27.5C50.0902 27.5 45.9102 31.6041 45.9102 36.6667C45.9102 41.7293 50.0902 45.8333 55.2466 45.8333Z" fill="#ED2939"/>
<path d="M65.2047 30.5557L66.3957 33.8438L69.6059 32.3456L68.08 35.4975L71.429 36.6668L68.08 37.8361L69.6059 40.9879L66.3957 39.4897L65.2047 42.7779L64.0138 39.4897L60.8036 40.9879L62.3295 37.8361L58.9805 36.6668L62.3295 35.4975L60.8036 32.3456L64.0138 33.8438L65.2047 30.5557Z" fill="white"/>
</g>
<defs>
<clipPath id="clip0_224_1053">
<rect width="110" height="73.3333" fill="white"/>
</clipPath>
</defs>
</svg>
