<svg width="110" height="74" viewBox="0 0 110 74" fill="none" xmlns="http://www.w3.org/2000/svg">
<g clip-path="url(#clip0_224_1039)">
<path d="M0 0H136.889V68.4445H0V0Z" fill="#C8313E"/>
<path d="M0 46.4443H136.889V73.3332H0V46.4443Z" fill="#4AA657"/>
<path d="M0 0H14.6667V73.3333H0V0Z" fill="white"/>
<path fill-rule="evenodd" clip-rule="evenodd" d="M2.6452 0H4.62909V1.20219H5.29039V2.40437H5.95169V3.60656H6.61299V4.80874H7.27429V6.01093H6.61299V7.21311H5.95169V8.4153H5.29039V9.61749H4.62909V10.8197H3.9678V12.0219H3.3065V10.8197H2.6452V9.61749H1.9839V8.4153H1.3226V7.21311H0.661299V6.01093H0V4.80874H0.661299V3.60656H1.3226V2.40437H1.9839V1.20219H2.6452V0ZM3.3065 2.40437H3.9678V3.60656H4.62909V4.80874H5.29039V6.01093H4.62909V7.21311H3.9678V8.4153H3.3065V7.21311H2.6452V6.01093H1.9839V4.80874H2.6452V3.60656H3.3065V2.40437ZM3.3065 4.80874H3.9678V6.01093H3.3065V4.80874ZM0 1.20219H0.661299V2.40437H0V1.20219ZM0 8.4153H0.661299V9.61749H0V8.4153ZM7.27429 0H7.67107V2.40437H7.27429V0ZM7.27429 8.4153H7.67107V10.8197H7.27429V8.4153ZM1.3226 10.8197H1.9839V12.0219H2.6452V13.224H3.3065V14.4262H2.6452V15.6284H1.9839V16.8306H1.3226V15.6284H0.661299V14.4262H0V13.224H0.661299V12.0219H1.3226V10.8197ZM1.3226 13.224H1.9839V14.4262H1.3226V13.224ZM5.29039 10.8197H5.95169V12.0219H6.61299V13.224H7.27429V14.4262H6.61299V15.6284H5.95169V16.8306H5.29039V15.6284H4.62909V14.4262H3.9678V13.224H4.62909V12.0219H5.29039V10.8197ZM5.29039 13.224H5.95169V14.4262H5.29039V13.224ZM0 18.0328H0.661299V19.235H0V18.0328ZM7.27429 16.8306H7.67107V19.235H7.27429V16.8306ZM0 21.6393H0.661299V20.4372H1.3226V19.235H1.9839V18.0328H2.6452V16.8306H3.3065V15.6284H3.9678V16.8306H4.62909V18.0328H5.29039V19.235H5.95169V20.4372H6.61299V21.6393H7.27429V22.8415H7.67107V27.6503H7.27429V28.8525H6.61299V30.0546H5.95169V31.2568H5.29039V32.459H4.62909V33.6612H3.9678V36.7869H2.6452V36.0656H1.9839V34.8634H1.3226V33.6612H0.661299V32.459H0V28.8525H0.661299V30.0546H1.3226V31.2568H1.9839V32.459H2.6452V31.2568H3.3065V30.0546H3.9678V28.8525H4.62909V27.6503H5.29039V26.4481H5.95169V25.2459H5.29039V24.0437H4.62909V22.8415H2.6452V24.0437H3.9678V25.2459H3.3065V26.4481H2.6452V27.6503H1.9839V26.4481H1.3226V25.2459H0.661299V24.0437H0V21.6393ZM0 26.4481H0.661299V27.6503H0V26.4481ZM7.27429 30.0546H7.67107V31.2568H7.27429V30.0546ZM5.95169 32.459H6.61299V33.6612H7.27429V34.8634H7.67107V36.7869H7.27429V36.0656H6.61299V34.8634H5.95169V32.459ZM4.62909 36.0656H5.29039V36.7869H4.62909V36.0656Z" fill="#C8313E"/>
<path fill-rule="evenodd" clip-rule="evenodd" d="M12.5657 0H10.5818V1.20219H9.92054V2.40437H9.25924V3.60656H8.59795V4.80874H7.93665V6.01093H8.59795V7.21311H9.25924V8.4153H9.92054V9.61749H10.5818V10.8197H11.2431V12.0219H11.9044V10.8197H12.5657V9.61749H13.227V8.4153H13.8883V7.21311H14.5496V6.01093H15.2109V4.80874H14.5496V3.60656H13.8883V2.40437H13.227V1.20219H12.5657V0ZM11.9044 2.40437H11.2431V3.60656H10.5818V4.80874H9.92054V6.01093H10.5818V7.21311H11.2431V8.4153H11.9044V7.21311H12.5657V6.01093H13.227V4.80874H12.5657V3.60656H11.9044V2.40437ZM11.9044 4.80874H11.2431V6.01093H11.9044V4.80874ZM15.2109 1.20219H14.5496V2.40437H15.2109V1.20219ZM15.2109 8.4153H14.5496V9.61749H15.2109V8.4153ZM7.93665 0H7.53987V2.40437H7.93665V0ZM7.93665 8.4153H7.53987V10.8197H7.93665V8.4153ZM13.8883 10.8197H13.227V12.0219H12.5657V13.224H11.9044V14.4262H12.5657V15.6284H13.227V16.8306H13.8883V15.6284H14.5496V14.4262H15.2109V13.224H14.5496V12.0219H13.8883V10.8197ZM13.8883 13.224H13.227V14.4262H13.8883V13.224ZM9.92054 10.8197H9.25924V12.0219H8.59795V13.224H7.93665V14.4262H8.59795V15.6284H9.25924V16.8306H9.92054V15.6284H10.5818V14.4262H11.2431V13.224H10.5818V12.0219H9.92054V10.8197ZM9.92054 13.224H9.25924V14.4262H9.92054V13.224ZM15.2109 18.0328H14.5496V19.235H15.2109V18.0328ZM7.93665 16.8306H7.53987V19.235H7.93665V16.8306ZM15.2109 21.6393H14.5496V20.4372H13.8883V19.235H13.227V18.0328H12.5657V16.8306H11.9044V15.6284H11.2431V16.8306H10.5818V18.0328H9.92054V19.235H9.25924V20.4372H8.59795V21.6393H7.93665V22.8415H7.53987V27.6503H7.93665V28.8525H8.59795V30.0546H9.25924V31.2568H9.92054V32.459H10.5818V33.6612H11.2431V36.7869H12.5657V36.0656H13.227V34.8634H13.8883V33.6612H14.5496V32.459H15.2109V28.8525H14.5496V30.0546H13.8883V31.2568H13.227V32.459H12.5657V31.2568H11.9044V30.0546H11.2431V28.8525H10.5818V27.6503H9.92054V26.4481H9.25924V25.2459H9.92054V24.0437H10.5818V22.8415H12.5657V24.0437H11.2431V25.2459H11.9044V26.4481H12.5657V27.6503H13.227V26.4481H13.8883V25.2459H14.5496V24.0437H15.2109V21.6393ZM15.2109 26.4481H14.5496V27.6503H15.2109V26.4481ZM7.93665 30.0546H7.53987V31.2568H7.93665V30.0546ZM9.25924 32.459H8.59795V33.6612H7.93665V34.8634H7.53987V36.7869H7.93665V36.0656H8.59795V34.8634H9.25924V32.459ZM10.5818 36.0656H9.92054V36.7869H10.5818V36.0656Z" fill="#C8313E"/>
<path fill-rule="evenodd" clip-rule="evenodd" d="M2.6452 73.3333H4.62909V72.1311H5.29039V70.9289H5.95169V69.7267H6.61299V68.5245H7.27429V67.3223H6.61299V66.1201H5.95169V64.918H5.29039V63.7158H4.62909V62.5136H3.9678V61.3114H3.3065V62.5136H2.6452V63.7158H1.9839V64.918H1.3226V66.1201H0.661299V67.3223H0V68.5245H0.661299V69.7267H1.3226V70.9289H1.9839V72.1311H2.6452V73.3333ZM3.3065 70.9289H3.9678V69.7267H4.62909V68.5245H5.29039V67.3223H4.62909V66.1201H3.9678V64.918H3.3065V66.1201H2.6452V67.3223H1.9839V68.5245H2.6452V69.7267H3.3065V70.9289ZM3.3065 68.5245H3.9678V67.3223H3.3065V68.5245ZM0 72.1311H0.661299V70.9289H0V72.1311ZM0 64.918H0.661299V63.7158H0V64.918ZM7.27429 73.3333H7.67107V70.9289H7.27429V73.3333ZM7.27429 64.918H7.67107V62.5136H7.27429V64.918ZM1.3226 62.5136H1.9839V61.3114H2.6452V60.1092H3.3065V58.907H2.6452V57.7048H1.9839V56.5027H1.3226V57.7048H0.661299V58.907H0V60.1092H0.661299V61.3114H1.3226V62.5136ZM1.3226 60.1092H1.9839V58.907H1.3226V60.1092ZM5.29039 62.5136H5.95169V61.3114H6.61299V60.1092H7.27429V58.907H6.61299V57.7048H5.95169V56.5027H5.29039V57.7048H4.62909V58.907H3.9678V60.1092H4.62909V61.3114H5.29039V62.5136ZM5.29039 60.1092H5.95169V58.907H5.29039V60.1092ZM0 55.3005H0.661299V54.0983H0V55.3005ZM7.27429 56.5027H7.67107V54.0983H7.27429V56.5027ZM0 51.6939H0.661299V52.8961H1.3226V54.0983H1.9839V55.3005H2.6452V56.5027H3.3065V57.7048H3.9678V56.5027H4.62909V55.3005H5.29039V54.0983H5.95169V52.8961H6.61299V51.6939H7.27429V50.4917H7.67107V45.683H7.27429V44.4808H6.61299V43.2786H5.95169V42.0764H5.29039V40.8742H4.62909V39.6721H3.9678V36.5464H2.6452V37.2677H1.9839V38.4699H1.3226V39.6721H0.661299V40.8742H0V44.4808H0.661299V43.2786H1.3226V42.0764H1.9839V40.8742H2.6452V42.0764H3.3065V43.2786H3.9678V44.4808H4.62909V45.683H5.29039V46.8852H5.95169V48.0874H5.29039V49.2895H4.62909V50.4917H2.6452V49.2895H3.9678V48.0874H3.3065V46.8852H2.6452V45.683H1.9839V46.8852H1.3226V48.0874H0.661299V49.2895H0V51.6939ZM0 46.8852H0.661299V45.683H0V46.8852ZM7.27429 43.2786H7.67107V42.0764H7.27429V43.2786ZM5.95169 40.8742H6.61299V39.6721H7.27429V38.4699H7.67107V36.5464H7.27429V37.2677H6.61299V38.4699H5.95169V40.8742ZM4.62909 37.2677H5.29039V36.5464H4.62909V37.2677Z" fill="#C8313E"/>
<path fill-rule="evenodd" clip-rule="evenodd" d="M12.5657 73.3333H10.5818V72.1311H9.92054V70.9289H9.25924V69.7267H8.59795V68.5245H7.93665V67.3223H8.59795V66.1201H9.25924V64.918H9.92054V63.7158H10.5818V62.5136H11.2431V61.3114H11.9044V62.5136H12.5657V63.7158H13.227V64.918H13.8883V66.1201H14.5496V67.3223H15.2109V68.5245H14.5496V69.7267H13.8883V70.9289H13.227V72.1311H12.5657V73.3333ZM11.9044 70.9289H11.2431V69.7267H10.5818V68.5245H9.92054V67.3223H10.5818V66.1201H11.2431V64.918H11.9044V66.1201H12.5657V67.3223H13.227V68.5245H12.5657V69.7267H11.9044V70.9289ZM11.9044 68.5245H11.2431V67.3223H11.9044V68.5245ZM15.2109 72.1311H14.5496V70.9289H15.2109V72.1311ZM15.2109 64.918H14.5496V63.7158H15.2109V64.918ZM7.93665 73.3333H7.53987V70.9289H7.93665V73.3333ZM7.93665 64.918H7.53987V62.5136H7.93665V64.918ZM13.8883 62.5136H13.227V61.3114H12.5657V60.1092H11.9044V58.907H12.5657V57.7048H13.227V56.5027H13.8883V57.7048H14.5496V58.907H15.2109V60.1092H14.5496V61.3114H13.8883V62.5136ZM13.8883 60.1092H13.227V58.907H13.8883V60.1092ZM9.92054 62.5136H9.25924V61.3114H8.59795V60.1092H7.93665V58.907H8.59795V57.7048H9.25924V56.5027H9.92054V57.7048H10.5818V58.907H11.2431V60.1092H10.5818V61.3114H9.92054V62.5136ZM9.92054 60.1092H9.25924V58.907H9.92054V60.1092ZM15.2109 55.3005H14.5496V54.0983H15.2109V55.3005ZM7.93665 56.5027H7.53987V54.0983H7.93665V56.5027ZM15.2109 51.6939H14.5496V52.8961H13.8883V54.0983H13.227V55.3005H12.5657V56.5027H11.9044V57.7048H11.2431V56.5027H10.5818V55.3005H9.92054V54.0983H9.25924V52.8961H8.59795V51.6939H7.93665V50.4917H7.53987V45.683H7.93665V44.4808H8.59795V43.2786H9.25924V42.0764H9.92054V40.8742H10.5818V39.6721H11.2431V36.5464H12.5657V37.2677H13.227V38.4699H13.8883V39.6721H14.5496V40.8742H15.2109V44.4808H14.5496V43.2786H13.8883V42.0764H13.227V40.8742H12.5657V42.0764H11.9044V43.2786H11.2431V44.4808H10.5818V45.683H9.92054V46.8852H9.25924V48.0874H9.92054V49.2895H10.5818V50.4917H12.5657V49.2895H11.2431V48.0874H11.9044V46.8852H12.5657V45.683H13.227V46.8852H13.8883V48.0874H14.5496V49.2895H15.2109V51.6939ZM15.2109 46.8852H14.5496V45.683H15.2109V46.8852ZM7.93665 43.2786H7.53987V42.0764H7.93665V43.2786ZM9.25924 40.8742H8.59795V39.6721H7.93665V38.4699H7.53987V36.5464H7.93665V37.2677H8.59795V38.4699H9.25924V40.8742ZM10.5818 37.2677H9.92054V36.5464H10.5818V37.2677Z" fill="#C8313E"/>
</g>
<defs>
<clipPath id="clip0_224_1039">
<rect width="110" height="73.3333" fill="white"/>
</clipPath>
</defs>
</svg>
