<svg width="45" height="30" viewBox="0 0 45 30" fill="none" xmlns="http://www.w3.org/2000/svg">
<g clip-path="url(#clip0_224_2400)">
<path d="M58.0039 2.8947V33.7353C58.0039 35.3288 56.4688 36.63 54.5955 36.63H-0.587693C-2.4579 36.63 -3.99 35.334 -3.99609 33.7456V2.88435C-3.99 1.29602 -2.4579 0 -0.587693 0H54.5955C56.4688 0 58.0039 1.30119 58.0039 2.8947V2.8947Z" fill="#ED2939"/>
<path d="M31.3372 0V36.63H-1.08246C-2.68118 36.63 -3.99089 35.334 -3.99609 33.7456V2.88435C-3.99089 1.29602 -2.68118 0 -1.08246 0H31.3372Z" fill="#FAE042"/>
<path d="M14.0039 0V36.63H-7.70811C-10.0609 36.63 -11.9884 35.334 -11.9961 33.7456V2.88435C-11.9884 1.29602 -10.0609 0 -7.70811 0H14.0039Z" fill="black"/>
</g>
<defs>
<clipPath id="clip0_224_2400">
<rect width="45" height="29.7" fill="white"/>
</clipPath>
</defs>
</svg>
