<svg width="45" height="30" viewBox="0 0 45 30" fill="none" xmlns="http://www.w3.org/2000/svg">
<g clip-path="url(#clip0_224_2385)">
<path d="M0 0H55V29.7H0V0Z" fill="#002395"/>
<path d="M10.5742 0H38.0742V26.8024L10.5742 0Z" fill="#FECB00"/>
<path d="M4.08547 1.75877L5.62203 -2.8479L7.15859 1.75877L3.13672 -1.08899H8.10734L4.08547 1.75877Z" fill="white"/>
<path d="M7.52297 5.10911L9.05953 0.502441L10.5961 5.10911L6.57422 2.26135H11.5448L7.52297 5.10911Z" fill="white"/>
<path d="M10.9605 8.45921L12.497 3.85254L14.0336 8.45921L10.0117 5.61145H14.9823L10.9605 8.45921Z" fill="white"/>
<path d="M14.4058 11.8098L15.9423 7.20312L17.4789 11.8098L13.457 8.96204H18.4277L14.4058 11.8098Z" fill="white"/>
<path d="M17.8433 15.1601L19.3798 10.5535L20.9164 15.1601L16.8945 12.3124H21.8652L17.8433 15.1601Z" fill="white"/>
<path d="M21.2808 18.5105L22.8173 13.9038L24.3539 18.5105L20.332 15.6627H25.3027L21.2808 18.5105Z" fill="white"/>
<path d="M24.7144 21.8606L26.2509 17.2539L27.7875 21.8606L23.7656 19.0128H28.7362L24.7144 21.8606Z" fill="white"/>
<path d="M28.1519 25.2109L29.6884 20.6042L31.225 25.2109L27.2031 22.3632H32.1737L28.1519 25.2109Z" fill="white"/>
<path d="M31.5894 28.561L33.1259 23.9543L34.6625 28.561L30.6406 25.7133H35.6112L31.5894 28.561Z" fill="white"/>
</g>
<defs>
<clipPath id="clip0_224_2385">
<rect width="45" height="29.7" fill="white"/>
</clipPath>
</defs>
</svg>
