<svg width="45" height="30" viewBox="0 0 45 30" fill="none" xmlns="http://www.w3.org/2000/svg">
<g clip-path="url(#clip0_224_2409)">
<path d="M0 0H45V29.7H0V0Z" fill="white"/>
<path d="M22.1256 24.6634C22.1191 24.6606 22.1134 24.6565 22.1086 24.6513L22.1025 24.6455C22.0753 24.6198 22.0495 24.5927 22.0252 24.5642C21.96 24.4893 21.8727 24.3796 21.7959 24.2828C21.6436 24.0906 21.5177 23.925 21.494 23.8938L21.4553 23.8427L21.0755 23.7242L20.7983 23.5933L20.9464 23.4247L21.4553 23.6453L21.835 23.7242L22.5372 24.2471L22.5366 24.2475C22.5352 24.2487 22.4345 24.3336 22.3344 24.4257C22.2898 24.4668 22.2335 24.5195 22.1938 24.5634C22.1754 24.5836 22.1593 24.6037 22.1483 24.6199C22.1434 24.6272 22.1393 24.635 22.136 24.6432L22.1796 24.6157L22.2269 24.6529L22.1307 24.662L22.1263 24.663L22.1256 24.6634ZM19.5178 23.8704C19.1865 23.8704 18.8593 23.7777 18.5452 23.5949L18.5449 23.5947L18.545 23.5943C18.545 23.5943 18.5861 23.515 18.6857 23.441C18.7806 23.3705 18.9518 23.2862 19.2284 23.2851H19.2341C19.5617 23.2851 19.9626 23.3979 20.4257 23.6203C20.41 23.6308 20.0465 23.8704 19.518 23.8704L19.5185 23.8709L19.5178 23.8704ZM18.082 23.5482C18.0207 23.5482 17.9657 23.5247 17.927 23.4822C17.8953 23.4473 17.8725 23.4007 17.8575 23.3398C17.8328 23.2399 17.8396 23.1405 17.8403 23.131C17.8645 23.1204 17.8904 23.1145 17.9167 23.1135L17.9222 23.1134C18.0449 23.1134 18.1417 23.2212 18.1831 23.3281C18.2066 23.3888 18.2112 23.4399 18.1965 23.4799C18.1819 23.52 18.1359 23.5477 18.0821 23.5477L18.082 23.5482ZM20.6086 23.2517C19.7599 23.129 19.4002 22.8183 19.2478 22.5793C19.0854 22.3245 19.1187 22.0887 19.1191 22.0863L19.1192 22.0856L19.1198 22.0854C19.1201 22.0854 19.1717 22.0713 19.2498 22.0709C19.4756 22.0709 20.053 22.1859 20.6088 23.2511L20.6091 23.2518L20.6082 23.2513L20.6086 23.2517ZM18.8691 23.0814C18.5065 23.0814 18.2305 23.0181 18.0486 22.8931C17.9441 22.8213 17.893 22.7425 17.8684 22.6889C17.8455 22.6387 17.8402 22.5971 17.8394 22.5888C17.849 22.5843 17.9974 22.5176 18.219 22.5071C18.2377 22.5062 18.2566 22.5057 18.2764 22.5056C18.5566 22.5056 18.9828 22.5982 19.4324 23.0392L19.4329 23.0397L19.4323 23.0397C19.227 23.067 19.0373 23.0813 18.8686 23.0813L18.8691 23.0814ZM17.1135 23.0131C16.7312 23.0131 16.206 22.8949 15.8784 22.5633L15.8781 22.5629L15.879 22.5627C15.8825 22.5618 16.238 22.4704 16.6379 22.4606C16.6618 22.46 16.6858 22.4596 16.7101 22.4596C17.0685 22.4596 17.3429 22.53 17.5256 22.6688C17.5894 22.7172 17.6243 22.7623 17.6321 22.8065C17.6387 22.8435 17.6194 22.8833 17.5805 22.913C17.4982 22.9759 17.3511 23.0094 17.1432 23.0128L17.1138 23.0138L17.1135 23.0131ZM15.8746 22.3696C15.8515 22.3696 15.8286 22.3645 15.8076 22.3545C15.7867 22.3445 15.7682 22.3299 15.7534 22.3118C15.7287 22.2814 15.7115 22.2417 15.6993 22.187C15.6788 22.0955 15.685 22.006 15.6851 22.0051L15.6851 22.0042C15.7038 21.9955 15.724 21.9909 15.7446 21.9906H15.7447C15.8013 21.9906 15.8444 22.0218 15.8713 22.0479C15.9083 22.0847 15.9365 22.1294 15.9538 22.1789C15.9717 22.2299 15.9746 22.2725 15.9626 22.3093C15.9529 22.3385 15.9196 22.3692 15.8746 22.3692V22.3696ZM18.7361 22.3043C18.6749 22.3043 18.6198 22.2808 18.5811 22.2383C18.5494 22.2033 18.5267 22.1568 18.5116 22.0958C18.487 21.9959 18.4938 21.8966 18.4945 21.8871C18.5186 21.8765 18.5445 21.8706 18.5708 21.8696L18.5763 21.8695C18.6991 21.8695 18.7958 21.9773 18.8373 22.0841C18.8608 22.1449 18.8653 22.196 18.8507 22.2359C18.836 22.2765 18.7895 22.3038 18.7363 22.3038L18.7361 22.3043ZM17.3423 22.2459C16.5729 22.2184 16.1736 21.997 15.9742 21.816C15.8619 21.7142 15.7995 21.6132 15.7669 21.5464C15.7362 21.4834 15.7246 21.4351 15.7225 21.4257L15.7235 21.4253C15.7237 21.4253 15.7963 21.399 15.9135 21.3966L15.9315 21.3964C16.1909 21.3964 16.7191 21.5068 17.342 22.2455V22.246L17.3423 22.2459ZM18.1778 22.1671C17.5588 22.0717 17.2081 21.8027 17.0229 21.5937C16.8288 21.3746 16.7707 21.1707 16.7681 21.1612C16.7692 21.1608 16.8448 21.1409 16.9588 21.1379C16.9763 21.1374 16.9939 21.1374 17.0114 21.1379C17.3227 21.1448 17.8882 21.2876 18.1777 22.1668H18.1781L18.1778 22.1671ZM15 21.8662C14.7972 21.8662 14.6004 21.8424 14.4152 21.7955C14.0911 21.7135 13.9521 21.5882 13.8925 21.4975C13.8587 21.446 13.8464 21.4009 13.8421 21.3721C13.8394 21.3545 13.8389 21.3367 13.8406 21.319L13.8421 21.3184C13.843 21.3182 14.0572 21.2573 14.3537 21.2527C14.5061 21.2499 14.6583 21.2635 14.8078 21.2935C15.3229 21.3978 15.5901 21.7914 15.5927 21.7954L15.5929 21.7958L15.5923 21.796C15.5893 21.7965 15.3439 21.8663 14.9997 21.8663L15 21.8662ZM16.4369 21.3375C16.3748 21.3375 16.3198 21.3146 16.2818 21.273C16.2505 21.2388 16.2278 21.1916 16.2124 21.129C16.1876 21.0293 16.1945 20.9309 16.1952 20.9219C16.2194 20.9113 16.2453 20.9054 16.2716 20.9044L16.277 20.9043C16.3996 20.9043 16.4965 21.0121 16.5381 21.119C16.5609 21.1778 16.565 21.2283 16.5499 21.2692C16.5348 21.3107 16.4903 21.3375 16.437 21.3375L16.4369 21.3375ZM15.3564 21.1875C15.3518 21.1864 15.0642 21.1115 14.7714 20.9289C14.5003 20.76 14.1688 20.4611 14.1283 19.9968V19.9966L14.129 19.9964C14.1291 19.9964 14.1542 19.9902 14.1915 19.9887C14.1969 19.9885 14.2024 19.9884 14.2078 19.9885C14.2888 19.9885 14.4545 20.0115 14.655 20.1659C14.9102 20.3629 15.1459 20.7064 15.3566 21.188L15.3564 21.1875ZM16.0619 21.1613C16.0601 21.1606 15.8551 21.0775 15.599 20.8601C15.3603 20.6576 15.0247 20.2929 14.7817 19.7053C14.7819 19.7053 14.8376 19.6752 14.9228 19.6698C14.9278 19.6694 14.9327 19.6693 14.9378 19.6693C14.9451 19.6693 14.9527 19.6696 14.9604 19.6698C15.0783 19.6731 15.2578 19.7227 15.4568 19.9402C15.6854 20.19 15.8895 20.6005 16.0633 21.1604L16.0637 21.162L16.0623 21.1615L16.0619 21.1613ZM14.2339 21.1074C13.9982 21.1074 13.9176 20.9779 13.8938 20.9222C13.8548 20.8307 13.8666 20.7396 13.8667 20.7387L13.8669 20.7377C13.905 20.7281 13.9453 20.7227 13.9841 20.7222L13.9922 20.7221C14.1779 20.7221 14.3245 20.8176 14.3874 20.9123C14.3999 20.931 14.4381 20.9961 14.4065 21.047C14.381 21.0871 14.3233 21.1074 14.2339 21.1074H14.2339ZM13.7118 20.4406C13.5802 20.4406 13.3788 20.4324 13.1671 20.3935C12.9572 20.3548 12.8382 20.1741 12.7754 20.0293C12.707 19.8717 12.6877 19.7213 12.6875 19.7198H12.6881C13.3374 19.7391 13.6441 19.9312 13.787 20.0889C13.9345 20.2517 13.9433 20.4208 13.9437 20.4315L13.9433 20.4316C13.9423 20.4316 13.8509 20.4405 13.7116 20.4405L13.7118 20.4406ZM14.3879 19.7565C14.3352 19.6892 14.2857 19.6194 14.2397 19.5472C14.1628 19.4262 14.0916 19.2999 14.0916 19.1966C14.0916 19.0968 14.0684 18.8864 14.0546 18.7699C14.0371 18.6222 14.0194 18.4957 14.0179 18.4849L14.0186 18.4851C14.0351 18.4912 14.4247 18.6393 14.4247 19.0094C14.4247 19.3801 14.3887 19.7526 14.3883 19.7563L14.3883 19.7568H14.3878L14.3879 19.7565ZM13.8829 19.7214C13.8788 19.7214 13.8747 19.721 13.8707 19.7203C13.7555 19.7009 13.5531 19.6117 13.3293 19.4818C13.0809 19.3376 12.8791 19.183 12.7613 19.0467C12.6538 18.9223 12.59 18.727 12.5716 18.4662C12.5585 18.2811 12.5742 18.127 12.5758 18.1117C12.596 18.1049 12.6174 18.1016 12.6401 18.1016C12.7263 18.103 12.8184 18.1423 12.9427 18.229C13.0395 18.2965 13.1463 18.3884 13.26 18.5019C13.4561 18.6978 13.6104 18.8946 13.6119 18.8965L13.6135 18.8985C13.6264 18.922 13.7375 19.1247 13.824 19.3221C13.879 19.4474 13.9104 19.5378 13.923 19.6065C13.9302 19.6457 13.9323 19.6714 13.9228 19.6947C13.9188 19.7043 13.9113 19.7133 13.904 19.7168C13.8971 19.7198 13.8903 19.7213 13.8825 19.7213L13.8829 19.7214Z" fill="#435125"/>
<path d="M20.7846 24.6634C20.791 24.6606 20.7968 24.6565 20.8015 24.6513L20.8077 24.6455C20.8348 24.6198 20.8607 24.5927 20.885 24.5642C20.9501 24.4893 21.0375 24.3796 21.1143 24.2828C21.2666 24.0906 21.3924 23.925 21.4161 23.8938L21.4549 23.8427L21.8346 23.7242L22.1119 23.5933L21.9637 23.4247L21.4549 23.6453L21.0752 23.7242L20.373 24.2471L20.3735 24.2475C20.3749 24.2487 20.4757 24.3336 20.5757 24.4257C20.6204 24.4668 20.6766 24.5195 20.7164 24.5634C20.7347 24.5836 20.7508 24.6037 20.7618 24.6199C20.7667 24.6272 20.7709 24.635 20.7742 24.6432L20.7306 24.6157L20.6833 24.6529L20.7795 24.662L20.7839 24.663L20.7846 24.6634ZM23.3923 23.8704C23.7236 23.8704 24.0509 23.7777 24.365 23.5949L24.3653 23.5947L24.3652 23.5943C24.3652 23.5943 24.3241 23.515 24.2245 23.441C24.1296 23.3705 23.9584 23.2862 23.6818 23.2851H23.6761C23.3485 23.2851 22.9476 23.3979 22.4845 23.6203C22.5001 23.6308 22.8637 23.8704 23.3922 23.8704L23.3917 23.8709L23.3923 23.8704ZM24.8282 23.5482C24.8894 23.5482 24.9445 23.5247 24.9832 23.4822C25.0149 23.4473 25.0376 23.4007 25.0527 23.3398C25.0773 23.2399 25.0705 23.1405 25.0698 23.131C25.0457 23.1204 25.0198 23.1145 24.9935 23.1135L24.988 23.1134C24.8652 23.1134 24.7685 23.2212 24.727 23.3281C24.7035 23.3888 24.699 23.4399 24.7136 23.4799C24.7283 23.52 24.7743 23.5477 24.828 23.5477L24.8282 23.5482ZM22.3016 23.2517C23.1503 23.129 23.51 22.8183 23.6623 22.5793C23.8248 22.3245 23.7914 22.0887 23.7911 22.0863L23.791 22.0856L23.7903 22.0854C23.7901 22.0854 23.7384 22.0713 23.6604 22.0709C23.4346 22.0709 22.8571 22.1859 22.3014 23.2511L22.301 23.2518L22.302 23.2513L22.3016 23.2517ZM24.0411 23.0814C24.4036 23.0814 24.6797 23.0181 24.8615 22.8931C24.966 22.8213 25.0172 22.7425 25.0417 22.6889C25.0647 22.6387 25.0699 22.5971 25.0708 22.5888C25.0612 22.5843 24.9128 22.5176 24.6911 22.5071C24.6724 22.5062 24.6535 22.5057 24.6337 22.5056C24.3535 22.5056 23.9274 22.5982 23.4777 23.0392L23.4773 23.0397L23.4778 23.0397C23.6832 23.067 23.8728 23.0813 24.0415 23.0813L24.0411 23.0814ZM25.7967 23.0131C26.179 23.0131 26.7042 22.8949 27.0317 22.5633L27.0321 22.5629L27.0311 22.5627C27.0277 22.5618 26.6722 22.4704 26.2722 22.4606C26.2484 22.46 26.2243 22.4596 26.2001 22.4596C25.8416 22.4596 25.5673 22.53 25.3845 22.6688C25.3207 22.7172 25.2859 22.7623 25.2781 22.8065C25.2715 22.8435 25.2908 22.8833 25.3297 22.913C25.412 22.9759 25.5591 23.0094 25.767 23.0128L25.7963 23.0138L25.7967 23.0131ZM27.0355 22.3696C27.0587 22.3696 27.0816 22.3645 27.1025 22.3545C27.1235 22.3445 27.142 22.3299 27.1567 22.3118C27.1814 22.2814 27.1987 22.2417 27.2109 22.187C27.2313 22.0955 27.2252 22.006 27.2251 22.0051L27.2251 22.0042C27.2064 21.9955 27.1861 21.9909 27.1656 21.9906H27.1654C27.1088 21.9906 27.0657 22.0218 27.0388 22.0479C27.0019 22.0847 26.9736 22.1294 26.9563 22.1789C26.9385 22.2299 26.9356 22.2725 26.9475 22.3093C26.9573 22.3385 26.9905 22.3692 27.0355 22.3692V22.3696ZM24.174 22.3043C24.2353 22.3043 24.2904 22.2808 24.329 22.2383C24.3608 22.2033 24.3835 22.1568 24.3985 22.0958C24.4232 21.9959 24.4164 21.8966 24.4157 21.8871C24.3915 21.8765 24.3656 21.8706 24.3393 21.8696L24.3339 21.8695C24.2111 21.8695 24.1144 21.9773 24.0729 22.0841C24.0494 22.1449 24.0448 22.196 24.0595 22.2359C24.0742 22.2765 24.1206 22.3038 24.1739 22.3038L24.174 22.3043ZM25.5679 22.2459C26.3372 22.2184 26.7365 21.997 26.936 21.816C27.0483 21.7142 27.1107 21.6132 27.1433 21.5464C27.174 21.4834 27.1856 21.4351 27.1877 21.4257L27.1866 21.4253C27.1865 21.4253 27.1138 21.399 26.9967 21.3966L26.9787 21.3964C26.7193 21.3964 26.1911 21.5068 25.5682 22.2455V22.246L25.5679 22.2459ZM24.7324 22.1671C25.3513 22.0717 25.702 21.8027 25.8872 21.5937C26.0813 21.3746 26.1395 21.1707 26.1421 21.1612C26.1409 21.1608 26.0653 21.1409 25.9514 21.1379C25.9339 21.1374 25.9163 21.1374 25.8987 21.1379C25.5874 21.1448 25.022 21.2876 24.7325 22.1668H24.732L24.7324 22.1671ZM27.9101 21.8662C28.113 21.8662 28.3098 21.8424 28.4949 21.7955C28.819 21.7135 28.9581 21.5882 29.0176 21.4975C29.0514 21.446 29.0637 21.4009 29.068 21.3721C29.0707 21.3545 29.0712 21.3367 29.0695 21.319L29.068 21.3184C29.0672 21.3182 28.8529 21.2573 28.5564 21.2527C28.4041 21.2499 28.2518 21.2635 28.1023 21.2935C27.5872 21.3978 27.3201 21.7914 27.3175 21.7954L27.3173 21.7958L27.3179 21.796C27.3208 21.7965 27.5663 21.8663 27.9104 21.8663L27.9101 21.8662ZM26.4733 21.3375C26.5353 21.3375 26.5904 21.3146 26.6284 21.273C26.6596 21.2388 26.6823 21.1916 26.6978 21.129C26.7225 21.0293 26.7156 20.9309 26.7149 20.9219C26.6908 20.9113 26.6649 20.9054 26.6386 20.9044L26.6331 20.9043C26.5106 20.9043 26.4137 21.0121 26.3721 21.119C26.3492 21.1778 26.3452 21.2283 26.3602 21.2692C26.3754 21.3107 26.4199 21.3375 26.4731 21.3375L26.4733 21.3375ZM27.5537 21.1875C27.5584 21.1864 27.8459 21.1115 28.1388 20.9289C28.4098 20.76 28.7414 20.4611 28.7818 19.9968V19.9966L28.7811 19.9964C28.7811 19.9964 28.7559 19.9902 28.7187 19.9887C28.7132 19.9885 28.7078 19.9884 28.7023 19.9885C28.6214 19.9885 28.4556 20.0115 28.2551 20.1659C27.9999 20.3629 27.7643 20.7064 27.5536 21.188L27.5537 21.1875ZM26.8483 21.1613C26.8501 21.1606 27.055 21.0775 27.3112 20.8601C27.5499 20.6576 27.8854 20.2929 28.1284 19.7053C28.1283 19.7053 28.0726 19.6752 27.9873 19.6698C27.9824 19.6694 27.9774 19.6693 27.9724 19.6693C27.965 19.6693 27.9575 19.6696 27.9497 19.6698C27.8319 19.6731 27.6523 19.7227 27.4533 19.9402C27.2247 20.19 27.0207 20.6005 26.8469 21.1604L26.8464 21.162L26.8479 21.1615L26.8483 21.1613ZM28.6762 21.1074C28.9119 21.1074 28.9926 20.9779 29.0163 20.9222C29.0554 20.8307 29.0435 20.7396 29.0434 20.7387L29.0433 20.7377C29.0051 20.7281 28.9648 20.7227 28.926 20.7222L28.918 20.7221C28.7323 20.7221 28.5856 20.8176 28.5228 20.9123C28.5103 20.931 28.4721 20.9961 28.5037 21.047C28.5291 21.0871 28.5868 21.1074 28.6763 21.1074H28.6762ZM29.1984 20.4406C29.33 20.4406 29.5313 20.4324 29.743 20.3935C29.953 20.3548 30.072 20.1741 30.1348 20.0293C30.2032 19.8717 30.2225 19.7213 30.2227 19.7198H30.2221C29.5727 19.7391 29.2661 19.9312 29.1232 20.0889C28.9756 20.2517 28.9669 20.4208 28.9664 20.4315L28.9669 20.4316C28.9678 20.4316 29.0593 20.4405 29.1986 20.4405L29.1984 20.4406ZM28.5222 19.7565C28.575 19.6892 28.6245 19.6194 28.6705 19.5472C28.7474 19.4262 28.8185 19.2999 28.8185 19.1966C28.8185 19.0968 28.8417 18.8864 28.8555 18.7699C28.8731 18.6222 28.8907 18.4957 28.8922 18.4849L28.8916 18.4851C28.8751 18.4912 28.4854 18.6393 28.4854 19.0094C28.4854 19.3801 28.5215 19.7526 28.5218 19.7563L28.5219 19.7568H28.5224L28.5222 19.7565ZM29.0272 19.7214C29.0314 19.7214 29.0354 19.721 29.0395 19.7203C29.1547 19.7009 29.3571 19.6117 29.5808 19.4818C29.8293 19.3376 30.031 19.183 30.1489 19.0467C30.2564 18.9223 30.3202 18.727 30.3386 18.4662C30.3516 18.2811 30.336 18.127 30.3343 18.1117C30.3142 18.1049 30.2928 18.1016 30.2701 18.1016C30.1838 18.103 30.0918 18.1423 29.9675 18.229C29.8706 18.2965 29.7639 18.3884 29.6502 18.5019C29.454 18.6978 29.2998 18.8946 29.2982 18.8965L29.2967 18.8985C29.2837 18.922 29.1726 19.1247 29.0861 19.3221C29.0312 19.4474 28.9997 19.5378 28.9872 19.6065C28.98 19.6457 28.9779 19.6714 28.9874 19.6947C28.9913 19.7043 28.9988 19.7133 29.0062 19.7168C29.013 19.7198 29.0199 19.7213 29.0277 19.7213L29.0272 19.7214Z" fill="#435125"/>
<path d="M35.0326 4.7261L34.9174 4.77253L34.8723 4.79074L34.7328 4.78297L34.6021 4.84648L34.3704 5.00681L34.3601 5.01424L34.2738 5.03706L34.1935 5.00201L34.148 5.023L34.1323 5.11804L34.0889 5.1863L34.0355 5.22427L33.8506 5.24342L33.6946 5.32485L33.4917 5.26986L33.3975 5.30723L33.1971 5.48998L33.0946 5.53909L33.0589 5.53701L32.923 5.52993L32.8657 5.54894L32.78 5.63274L32.618 5.64551L32.5675 5.6809L32.4884 5.84227L32.4027 5.93177L32.3536 5.94226L32.3005 5.92256L32.2606 5.92969L32.2425 6.03295L32.2037 6.07621L32.0952 6.11403L32.0085 6.18714L31.9325 6.22669L31.8306 6.22412H31.8072L31.7057 6.28084L31.5148 6.29777L31.4354 6.37445L31.4179 6.39083L31.3808 6.4135L31.3202 6.45013L31.3053 6.45924L31.2322 6.44602L31.1467 6.48033L31.1121 6.42642L31.0529 6.46241L30.9744 6.46582L30.8768 6.42182L30.8023 6.38826L30.7479 6.39623L30.729 6.49226L30.7271 6.50245L30.6699 6.57953L30.5631 6.64501L30.5486 6.66417L30.4271 6.82297L30.1963 7.06878L30.0011 7.16917L29.7987 7.23149L29.6571 7.3493L29.2856 7.53577L28.6992 7.83113L28.5793 7.87004L28.4072 7.89786L28.1003 8.0123L27.8295 8.09502L27.8144 8.09967L27.7608 8.11611L27.379 8.23307L27.2013 8.21407L27.096 8.25277L26.822 8.22199L26.6315 8.2258L26.5109 8.25119L26.2842 8.36128L25.9015 8.5475L25.7751 8.66461L25.5782 8.76861L25.3477 8.84252L25.3483 8.74446L25.3469 8.7403L25.2669 8.76589L25.2092 8.78436L25.0222 8.81356H24.9181L24.8535 8.79455L24.8436 8.79797L24.4614 8.92548L24.0351 8.96716L23.8218 9.03641L23.6624 9.03384L23.5628 9.06388L23.3675 9.08804L23.2977 9.06918L23.2819 9.06482L22.7075 9.09007L22.4448 9.06002L22.3195 9.08888L22.1095 9.01735L21.803 8.98136L21.7314 8.95963L21.5703 8.91122L21.4974 8.95374L21.4428 8.95963L21.3124 8.91177L21.2655 8.91053L21.1578 8.94993L21.0959 8.93385L21.0384 8.88741L20.9034 8.86707L20.8211 8.79708L20.3615 8.85875L20.2368 8.82163L19.8186 8.69827L19.752 8.70169L19.6691 8.7646L19.5446 8.81059L19.4364 8.83905L19.2892 8.84425L19.1182 8.79881L18.9419 8.71228L18.8767 8.69659L18.7313 8.71144L18.6868 8.71555L18.4196 8.57042L18.0753 8.35242L17.8418 8.23877L17.754 8.22436L17.7423 8.26659L17.7858 8.40543L17.8006 8.54275L17.7961 8.66961L17.7937 8.74817L17.8156 8.81871L17.8999 8.91335L17.935 9.00839L17.9608 9.26995L17.9605 9.53537L17.9194 9.95864L17.9056 10.0231L17.8567 10.2424L17.812 10.4438L17.6386 10.98L17.591 11.0465L17.4741 11.1272L17.2092 11.3098L17.0141 11.4237L16.9524 11.4496L16.794 11.4617L16.6954 11.4565L16.5725 11.3891L16.4519 11.3577L16.2939 11.2427L16.1181 11.2058L15.9255 11.0931L15.8753 11.0321L15.7704 11.0221L15.6249 10.9778L15.625 10.9776L15.5716 10.9614L15.5346 10.9505V10.9505L15.3491 10.9453L15.176 10.8644L15.0849 10.8422L14.9603 10.8358L14.83 10.8971L14.83 10.8969L14.7639 10.9281L14.6805 10.8945L14.6201 10.8983L14.5517 11.003L14.5415 11.0192L14.4943 11.0445L14.4357 11.0436L14.3898 11.0424L14.3401 11.0644L14.2732 11.0937V11.0939L14.2142 11.12L14.1853 11.1326L14.1848 11.1321L14.1671 11.1357L14.1355 11.1412L14.0964 11.1488L14.0275 11.108L13.9908 11.0862L13.9294 11.0735L13.8963 11.0977L13.8898 11.2116L13.8596 11.2798L13.7637 11.3656L13.6663 11.4525L13.5983 11.5538L13.4186 11.9691L13.306 12.1367L13.2711 12.1757L13.1534 12.3072L13.0489 12.3892L12.8083 12.5781L12.5805 12.6643L12.3843 12.7049L12.289 12.7052L12.1083 12.6809L11.9458 12.6304L11.7674 12.5174L11.5717 12.3582L11.2884 12.0749L11.2483 12.0505L11.2399 12.0448L11.1507 11.9871L11.0845 11.9888L11.0586 12.0321L11.0444 12.0946L11.0325 12.15L11 12.4652L11.0024 12.4834L11.0195 12.6132L11.2346 12.9177L11.301 13.0794L11.3119 13.0978L11.3563 13.1733L11.3901 13.2309L11.3935 13.2367L11.467 13.4589L11.4153 13.5843L11.4414 13.6683L11.3761 13.7197L11.3641 13.7922L11.5573 14.0373L11.5994 14.1455L11.5523 14.2954L11.4773 14.3782L11.4563 14.4008L11.4668 14.4641L11.5557 14.5451L11.7067 14.6812L11.7873 14.8834L11.8485 14.9377L11.9197 14.9224L11.9593 14.9529L12.0193 14.9519L12.0784 15.0117L12.1166 15.0305L12.177 15.061L12.2248 15.1239L12.2354 15.3175L12.3244 15.5581L12.3258 15.6885L12.3263 15.707L12.3817 15.8035L12.3992 15.8796L12.3696 16.081L12.4403 16.1456L12.5169 16.1298L12.5664 16.1377L12.6458 16.2048L12.7421 16.3533L12.8363 16.3393L12.896 16.3685L13.1846 16.6325L13.25 16.666L13.2536 16.6681L13.3007 16.692L13.3592 16.7518L13.45 16.6908L13.46 16.6898L13.5587 16.6809L13.602 16.7105L13.6853 16.7674L13.7945 16.7659L14.0314 16.8394L14.135 16.8663L14.3433 16.9974L14.4318 17.0528L14.4842 17.0959L14.5538 17.1534L14.6929 17.214L14.8122 17.2429L14.8768 17.2585L14.9255 17.2775L14.9267 17.2744L14.9274 17.2746L14.9262 17.2777L15.1845 17.3779L15.3245 17.4109L15.4539 17.4592L15.5481 17.494L15.6173 17.4951L15.715 17.4119L15.8097 17.4063L15.8884 17.4262L15.9652 17.4131L16.0866 17.3374L16.1104 17.3018L16.1965 17.2602L16.4871 17.2237L16.572 17.2516L16.7901 17.1556L16.9361 17.1967L17.0654 17.1503L17.348 17.2139L17.4231 17.2674L17.507 17.3646L17.5173 17.3651L17.6108 17.3669L17.5717 17.4328L17.695 17.5638L17.8065 17.7344L17.814 17.7569L17.895 17.9976L17.9552 18.0829L17.9974 18.202L17.9994 18.2796L17.9339 18.3302L17.9232 18.359L17.9194 18.3697L17.9327 18.4022L17.9575 18.3885L18.0046 18.3621L18.0616 18.3531L18.1626 18.364L18.2292 18.3711L18.3346 18.3182L18.4043 18.2831L18.5164 18.3319L18.6396 18.3305L18.6913 18.3538L18.8378 18.4211L18.9125 18.4282L18.9401 18.4098L18.9577 18.3675L18.9487 18.3182L18.8927 18.2527L18.769 18.1072L18.7183 18.0325L18.6798 17.9243L18.6678 17.786L18.6593 17.6927L18.6746 17.5701L18.7079 17.5263L18.7323 17.4289H18.7328L18.7391 17.4034L18.8078 17.311L18.9899 17.1926L19.1854 17.0153L19.34 16.9121L19.4994 16.8422L19.5036 16.8226L19.5214 16.8298L19.9268 16.6902L19.9335 16.6895L20.114 16.6576L21.3323 16.7445L21.3774 16.7307L21.3776 16.7304L21.4182 16.6151L21.4401 16.5937L21.4546 16.5797L21.5886 16.52L21.6512 16.511L21.825 16.5544L21.8962 16.5722L22.0102 16.5075L22.0911 16.5089L22.2581 16.4165L22.3613 16.4191L22.4006 16.4032L22.6016 16.257L22.7953 16.2008L22.8456 16.1737L22.8634 16.1638L23.0619 16.0577L23.1879 15.9596L23.2968 15.9011L23.416 15.8699L23.7279 15.8477L23.7906 15.7419L23.9248 15.7238L24.0058 15.6312L24.0985 15.593L24.1649 15.4961L24.2206 15.4149L24.2984 15.3693L24.5477 15.3535L24.8432 15.3905L24.8823 15.3665L24.9491 15.1252L25.019 15.0799L25.2073 14.8021L25.2079 14.7009L25.2081 14.6163L25.239 14.496L25.218 14.2786L25.2429 14.0585L25.36 13.7789L25.4631 13.666L25.6294 13.5521L25.7139 13.5149L25.8336 13.4945V13.4942L25.8512 13.4912L25.8817 13.4859L26.294 13.4801C26.2997 13.4758 26.444 13.478 26.444 13.478L26.5814 13.4762L26.9292 13.5388L26.954 13.5432L27.0715 13.5817L27.2072 13.6885L27.3507 13.8305L27.3776 13.857L27.4706 13.8966L27.4987 13.909L27.5755 13.8966L27.6849 13.8389L27.7674 13.7683L27.8799 13.7061L27.8827 13.7021L27.946 13.6057L27.9479 13.6037L27.9492 13.6041L27.9494 13.6035L27.9483 13.6033L27.9733 13.5649L28.1907 13.4791L28.4464 13.4641L28.4751 13.4483L28.4911 13.4397L28.5587 13.3593L28.622 13.3588L28.7753 13.4149L28.883 13.3933L28.9686 13.4279L29.0351 13.4199L29.1605 13.4049L29.2951 13.5008L29.3736 13.511L29.6502 13.6748L29.6646 13.6772L29.672 13.6786L29.6878 13.6812L29.7206 13.6713L29.7694 13.657L29.7759 13.6551L29.782 13.6637L29.8135 13.7086L29.8566 13.7149L29.9076 13.6459L29.8873 13.6146L29.8797 13.6032L29.7809 13.5829L29.6921 13.4293L29.7766 13.3372L29.6441 13.1725L29.6221 13.1453L29.6146 13.1337L29.5688 13.0632L29.3368 12.7051L29.0345 12.4608L29.0344 12.461L28.9286 12.3753L28.9279 12.3748L28.8908 12.3453L28.7294 12.1791L28.6141 12.0241L28.599 11.9908L28.5752 11.9382L28.5061 11.7858L28.3858 11.692L28.2877 11.5835L28.2829 11.5771L28.0805 11.2987L28.0473 11.252L27.9994 11.224L27.8984 11.2233L27.8889 11.2136L27.8832 11.2076L27.8867 11.204L27.9351 11.1552L27.9891 11.1414L28.0124 11.0875L27.9093 10.7854L27.9087 10.7748L27.901 10.6783L27.985 10.24L27.9957 10.1866L28.1389 9.89167L28.2276 9.81811L28.3244 9.62546L28.4073 9.5023L28.4867 9.42399L28.5006 9.41568L28.644 9.32777L28.7646 9.31059L28.8794 9.29421L29.0797 9.35677L29.2705 9.35301L29.3077 9.349L29.3942 9.33895L29.5365 9.29356L29.6037 9.25159L29.6385 9.19748L29.7112 8.95063L29.7346 8.87207L29.7794 8.78673L30.0388 8.48439L30.2349 8.30074L30.6759 7.9734L30.8917 7.84277L31.0019 7.77609L31.9858 7.33326L32.2415 7.07081L32.3748 6.93434L32.6105 6.77421L32.8862 6.65982L33.1235 6.46964L33.1754 6.4036L33.2407 6.1906L33.2951 6.17729L33.3442 6.06968L33.3582 6.03909L33.5519 5.90088L33.5738 5.88984L34.3261 5.5082L34.4354 5.52339L34.4939 5.43464L34.7128 5.39747L34.7531 5.39054L34.807 5.36326L34.8529 5.28411V5.26847L34.8592 5.05696L34.906 4.99978L34.9315 4.86039L34.9555 4.82822L34.9805 4.79475L35.0425 4.75065L35.0318 4.72437L35.0326 4.7261Z" fill="#D47600"/>
</g>
<defs>
<clipPath id="clip0_224_2409">
<rect width="45" height="29.7" fill="white"/>
</clipPath>
</defs>
</svg>
