<svg width="45" height="30" viewBox="0 0 45 30" fill="none" xmlns="http://www.w3.org/2000/svg">
<g clip-path="url(#clip0_224_2302)">
<path d="M45.0013 14.854V27.3518C44.999 27.9739 45.4644 29.2602 45.0008 29.7C44.5372 30.1399 43.1822 29.6976 42.5266 29.6998H2.4759C1.8203 29.6976 0.466386 30.1399 0.00279989 29.7C-0.460786 29.2602 0.00356806 27.9739 0.0012555 27.3518V14.854H45.0013Z" fill="#D7141A"/>
<path d="M45.0013 14.854H0.00125813V2.34786C0.00357069 1.7258 -0.460787 0.439512 0.00279896 -0.000353474C0.466385 -0.440219 1.8203 0.002034 2.47591 -0.000160234H42.5266C43.1822 0.002034 44.5377 -0.439837 45.0013 2.8392e-05C45.4649 0.439893 44.999 1.7258 45.0013 2.34786V14.854Z" fill="white"/>
<path d="M22.4994 14.8541L-8.90665e-05 0C-0.316002 0.399664 -0.000591243 1.81511 -0.000591243 2.34799V27.3519C-0.000591243 27.8848 -0.315913 29.3087 -3.72529e-09 29.7L22.4994 14.8541Z" fill="#11457E"/>
</g>
<defs>
<clipPath id="clip0_224_2302">
<rect width="45" height="29.7" fill="white"/>
</clipPath>
</defs>
</svg>
