<svg width="88" height="59" viewBox="0 0 88 59" fill="none" xmlns="http://www.w3.org/2000/svg">
<g clip-path="url(#clip0_224_457)">
<path d="M88 0H0V58.6667H88V0Z" fill="#009E49"/>
<path d="M88 0H0V29.3333H88V0Z" fill="#EF2B2D"/>
<path d="M44.0039 19.5554L40.9824 28.8546L45.632 30.3654" fill="#FCD116"/>
<path d="M44.0039 19.5554L47.0254 28.8546L42.3758 30.3654" fill="#FCD116"/>
<path d="M53.3008 26.3123H43.523V31.2011" fill="#FCD116"/>
<path d="M53.3008 26.3123L45.3904 32.0595L42.5168 28.1043" fill="#FCD116"/>
<path d="M49.7462 37.2437L46.7247 27.9444L42.0751 29.4552" fill="#FCD116"/>
<path d="M49.7462 37.2437L41.8358 31.4964L44.7094 27.5412" fill="#FCD116"/>
<path d="M38.254 37.2437L46.1644 31.4964L43.2908 27.5412" fill="#FCD116"/>
<path d="M38.254 37.2437L41.2755 27.9444L45.9251 29.4552" fill="#FCD116"/>
<path d="M34.7031 26.3113L42.6135 32.0585L45.4871 28.1033" fill="#FCD116"/>
<path d="M34.7031 26.3113H44.4809V31.2002" fill="#FCD116"/>
</g>
<defs>
<clipPath id="clip0_224_457">
<rect width="88" height="58.6667" fill="white"/>
</clipPath>
</defs>
</svg>
