<svg width="88" height="59" viewBox="0 0 88 59" fill="none" xmlns="http://www.w3.org/2000/svg">
<g clip-path="url(#clip0_224_389)">
<path d="M0 0H88V58.6667H0V0Z" fill="black"/>
<path d="M0 9.77783H88V24.4445H0V9.77783ZM0 39.1112H88V58.6667H0V39.1112Z" fill="#FCDC04"/>
<path d="M0 19.5557H88V29.3334H0V19.5557ZM0 48.889H88V58.6668H0V48.889Z" fill="#D90000"/>
<path d="M44.0016 38.4756C49.0507 38.4756 53.1438 34.3825 53.1438 29.3334C53.1438 24.2843 49.0507 20.1912 44.0016 20.1912C38.9525 20.1912 34.8594 24.2843 34.8594 29.3334C34.8594 34.3825 38.9525 38.4756 44.0016 38.4756Z" fill="white"/>
<path d="M42.3859 22.3314L41.793 21.2392C42.0218 21.0104 42.4067 20.8335 43.0204 20.8335C43.0204 20.8751 42.958 22.0297 42.958 22.0297L42.3859 22.3314Z" fill="#D90000" stroke="black" stroke-width="0.1"/>
<path d="M42.9569 22.0402L43.0402 20.8335C43.0402 20.8335 44.2676 20.7608 44.9333 21.5616C44.9437 21.5512 44.278 22.4978 44.278 22.4978L42.9569 22.0402Z" fill="#FCDC04" stroke="black" stroke-width="0.1"/>
<path d="M44.3008 22.4874L44.9041 21.5513C45.3098 21.9778 45.4761 22.2794 45.5386 22.7371C45.549 22.7475 44.5816 22.9763 44.5816 22.9659C44.5816 22.9555 44.3112 22.4978 44.3008 22.4874Z" fill="#D90000" stroke="black" stroke-width="0.1"/>
<path d="M42.6878 37.9447C42.6878 37.9447 43.8217 36.6444 46.0269 36.9253C45.694 36.3844 44.6226 36.4468 44.6226 36.4468C44.6226 36.4468 44.2898 33.9191 44.5498 33.7943C44.8098 33.6694 45.9124 33.8047 45.9124 33.8047C46.058 33.8047 46.3077 33.4094 46.1101 33.1598C45.9124 32.9101 45.33 31.9531 45.5692 31.7659C45.8085 31.5787 47.1087 31.8699 47.1087 31.8699L43.4368 27.1682C43.4368 27.1682 43.0623 25.3999 43.8113 24.5469C44.7163 23.798 44.6226 22.9866 44.5914 22.997C44.4666 22.1752 43.2184 21.5823 42.3758 22.3417C41.8765 22.945 42.2093 23.4027 42.2093 23.4027C42.2093 23.4027 40.8987 23.7563 40.8467 23.9852C40.7947 24.214 42.3238 23.9436 42.3238 23.9436L42.1781 24.9942C42.1781 24.9942 39.2031 27.6987 41.4812 30.0391C41.502 30.0287 41.554 29.9351 41.554 29.9351C41.554 29.9351 42.355 30.9233 43.1975 31.1418C43.9881 31.9531 43.9153 31.8283 43.9153 31.8283C43.9153 31.8283 44.0713 33.1078 43.9257 33.3574C43.728 33.295 41.7101 33.2222 41.4084 33.3366C41.1379 33.4198 40.0977 33.3678 40.3578 35.0634C40.5554 34.6056 40.7322 34.2 40.7322 34.2C40.7322 34.2 40.701 34.8137 40.9507 35.0321C40.9091 34.3872 41.19 33.9503 41.19 33.9503C41.19 33.9503 41.242 34.6577 41.398 34.7616C41.554 34.8657 41.554 33.6174 42.4174 33.7214C43.2807 33.8255 43.9049 33.7943 43.9049 33.7943C43.9049 33.7943 44.1961 36.2387 44.1025 36.4676C43.4783 36.3219 41.9909 36.53 41.8973 36.9045C42.771 36.8525 43.1768 36.9564 43.1768 36.9564C43.1768 36.9564 42.4694 37.5806 42.6878 37.9447Z" fill="black" stroke="black" stroke-width="0.1"/>
<path d="M43.0389 24.6067C43.0389 24.6067 40.8742 26.9927 41.8081 28.8185C41.8578 28.5639 41.8361 28.4039 41.8673 28.4143C41.8153 28.3831 42.1358 28.634 42.1114 28.5852C42.1182 28.4532 42.0138 28.1703 42.0138 28.1703C42.1114 28.1946 42.2091 28.2191 42.3067 28.2435C42.2497 28.1377 42.1927 28.032 42.1358 27.9262C42.2741 27.9425 42.4124 27.9587 42.5508 27.975C42.5508 27.975 42.4043 27.5844 42.4531 27.5844C42.5019 27.5844 42.7948 27.6088 42.7948 27.6088C42.1792 26.5041 42.76 25.5866 43.0389 24.6067Z" fill="#9CA69C" stroke="#9CA69C" stroke-width="0.1"/>
<path d="M43.7897 22.5603C43.7897 22.5603 43.9042 23.3821 43.4569 23.6213C43.384 23.6733 43.1032 23.767 43.1448 23.9334C43.1968 24.1622 43.3216 24.1206 43.4985 24.079C43.9665 23.9958 44.5074 22.9972 43.7897 22.5603Z" fill="#9CA69C" stroke="#9CA69C" stroke-width="0.1"/>
<path d="M42.8246 23.447C42.9219 23.447 43.0006 23.3682 43.0006 23.271C43.0006 23.1738 42.9219 23.095 42.8246 23.095C42.7274 23.095 42.6487 23.1738 42.6487 23.271C42.6487 23.3682 42.7274 23.447 42.8246 23.447Z" fill="white"/>
<path d="M42.2919 23.9541C42.1775 24.0477 41.5742 24.6719 42.1671 24.9007C42.7808 24.7343 42.6144 24.6199 42.7496 24.4846C42.7531 24.2038 42.4445 24.131 42.2919 23.9541Z" fill="#D90000" stroke="black" stroke-width="0.1"/>
<path d="M43.6037 29.8521C43.5725 29.9873 43.4374 30.4866 43.6246 30.8714C44.1447 30.653 44.3839 30.7154 44.5608 30.8298C44.1344 30.4866 43.9679 30.3409 43.6037 29.8521Z" fill="#9CA69C" stroke="#9CA69C" stroke-width="0.1"/>
<path d="M44.5 32.2131L44.5312 33.3782C44.5312 33.3782 44.9369 33.451 45.1241 33.3782C45.3114 33.3053 45.1137 32.5668 44.5 32.2131Z" fill="white" stroke="white" stroke-width="0.1"/>
<path d="M47.4402 32.3589C47.4402 32.3589 46.6912 30.549 44.7772 30.0913C42.8633 29.6336 43.1129 27.5948 43.2689 27.47C43.3522 27.2931 43.4146 27.0227 43.9659 27.2828C44.5172 27.5428 47.0553 28.8222 47.4194 28.8846C47.7834 28.947 47.4714 32.4005 47.4402 32.3589Z" fill="#9CA69C" stroke="black" stroke-width="0.1"/>
<path d="M45.6216 30.0809C45.5904 30.1017 48.1805 31.6099 47.4003 32.9102C48.1389 32.4213 47.8996 31.5684 47.8996 31.5684C47.8996 31.5684 48.5029 33.1391 47.0362 33.9089C47.1923 34.0441 47.2964 34.0128 47.2964 34.0128L47.0466 34.2625C47.0466 34.2625 46.9322 34.4497 47.9204 33.9712C47.6499 34.1897 47.6292 34.3457 47.6292 34.3457C47.6292 34.3457 47.702 34.5538 48.3469 33.992C47.8268 34.5538 47.7124 34.845 47.7124 34.8346C49.1166 34.7097 52.1748 30.1433 46.745 28.791C47.0363 29.0927 46.9946 29.0511 46.9946 29.0511L45.6216 30.0809Z" fill="#D90000" stroke="black" stroke-width="0.1"/>
<path d="M45.7358 29.6335C46.0895 29.8831 46.2143 29.9663 46.2559 30.0912C45.9334 30.0184 45.6422 30.0392 45.6422 30.0392C45.6422 30.0392 44.9453 29.3734 44.8204 29.3214C44.7268 29.3214 44.1859 28.9782 44.1859 28.9782C43.9155 28.8429 43.6659 27.9068 44.6644 28.1772C45.6941 28.666 45.8398 28.7077 45.8398 28.7077C46.249 28.836 46.6581 28.9643 47.0673 29.0926C47.3031 29.3561 47.5388 29.6196 47.7746 29.8832C47.7746 29.8832 46.516 29.259 46.3599 29.2486C46.7032 29.5294 46.9009 29.9143 46.9009 29.9143C46.5021 29.7999 46.1554 29.6959 45.7358 29.6335Z" fill="white" stroke="black" stroke-width="0.1"/>
<path d="M40.8362 24.0476C40.8362 24.0476 42.0428 23.7564 42.1884 23.798Z" fill="black"/>
<path d="M40.8362 24.0476C40.8362 24.0476 42.0428 23.7564 42.1884 23.798" stroke="white" stroke-width="0.1"/>
</g>
<defs>
<clipPath id="clip0_224_389">
<rect width="88" height="58.6667" fill="white"/>
</clipPath>
</defs>
</svg>
