<svg width="88" height="59" viewBox="0 0 88 59" fill="none" xmlns="http://www.w3.org/2000/svg">
<g clip-path="url(#clip0_224_433)">
<path d="M0 0H88V58.6667H0V0Z" fill="white"/>
<path d="M0 0H88V17.6H0V0Z" fill="black"/>
<path d="M0 41.0667H88V58.6666H0V41.0667Z" fill="#006600"/>
<path d="M33.5211 46.75L34.1562 47.1167L51.2843 17.45C52.2861 17.1816 52.8361 16.2289 53.386 15.2763C53.7527 14.6412 55.2194 12.1009 55.855 8.8C53.3141 11.0009 51.8475 13.5412 51.4808 14.1763C50.9308 15.1289 50.3808 16.0816 50.6492 17.0833L33.5211 46.75Z" fill="black" stroke="black" stroke-width="0.375"/>
<path d="M33.5211 46.75L34.1562 47.1167L51.2843 17.45C52.2861 17.1816 52.8361 16.2289 53.386 15.2763C53.7527 14.6412 55.2194 12.1009 55.855 8.8C53.3141 11.0009 51.8475 13.5412 51.4808 14.1763C50.9308 15.1289 50.3808 16.0816 50.6492 17.0833L33.5211 46.75Z" fill="white"/>
<path d="M54.4789 46.75L53.8438 47.1167L36.7157 17.45C35.7139 17.1816 35.1639 16.2289 34.614 15.2763C34.2473 14.6412 32.7806 12.1009 32.145 8.8C34.6859 11.0009 36.1525 13.5412 36.5192 14.1763C37.0692 15.1289 37.6192 16.0816 37.3508 17.0833L54.4789 46.75Z" fill="black" stroke="black" stroke-width="0.375"/>
<path d="M54.4789 46.75L53.8438 47.1167L36.7157 17.45C35.7139 17.1816 35.1639 16.2289 34.614 15.2763C34.2473 14.6412 32.7806 12.1009 32.145 8.8C34.6859 11.0009 36.1525 13.5412 36.5192 14.1763C37.0692 15.1289 37.6192 16.0816 37.3508 17.0833L54.4789 46.75Z" fill="white"/>
<path d="M0 20.5334V38.1334H37.0333C38.1333 41.0667 41.8 46.9334 44 46.9334C46.2 46.9334 49.8667 41.0667 50.9667 38.1334H88V20.5334H50.9667C49.8667 17.6001 46.2 11.7334 44 11.7334C41.8 11.7334 38.1333 17.6001 37.0333 20.5334H0Z" fill="#BB0000"/>
<path d="M50.9661 38.1332C52.0661 35.1999 52.7995 32.2665 52.7995 29.3332C52.7995 26.3999 52.0661 23.4665 50.9661 20.5332C49.8661 23.4665 49.1328 26.3999 49.1328 29.3332C49.1328 32.2665 49.8661 35.1999 50.9661 38.1332Z" fill="black"/>
<path d="M37.0339 38.1332C35.9339 35.1999 35.2005 32.2665 35.2005 29.3332C35.2005 26.3999 35.9339 23.4665 37.0339 20.5332C38.1339 23.4665 38.8672 26.3999 38.8672 29.3332C38.8672 32.2665 38.1339 35.1999 37.0339 38.1332Z" fill="black"/>
<path d="M44.0018 31.5333C44.8118 31.5333 45.4685 30.5483 45.4685 29.3333C45.4685 28.1183 44.8118 27.1333 44.0018 27.1333C43.1918 27.1333 42.5352 28.1183 42.5352 29.3333C42.5352 30.5483 43.1918 31.5333 44.0018 31.5333Z" fill="white"/>
<path d="M44.3672 31.4783C44.3672 31.4783 45.8339 34.4116 45.8339 39.1783C45.8339 43.9449 44.3672 46.8783 44.3672 46.8783V31.4783Z" fill="white"/>
<path d="M43.6328 27.1882C43.6328 27.1882 42.1661 24.2549 42.1661 19.4882C42.1661 14.7216 43.6328 11.7882 43.6328 11.7882V27.1882Z" fill="white"/>
<path d="M43.6328 31.4783C43.6328 31.4783 42.1661 34.4116 42.1661 39.1783C42.1661 43.9449 43.6328 46.8783 43.6328 46.8783V31.4783Z" fill="white"/>
<path d="M44.3672 27.1882C44.3672 27.1882 45.8339 24.2549 45.8339 19.4882C45.8339 14.7216 44.3672 11.7882 44.3672 11.7882V27.1882Z" fill="white"/>
</g>
<defs>
<clipPath id="clip0_224_433">
<rect width="88" height="58.6667" fill="white"/>
</clipPath>
</defs>
</svg>
