<svg width="45" height="31" viewBox="0 0 45 31" fill="none" xmlns="http://www.w3.org/2000/svg">
<g clip-path="url(#clip0_224_2279)">
<path fill-rule="evenodd" clip-rule="evenodd" d="M-0.73233 0.399902H45.7276C47.3068 0.399902 48.5929 1.45178 48.5929 2.74342V27.7486C48.5929 29.0326 47.3068 30.0844 45.737 30.0922H-0.741787C-2.31157 30.0999 -3.59766 29.0403 -3.59766 27.7564V2.74342C-3.59766 1.45178 -2.31157 0.399902 -0.73233 0.399902Z" fill="black"/>
<path fill-rule="evenodd" clip-rule="evenodd" d="M-3.59766 10.2998H48.6023V27.7563C48.6023 29.0479 47.3163 30.0998 45.737 30.0998H-0.73233C-2.31157 30.0998 -3.59766 29.0479 -3.59766 27.7563V10.2998Z" fill="#DD0000"/>
<path fill-rule="evenodd" clip-rule="evenodd" d="M-3.59766 20.2H48.6023V27.7564C48.6023 29.0403 47.3163 30.0922 45.7465 30.1H-0.73233C-1.49149 30.0979 -2.21885 29.8504 -2.75567 29.4113C-3.29248 28.9722 -3.59516 28.3773 -3.59766 27.7564L-3.59766 20.2Z" fill="#FFCE00"/>
</g>
<defs>
<clipPath id="clip0_224_2279">
<rect width="45" height="29.7" fill="white" transform="translate(0 0.399902)"/>
</clipPath>
</defs>
</svg>
