<svg width="45" height="31" viewBox="0 0 45 31" fill="none" xmlns="http://www.w3.org/2000/svg">
<g clip-path="url(#clip0_224_2275)">
<path d="M0.0705811 0.699951H44.931C46.4583 0.699951 47.7008 1.75257 47.7008 3.04642V28.0535C47.7008 29.3473 46.4583 30.4 44.931 30.4H0.0705811C-1.45669 30.4 -2.69922 29.3473 -2.69922 28.0535V3.04642C-2.69922 1.75257 -1.45669 0.699951 0.0705811 0.699951Z" fill="#0D5EAF"/>
<path d="M9.22958 0.699951V7.16188H16.3097V3.79934H45V7.16188H16.3097V10.5171H9.22958V17.2276H45V20.5901H0V17.2276H5.69337V10.5171H0V7.16188H5.69337V0.699951H9.22958ZM45 10.5171V13.8723H16.3097V10.5171H45V10.5171ZM45 23.9453V27.3006H0V23.9453H45Z" fill="white"/>
</g>
<defs>
<clipPath id="clip0_224_2275">
<rect width="45" height="29.7" fill="white" transform="translate(0 0.699951)"/>
</clipPath>
</defs>
</svg>
