<svg width="80" height="54" viewBox="0 0 80 54" fill="none" xmlns="http://www.w3.org/2000/svg">
<g clip-path="url(#clip0_224_481)">
<path d="M-0.0898437 0H85.4258C88.3164 0.0124786 90.668 1.90298 90.668 4.21151V49.1218C90.668 51.4366 88.293 53.3333 85.3945 53.3333H-0.0898437C-2.97266 53.3209 -5.33203 51.4304 -5.33203 49.1218V4.21151C-5.33203 1.90298 -2.98047 0.0124786 -0.0898437 0Z" fill="#FF9933"/>
<path d="M0 17.7778H83.5556V35.5556H0V17.7778Z" fill="white"/>
<path d="M-5.33203 35.5557H85.3346V49.1214C85.3346 51.4365 83.0916 53.3334 80.3542 53.3334H-0.381076C-3.10373 53.321 -5.33203 51.4302 -5.33203 49.1214V35.5557Z" fill="#128807"/>
<path d="M45.309 26.6665C45.309 22.7357 42.1363 19.5537 38.217 19.5537C34.2977 19.5537 31.125 22.7357 31.125 26.6665C31.125 30.591 34.2977 33.7793 38.217 33.7793C42.1363 33.7793 45.309 30.5972 45.309 26.6665Z" fill="#000088"/>
<path d="M44.4204 26.6668C44.4204 23.229 41.6458 20.4463 38.218 20.4463C34.7902 20.4463 32.0156 23.229 32.0156 26.6668C32.0156 30.1047 34.7902 32.8874 38.218 32.8874C41.6458 32.8874 44.4204 30.1047 44.4204 26.6668Z" fill="white"/>
<path d="M39.4565 26.6668C39.4565 25.9805 38.9028 25.4189 38.2185 25.4189C37.5341 25.4189 36.9805 25.9742 36.9805 26.6668C36.9805 27.3531 37.5341 27.9084 38.2185 27.9084C38.9028 27.9084 39.4565 27.3531 39.4565 26.6668Z" fill="#000088"/>
<path d="M44.6777 27.5215C44.7025 27.3531 44.5781 27.1971 44.4101 27.1721C44.2422 27.1472 44.0867 27.272 44.0618 27.4404C44.0369 27.6089 44.1613 27.7649 44.3293 27.7898C44.5035 27.8085 44.659 27.69 44.6777 27.5215Z" fill="#000088"/>
<path d="M38.2193 32.8872L38.4308 29.1561L38.2193 27.3779L38.0078 29.1561L38.2193 32.8872Z" fill="#000088"/>
<path d="M44.2375 29.1687C44.3059 29.0127 44.225 28.8255 44.0695 28.7631C43.914 28.6945 43.7273 28.7756 43.6651 28.9316C43.5967 29.0875 43.6776 29.2747 43.8331 29.3371C43.9948 29.3995 44.1753 29.3246 44.2375 29.1687Z" fill="black"/>
<path d="M36.6133 32.6751L37.7828 29.125L38.0379 27.353L37.3723 29.0189L36.6133 32.6751Z" fill="black"/>
<path d="M43.3929 30.6475C43.4987 30.5102 43.4738 30.3168 43.3369 30.2107C43.2001 30.1046 43.0072 30.1296 42.9014 30.2669C42.7957 30.4041 42.8206 30.5976 42.9574 30.7036C43.0943 30.8097 43.2871 30.7785 43.3929 30.6475Z" fill="black"/>
<path d="M35.1211 32.0572L37.1678 28.9313L37.8708 27.2842L36.8008 28.713L35.1211 32.0572Z" fill="black"/>
<path d="M42.1846 31.8516C42.3214 31.7455 42.3463 31.5521 42.2406 31.4148C42.1348 31.2776 41.942 31.2526 41.8051 31.3587C41.6682 31.4647 41.6433 31.6582 41.7491 31.7954C41.8549 31.9264 42.0539 31.9576 42.1846 31.8516Z" fill="black"/>
<path d="M33.8359 31.0654L36.6168 28.576L37.7179 27.1721L36.3181 28.2765L33.8359 31.0654Z" fill="black"/>
<path d="M40.714 32.7063C40.8696 32.6376 40.9504 32.4567 40.882 32.3007C40.8136 32.1447 40.6332 32.0636 40.4776 32.1322C40.3221 32.1946 40.2412 32.3818 40.3097 32.5378C40.3719 32.6938 40.5523 32.7687 40.714 32.7063Z" fill="black"/>
<path d="M32.8477 29.7802L36.1821 28.0956L37.6068 27.0225L35.9644 27.7275L32.8477 29.7802Z" fill="black"/>
<path d="M39.073 33.1431C39.2409 33.1181 39.3591 32.9621 39.3405 32.7937C39.3156 32.6252 39.1601 32.5067 38.9921 32.5254C38.8241 32.5503 38.7059 32.7063 38.7246 32.8748C38.7433 33.0495 38.8988 33.168 39.073 33.1431Z" fill="black"/>
<path d="M32.2305 28.2766L35.8822 27.5154L37.537 26.854L35.7703 27.1036L32.2305 28.2766Z" fill="black"/>
<path d="M37.3671 33.1431C37.5351 33.168 37.6906 33.0433 37.7155 32.8748C37.7404 32.7063 37.6159 32.5504 37.448 32.5254C37.28 32.5004 37.1245 32.6252 37.0996 32.7937C37.0809 32.9684 37.1991 33.1244 37.3671 33.1431Z" fill="black"/>
<path d="M32.0156 26.6665L35.7358 26.8786L37.5088 26.6665L35.7358 26.4543L32.0156 26.6665Z" fill="black"/>
<path d="M35.725 32.7063C35.8806 32.7749 36.0672 32.6938 36.1294 32.5378C36.1916 32.3818 36.117 32.1946 35.9614 32.1322C35.8059 32.0636 35.6193 32.1447 35.5571 32.3007C35.4949 32.4567 35.5695 32.6376 35.725 32.7063Z" fill="black"/>
<path d="M32.2305 25.0569L35.7703 26.2299L37.537 26.4857L35.8822 25.8181L32.2305 25.0569Z" fill="black"/>
<path d="M34.2498 31.8516C34.3866 31.9576 34.5795 31.9327 34.6852 31.7954C34.791 31.6582 34.7661 31.4647 34.6293 31.3587C34.4924 31.2526 34.2995 31.2776 34.1938 31.4148C34.0942 31.5521 34.1191 31.7455 34.2498 31.8516Z" fill="black"/>
<path d="M32.8477 23.5532L35.9644 25.6059L37.6068 26.311L36.1821 25.2378L32.8477 23.5532Z" fill="black"/>
<path d="M33.0519 30.6472C33.1577 30.7845 33.3505 30.8094 33.4874 30.7034C33.6243 30.5973 33.6491 30.4039 33.5434 30.2666C33.4376 30.1294 33.2448 30.1044 33.1079 30.2105C32.9773 30.3103 32.9462 30.51 33.0519 30.6472Z" fill="black"/>
<path d="M33.8359 22.2681L36.3181 25.057L37.7179 26.1676L36.6168 24.7575L33.8359 22.2681Z" fill="black"/>
<path d="M32.1977 29.1687C32.2661 29.3246 32.4465 29.4058 32.6021 29.3371C32.7576 29.2685 32.8385 29.0875 32.77 28.9316C32.7016 28.7756 32.5212 28.6945 32.3657 28.7631C32.2101 28.8255 32.1355 29.0064 32.1977 29.1687Z" fill="black"/>
<path d="M35.1211 21.2759L36.8008 24.6201L37.8708 26.0489L37.1678 24.408L35.1211 21.2759Z" fill="black"/>
<path d="M31.7611 27.5215C31.786 27.69 31.9415 27.8085 32.1095 27.7898C32.2775 27.7648 32.3957 27.6089 32.377 27.4404C32.3521 27.2719 32.1966 27.1534 32.0286 27.1721C31.8544 27.1908 31.7362 27.3468 31.7611 27.5215Z" fill="black"/>
<path d="M36.6133 20.6582L37.3723 24.3207L38.0379 25.9803L37.7828 24.2084L36.6133 20.6582Z" fill="black"/>
<path d="M31.761 25.812C31.7361 25.9804 31.8605 26.1364 32.0285 26.1614C32.1965 26.1863 32.352 26.0616 32.3769 25.8931C32.4018 25.7246 32.2773 25.5686 32.1094 25.5437C31.9352 25.525 31.7797 25.6435 31.761 25.812Z" fill="black"/>
<path d="M38.2193 20.4463L38.0078 24.1774L38.2193 25.9556L38.4308 24.1774L38.2193 20.4463Z" fill="black"/>
<path d="M32.2081 24.1646C32.1397 24.3205 32.2205 24.5077 32.3761 24.5701C32.5316 24.6325 32.7182 24.5576 32.7804 24.4017C32.8489 24.2457 32.768 24.0585 32.6125 23.9961C32.4507 23.9337 32.2703 24.0086 32.2081 24.1646Z" fill="black"/>
<path d="M39.827 20.6582L38.6574 24.2084L38.4023 25.9803L39.068 24.3207L39.827 20.6582Z" fill="black"/>
<path d="M33.0538 22.6922C32.948 22.8294 32.9729 23.0228 33.1098 23.1289C33.2466 23.235 33.4395 23.21 33.5452 23.0728C33.651 22.9355 33.6261 22.7421 33.4893 22.636C33.3524 22.5299 33.1595 22.5549 33.0538 22.6922Z" fill="black"/>
<path d="M41.3278 21.2759L39.2811 24.408L38.5781 26.0489L39.6481 24.6201L41.3278 21.2759Z" fill="black"/>
<path d="M34.2543 21.482C34.1174 21.5881 34.0926 21.7815 34.1983 21.9187C34.3041 22.056 34.4969 22.081 34.6338 21.9749C34.7707 21.8688 34.7955 21.6754 34.6898 21.5381C34.584 21.4009 34.3849 21.3822 34.2543 21.482Z" fill="black"/>
<path d="M42.6046 22.2681L39.8238 24.7575L38.7227 26.1676L40.1224 25.057L42.6046 22.2681Z" fill="black"/>
<path d="M35.725 20.6334C35.5695 20.702 35.4949 20.8829 35.5571 21.0389C35.6255 21.1949 35.8059 21.276 35.9614 21.2074C36.117 21.1387 36.1978 20.9578 36.1294 20.8018C36.0672 20.6396 35.8868 20.5647 35.725 20.6334Z" fill="black"/>
<path d="M43.5951 23.5532L40.2606 25.2378L38.8359 26.311L40.4783 25.6059L43.5951 23.5532Z" fill="black"/>
<path d="M37.3671 20.1902C37.1991 20.2152 37.0809 20.3711 37.0996 20.5396C37.1245 20.7081 37.28 20.8266 37.448 20.8079C37.6159 20.7829 37.7404 20.6269 37.7155 20.4585C37.6968 20.29 37.5413 20.1652 37.3671 20.1902Z" fill="black"/>
<path d="M44.2089 25.0569L40.5571 25.8181L38.9023 26.4857L40.6691 26.2299L44.2089 25.0569Z" fill="black"/>
<path d="M39.0742 20.1902C38.9062 20.1652 38.7507 20.29 38.7258 20.4585C38.7009 20.6269 38.8254 20.7829 38.9933 20.8079C39.1613 20.8328 39.3168 20.7081 39.3417 20.5396C39.3604 20.3711 39.2422 20.2089 39.0742 20.1902Z" fill="black"/>
<path d="M44.4268 26.6665L40.7066 26.4543L38.9336 26.6665L40.7066 26.8786L44.4268 26.6665Z" fill="black"/>
<path d="M40.714 20.6332C40.5585 20.5646 40.3719 20.6457 40.3097 20.8017C40.2412 20.9577 40.3221 21.1448 40.4776 21.2072C40.6332 21.2696 40.8198 21.1948 40.882 21.0388C40.9442 20.8766 40.8696 20.6956 40.714 20.6332Z" fill="black"/>
<path d="M44.2089 28.2766L40.6691 27.1036L38.9023 26.854L40.5571 27.5154L44.2089 28.2766Z" fill="black"/>
<path d="M42.1846 21.482C42.0477 21.3759 41.8549 21.4008 41.7491 21.5381C41.6433 21.6754 41.6682 21.8688 41.8051 21.9749C41.942 22.0809 42.1348 22.056 42.2406 21.9187C42.3463 21.7814 42.3214 21.588 42.1846 21.482Z" fill="black"/>
<path d="M43.5951 29.7802L40.4783 27.7275L38.8359 27.0225L40.2606 28.0956L43.5951 29.7802Z" fill="black"/>
<path d="M43.3929 22.6922C43.2871 22.5549 43.0943 22.5299 42.9574 22.636C42.8206 22.7421 42.7957 22.9355 42.9014 23.0728C43.0072 23.21 43.2001 23.235 43.3369 23.1289C43.4676 23.0228 43.4987 22.8232 43.3929 22.6922Z" fill="black"/>
<path d="M42.6046 31.0654L40.1224 28.2765L38.7227 27.1721L39.8238 28.576L42.6046 31.0654Z" fill="black"/>
<path d="M44.2453 24.1647C44.1769 24.0087 43.9964 23.9276 43.8409 23.9963C43.6854 24.0649 43.6045 24.2458 43.6729 24.4018C43.7414 24.5578 43.9218 24.6327 44.0773 24.5703C44.2328 24.5079 44.3075 24.3269 44.2453 24.1647Z" fill="black"/>
<path d="M41.3278 32.0572L39.6481 28.713L38.5781 27.2842L39.2811 28.9313L41.3278 32.0572Z" fill="black"/>
<path d="M44.6764 25.812C44.6515 25.6435 44.496 25.525 44.328 25.5437C44.1601 25.5686 44.0419 25.7246 44.0605 25.8931C44.0854 26.0616 44.2409 26.1801 44.4089 26.1614C44.5831 26.1427 44.7013 25.9867 44.6764 25.812Z" fill="black"/>
<path d="M39.827 32.6751L39.068 29.0189L38.4023 27.353L38.6574 29.125L39.827 32.6751Z" fill="black"/>
</g>
<defs>
<clipPath id="clip0_224_481">
<rect width="80" height="53.3333" fill="white"/>
</clipPath>
</defs>
</svg>
