<svg width="80" height="54" viewBox="0 0 80 54" fill="none" xmlns="http://www.w3.org/2000/svg">
<g clip-path="url(#clip0_224_541)">
<path d="M1.2676 -1.77783H79.4587C82.1165 -1.77783 84.2809 0.213546 84.2809 2.65884V49.998C84.2809 52.4433 82.1165 54.4347 79.4587 54.4347H1.2676C-1.39023 54.4347 -3.55469 52.4287 -3.55469 49.998V2.65884C-3.55469 0.213546 -1.39023 -1.77783 1.2676 -1.77783Z" fill="white" stroke="#CCCCCC" stroke-width="0.5" stroke-miterlimit="2.6131"/>
<path d="M55.9685 26.2597C55.9685 17.5399 48.8867 10.4653 40.1581 10.4653C31.4294 10.4653 24.3477 17.5399 24.3477 26.2597C24.3477 34.9795 31.4294 42.054 40.1581 42.054C48.8867 42.054 55.9685 34.9795 55.9685 26.2597Z" fill="#BC002D"/>
</g>
<defs>
<clipPath id="clip0_224_541">
<rect width="80" height="53.3333" fill="white"/>
</clipPath>
</defs>
</svg>
