<svg width="110" height="74" viewBox="0 0 110 74" fill="none" xmlns="http://www.w3.org/2000/svg">
<g clip-path="url(#clip0_224_968)">
<path d="M0 0.333984H112.444V73.6673H0V0.333984Z" fill="#00AFCA"/>
<path d="M56.8381 38.29C61.9242 38.29 66.0473 34.1669 66.0473 29.0808C66.0473 23.9947 61.9242 19.8716 56.8381 19.8716C51.752 19.8716 47.6289 23.9947 47.6289 29.0808C47.6289 34.1669 51.752 38.29 56.8381 38.29Z" fill="#FEC50C"/>
<path d="M56.8389 18.6157C57.3865 18.6089 57.5918 18.2666 57.5918 17.856C57.5918 17.3084 56.8389 14.7007 56.8389 14.7007C56.8389 14.7007 56.0861 17.3084 56.0861 17.856C56.0861 18.2666 56.2914 18.6157 56.8389 18.6157Z" fill="#FEC50C"/>
<path d="M67.3078 29.0808C67.3146 29.6283 67.6568 29.8337 68.0675 29.8337C68.615 29.8337 71.2228 29.0808 71.2228 29.0808C71.2228 29.0808 68.615 28.3279 68.0675 28.3279C67.6568 28.3279 67.3078 28.5332 67.3078 29.0808Z" fill="#FEC50C"/>
<path d="M56.841 39.5462C56.2934 39.553 56.0881 39.8952 56.0881 40.3059C56.0881 40.8534 56.841 43.4612 56.841 43.4612C56.841 43.4612 57.5939 40.8534 57.5939 40.3059C57.5939 39.8952 57.3885 39.5462 56.841 39.5462Z" fill="#FEC50C"/>
<path d="M46.3761 29.0809C46.3692 28.5333 46.027 28.328 45.6163 28.328C45.0688 28.328 42.4611 29.0809 42.4611 29.0809C42.4611 29.0809 45.0688 29.8337 45.6163 29.8337C46.027 29.8337 46.3761 29.6284 46.3761 29.0809Z" fill="#FEC50C"/>
<path d="M60.8497 19.4122C61.3582 19.6154 61.6789 19.3778 61.836 18.9984C62.0456 18.4925 62.3479 15.7952 62.3479 15.7952C62.3479 15.7952 60.6544 17.9163 60.4449 18.4222C60.2877 18.8016 60.3438 19.2027 60.8497 19.4122Z" fill="#FEC50C"/>
<path d="M66.5128 33.0855C66.3096 33.594 66.5472 33.9147 66.9266 34.0719C67.4325 34.2814 70.1299 34.5838 70.1299 34.5838C70.1299 34.5838 68.0087 32.8902 67.5029 32.6807C67.1235 32.5236 66.7224 32.5797 66.5128 33.0855Z" fill="#FEC50C"/>
<path d="M52.8378 38.7494C52.3293 38.5462 52.0086 38.7838 51.8515 39.1632C51.6419 39.6691 51.3396 42.3664 51.3396 42.3664C51.3396 42.3664 53.0331 40.2453 53.2426 39.7394C53.3998 39.36 53.3437 38.959 52.8378 38.7494Z" fill="#FEC50C"/>
<path d="M47.1747 25.0761C47.3779 24.5676 47.1403 24.2469 46.7609 24.0898C46.255 23.8802 43.5576 23.5779 43.5576 23.5779C43.5576 23.5779 45.6788 25.2714 46.1846 25.4809C46.564 25.6381 46.9651 25.5819 47.1747 25.0761Z" fill="#FEC50C"/>
<path d="M64.2406 21.6811C64.6326 22.0634 65.0198 21.9666 65.3102 21.6762C65.6974 21.2891 67.0089 18.9127 67.0089 18.9127C67.0089 18.9127 64.6326 20.2243 64.2454 20.6115C63.9551 20.9019 63.8534 21.2939 64.2406 21.6811Z" fill="#FEC50C"/>
<path d="M64.2462 36.4808C63.8638 36.8729 63.9606 37.26 64.251 37.5504C64.6382 37.9376 67.0145 39.2492 67.0145 39.2492C67.0145 39.2492 65.7029 36.8729 65.3157 36.4857C65.0254 36.1953 64.6333 36.0937 64.2462 36.4808Z" fill="#FEC50C"/>
<path d="M49.443 36.4805C49.051 36.0982 48.6638 36.195 48.3734 36.4854C47.9862 36.8726 46.6747 39.2489 46.6747 39.2489C46.6747 39.2489 49.051 37.9373 49.4382 37.5501C49.7285 37.2597 49.8302 36.8677 49.443 36.4805Z" fill="#FEC50C"/>
<path d="M49.4374 21.681C49.8198 21.289 49.723 20.9018 49.4326 20.6114C49.0454 20.2243 46.6691 18.9127 46.6691 18.9127C46.6691 18.9127 47.9807 21.289 48.3678 21.6762C48.6582 21.9666 49.0503 22.0682 49.4374 21.681Z" fill="#FEC50C"/>
<path d="M66.507 25.0751C66.7229 25.5784 67.1177 25.6371 67.4971 25.48C68.0029 25.2704 70.1241 23.5769 70.1241 23.5769C70.1241 23.5769 67.4267 23.8793 66.9208 24.0888C66.5414 24.246 66.2975 24.5693 66.507 25.0751Z" fill="#FEC50C"/>
<path d="M60.8414 38.7487C60.3381 38.9646 60.2794 39.3594 60.4365 39.7388C60.6461 40.2446 62.3396 42.3658 62.3396 42.3658C62.3396 42.3658 62.0372 39.6684 61.8277 39.1625C61.6705 38.7831 61.3472 38.5392 60.8414 38.7487Z" fill="#FEC50C"/>
<path d="M47.1726 33.085C46.9568 32.5818 46.562 32.523 46.1826 32.6802C45.6767 32.8897 43.5556 34.5832 43.5556 34.5832C43.5556 34.5832 46.253 34.2809 46.7589 34.0713C47.1383 33.9142 47.3822 33.5909 47.1726 33.085Z" fill="#FEC50C"/>
<path d="M52.8383 19.4117C53.3416 19.1958 53.4003 18.801 53.2432 18.4216C53.0336 17.9158 51.3401 15.7946 51.3401 15.7946C51.3401 15.7946 51.6425 18.492 51.852 18.9979C52.0092 19.3773 52.3324 19.6212 52.8383 19.4117Z" fill="#FEC50C"/>
<path d="M58.881 18.815C59.4194 18.9152 59.6875 18.6196 59.7677 18.2168C59.8745 17.6798 59.6448 14.9753 59.6448 14.9753C59.6448 14.9753 58.3976 17.386 58.2908 17.923C58.2107 18.3258 58.344 18.7082 58.881 18.815Z" fill="#FEC50C"/>
<path d="M67.1033 31.1206C67.0032 31.659 67.2988 31.9272 67.7015 32.0073C68.2386 32.1141 70.9431 31.8844 70.9431 31.8844C70.9431 31.8844 68.5323 30.6373 67.9953 30.5304C67.5925 30.4503 67.2101 30.5836 67.1033 31.1206Z" fill="#FEC50C"/>
<path d="M54.795 39.3432C54.2566 39.243 53.9885 39.5386 53.9084 39.9414C53.8016 40.4784 54.0312 43.183 54.0312 43.183C54.0312 43.183 55.2784 40.7722 55.3852 40.2352C55.4653 39.8324 55.332 39.45 54.795 39.3432Z" fill="#FEC50C"/>
<path d="M46.5727 27.0376C46.6728 26.4992 46.3773 26.231 45.9745 26.1509C45.4374 26.0441 42.7329 26.2738 42.7329 26.2738C42.7329 26.2738 45.1437 27.521 45.6807 27.6278C46.0835 27.7079 46.4659 27.5746 46.5727 27.0376Z" fill="#FEC50C"/>
<path d="M62.6539 20.3791C63.113 20.6776 63.4739 20.5071 63.702 20.1657C64.0062 19.7104 64.829 17.1238 64.829 17.1238C64.829 17.1238 62.7542 18.8738 62.45 19.3291C62.2219 19.6706 62.1987 20.0749 62.6539 20.3791Z" fill="#FEC50C"/>
<path d="M65.5334 34.8948C65.2349 35.3539 65.4054 35.7147 65.7468 35.9429C66.2021 36.2471 68.7886 37.0699 68.7886 37.0699C68.7886 37.0699 67.0387 34.9951 66.5834 34.6909C66.2419 34.4627 65.8376 34.4395 65.5334 34.8948Z" fill="#FEC50C"/>
<path d="M51.0216 37.7821C50.5625 37.4835 50.2017 37.654 49.9735 37.9955C49.6693 38.4508 48.8465 41.0373 48.8465 41.0373C48.8465 41.0373 50.9213 39.2873 51.2255 38.832C51.4537 38.4906 51.4769 38.0863 51.0216 37.7821Z" fill="#FEC50C"/>
<path d="M48.1421 23.2666C48.4406 22.8075 48.2702 22.4467 47.9287 22.2185C47.4734 21.9143 44.8869 21.0915 44.8869 21.0915C44.8869 21.0915 46.6369 23.1663 47.0922 23.4705C47.4336 23.6987 47.8379 23.7219 48.1421 23.2666Z" fill="#FEC50C"/>
<path d="M65.5146 23.2649C65.8245 23.7164 66.2231 23.697 66.5646 23.4689C67.0199 23.1647 68.7698 21.0899 68.7698 21.0899C68.7698 21.0899 66.1833 21.9126 65.728 22.2169C65.3866 22.445 65.2104 22.8097 65.5146 23.2649Z" fill="#FEC50C"/>
<path d="M62.6286 37.7805C62.1771 38.0904 62.1965 38.489 62.4247 38.8305C62.7289 39.2857 64.8037 41.0357 64.8037 41.0357C64.8037 41.0357 63.9809 38.4492 63.6767 37.9939C63.4485 37.6524 63.0839 37.4763 62.6286 37.7805Z" fill="#FEC50C"/>
<path d="M48.1104 34.8933C47.8005 34.4418 47.4019 34.4612 47.0604 34.6893C46.6051 34.9935 44.8552 37.0683 44.8552 37.0683C44.8552 37.0683 47.4417 36.2456 47.897 35.9414C48.2384 35.7132 48.4146 35.3485 48.1104 34.8933Z" fill="#FEC50C"/>
<path d="M50.9964 20.3777C51.4479 20.0678 51.4285 19.6692 51.2003 19.3277C50.8961 18.8725 48.8213 17.1225 48.8213 17.1225C48.8213 17.1225 49.6441 19.709 49.9483 20.1643C50.1765 20.5058 50.5411 20.6819 50.9964 20.3777Z" fill="#FEC50C"/>
<path d="M67.104 27.0391C67.2175 27.5748 67.5932 27.7094 67.996 27.6293C68.533 27.5225 70.9438 26.2753 70.9438 26.2753C70.9438 26.2753 68.2392 26.0456 67.7022 26.1524C67.2994 26.2325 66.9971 26.502 67.104 27.0391Z" fill="#FEC50C"/>
<path d="M58.8845 39.3449C58.3488 39.4585 58.2142 39.8342 58.2943 40.2369C58.4011 40.774 59.6483 43.1847 59.6483 43.1847C59.6483 43.1847 59.878 40.4802 59.7712 39.9432C59.691 39.5404 59.4215 39.2381 58.8845 39.3449Z" fill="#FEC50C"/>
<path d="M46.5757 31.1226C46.4622 30.5869 46.0865 30.4522 45.6837 30.5323C45.1467 30.6392 42.7359 31.8863 42.7359 31.8863C42.7359 31.8863 45.4404 32.116 45.9775 32.0092C46.3802 31.9291 46.6826 31.6596 46.5757 31.1226Z" fill="#FEC50C"/>
<path d="M54.803 18.8169C55.3387 18.7034 55.4733 18.3277 55.3932 17.9249C55.2864 17.3879 54.0392 14.9771 54.0392 14.9771C54.0392 14.9771 53.8095 17.6817 53.9163 18.2187C53.9965 18.6215 54.266 18.9238 54.803 18.8169Z" fill="#FEC50C"/>
<path d="M55.2016 49.0298C54.9552 49.0435 54.7156 49.0754 54.4806 49.1507C54.1589 49.1941 53.8509 49.3058 53.5315 49.3583L53.4037 49.3789L53.1893 49.3994C53.203 49.4587 53.2121 49.518 53.2121 49.5773C53.2121 49.6389 53.2052 49.6982 53.1893 49.7485C53.1756 49.7964 53.1322 49.8556 53.098 49.8922C53.0524 49.9424 53.0045 49.9857 52.9474 50.0131C52.8927 50.0404 52.831 50.0519 52.7694 50.0565C52.7078 50.0587 52.644 50.0565 52.5846 50.0336C52.523 50.0131 52.466 49.9743 52.4135 49.9287C52.3497 49.9446 52.2835 49.956 52.2219 49.9629C52.158 49.9697 52.0987 49.9697 52.0417 49.9629C51.9778 49.9446 51.9116 49.9241 51.85 49.899C51.7884 49.874 51.7291 49.8419 51.6721 49.8055C51.4394 49.9424 51.1793 50.0724 51.0378 50.312C50.958 50.4215 50.942 50.5469 50.9238 50.677C50.9123 50.8367 50.9534 51.0055 51.0219 51.1538C51.047 51.1971 51.0675 50.9964 51.1451 50.969C51.2751 50.8618 51.4371 50.7842 51.6014 50.7409C51.7405 50.6701 51.7222 50.7454 51.6652 50.8549C51.6515 50.912 51.574 51.1287 51.6789 51.0192C52.1421 50.8139 52.6554 50.7728 53.1551 50.7341C53.8806 50.6588 54.6083 50.6428 55.3361 50.6336C56.0206 50.6428 56.705 50.6519 57.3894 50.677C57.7157 50.6861 58.0443 50.7591 58.3659 50.7043C58.4435 50.6838 58.5644 50.6793 58.6101 50.6336C58.464 50.5493 58.2929 50.5469 58.131 50.5264H56.8259C56.4632 50.4899 56.0845 50.4853 55.7423 50.3484C55.651 50.312 55.5666 50.2252 55.4798 50.3188C55.3498 50.3645 55.2107 50.3963 55.0738 50.4055C54.8342 50.4237 54.5947 50.3736 54.3734 50.2846C54.5331 50.0633 54.7247 49.8693 54.9004 49.664C54.7589 49.6412 54.622 49.6116 54.4806 49.5773C54.7293 49.4062 54.9597 49.2123 55.2016 49.0298V49.0298Z" fill="#FEC50C"/>
<path d="M65.8519 51.3942C65.356 51.6919 64.9775 51.1641 64.563 51.0058C64.267 51.1665 64.2393 51.7045 63.9628 51.9592C63.6318 52.3358 63.2263 51.854 63.2565 51.4825C62.8607 51.8161 62.6606 52.5723 62.0206 52.4712C61.7174 52.2238 61.4921 51.7046 61.2604 52.2957C61.0715 52.5847 60.5685 52.9959 60.308 52.5595C60.2273 52.1742 60.0342 51.7211 59.8245 52.3331C59.6807 52.766 59.2188 53.0845 58.7719 52.895C58.5273 52.695 58.968 51.9554 58.6567 52.0081C58.1912 52.3157 57.9207 53.0798 57.2712 53.0186C57.019 52.7355 57.4243 52.2558 57.1476 51.9416C56.8211 52.3607 56.4589 52.9744 55.894 53.0186C55.6211 52.7974 55.9048 52.163 55.7305 52.0691C55.1509 52.4166 54.5395 53.036 53.8106 52.8421C54.0946 51.7556 55.2815 51.3745 56.2796 51.2897C57.9968 51.0787 59.8034 51.4667 61.4556 50.8469C61.7226 50.6845 62.3694 50.4541 62.1391 50.0774C61.9351 49.7799 62.6697 49.8962 62.7403 49.5487C62.6966 49.1086 63.0776 49.1692 63.4497 49.1307C65.1181 49.0587 66.7662 49.4101 68.4296 49.4697C68.5552 50.2803 67.6562 50.8494 66.9323 50.5991C66.5865 50.6551 66.068 49.8041 66.1697 50.4232C66.1 50.7481 66.1488 51.1773 65.8519 51.3943M51.6565 49.7347C52.0427 50.0882 52.3136 49.6681 52.6746 49.5146C53.8855 49.0981 54.9421 48.3702 55.9836 47.643C56.6147 47.1208 57.1618 46.4435 58.0094 46.2741C59.6627 45.7743 61.4201 45.8349 63.0798 45.3736C64.3436 43.6433 66.4901 43.026 68.2882 42.0315C68.6919 41.906 68.8479 41.5737 68.9769 41.2069C69.6632 40.1234 70.5982 39.1633 71.704 38.5075C72.2272 38.2216 72.8514 38.057 73.4437 38.1877C73.4013 38.8932 72.9966 39.5184 72.508 40.0063C72.9078 39.9975 73.2515 39.7449 73.6556 39.7591C73.794 40.4831 73.0122 40.862 72.5962 41.3128C72.8279 41.3667 73.7155 41.4338 73.2318 41.6659C72.6154 42.0937 71.9116 42.3874 71.3426 42.8841C71.8675 42.9785 71.9274 43.09 71.3936 43.2799C71.1046 43.4758 70.5489 43.5442 70.4952 43.9258C70.8917 44.1695 70.3125 44.4116 70.0891 44.4908C69.6619 44.5903 69.2131 44.7759 69.7806 45.1005C69.566 45.4247 69.1054 45.4939 68.7296 45.4618C68.8436 45.8294 69.0087 46.2407 68.5316 46.4028C67.4623 47.2111 66.2073 47.7992 64.863 47.9337C66.5423 48.0628 68.272 47.7511 69.707 46.8378C69.8964 46.6138 70.8898 46.3731 70.3342 46.1847C70.0726 46.0759 69.5118 45.955 69.4738 45.7555C70.251 45.276 71.2304 45.4466 72.0665 45.1617C72.0881 44.891 71.4305 44.9663 71.1854 44.9047C70.6006 44.8568 70.6349 44.7076 71.1987 44.6523C71.912 44.4634 72.72 44.4262 73.32 43.9611C72.8314 43.7348 72.2169 43.934 71.6957 43.7492C72.5794 43.3625 73.6218 43.3237 74.4147 42.7428C74.7759 42.341 73.952 42.4666 73.712 42.4764C73.2226 42.5616 72.9963 42.3273 73.5524 42.1239C74.5017 41.424 75.7038 40.9693 76.3706 39.9545C76.5286 39.7273 76.7425 39.0428 76.2387 39.289C75.5761 39.5094 74.9931 40.2542 74.2382 40.0238C75.7257 38.8709 77.1411 37.5584 78.1578 35.963C78.2104 35.5028 77.4881 35.4531 77.3 35.8143C76.3444 36.7352 75.4794 37.8221 74.2558 38.3995C75.4277 37.2684 76.3965 35.9292 77.2418 34.5411C77.423 34.1283 77.9101 33.6318 77.6458 33.1734C77.2197 32.8207 76.6866 33.1435 76.4652 33.5656C75.7223 34.5354 75.1582 35.6674 74.2029 36.4574C75.0393 34.8612 75.9051 33.162 75.9263 31.3209C75.9237 30.9418 75.8476 30.3836 75.3329 30.4544C74.9248 30.5275 75.0217 31.1383 74.8535 31.4472C74.4832 32.705 74.3093 34.0671 73.5496 35.1685C73.7205 34.1464 74.0196 33.0809 73.79 32.0488C73.6828 31.5875 72.9379 31.786 73.0338 32.2425C72.1439 36.7502 69.1192 40.6926 65.1634 42.9732C63.3521 43.998 61.3289 44.6587 59.2706 44.9582C58.7169 45.0794 58.118 45.0083 57.5888 45.1971C56.3064 46.1804 55.53 47.8258 53.9064 48.3411C53.1787 48.7028 52.2297 48.7761 51.7094 49.4521C51.6644 49.5386 51.6547 49.6388 51.6564 49.7347" fill="#FEC50C"/>
<path d="M56.5218 45.1616C56.2822 45.5965 56.1412 46.0964 55.8332 46.4858C54.9064 45.6425 53.5629 45.6704 52.3873 45.6142C51.4169 45.5624 50.3617 45.4729 49.6109 44.7809C48.8212 44.1339 48.1765 43.294 47.294 42.7691C46.4884 42.5501 45.6764 42.276 45.0288 41.7239C43.6449 40.5958 42.8523 38.9219 41.4999 37.7587C41.2421 37.5049 40.9381 37.3082 40.6492 37.0929C40.3748 37.1598 40.499 37.7521 40.1632 37.4502C39.9804 37.3201 39.5233 37.3075 39.4821 37.4891C39.8956 38.0339 40.3095 38.656 40.3668 39.3529C40.0848 39.3818 39.5834 39.2933 39.4437 39.3983C39.8181 39.9596 40.2981 40.4574 40.8435 40.8537C40.5819 40.8957 40.0664 40.8728 39.9662 40.9782C40.5075 41.4194 41.088 41.8703 41.7969 41.9837C41.942 42.1749 41.5847 42.5442 41.8851 42.7075C42.0593 42.7787 42.6342 42.8978 42.2382 43.096C41.9665 43.2791 42.0673 43.7058 42.4148 43.6962C42.6345 43.8085 43.1278 43.8359 43.1664 44.0302C42.9717 44.2284 42.3658 44.4633 42.8815 44.649C43.3633 44.9162 43.9127 45.0897 44.4629 45.1087C44.1868 45.341 43.8466 45.4728 43.5624 45.6914C44.8321 46.4358 46.2395 46.9254 47.6303 47.3969C48.184 47.582 48.7442 47.7544 49.3181 47.8631C47.6503 47.7668 46.0382 47.273 44.5192 46.5972C43.7318 46.2519 42.9392 45.9182 42.1323 45.6208C42.4861 45.4367 42.8953 45.3917 43.2622 45.2324C42.5006 45.0798 41.6685 45.0298 40.999 44.6111C41.1017 44.428 41.4906 44.4193 41.7057 44.3261C42.1103 44.2292 42.3613 44.1116 41.7908 44.0764C41.2156 43.9203 40.5557 43.9904 40.0488 43.6433C40.0814 43.4352 40.612 43.5078 40.8281 43.4179C41.1002 43.3712 41.4027 43.332 41.6202 43.1489C40.7308 42.7802 39.5675 43.0415 38.8709 42.2561C38.7103 41.9568 39.3698 42.1979 39.5576 42.148C40.0349 42.148 40.5478 42.2997 41.0023 42.1073C39.7064 41.5383 38.3182 41.0057 37.3299 39.9533C37.2202 39.7841 36.8914 39.3219 37.1567 39.2647C37.9259 39.3665 38.4827 40.206 39.3055 40.0754C39.4148 39.928 38.8275 39.6865 38.6809 39.4759C37.4812 38.4465 36.3168 37.3292 35.476 35.9808C35.4182 35.5304 36.126 35.463 36.3124 35.8107C37.2299 36.6944 38.0587 37.7256 39.2014 38.3289C39.6069 38.5255 38.9686 38.0962 38.8836 37.9405C37.8277 36.7143 36.8225 35.4194 36.0845 33.9753C35.9524 33.7151 35.7336 33.2439 36.1288 33.1054C36.5239 32.9075 36.9159 33.1771 37.1163 33.5165C37.8926 34.4956 38.4638 35.6593 39.4309 36.4751C38.607 34.8763 37.7274 33.1933 37.7061 31.3535C37.7254 30.9969 37.7484 30.4574 38.232 30.4721C38.6381 30.4105 38.5739 30.9304 38.707 31.1783C39.1071 32.5299 39.2816 33.9928 40.0842 35.1861C39.907 34.1835 39.646 33.1509 39.8194 32.1316C39.8593 31.7969 40.2361 31.6957 40.482 31.898C40.6809 32.3846 40.7223 32.9856 40.9034 33.5058C41.9342 37.0321 44.2487 40.1334 47.2647 42.2147C49.7487 43.9183 52.6966 44.9353 55.7053 45.1127C55.977 45.1364 56.2499 45.1446 56.522 45.1613" fill="#FEC50C"/>
<path d="M52.6972 49.8367C52.7866 49.8367 52.8592 49.7642 52.8592 49.6747C52.8592 49.5852 52.7866 49.5127 52.6972 49.5127C52.6077 49.5127 52.5352 49.5852 52.5352 49.6747C52.5352 49.7642 52.6077 49.8367 52.6972 49.8367Z" fill="#FEC50C"/>
<path d="M52.6871 49.7146C52.7236 49.7146 52.7532 49.685 52.7532 49.6486C52.7532 49.6121 52.7236 49.5825 52.6871 49.5825C52.6507 49.5825 52.6211 49.6121 52.6211 49.6486C52.6211 49.685 52.6507 49.7146 52.6871 49.7146Z" fill="#FEC50C" stroke="#00AFCA" stroke-width="0.381"/>
<path d="M8.21585 5.35146C8.21585 5.35146 7.5581 4.78672 7.3347 5.07C6.97537 5.52558 8.43939 7.79494 8.43939 8.59407C8.43939 9.90585 7.58267 10.2625 6.5248 10.4499C5.81496 10.5756 4.65907 10.3973 4.65907 10.3973C4.87672 10.0985 5.01827 10.0105 5.38499 9.98661C4.97672 9.77005 4.56099 9.29992 4.56099 8.5682C4.56099 7.43971 5.01567 6.97455 5.01567 5.70236C5.01567 4.99658 4.44922 4.09814 4.44922 4.09814C5.45049 4.20052 5.94671 5.14769 5.66438 5.90466C5.82372 5.92808 5.96841 5.89137 6.09271 5.77109C6.16594 5.98088 6.05027 6.22443 5.89538 6.43429C6.02016 6.5024 6.1118 6.46156 6.31057 6.4196C6.29167 6.63582 6.16492 6.86546 5.85473 7.08168C6.75484 6.84287 7.30869 7.48383 7.30869 8.15486C7.30869 8.66169 6.96106 9.02497 6.62123 9.02497C6.51145 9.02497 6.35013 8.97875 6.25916 8.90931C6.19496 9.04881 6.22802 9.23552 6.29407 9.37503C6.04507 9.30775 5.88696 9.15664 5.99949 8.84211C5.80818 8.82413 5.65603 8.75812 5.55254 8.63232C5.6574 8.49506 5.81653 8.41604 5.99949 8.42247C5.8602 8.12877 6.01543 7.96444 6.24164 7.83116C6.24164 7.83116 6.09777 8.42247 6.46511 8.42247C6.63027 8.42247 6.78078 8.36751 6.78078 8.11878C6.78078 7.90221 6.5955 7.60222 6.16711 7.62131C5.73878 7.6404 5.39149 7.92305 5.39149 8.62169C5.39149 9.26615 5.90031 9.5867 6.57079 9.60739C7.17536 9.62648 7.63168 9.29188 7.63168 8.65463C7.63168 7.80655 6.43335 5.8734 6.43335 5.11769C6.43335 4.55058 6.93245 4.23408 7.4208 4.23408C8.05405 4.23408 8.58833 4.87469 8.58833 4.87469L8.21633 5.35125L8.21585 5.35146Z" fill="#FEC50C"/>
<path d="M8.35053 20.6809C8.35053 22.0984 7.10498 22.8269 6.12622 22.8269C4.80757 22.8269 4.10547 22.0214 4.10547 20.9669C4.10547 20.3692 4.21265 19.9942 4.48239 19.4221C4.48239 19.4221 6.65756 14.8005 7.50442 13.013C7.61003 12.7901 7.64411 12.5362 7.64411 12.1642C7.64411 11.5896 7.09861 11.12 6.52662 11.1056C6.00521 11.0923 5.43712 11.6022 5.43712 12.1833C5.43712 12.8891 5.7955 13.2038 6.16346 13.2038C6.61628 13.2038 6.7967 13.0136 6.7967 12.6887C6.7967 12.4624 6.68973 12.3645 6.53593 12.3645C6.14758 12.3645 6.25661 12.8986 6.25661 12.8986C6.06373 12.8555 5.90521 12.6541 5.99584 12.4026C5.84938 12.3695 5.71718 12.2893 5.61871 12.1737C5.72281 12.0706 5.84225 11.991 5.99584 11.9639C5.90487 11.6571 6.02643 11.5072 6.28919 11.4442C6.23614 11.5621 6.23436 11.6707 6.25195 11.7732C6.66556 11.653 7.29957 11.8442 7.29957 12.5743C7.29957 13.2991 6.80718 13.9094 5.88407 13.7569C6.10364 13.8642 6.21534 14.0837 6.23792 14.3291C6.07023 14.2624 5.88407 14.2529 5.88407 14.2529C5.992 14.4473 6.1419 14.6149 6.13546 14.9967C5.96435 14.9172 5.80535 14.77 5.58606 14.8631C5.93033 15.5553 5.50735 16.5073 4.43133 16.7325C4.82516 16.2609 5.01797 15.7516 5.01797 15.2447C5.01797 13.6016 4.57103 13.3255 4.57103 12.1832C4.57103 11.7053 4.81147 11.1892 5.28805 10.8385V10.8575C4.97307 10.7713 4.7713 10.6129 4.65528 10.3976C5.37498 10.189 6.42115 10.1929 6.9828 10.4187C7.62851 10.4951 8.07928 11.0012 8.21207 11.2581C8.34485 11.5147 8.60282 12.4436 8.21207 13.2798C7.78429 14.1951 5.76778 18.5636 5.13905 19.9368C5.00572 20.2281 4.92482 20.537 4.92482 20.8715C4.92482 21.7127 5.67907 22.0064 6.10754 22.0064C6.61971 22.0064 7.14118 21.6078 7.14118 21.1099C7.14118 20.7945 6.9735 20.6045 6.73141 20.6045C6.1525 20.6045 6.18769 21.1076 6.30308 21.4247C5.94279 21.2591 5.73335 20.9637 5.79091 20.6522C5.58695 20.6236 5.39277 20.5248 5.21358 20.3183C5.35458 20.1365 5.52651 19.999 5.79091 19.9941C5.67545 19.5107 5.99214 19.3063 6.30308 19.193C6.20473 19.5477 6.14018 19.956 6.73141 19.956C7.16261 19.956 7.50196 20.0323 7.6999 20.3184C7.71153 19.9369 7.74644 18.43 7.74644 18.43C7.77135 17.8637 7.00464 17.8799 6.51731 18.0485C6.70122 17.3963 7.07842 17.0436 7.95136 17.1329C7.73946 17.0424 7.51366 16.8387 7.51366 16.4462C7.5138 15.9153 7.93541 15.327 8.2122 15.1531L8.3506 20.681L8.35053 20.6809Z" fill="#FEC50C"/>
<path d="M8.35053 24.9326C8.35053 23.5152 7.10498 22.7867 6.12622 22.7867C4.80757 22.7867 4.10547 23.5922 4.10547 24.6466C4.10547 25.2443 4.21265 25.6194 4.48239 26.1914C4.48239 26.1914 6.65756 30.813 7.50442 32.6005C7.61003 32.8235 7.64411 33.0773 7.64411 33.4493C7.64411 34.0239 7.09861 34.4935 6.52662 34.5079C6.00521 34.5212 5.43712 34.0113 5.43712 33.4302C5.43712 32.7244 5.7955 32.4098 6.16346 32.4098C6.61628 32.4098 6.7967 32.6 6.7967 32.9248C6.7967 33.1511 6.68973 33.249 6.53593 33.249C6.14758 33.249 6.25661 32.7149 6.25661 32.7149C6.06373 32.7581 5.90521 32.9595 5.99584 33.2109C5.84938 33.244 5.71718 33.3242 5.61871 33.4398C5.72281 33.5429 5.84225 33.6225 5.99584 33.6496C5.90487 33.9564 6.02643 34.1063 6.28919 34.1694C6.23614 34.0514 6.23436 33.9428 6.25195 33.8403C6.66556 33.9606 7.29957 33.7693 7.29957 33.0393C7.29957 32.3145 6.80718 31.7041 5.88407 31.8566C6.10364 31.7494 6.21534 31.5299 6.23792 31.2844C6.07023 31.3511 5.88407 31.3606 5.88407 31.3606C5.992 31.1662 6.1419 30.9986 6.13546 30.6168C5.96435 30.6963 5.80535 30.8435 5.58606 30.7504C5.93033 30.0582 5.50735 29.1062 4.43133 28.881C4.82516 29.3527 5.01797 29.8619 5.01797 30.3689C5.01797 32.0119 4.57103 32.288 4.57103 33.4303C4.57103 33.9082 4.81147 34.4243 5.28805 34.7751V34.756C4.97307 34.8422 4.7713 35.0007 4.65528 35.216C5.37498 35.4245 6.42115 35.4206 6.9828 35.1948C7.62851 35.1184 8.07928 34.6123 8.21207 34.3554C8.34485 34.0988 8.60282 33.1699 8.21207 32.3337C7.78429 31.4185 5.76778 27.0499 5.13905 25.6767C5.00572 25.3855 4.92482 25.0765 4.92482 24.7421C4.92482 23.9008 5.67907 23.6071 6.10754 23.6071C6.61971 23.6071 7.14118 24.0057 7.14118 24.5036C7.14118 24.819 6.9735 25.009 6.73141 25.009C6.1525 25.009 6.18769 24.5059 6.30308 24.1889C5.94279 24.3544 5.73335 24.6498 5.79091 24.9613C5.58695 24.9899 5.39277 25.0888 5.21358 25.2952C5.35458 25.477 5.52651 25.6145 5.79091 25.6194C5.67545 26.1028 5.99214 26.3072 6.30308 26.4205C6.20473 26.0658 6.14018 25.6575 6.73141 25.6575C7.16261 25.6575 7.50196 25.5813 7.6999 25.2951C7.71153 25.6766 7.74644 27.1835 7.74644 27.1835C7.77135 27.7498 7.00464 27.7336 6.51731 27.565C6.70122 28.2173 7.07842 28.5699 7.95136 28.4806C7.73946 28.5712 7.51366 28.7749 7.51366 29.1673C7.5138 29.6982 7.93541 30.2865 8.2122 30.4604L8.3506 24.9325L8.35053 24.9326Z" fill="#FEC50C"/>
<path d="M8.20602 5.35146C8.20602 5.35146 8.86377 4.78672 9.08718 5.07C9.44651 5.52558 7.98248 7.79494 7.98248 8.59407C7.98248 9.90585 8.8392 10.2625 9.89708 10.4499C10.6069 10.5756 11.7628 10.3973 11.7628 10.3973C11.5452 10.0985 11.4036 10.0105 11.0369 9.98661C11.4452 9.77005 11.8609 9.29992 11.8609 8.5682C11.8609 7.43971 11.4062 6.97455 11.4062 5.70236C11.4062 4.99658 11.9727 4.09814 11.9727 4.09814C10.9714 4.20052 10.4752 5.14769 10.7575 5.90466C10.5982 5.92808 10.4535 5.89137 10.3292 5.77109C10.2559 5.98088 10.3716 6.22443 10.5265 6.43429C10.4017 6.5024 10.3101 6.46156 10.1113 6.4196C10.1302 6.63582 10.257 6.86546 10.5671 7.08168C9.66704 6.84287 9.11318 7.48383 9.11318 8.15486C9.11318 8.66169 9.46081 9.02497 9.80064 9.02497C9.91043 9.02497 10.0717 8.97875 10.1627 8.90931C10.2269 9.04881 10.1939 9.23552 10.1278 9.37503C10.3768 9.30775 10.5349 9.15664 10.4224 8.84211C10.6137 8.82413 10.7658 8.75812 10.8693 8.63232C10.7645 8.49506 10.6053 8.41604 10.4224 8.42247C10.5617 8.12877 10.4064 7.96444 10.1802 7.83116C10.1802 7.83116 10.3241 8.42247 9.95676 8.42247C9.79161 8.42247 9.6411 8.36751 9.6411 8.11878C9.6411 7.90221 9.82638 7.60222 10.2548 7.62131C10.6831 7.6404 11.0304 7.92305 11.0304 8.62169C11.0304 9.26615 10.5216 9.5867 9.85108 9.60739C9.24651 9.62648 8.7902 9.29188 8.7902 8.65463C8.7902 7.80655 9.98852 5.8734 9.98852 5.11769C9.98852 4.55058 9.48942 4.23408 9.00107 4.23408C8.36782 4.23408 7.83355 4.87469 7.83355 4.87469L8.20554 5.35125L8.20602 5.35146Z" fill="#FEC50C"/>
<path d="M8.07135 20.6809C8.07135 22.0984 9.3169 22.8269 10.2957 22.8269C11.6143 22.8269 12.3164 22.0214 12.3164 20.9669C12.3164 20.3692 12.2092 19.9942 11.9395 19.4221C11.9395 19.4221 9.76432 14.8005 8.91746 13.013C8.81185 12.7901 8.77776 12.5362 8.77776 12.1642C8.77776 11.5896 9.32326 11.12 9.89525 11.1056C10.4167 11.0923 10.9848 11.6022 10.9848 12.1833C10.9848 12.8891 10.6264 13.2038 10.2584 13.2038C9.80559 13.2038 9.62517 13.0136 9.62517 12.6887C9.62517 12.4624 9.73215 12.3645 9.88594 12.3645C10.2743 12.3645 10.1653 12.8986 10.1653 12.8986C10.3581 12.8555 10.5167 12.6541 10.426 12.4026C10.5725 12.3695 10.7047 12.2893 10.8032 12.1737C10.6991 12.0706 10.5796 11.991 10.426 11.9639C10.517 11.6571 10.3954 11.5072 10.1327 11.4442C10.1857 11.5621 10.1875 11.6707 10.1699 11.7732C9.75631 11.653 9.12231 11.8442 9.12231 12.5743C9.12231 13.2991 9.6147 13.9094 10.5378 13.7569C10.3182 13.8642 10.2065 14.0837 10.184 14.3291C10.3516 14.2624 10.5378 14.2529 10.5378 14.2529C10.4299 14.4473 10.28 14.6149 10.2864 14.9967C10.4575 14.9172 10.6165 14.77 10.8358 14.8631C10.4915 15.5553 10.9145 16.5073 11.9905 16.7325C11.5967 16.2609 11.4039 15.7516 11.4039 15.2447C11.4039 13.6016 11.8508 13.3255 11.8508 12.1832C11.8508 11.7053 11.6104 11.1892 11.1338 10.8385V10.8575C11.4488 10.7713 11.6506 10.6129 11.7666 10.3976C11.0469 10.189 10.0007 10.1929 9.43907 10.4187C8.79337 10.4951 8.34259 11.0012 8.20981 11.2581C8.07703 11.5147 7.81906 12.4436 8.20981 13.2798C8.63759 14.1951 10.6541 18.5636 11.2828 19.9368C11.4162 20.2281 11.4971 20.537 11.4971 20.8715C11.4971 21.7127 10.7428 22.0064 10.3143 22.0064C9.80217 22.0064 9.28069 21.6078 9.28069 21.1099C9.28069 20.7945 9.44838 20.6045 9.69047 20.6045C10.2694 20.6045 10.2342 21.1076 10.1188 21.4247C10.4791 21.2591 10.6885 20.9637 10.631 20.6522C10.8349 20.6236 11.0291 20.5248 11.2083 20.3183C11.0673 20.1365 10.8954 19.999 10.631 19.9941C10.7464 19.5107 10.4297 19.3063 10.1188 19.193C10.2171 19.5477 10.2817 19.956 9.69047 19.956C9.25927 19.956 8.91992 20.0323 8.72198 20.3184C8.71034 19.9369 8.67544 18.43 8.67544 18.43C8.65052 17.8637 9.41724 17.8799 9.90456 18.0485C9.72065 17.3963 9.34345 17.0436 8.47051 17.1329C8.68242 17.0424 8.90822 16.8387 8.90822 16.4462C8.90808 15.9153 8.48646 15.327 8.20967 15.1531L8.07128 20.681L8.07135 20.6809Z" fill="#FEC50C"/>
<path d="M8.07135 24.9326C8.07135 23.5152 9.3169 22.7867 10.2957 22.7867C11.6143 22.7867 12.3164 23.5922 12.3164 24.6466C12.3164 25.2443 12.2092 25.6194 11.9395 26.1914C11.9395 26.1914 9.76432 30.813 8.91746 32.6005C8.81185 32.8235 8.77776 33.0773 8.77776 33.4493C8.77776 34.0239 9.32326 34.4935 9.89525 34.5079C10.4167 34.5212 10.9848 34.0113 10.9848 33.4302C10.9848 32.7244 10.6264 32.4098 10.2584 32.4098C9.80559 32.4098 9.62517 32.6 9.62517 32.9248C9.62517 33.1511 9.73215 33.249 9.88594 33.249C10.2743 33.249 10.1653 32.7149 10.1653 32.7149C10.3581 32.7581 10.5167 32.9595 10.426 33.2109C10.5725 33.244 10.7047 33.3242 10.8032 33.4398C10.6991 33.5429 10.5796 33.6225 10.426 33.6496C10.517 33.9564 10.3954 34.1063 10.1327 34.1694C10.1857 34.0514 10.1875 33.9428 10.1699 33.8403C9.75631 33.9606 9.12231 33.7693 9.12231 33.0393C9.12231 32.3145 9.6147 31.7041 10.5378 31.8566C10.3182 31.7494 10.2065 31.5299 10.184 31.2844C10.3516 31.3511 10.5378 31.3606 10.5378 31.3606C10.4299 31.1662 10.28 30.9986 10.2864 30.6168C10.4575 30.6963 10.6165 30.8435 10.8358 30.7504C10.4915 30.0582 10.9145 29.1062 11.9905 28.881C11.5967 29.3527 11.4039 29.8619 11.4039 30.3689C11.4039 32.0119 11.8508 32.288 11.8508 33.4303C11.8508 33.9082 11.6104 34.4243 11.1338 34.7751V34.756C11.4488 34.8422 11.6506 35.0007 11.7666 35.216C11.0469 35.4245 10.0007 35.4206 9.43907 35.1948C8.79337 35.1184 8.34259 34.6123 8.20981 34.3554C8.07703 34.0988 7.81906 33.1699 8.20981 32.3337C8.63759 31.4185 10.6541 27.0499 11.2828 25.6767C11.4162 25.3855 11.4971 25.0765 11.4971 24.7421C11.4971 23.9008 10.7428 23.6071 10.3143 23.6071C9.80217 23.6071 9.28069 24.0057 9.28069 24.5036C9.28069 24.819 9.44838 25.009 9.69047 25.009C10.2694 25.009 10.2342 24.5059 10.1188 24.1889C10.4791 24.3544 10.6885 24.6498 10.631 24.9613C10.8349 24.9899 11.0291 25.0888 11.2083 25.2952C11.0673 25.477 10.8954 25.6145 10.631 25.6194C10.7464 26.1028 10.4297 26.3072 10.1188 26.4205C10.2171 26.0658 10.2817 25.6575 9.69047 25.6575C9.25927 25.6575 8.91992 25.5813 8.72198 25.2951C8.71034 25.6766 8.67544 27.1835 8.67544 27.1835C8.65052 27.7498 9.41724 27.7336 9.90456 27.565C9.72065 28.2173 9.34345 28.5699 8.47051 28.4806C8.68242 28.5712 8.90822 28.7749 8.90822 29.1673C8.90808 29.6982 8.48646 30.2865 8.20967 30.4604L8.07128 24.9325L8.07135 24.9326Z" fill="#FEC50C"/>
<path d="M8.21585 65.0807C8.21585 65.0807 7.5581 65.6454 7.3347 65.3621C6.97537 64.9066 8.43939 62.6372 8.43939 61.8381C8.43939 60.5263 7.58267 60.1696 6.5248 59.9822C5.81496 59.8565 4.65907 60.0348 4.65907 60.0348C4.87672 60.3336 5.01827 60.4217 5.38499 60.4455C4.97672 60.6621 4.56099 61.1322 4.56099 61.8639C4.56099 62.9924 5.01567 63.4576 5.01567 64.7298C5.01567 65.4356 4.44922 66.334 4.44922 66.334C5.45049 66.2316 5.94671 65.2844 5.66438 64.5275C5.82372 64.504 5.96841 64.5408 6.09271 64.661C6.16594 64.4513 6.05027 64.2077 5.89538 63.9978C6.02016 63.9297 6.1118 63.9706 6.31057 64.0125C6.29167 63.7963 6.16492 63.5667 5.85473 63.3505C6.75484 63.5893 7.30869 62.9483 7.30869 62.2773C7.30869 61.7704 6.96106 61.4072 6.62123 61.4072C6.51145 61.4072 6.35013 61.4534 6.25916 61.5228C6.19496 61.3833 6.22802 61.1966 6.29407 61.0571C6.04507 61.1244 5.88696 61.2755 5.99949 61.59C5.80818 61.608 5.65603 61.674 5.55254 61.7998C5.6574 61.9371 5.81653 62.0161 5.99949 62.0097C5.8602 62.3034 6.01543 62.4677 6.24164 62.601C6.24164 62.601 6.09777 62.0097 6.46511 62.0097C6.63027 62.0097 6.78078 62.0646 6.78078 62.3134C6.78078 62.5299 6.5955 62.8299 6.16711 62.8108C5.73878 62.7917 5.39149 62.5091 5.39149 61.8104C5.39149 61.166 5.90031 60.8454 6.57079 60.8247C7.17536 60.8056 7.63168 61.1402 7.63168 61.7775C7.63168 62.6256 6.43335 64.5587 6.43335 65.3144C6.43335 65.8816 6.93245 66.198 7.4208 66.198C8.05405 66.198 8.58833 65.5574 8.58833 65.5574L8.21633 65.0809L8.21585 65.0807Z" fill="#FEC50C"/>
<path d="M8.35053 49.7512C8.35053 48.3338 7.10498 47.6053 6.12622 47.6053C4.80757 47.6053 4.10547 48.4108 4.10547 49.4652C4.10547 50.0629 4.21265 50.438 4.48239 51.0101C4.48239 51.0101 6.65756 55.6316 7.50442 57.4191C7.61003 57.6421 7.64411 57.8959 7.64411 58.2679C7.64411 58.8425 7.09861 59.3121 6.52662 59.3265C6.00521 59.3398 5.43712 58.8299 5.43712 58.2488C5.43712 57.543 5.7955 57.2284 6.16346 57.2284C6.61628 57.2284 6.7967 57.4186 6.7967 57.7434C6.7967 57.9697 6.68973 58.0676 6.53593 58.0676C6.14758 58.0676 6.25661 57.5335 6.25661 57.5335C6.06373 57.5767 5.90521 57.7781 5.99584 58.0295C5.84938 58.0626 5.71718 58.1428 5.61871 58.2584C5.72281 58.3615 5.84225 58.4411 5.99584 58.4682C5.90487 58.775 6.02643 58.9249 6.28919 58.988C6.23614 58.87 6.23436 58.7614 6.25195 58.6589C6.66556 58.7792 7.29957 58.5879 7.29957 57.8579C7.29957 57.1331 6.80718 56.5227 5.88407 56.6752C6.10364 56.568 6.21534 56.3485 6.23792 56.103C6.07023 56.1697 5.88407 56.1792 5.88407 56.1792C5.992 55.9848 6.1419 55.8172 6.13546 55.4354C5.96435 55.5149 5.80535 55.6621 5.58606 55.569C5.93033 54.8768 5.50735 53.9248 4.43133 53.6996C4.82516 54.1713 5.01797 54.6805 5.01797 55.1875C5.01797 56.8305 4.57103 57.1066 4.57103 58.2489C4.57103 58.7268 4.81147 59.2429 5.28805 59.5937V59.5746C4.97307 59.6608 4.7713 59.8193 4.65528 60.0346C5.37498 60.2431 6.42115 60.2392 6.9828 60.0134C7.62851 59.937 8.07928 59.4309 8.21207 59.174C8.34485 58.9174 8.60282 57.9886 8.21207 57.1523C7.78429 56.2371 5.76778 51.8686 5.13905 50.4953C5.00572 50.2041 4.92482 49.8951 4.92482 49.5607C4.92482 48.7194 5.67907 48.4257 6.10754 48.4257C6.61971 48.4257 7.14118 48.8243 7.14118 49.3222C7.14118 49.6377 6.9735 49.8276 6.73141 49.8276C6.1525 49.8276 6.18769 49.3245 6.30308 49.0075C5.94279 49.173 5.73335 49.4684 5.79091 49.78C5.58695 49.8086 5.39277 49.9074 5.21358 50.1138C5.35458 50.2956 5.52651 50.4331 5.79091 50.438C5.67545 50.9214 5.99214 51.1258 6.30308 51.2391C6.20473 50.8844 6.14018 50.4762 6.73141 50.4762C7.16261 50.4762 7.50196 50.3999 7.6999 50.1137C7.71153 50.4952 7.74644 52.0021 7.74644 52.0021C7.77135 52.5684 7.00464 52.5522 6.51731 52.3836C6.70122 53.0359 7.07842 53.3885 7.95136 53.2992C7.73946 53.3898 7.51366 53.5935 7.51366 53.9859C7.5138 54.5169 7.93541 55.1051 8.2122 55.279L8.3506 49.7511L8.35053 49.7512Z" fill="#FEC50C"/>
<path d="M8.35053 45.4995C8.35053 46.917 7.10498 47.6455 6.12622 47.6455C4.80757 47.6455 4.10547 46.84 4.10547 45.7855C4.10547 45.1878 4.21265 44.8128 4.48239 44.2407C4.48239 44.2407 6.65756 39.6191 7.50442 37.8316C7.61003 37.6087 7.64411 37.3548 7.64411 36.9828C7.64411 36.4082 7.09861 35.9386 6.52662 35.9242C6.00521 35.9109 5.43712 36.4208 5.43712 37.0019C5.43712 37.7077 5.7955 38.0224 6.16346 38.0224C6.61628 38.0224 6.7967 37.8322 6.7967 37.5073C6.7967 37.281 6.68973 37.1831 6.53593 37.1831C6.14758 37.1831 6.25661 37.7172 6.25661 37.7172C6.06373 37.6741 5.90521 37.4727 5.99584 37.2212C5.84938 37.1881 5.71718 37.1079 5.61871 36.9923C5.72281 36.8892 5.84225 36.8096 5.99584 36.7825C5.90487 36.4757 6.02643 36.3258 6.28919 36.2628C6.23614 36.3807 6.23436 36.4893 6.25195 36.5918C6.66556 36.4716 7.29957 36.6628 7.29957 37.3929C7.29957 38.1177 6.80718 38.728 5.88407 38.5755C6.10364 38.6828 6.21534 38.9023 6.23792 39.1477C6.07023 39.081 5.88407 39.0715 5.88407 39.0715C5.992 39.2659 6.1419 39.4335 6.13546 39.8153C5.96435 39.7358 5.80535 39.5886 5.58606 39.6817C5.93033 40.3739 5.50735 41.3259 4.43133 41.5511C4.82516 41.0795 5.01797 40.5702 5.01797 40.0633C5.01797 38.4203 4.57103 38.1441 4.57103 37.0018C4.57103 36.5239 4.81147 36.0078 5.28805 35.6571V35.6762C4.97307 35.5899 4.7713 35.4315 4.65528 35.2162C5.37498 35.0076 6.42115 35.0115 6.9828 35.2373C7.62851 35.3137 8.07928 35.8198 8.21207 36.0767C8.34485 36.3333 8.60282 37.2622 8.21207 38.0984C7.78429 39.0137 5.76778 43.3822 5.13905 44.7554C5.00572 45.0467 4.92482 45.3556 4.92482 45.6901C4.92482 46.5313 5.67907 46.825 6.10754 46.825C6.61971 46.825 7.14118 46.4264 7.14118 45.9285C7.14118 45.6131 6.9735 45.4231 6.73141 45.4231C6.1525 45.4231 6.18769 45.9262 6.30308 46.2433C5.94279 46.0778 5.73335 45.7823 5.79091 45.4708C5.58695 45.4422 5.39277 45.3434 5.21358 45.1369C5.35458 44.9551 5.52651 44.8176 5.79091 44.8127C5.67545 44.3293 5.99214 44.125 6.30308 44.0116C6.20473 44.3663 6.14018 44.7746 6.73141 44.7746C7.16261 44.7746 7.50196 44.8509 7.6999 45.137C7.71153 44.7555 7.74644 43.2486 7.74644 43.2486C7.77135 42.6823 7.00464 42.6985 6.51731 42.8671C6.70122 42.2149 7.07842 41.8622 7.95136 41.9515C7.73946 41.861 7.51366 41.6573 7.51366 41.2648C7.5138 40.7339 7.93541 40.1456 8.2122 39.9717L8.3506 45.4996L8.35053 45.4995Z" fill="#FEC50C"/>
<path d="M8.20602 65.0807C8.20602 65.0807 8.86377 65.6454 9.08718 65.3621C9.44651 64.9066 7.98248 62.6372 7.98248 61.8381C7.98248 60.5263 8.8392 60.1696 9.89708 59.9822C10.6069 59.8565 11.7628 60.0348 11.7628 60.0348C11.5452 60.3336 11.4036 60.4217 11.0369 60.4455C11.4452 60.6621 11.8609 61.1322 11.8609 61.8639C11.8609 62.9924 11.4062 63.4576 11.4062 64.7298C11.4062 65.4356 11.9727 66.334 11.9727 66.334C10.9714 66.2316 10.4752 65.2844 10.7575 64.5275C10.5982 64.504 10.4535 64.5408 10.3292 64.661C10.2559 64.4513 10.3716 64.2077 10.5265 63.9978C10.4017 63.9297 10.3101 63.9706 10.1113 64.0125C10.1302 63.7963 10.257 63.5667 10.5671 63.3505C9.66704 63.5893 9.11318 62.9483 9.11318 62.2773C9.11318 61.7704 9.46081 61.4072 9.80064 61.4072C9.91043 61.4072 10.0717 61.4534 10.1627 61.5228C10.2269 61.3833 10.1939 61.1966 10.1278 61.0571C10.3768 61.1244 10.5349 61.2755 10.4224 61.59C10.6137 61.608 10.7658 61.674 10.8693 61.7998C10.7645 61.9371 10.6053 62.0161 10.4224 62.0097C10.5617 62.3034 10.4064 62.4677 10.1802 62.601C10.1802 62.601 10.3241 62.0097 9.95676 62.0097C9.79161 62.0097 9.6411 62.0646 9.6411 62.3134C9.6411 62.5299 9.82638 62.8299 10.2548 62.8108C10.6831 62.7917 11.0304 62.5091 11.0304 61.8104C11.0304 61.166 10.5216 60.8454 9.85108 60.8247C9.24651 60.8056 8.7902 61.1402 8.7902 61.7775C8.7902 62.6256 9.98852 64.5587 9.98852 65.3144C9.98852 65.8816 9.48942 66.198 9.00107 66.198C8.36782 66.198 7.83355 65.5574 7.83355 65.5574L8.20554 65.0809L8.20602 65.0807Z" fill="#FEC50C"/>
<path d="M8.07135 49.7512C8.07135 48.3338 9.3169 47.6053 10.2957 47.6053C11.6143 47.6053 12.3164 48.4108 12.3164 49.4652C12.3164 50.0629 12.2092 50.438 11.9395 51.0101C11.9395 51.0101 9.76432 55.6316 8.91746 57.4191C8.81185 57.6421 8.77776 57.8959 8.77776 58.2679C8.77776 58.8425 9.32326 59.3121 9.89525 59.3265C10.4167 59.3398 10.9848 58.8299 10.9848 58.2488C10.9848 57.543 10.6264 57.2284 10.2584 57.2284C9.80559 57.2284 9.62517 57.4186 9.62517 57.7434C9.62517 57.9697 9.73215 58.0676 9.88594 58.0676C10.2743 58.0676 10.1653 57.5335 10.1653 57.5335C10.3581 57.5767 10.5167 57.7781 10.426 58.0295C10.5725 58.0626 10.7047 58.1428 10.8032 58.2584C10.6991 58.3615 10.5796 58.4411 10.426 58.4682C10.517 58.775 10.3954 58.9249 10.1327 58.988C10.1857 58.87 10.1875 58.7614 10.1699 58.6589C9.75631 58.7792 9.12231 58.5879 9.12231 57.8579C9.12231 57.1331 9.6147 56.5227 10.5378 56.6752C10.3182 56.568 10.2065 56.3485 10.184 56.103C10.3516 56.1697 10.5378 56.1792 10.5378 56.1792C10.4299 55.9848 10.28 55.8172 10.2864 55.4354C10.4575 55.5149 10.6165 55.6621 10.8358 55.569C10.4915 54.8768 10.9145 53.9248 11.9905 53.6996C11.5967 54.1713 11.4039 54.6805 11.4039 55.1875C11.4039 56.8305 11.8508 57.1066 11.8508 58.2489C11.8508 58.7268 11.6104 59.2429 11.1338 59.5937V59.5746C11.4488 59.6608 11.6506 59.8193 11.7666 60.0346C11.0469 60.2431 10.0007 60.2392 9.43907 60.0134C8.79337 59.937 8.34259 59.4309 8.20981 59.174C8.07703 58.9174 7.81906 57.9886 8.20981 57.1523C8.63759 56.2371 10.6541 51.8686 11.2828 50.4953C11.4162 50.2041 11.4971 49.8951 11.4971 49.5607C11.4971 48.7194 10.7428 48.4257 10.3143 48.4257C9.80217 48.4257 9.28069 48.8243 9.28069 49.3222C9.28069 49.6377 9.44838 49.8276 9.69047 49.8276C10.2694 49.8276 10.2342 49.3245 10.1188 49.0075C10.4791 49.173 10.6885 49.4684 10.631 49.78C10.8349 49.8086 11.0291 49.9074 11.2083 50.1138C11.0673 50.2956 10.8954 50.4331 10.631 50.438C10.7464 50.9214 10.4297 51.1258 10.1188 51.2391C10.2171 50.8844 10.2817 50.4762 9.69047 50.4762C9.25927 50.4762 8.91992 50.3999 8.72198 50.1137C8.71034 50.4952 8.67544 52.0021 8.67544 52.0021C8.65052 52.5684 9.41724 52.5522 9.90456 52.3836C9.72065 53.0359 9.34345 53.3885 8.47051 53.2992C8.68242 53.3898 8.90822 53.5935 8.90822 53.9859C8.90808 54.5169 8.48646 55.1051 8.20967 55.279L8.07128 49.7511L8.07135 49.7512Z" fill="#FEC50C"/>
<path d="M8.07135 45.4995C8.07135 46.917 9.3169 47.6455 10.2957 47.6455C11.6143 47.6455 12.3164 46.84 12.3164 45.7855C12.3164 45.1878 12.2092 44.8128 11.9395 44.2407C11.9395 44.2407 9.76432 39.6191 8.91746 37.8316C8.81185 37.6087 8.77776 37.3548 8.77776 36.9828C8.77776 36.4082 9.32326 35.9386 9.89525 35.9242C10.4167 35.9109 10.9848 36.4208 10.9848 37.0019C10.9848 37.7077 10.6264 38.0224 10.2584 38.0224C9.80559 38.0224 9.62517 37.8322 9.62517 37.5073C9.62517 37.281 9.73215 37.1831 9.88594 37.1831C10.2743 37.1831 10.1653 37.7172 10.1653 37.7172C10.3581 37.6741 10.5167 37.4727 10.426 37.2212C10.5725 37.1881 10.7047 37.1079 10.8032 36.9923C10.6991 36.8892 10.5796 36.8096 10.426 36.7825C10.517 36.4757 10.3954 36.3258 10.1327 36.2628C10.1857 36.3807 10.1875 36.4893 10.1699 36.5918C9.75631 36.4716 9.12231 36.6628 9.12231 37.3929C9.12231 38.1177 9.6147 38.728 10.5378 38.5755C10.3182 38.6828 10.2065 38.9023 10.184 39.1477C10.3516 39.081 10.5378 39.0715 10.5378 39.0715C10.4299 39.2659 10.28 39.4335 10.2864 39.8153C10.4575 39.7358 10.6165 39.5886 10.8358 39.6817C10.4915 40.3739 10.9145 41.3259 11.9905 41.5511C11.5967 41.0795 11.4039 40.5702 11.4039 40.0633C11.4039 38.4203 11.8508 38.1441 11.8508 37.0018C11.8508 36.5239 11.6104 36.0078 11.1338 35.6571V35.6762C11.4488 35.5899 11.6506 35.4315 11.7666 35.2162C11.0469 35.0076 10.0007 35.0115 9.43907 35.2373C8.79337 35.3137 8.34259 35.8198 8.20981 36.0767C8.07703 36.3333 7.81906 37.2622 8.20981 38.0984C8.63759 39.0137 10.6541 43.3822 11.2828 44.7554C11.4162 45.0467 11.4971 45.3556 11.4971 45.6901C11.4971 46.5313 10.7428 46.825 10.3143 46.825C9.80217 46.825 9.28069 46.4264 9.28069 45.9285C9.28069 45.6131 9.44838 45.4231 9.69047 45.4231C10.2694 45.4231 10.2342 45.9262 10.1188 46.2433C10.4791 46.0778 10.6885 45.7823 10.631 45.4708C10.8349 45.4422 11.0291 45.3434 11.2083 45.1369C11.0673 44.9551 10.8954 44.8176 10.631 44.8127C10.7464 44.3293 10.4297 44.125 10.1188 44.0116C10.2171 44.3663 10.2817 44.7746 9.69047 44.7746C9.25927 44.7746 8.91992 44.8509 8.72198 45.137C8.71034 44.7555 8.67544 43.2486 8.67544 43.2486C8.65052 42.6823 9.41724 42.6985 9.90456 42.8671C9.72065 42.2149 9.34345 41.8622 8.47051 41.9515C8.68242 41.861 8.90822 41.6573 8.90822 41.2648C8.90808 40.7339 8.48646 40.1456 8.20967 39.9717L8.07128 45.4996L8.07135 45.4995Z" fill="#FEC50C"/>
</g>
<defs>
<clipPath id="clip0_224_968">
<rect width="110" height="73.3333" fill="white" transform="translate(0 0.333984)"/>
</clipPath>
</defs>
</svg>
