<svg width="45" height="31" viewBox="0 0 45 31" fill="none" xmlns="http://www.w3.org/2000/svg">
<g clip-path="url(#clip0_224_2175)">
<path d="M45 0.799805H0V30.4998H45V0.799805Z" fill="#002B7F"/>
<path d="M45 15.6499H0V30.4999H45V15.6499Z" fill="#CE1126"/>
<path d="M9.73392 6.85316L9.65119 9.94691H6.79733C6.44622 9.19608 6.15625 8.55837 6.15625 7.69484C6.15625 6.97216 6.67299 6.39819 7.41774 6.39819C8.20613 6.39819 9.07233 6.69042 9.73392 6.85316Z" fill="#FFD83D"/>
<path d="M6.5 6.99512V8.78085Z" fill="#FFD83D"/>
<path d="M6.5 6.99512V8.78085" stroke="black" stroke-width="1.35" stroke-linecap="round" stroke-linejoin="round"/>
<path d="M6.72656 6.81299V9.19067Z" fill="#FFD83D"/>
<path d="M6.72656 6.81299V9.19067" stroke="black" stroke-width="1.35" stroke-linecap="round" stroke-linejoin="round"/>
<path d="M6.95703 6.68799V9.52063Z" fill="#FFD83D"/>
<path d="M6.95703 6.68799V9.52063" stroke="black" stroke-width="1.35" stroke-linecap="round" stroke-linejoin="round"/>
<path d="M7.1875 6.62939V8.85101Z" fill="#FFD83D"/>
<path d="M7.1875 6.62939V8.85101" stroke="black" stroke-width="1.35" stroke-linecap="round" stroke-linejoin="round"/>
<path d="M7.41797 6.61841V8.86207Z" fill="#FFD83D"/>
<path d="M7.41797 6.61841V8.86207" stroke="black" stroke-width="1.35" stroke-linecap="round" stroke-linejoin="round"/>
<path d="M7.64453 6.54004V8.86085Z" fill="#FFD83D"/>
<path d="M7.64453 6.54004V8.86085" stroke="black" stroke-width="1.35" stroke-linecap="round" stroke-linejoin="round"/>
<path d="M7.875 6.54004V8.86085Z" fill="#FFD83D"/>
<path d="M7.875 6.54004V8.86085" stroke="black" stroke-width="1.35" stroke-linecap="round" stroke-linejoin="round"/>
<path d="M8.10156 6.56274V8.88356Z" fill="#FFD83D"/>
<path d="M8.10156 6.56274V8.88356" stroke="black" stroke-width="1.35" stroke-linecap="round" stroke-linejoin="round"/>
<path d="M8.33594 6.58545V8.90626Z" fill="#FFD83D"/>
<path d="M8.33594 6.58545V8.90626" stroke="black" stroke-width="1.35" stroke-linecap="round" stroke-linejoin="round"/>
<path d="M8.5625 6.7334V9.05421Z" fill="#FFD83D"/>
<path d="M8.5625 6.7334V9.05421" stroke="black" stroke-width="1.35" stroke-linecap="round" stroke-linejoin="round"/>
<path d="M8.78906 6.7561V9.37264Z" fill="#FFD83D"/>
<path d="M8.78906 6.7561V9.37264" stroke="black" stroke-width="1.35" stroke-linecap="round" stroke-linejoin="round"/>
<path d="M9.01953 6.7561V9.07692Z" fill="#FFD83D"/>
<path d="M9.01953 6.7561V9.07692" stroke="black" stroke-width="1.35" stroke-linecap="round" stroke-linejoin="round"/>
<path d="M9.25 6.7561V9.07692Z" fill="#FFD83D"/>
<path d="M9.25 6.7561V9.07692" stroke="black" stroke-width="1.35" stroke-linecap="round" stroke-linejoin="round"/>
<path d="M7.93589 6.63696C8.42025 6.72485 9.48416 7.2724 9.36282 8.01323C9.19086 9.06309 8.63347 8.64176 7.89453 8.49094L7.33617 8.69567C7.13637 8.92 6.84217 9.12551 6.64338 8.85491H6.3125V10.2767H9.97289V6.8417L7.93589 6.63696Z" fill="black" stroke="black" stroke-width="1.35" stroke-linecap="round" stroke-linejoin="round"/>
<path d="M9.57387 6.63704C9.69665 6.63704 9.79619 6.52755 9.79619 6.39249C9.79619 6.25743 9.69665 6.14795 9.57387 6.14795C9.45109 6.14795 9.35156 6.25743 9.35156 6.39249C9.35156 6.52755 9.45109 6.63704 9.57387 6.63704Z" fill="#FFD83D" stroke="black" stroke-width="1.8" stroke-linecap="round" stroke-linejoin="round"/>
<path d="M9.07387 6.50471C9.19665 6.50471 9.29619 6.39522 9.29619 6.26017C9.29619 6.12511 9.19665 6.01562 9.07387 6.01562C8.95109 6.01562 8.85156 6.12511 8.85156 6.26017C8.85156 6.39522 8.95109 6.50471 9.07387 6.50471Z" fill="#FFD83D" stroke="black" stroke-width="1.8" stroke-linecap="round" stroke-linejoin="round"/>
<path d="M8.56606 6.36457C8.68884 6.36457 8.78837 6.25509 8.78837 6.12003C8.78837 5.98497 8.68884 5.87549 8.56606 5.87549C8.44328 5.87549 8.34375 5.98497 8.34375 6.12003C8.34375 6.25509 8.44328 6.36457 8.56606 6.36457Z" fill="#FFD83D" stroke="black" stroke-width="1.8" stroke-linecap="round" stroke-linejoin="round"/>
<path d="M8.05825 6.27131C8.18103 6.27131 8.28056 6.16183 8.28056 6.02677C8.28056 5.89171 8.18103 5.78223 8.05825 5.78223C7.93547 5.78223 7.83594 5.89171 7.83594 6.02677C7.83594 6.16183 7.93547 6.27131 8.05825 6.27131Z" fill="#FFD83D" stroke="black" stroke-width="1.8" stroke-linecap="round" stroke-linejoin="round"/>
<path d="M7.55044 6.21614C7.67322 6.21614 7.77275 6.10665 7.77275 5.97159C7.77275 5.83654 7.67322 5.72705 7.55044 5.72705C7.42766 5.72705 7.32812 5.83654 7.32812 5.97159C7.32812 6.10665 7.42766 6.21614 7.55044 6.21614Z" fill="#FFD83D" stroke="black" stroke-width="1.8" stroke-linecap="round" stroke-linejoin="round"/>
<path d="M7.05044 6.24739C7.17322 6.24739 7.27275 6.1379 7.27275 6.00284C7.27275 5.86779 7.17322 5.7583 7.05044 5.7583C6.92766 5.7583 6.82812 5.86779 6.82812 6.00284C6.82812 6.1379 6.92766 6.24739 7.05044 6.24739Z" fill="#FFD83D" stroke="black" stroke-width="1.8" stroke-linecap="round" stroke-linejoin="round"/>
<path d="M6.57778 6.42659C6.70056 6.42659 6.80009 6.3171 6.80009 6.18204C6.80009 6.04699 6.70056 5.9375 6.57778 5.9375C6.455 5.9375 6.35547 6.04699 6.35547 6.18204C6.35547 6.3171 6.455 6.42659 6.57778 6.42659Z" fill="#FFD83D" stroke="black" stroke-width="1.8" stroke-linecap="round" stroke-linejoin="round"/>
<path d="M6.17544 6.7508C6.29822 6.7508 6.39775 6.64132 6.39775 6.50626C6.39775 6.3712 6.29822 6.26172 6.17544 6.26172C6.05266 6.26172 5.95312 6.3712 5.95312 6.50626C5.95312 6.64132 6.05266 6.7508 6.17544 6.7508Z" fill="#FFD83D" stroke="black" stroke-width="1.8" stroke-linecap="round" stroke-linejoin="round"/>
<path d="M5.89028 7.20271C6.01306 7.20271 6.11259 7.09322 6.11259 6.95817C6.11259 6.82311 6.01306 6.71362 5.89028 6.71362C5.7675 6.71362 5.66797 6.82311 5.66797 6.95817C5.66797 7.09322 5.7675 7.20271 5.89028 7.20271Z" fill="#FFD83D" stroke="black" stroke-width="1.8" stroke-linecap="round" stroke-linejoin="round"/>
<path d="M5.75356 7.73445C5.87634 7.73445 5.97587 7.62496 5.97587 7.4899C5.97587 7.35485 5.87634 7.24536 5.75356 7.24536C5.63078 7.24536 5.53125 7.35485 5.53125 7.4899C5.53125 7.62496 5.63078 7.73445 5.75356 7.73445Z" fill="#FFD83D" stroke="black" stroke-width="1.8" stroke-linecap="round" stroke-linejoin="round"/>
<path d="M5.75747 8.28621C5.88025 8.28621 5.97978 8.17672 5.97978 8.04166C5.97978 7.9066 5.88025 7.79712 5.75747 7.79712C5.63469 7.79712 5.53516 7.9066 5.53516 8.04166C5.53516 8.17672 5.63469 8.28621 5.75747 8.28621Z" fill="#FFD83D" stroke="black" stroke-width="1.8" stroke-linecap="round" stroke-linejoin="round"/>
<path d="M5.85512 8.82649C5.9779 8.82649 6.07744 8.717 6.07744 8.58195C6.07744 8.44689 5.9779 8.3374 5.85512 8.3374C5.73234 8.3374 5.63281 8.44689 5.63281 8.58195C5.63281 8.717 5.73234 8.82649 5.85512 8.82649Z" fill="#FFD83D" stroke="black" stroke-width="1.8" stroke-linecap="round" stroke-linejoin="round"/>
<path d="M9.67211 6.71668L9.65142 7.03516C9.09833 6.94194 8.31425 6.60294 7.58341 6.60294C6.90812 6.60294 6.38396 6.90007 6.38396 7.64936C6.38396 8.38782 6.66826 9.05938 7.04573 9.74219L6.6528 9.94692C6.30169 9.19609 6.01172 8.55838 6.01172 7.69485C6.01172 6.97217 6.52846 6.26172 7.41797 6.26172C8.20636 6.26172 9.01052 6.55395 9.67211 6.71668Z" fill="#FFD83D" stroke="black" stroke-width="1.8" stroke-linecap="round" stroke-linejoin="round"/>
<path d="M10.2387 6.85316L10.3215 9.94691H13.1753C13.5264 9.19608 13.8164 8.55837 13.8164 7.69484C13.8164 6.97216 13.2997 6.39819 12.5549 6.39819C11.7665 6.39819 10.9003 6.69042 10.2387 6.85316Z" fill="#FFD83D"/>
<path d="M13.4766 6.99512V8.78085Z" fill="#FFD83D"/>
<path d="M13.4766 6.99512V8.78085" stroke="black" stroke-width="1.35" stroke-linecap="round" stroke-linejoin="round"/>
<path d="M13.25 6.81299V9.19067Z" fill="#FFD83D"/>
<path d="M13.25 6.81299V9.19067" stroke="black" stroke-width="1.35" stroke-linecap="round" stroke-linejoin="round"/>
<path d="M13.0195 6.68799V9.52063Z" fill="#FFD83D"/>
<path d="M13.0195 6.68799V9.52063" stroke="black" stroke-width="1.35" stroke-linecap="round" stroke-linejoin="round"/>
<path d="M12.7891 6.62939V8.85101Z" fill="#FFD83D"/>
<path d="M12.7891 6.62939V8.85101" stroke="black" stroke-width="1.35" stroke-linecap="round" stroke-linejoin="round"/>
<path d="M12.5586 6.61841V8.86207Z" fill="#FFD83D"/>
<path d="M12.5586 6.61841V8.86207" stroke="black" stroke-width="1.35" stroke-linecap="round" stroke-linejoin="round"/>
<path d="M12.332 6.54004V8.86085Z" fill="#FFD83D"/>
<path d="M12.332 6.54004V8.86085" stroke="black" stroke-width="1.35" stroke-linecap="round" stroke-linejoin="round"/>
<path d="M12.1016 6.54004V8.86085Z" fill="#FFD83D"/>
<path d="M12.1016 6.54004V8.86085" stroke="black" stroke-width="1.35" stroke-linecap="round" stroke-linejoin="round"/>
<path d="M11.875 6.56274V8.88356Z" fill="#FFD83D"/>
<path d="M11.875 6.56274V8.88356" stroke="black" stroke-width="1.35" stroke-linecap="round" stroke-linejoin="round"/>
<path d="M11.6406 6.58545V8.90626Z" fill="#FFD83D"/>
<path d="M11.6406 6.58545V8.90626" stroke="black" stroke-width="1.35" stroke-linecap="round" stroke-linejoin="round"/>
<path d="M11.4141 6.7334V9.05421Z" fill="#FFD83D"/>
<path d="M11.4141 6.7334V9.05421" stroke="black" stroke-width="1.35" stroke-linecap="round" stroke-linejoin="round"/>
<path d="M11.1875 6.7561V9.37264Z" fill="#FFD83D"/>
<path d="M11.1875 6.7561V9.37264" stroke="black" stroke-width="1.35" stroke-linecap="round" stroke-linejoin="round"/>
<path d="M10.957 6.7561V9.07692Z" fill="#FFD83D"/>
<path d="M10.957 6.7561V9.07692" stroke="black" stroke-width="1.35" stroke-linecap="round" stroke-linejoin="round"/>
<path d="M10.7266 6.7561V9.07692Z" fill="#FFD83D"/>
<path d="M10.7266 6.7561V9.07692" stroke="black" stroke-width="1.35" stroke-linecap="round" stroke-linejoin="round"/>
<path d="M12.0407 6.63696C11.5563 6.72485 10.4924 7.2724 10.6137 8.01323C10.7857 9.06309 11.3431 8.64176 12.082 8.49094L12.6404 8.69567C12.8402 8.92 13.1344 9.12551 13.3332 8.85491H13.6641V10.2767H10.0037V6.8417L12.0407 6.63696Z" fill="black" stroke="black" stroke-width="1.35" stroke-linecap="round" stroke-linejoin="round"/>
<path d="M10.3988 6.63704C10.276 6.63704 10.1765 6.52755 10.1765 6.39249C10.1765 6.25743 10.276 6.14795 10.3988 6.14795C10.5216 6.14795 10.6211 6.25743 10.6211 6.39249C10.6211 6.52755 10.5216 6.63704 10.3988 6.63704Z" fill="#FFD83D" stroke="black" stroke-width="1.8" stroke-linecap="round" stroke-linejoin="round"/>
<path d="M10.8949 6.50471C10.7721 6.50471 10.6726 6.39522 10.6726 6.26017C10.6726 6.12511 10.7721 6.01562 10.8949 6.01562C11.0177 6.01562 11.1172 6.12511 11.1172 6.26017C11.1172 6.39522 11.0177 6.50471 10.8949 6.50471Z" fill="#FFD83D" stroke="black" stroke-width="1.8" stroke-linecap="round" stroke-linejoin="round"/>
<path d="M11.4066 6.36457C11.2838 6.36457 11.1843 6.25509 11.1843 6.12003C11.1843 5.98497 11.2838 5.87549 11.4066 5.87549C11.5294 5.87549 11.6289 5.98497 11.6289 6.12003C11.6289 6.25509 11.5294 6.36457 11.4066 6.36457Z" fill="#FFD83D" stroke="black" stroke-width="1.8" stroke-linecap="round" stroke-linejoin="round"/>
<path d="M11.9144 6.27131C11.7916 6.27131 11.6921 6.16183 11.6921 6.02677C11.6921 5.89171 11.7916 5.78223 11.9144 5.78223C12.0372 5.78223 12.1367 5.89171 12.1367 6.02677C12.1367 6.16183 12.0372 6.27131 11.9144 6.27131Z" fill="#FFD83D" stroke="black" stroke-width="1.8" stroke-linecap="round" stroke-linejoin="round"/>
<path d="M12.4222 6.21614C12.2994 6.21614 12.1999 6.10665 12.1999 5.97159C12.1999 5.83654 12.2994 5.72705 12.4222 5.72705C12.545 5.72705 12.6445 5.83654 12.6445 5.97159C12.6445 6.10665 12.545 6.21614 12.4222 6.21614Z" fill="#FFD83D" stroke="black" stroke-width="1.8" stroke-linecap="round" stroke-linejoin="round"/>
<path d="M12.9222 6.24739C12.7994 6.24739 12.6999 6.1379 12.6999 6.00284C12.6999 5.86779 12.7994 5.7583 12.9222 5.7583C13.045 5.7583 13.1445 5.86779 13.1445 6.00284C13.1445 6.1379 13.045 6.24739 12.9222 6.24739Z" fill="#FFD83D" stroke="black" stroke-width="1.8" stroke-linecap="round" stroke-linejoin="round"/>
<path d="M13.3949 6.42659C13.2721 6.42659 13.1726 6.3171 13.1726 6.18204C13.1726 6.04699 13.2721 5.9375 13.3949 5.9375C13.5177 5.9375 13.6172 6.04699 13.6172 6.18204C13.6172 6.3171 13.5177 6.42659 13.3949 6.42659Z" fill="#FFD83D" stroke="black" stroke-width="1.8" stroke-linecap="round" stroke-linejoin="round"/>
<path d="M13.7972 6.7508C13.6744 6.7508 13.5749 6.64132 13.5749 6.50626C13.5749 6.3712 13.6744 6.26172 13.7972 6.26172C13.92 6.26172 14.0195 6.3712 14.0195 6.50626C14.0195 6.64132 13.92 6.7508 13.7972 6.7508Z" fill="#FFD83D" stroke="black" stroke-width="1.8" stroke-linecap="round" stroke-linejoin="round"/>
<path d="M14.0824 7.20271C13.9596 7.20271 13.8601 7.09322 13.8601 6.95817C13.8601 6.82311 13.9596 6.71362 14.0824 6.71362C14.2052 6.71362 14.3047 6.82311 14.3047 6.95817C14.3047 7.09322 14.2052 7.20271 14.0824 7.20271Z" fill="#FFD83D" stroke="black" stroke-width="1.8" stroke-linecap="round" stroke-linejoin="round"/>
<path d="M14.2191 7.73445C14.0963 7.73445 13.9968 7.62496 13.9968 7.4899C13.9968 7.35485 14.0963 7.24536 14.2191 7.24536C14.3419 7.24536 14.4414 7.35485 14.4414 7.4899C14.4414 7.62496 14.3419 7.73445 14.2191 7.73445Z" fill="#FFD83D" stroke="black" stroke-width="1.8" stroke-linecap="round" stroke-linejoin="round"/>
<path d="M14.2152 8.28621C14.0924 8.28621 13.9929 8.17672 13.9929 8.04166C13.9929 7.9066 14.0924 7.79712 14.2152 7.79712C14.338 7.79712 14.4375 7.9066 14.4375 8.04166C14.4375 8.17672 14.338 8.28621 14.2152 8.28621Z" fill="#FFD83D" stroke="black" stroke-width="1.8" stroke-linecap="round" stroke-linejoin="round"/>
<path d="M14.1175 8.82649C13.9948 8.82649 13.8952 8.717 13.8952 8.58195C13.8952 8.44689 13.9948 8.3374 14.1175 8.3374C14.2403 8.3374 14.3398 8.44689 14.3398 8.58195C14.3398 8.717 14.2403 8.82649 14.1175 8.82649Z" fill="#FFD83D" stroke="black" stroke-width="1.8" stroke-linecap="round" stroke-linejoin="round"/>
<path d="M10.3006 6.71668L10.3212 7.03516C10.8743 6.94194 11.6584 6.60294 12.3892 6.60294C13.0645 6.60294 13.5887 6.90007 13.5887 7.64936C13.5887 8.38782 13.3044 9.05938 12.9269 9.74219L13.3199 9.94692C13.671 9.19609 13.9609 8.55838 13.9609 7.69485C13.9609 6.97217 13.4442 6.26172 12.5547 6.26172C11.7663 6.26172 10.9621 6.55395 10.3006 6.71668Z" fill="#FFD83D" stroke="black" stroke-width="1.8" stroke-linecap="round" stroke-linejoin="round"/>
<path d="M9.98594 3.42944L9.75391 3.90743L9.98594 4.38387L10.218 3.90743L9.98594 3.42944ZM9.98594 4.63601L9.75391 5.11244L9.98594 5.59043L10.218 5.11244L9.98594 4.63601Z" fill="#FFD83D" stroke="black" stroke-width="1.8" stroke-linecap="round" stroke-linejoin="round"/>
<path d="M9.16016 4.50987L9.52607 4.76511L9.89081 4.50987L9.52607 4.25464L9.16016 4.50987ZM10.0838 4.50987L10.4486 4.76511L10.8145 4.50987L10.4486 4.25464L10.0838 4.50987Z" fill="#FFD83D" stroke="black" stroke-width="1.8" stroke-linecap="round" stroke-linejoin="round"/>
<path d="M9.98438 4.70898C10.0815 4.70898 10.1602 4.62241 10.1602 4.51562C10.1602 4.40884 10.0815 4.32227 9.98438 4.32227C9.88729 4.32227 9.80859 4.40884 9.80859 4.51562C9.80859 4.62241 9.88729 4.70898 9.98438 4.70898Z" fill="#FFD83D" stroke="black" stroke-width="1.8" stroke-linecap="round" stroke-linejoin="round"/>
<path d="M9.9861 6.26722C10.2459 6.26722 10.4566 6.03552 10.4566 5.7497C10.4566 5.46388 10.2459 5.23218 9.9861 5.23218C9.72626 5.23218 9.51562 5.46388 9.51562 5.7497C9.51562 6.03552 9.72626 6.26722 9.9861 6.26722Z" fill="#FFD83D" stroke="black" stroke-width="1.8" stroke-linecap="round" stroke-linejoin="round"/>
<path d="M9.86484 5.24854C9.86484 5.4027 9.86385 5.49228 9.86344 5.57647C9.75002 5.58201 9.63818 5.59512 9.52875 5.61514M10.4372 5.61514C10.3278 5.59512 10.2159 5.58201 10.1025 5.57647C10.1025 5.4924 10.1025 5.40308 10.1025 5.24854M9.52734 5.87657C9.67561 5.84932 9.82768 5.8348 9.98297 5.8348C10.1383 5.8348 10.2903 5.84932 10.4386 5.87657" stroke="black" stroke-width="1.35" stroke-linecap="round" stroke-linejoin="round"/>
<path d="M9.52437 6.62524C9.47974 7.47081 9.38899 8.33196 9.08984 8.95793L9.57641 8.74137C9.74635 8.0321 9.78205 7.11566 9.83375 6.68248L9.52437 6.62524ZM10.4441 6.62524L10.1347 6.68248C10.1864 7.11566 10.2221 8.0321 10.392 8.74137L10.8786 8.95793C10.5794 8.33196 10.4887 7.47081 10.4441 6.62524Z" fill="#FFD83D" stroke="black" stroke-width="1.8" stroke-linecap="round" stroke-linejoin="round"/>
<path d="M9.98453 8.45679C9.40343 8.45679 8.97657 8.75807 8.95094 9.52568C8.80889 9.25071 8.20798 8.3859 7.64734 8.50165C7.3139 8.57049 7.01927 9.07911 7.06937 9.6618C6.79331 8.78912 5.98457 8.64611 5.39453 9.16216C5.91843 9.636 6.15148 11.035 6.59266 11.6418H9.98453H13.3764C13.8176 11.035 14.052 9.636 14.5759 9.16216C13.9859 8.64611 13.1772 8.78912 12.9011 9.6618C12.9512 9.07911 12.6552 8.57049 12.3217 8.50165C11.7611 8.3859 11.1616 9.25071 11.0195 9.52568C10.9939 8.75807 10.5656 8.45679 9.98453 8.45679Z" fill="#FFD83D" stroke="black" stroke-width="1.8" stroke-linecap="round" stroke-linejoin="round"/>
<path d="M13.3679 11.6415C13.3679 11.9178 11.8531 12.2216 9.98667 12.2216C8.12025 12.2216 6.60547 11.9178 6.60547 11.6415C6.60547 11.3653 8.12025 11.2207 9.98667 11.2207C11.8531 11.2207 13.3679 11.3653 13.3679 11.6415Z" fill="black" stroke="black" stroke-width="1.35" stroke-linecap="round" stroke-linejoin="round"/>
<path d="M9.98625 6.63913C10.0736 6.63913 10.1444 6.56126 10.1444 6.4652C10.1444 6.36913 10.0736 6.29126 9.98625 6.29126C9.89892 6.29126 9.82812 6.36913 9.82812 6.4652C9.82812 6.56126 9.89892 6.63913 9.98625 6.63913Z" fill="#FFD83D" stroke="black" stroke-width="1.35" stroke-linecap="round" stroke-linejoin="round"/>
<path d="M9.98443 7.02493C10.0772 7.02493 10.1525 6.94218 10.1525 6.8401C10.1525 6.73802 10.0772 6.65527 9.98443 6.65527C9.89163 6.65527 9.81641 6.73802 9.81641 6.8401C9.81641 6.94218 9.89163 7.02493 9.98443 7.02493Z" fill="#FFD83D" stroke="black" stroke-width="1.35" stroke-linecap="round" stroke-linejoin="round"/>
<path d="M9.98822 7.44577C10.0896 7.44577 10.1718 7.35538 10.1718 7.24388C10.1718 7.13238 10.0896 7.04199 9.98822 7.04199C9.88686 7.04199 9.80469 7.13238 9.80469 7.24388C9.80469 7.35538 9.88686 7.44577 9.98822 7.44577Z" fill="#FFD83D" stroke="black" stroke-width="1.35" stroke-linecap="round" stroke-linejoin="round"/>
<path d="M9.98673 7.92354C10.1024 7.92354 10.1961 7.82042 10.1961 7.69322C10.1961 7.56601 10.1024 7.46289 9.98673 7.46289C9.87109 7.46289 9.77734 7.56601 9.77734 7.69322C9.77734 7.82042 9.87109 7.92354 9.98673 7.92354Z" fill="#FFD83D" stroke="black" stroke-width="1.35" stroke-linecap="round" stroke-linejoin="round"/>
<path d="M9.98788 8.44658C10.1149 8.44658 10.2179 8.33327 10.2179 8.1935C10.2179 8.05373 10.1149 7.94043 9.98788 7.94043C9.86082 7.94043 9.75781 8.05373 9.75781 8.1935C9.75781 8.33327 9.86082 8.44658 9.98788 8.44658Z" fill="#FFD83D" stroke="black" stroke-width="1.35" stroke-linecap="round" stroke-linejoin="round"/>
<path d="M9.89545 8.68042C9.87057 8.68008 9.84704 8.70315 9.85326 8.74694C9.8606 8.79859 9.86978 8.8952 9.87857 8.96041C9.88851 9.03432 9.92768 9.01635 9.93764 8.95886C9.9476 8.90139 9.94358 8.86452 9.94607 8.75777C9.94732 8.7044 9.92033 8.68076 9.89545 8.68042ZM10.0783 8.68042C10.0534 8.68076 10.0264 8.7044 10.0276 8.75777C10.0301 8.86452 10.0261 8.90139 10.0361 8.95886C10.046 9.01635 10.0852 9.03432 10.0951 8.96041C10.1039 8.8952 10.1131 8.79859 10.1205 8.74694C10.1267 8.70315 10.1031 8.68008 10.0783 8.68042ZM9.73232 8.70827C9.70956 8.71175 9.68596 8.737 9.68732 8.76395C9.6898 8.81322 9.70219 8.87231 9.70701 8.94649C9.71198 9.02312 9.76109 8.99335 9.76607 8.94958C9.77105 8.90579 9.77667 8.84107 9.7717 8.75622C9.76984 8.7244 9.7572 8.7104 9.74217 8.70827C9.73904 8.70782 9.73558 8.70777 9.73232 8.70827ZM10.2315 8.70827C10.2165 8.7104 10.2039 8.7244 10.202 8.75622C10.197 8.84107 10.2027 8.90579 10.2076 8.94958C10.2126 8.99335 10.2617 9.02312 10.2667 8.94649C10.2715 8.87231 10.2839 8.81322 10.2864 8.76395C10.2878 8.737 10.2642 8.71175 10.2414 8.70827C10.2381 8.70777 10.2347 8.70782 10.2315 8.70827ZM9.53686 8.79489C9.51602 8.80082 9.49688 8.82838 9.50311 8.85986C9.51554 8.92282 9.52701 8.99243 9.52701 9.05631C9.52701 9.11106 9.56952 9.09153 9.57201 9.05322C9.57449 9.01489 9.57904 8.93375 9.57904 8.85986C9.57904 8.80469 9.5577 8.78897 9.53686 8.79489ZM10.4228 8.79489C10.408 8.7994 10.3947 8.81848 10.3947 8.85986C10.3947 8.93375 10.3992 9.01489 10.4017 9.05322C10.4042 9.09153 10.4467 9.11106 10.4467 9.05631C10.4467 8.99243 10.4582 8.92282 10.4706 8.85986C10.4768 8.82838 10.4577 8.80082 10.4369 8.79489C10.4316 8.79341 10.4277 8.79339 10.4228 8.79489ZM7.76357 8.80335C7.73864 8.80244 7.72115 8.83965 7.73826 8.8807C7.76562 8.9464 7.79469 8.98785 7.82264 9.05859C7.84752 9.12155 7.8857 9.08229 7.87326 9.03848C7.86081 8.99469 7.8473 8.94591 7.80998 8.85285C7.79598 8.81795 7.77853 8.8039 7.76357 8.80335ZM12.2101 8.80335C12.1952 8.8039 12.1777 8.81795 12.1637 8.85285C12.1264 8.94591 12.1129 8.99469 12.1004 9.03848C12.088 9.08229 12.1262 9.12155 12.1511 9.05859C12.179 8.98785 12.2081 8.9464 12.2354 8.8807C12.2526 8.83965 12.2351 8.80244 12.2101 8.80335ZM7.94357 8.80645C7.92522 8.81261 7.9141 8.83822 7.92529 8.86832C7.9477 8.92854 7.98004 8.99027 8.00264 9.0555C8.02253 9.11297 8.0668 9.09667 8.05186 9.04467C8.03693 8.99266 8.03249 8.96223 8.00264 8.86368C7.9877 8.81442 7.96193 8.80029 7.94357 8.80645ZM12.0161 8.80645C12.0004 8.81013 11.9823 8.82674 11.9711 8.86368C11.9412 8.96223 11.9368 8.99266 11.9219 9.04467C11.9069 9.09667 11.9512 9.11297 11.9711 9.0555C11.9937 8.99027 12.026 8.92854 12.0484 8.86832C12.0596 8.83822 12.0485 8.81261 12.0301 8.80645C12.0255 8.80491 12.0213 8.80522 12.0161 8.80645ZM8.16857 8.8544C8.14544 8.85924 8.12752 8.89807 8.14326 8.94567C8.16318 9.00588 8.1915 9.06287 8.21639 9.13129C8.24127 9.19972 8.2826 9.18591 8.27264 9.14212C8.26268 9.09833 8.25048 9.02575 8.22061 8.91628C8.20754 8.86837 8.18657 8.85064 8.16857 8.8544ZM11.8051 8.8544C11.7871 8.85064 11.7662 8.86837 11.7531 8.91628C11.7232 9.02575 11.711 9.09833 11.7011 9.14212C11.6911 9.18591 11.7324 9.19972 11.7573 9.13129C11.7822 9.06287 11.8105 9.00588 11.8304 8.94567C11.8462 8.89807 11.8283 8.85924 11.8051 8.8544ZM7.6117 8.88843C7.58664 8.89125 7.56381 8.93621 7.57936 8.97042C7.60426 9.02517 7.62002 9.04379 7.64404 9.1019C7.66893 9.16212 7.69619 9.11548 7.68623 9.07715C7.67627 9.03882 7.66351 8.99421 7.65107 8.93948C7.64196 8.89939 7.62674 8.88674 7.6117 8.88843ZM12.362 8.88843C12.347 8.88674 12.3318 8.89939 12.3226 8.93948C12.3102 8.99421 12.2974 9.03882 12.2875 9.07715C12.2775 9.11548 12.3048 9.16212 12.3297 9.1019C12.3537 9.04379 12.3695 9.02517 12.3944 8.97042C12.4099 8.93621 12.3871 8.89125 12.362 8.88843ZM9.34561 9.02692C9.31934 9.0269 9.29128 9.06525 9.30061 9.10117C9.31553 9.15867 9.33861 9.20963 9.35545 9.2837C9.37038 9.34939 9.41279 9.31667 9.41029 9.27288C9.4078 9.22908 9.40098 9.1695 9.38357 9.07642C9.37704 9.04153 9.36137 9.02694 9.34561 9.02692ZM10.6281 9.02692C10.6123 9.02694 10.5967 9.04153 10.5901 9.07642C10.5727 9.1695 10.5659 9.22908 10.5634 9.27288C10.5609 9.31667 10.6033 9.34939 10.6183 9.2837C10.6351 9.20963 10.6582 9.15867 10.6731 9.10117C10.6824 9.06525 10.6544 9.0269 10.6281 9.02692ZM9.98686 9.0857C9.95449 9.08571 9.95002 9.1335 9.94889 9.17233C9.94517 9.29961 9.89714 9.42322 9.85607 9.4848C9.81502 9.54639 9.75457 9.53001 9.69857 9.49717C9.64258 9.46433 9.60922 9.43972 9.54951 9.39044C9.48978 9.34118 9.4445 9.36998 9.51576 9.4817C9.72355 9.80743 9.94889 10.0858 9.94889 10.6171C9.94889 10.6858 9.9598 10.7068 9.98686 10.7068C10.0139 10.7068 10.0262 10.6858 10.0262 10.6171C10.0262 10.0858 10.2502 9.80743 10.458 9.4817C10.5292 9.36998 10.4839 9.34118 10.4242 9.39044C10.3645 9.43972 10.3311 9.46433 10.2751 9.49717C10.2191 9.53001 10.1587 9.54639 10.1176 9.4848C10.0766 9.42322 10.0285 9.29961 10.0248 9.17233C10.0237 9.1335 10.0192 9.08571 9.98686 9.0857ZM8.3992 9.006C8.39637 9.00591 8.39328 9.00667 8.39076 9.00754C8.37868 9.01173 8.37062 9.02778 8.37529 9.0555C8.38364 9.10511 8.41489 9.20234 8.42732 9.24885C8.43978 9.29539 8.49179 9.2855 8.47936 9.22256C8.4669 9.1596 8.46757 9.14059 8.45264 9.06942C8.44447 9.0305 8.41902 9.00659 8.3992 9.006ZM11.5745 9.006C11.5547 9.00659 11.5292 9.0305 11.5211 9.06942C11.5061 9.14059 11.5068 9.1596 11.4944 9.22256C11.4819 9.2855 11.5339 9.29539 11.5464 9.24885C11.5588 9.20234 11.5901 9.10511 11.5984 9.0555C11.6031 9.02778 11.595 9.01173 11.5829 9.00754C11.5804 9.00667 11.5773 9.00591 11.5745 9.006ZM7.45561 9.0261C7.42956 9.02835 7.41088 9.06434 7.43732 9.11737C7.46585 9.17464 7.51478 9.24648 7.53717 9.28753C7.55956 9.32858 7.5983 9.30088 7.57092 9.24885C7.54356 9.19685 7.53436 9.13712 7.50201 9.06323C7.48988 9.03551 7.47123 9.02476 7.45561 9.0261ZM12.5181 9.0261C12.5025 9.02476 12.4838 9.03551 12.4717 9.06323C12.4393 9.13712 12.4302 9.19685 12.4028 9.24885C12.3754 9.30088 12.4142 9.32858 12.4365 9.28753C12.4589 9.24648 12.5079 9.17464 12.5364 9.11737C12.5628 9.06434 12.5442 9.02835 12.5181 9.0261ZM6.02967 9.19089C5.99962 9.18914 5.9902 9.24882 6.01842 9.28835C6.05949 9.34582 6.08807 9.3763 6.13514 9.42292C6.17248 9.45987 6.18333 9.41192 6.16467 9.37497C6.14601 9.33803 6.11902 9.30044 6.0817 9.23885C6.06124 9.20509 6.04333 9.19169 6.02967 9.19089ZM13.944 9.19089C13.9304 9.19169 13.9125 9.20509 13.892 9.23885C13.8547 9.30044 13.8277 9.33803 13.809 9.37497C13.7904 9.41192 13.8012 9.45987 13.8386 9.42292C13.8856 9.3763 13.9142 9.34582 13.9553 9.28835C13.9835 9.24882 13.9741 9.18914 13.944 9.19089ZM6.25607 9.24039C6.23212 9.24074 6.21632 9.26019 6.23498 9.30536C6.26171 9.37001 6.29695 9.44325 6.31936 9.49253C6.34175 9.54179 6.41 9.55834 6.38264 9.4817C6.35526 9.40507 6.34987 9.3657 6.32498 9.29453C6.31254 9.25895 6.28003 9.24005 6.25607 9.24039ZM13.7176 9.24039C13.6937 9.24005 13.6612 9.25895 13.6487 9.29453C13.6238 9.3657 13.6185 9.40507 13.5911 9.4817C13.5637 9.55834 13.632 9.54179 13.6544 9.49253C13.6768 9.44325 13.712 9.37001 13.7387 9.30536C13.7574 9.26019 13.7416 9.24074 13.7176 9.24039ZM5.81732 9.25741C5.78251 9.2578 5.77951 9.2962 5.81029 9.32083C5.85136 9.35367 5.9003 9.39012 5.94811 9.4322C6.00408 9.48147 6.02577 9.43615 5.99592 9.39508C5.96606 9.35403 5.93698 9.3124 5.86232 9.27133C5.84366 9.26107 5.82893 9.25728 5.81732 9.25741ZM14.1564 9.25741C14.1448 9.25728 14.1301 9.26107 14.1114 9.27133C14.0367 9.3124 14.0076 9.35403 13.9778 9.39508C13.9479 9.43615 13.9696 9.48147 14.0256 9.4322C14.0734 9.39012 14.1223 9.35367 14.1634 9.32083C14.1942 9.2962 14.1912 9.2578 14.1564 9.25741ZM9.22186 9.29299C9.20237 9.29598 9.18557 9.32033 9.19373 9.35177C9.20866 9.40924 9.2256 9.47014 9.23592 9.52966C9.24588 9.58715 9.30635 9.58785 9.29639 9.53585C9.28645 9.48384 9.28145 9.41877 9.26404 9.33939C9.25751 9.30963 9.24387 9.29533 9.23029 9.29299C9.22747 9.2925 9.22464 9.29256 9.22186 9.29299ZM10.7434 9.29299C10.7298 9.29533 10.7162 9.30963 10.7097 9.33939C10.6923 9.41877 10.6873 9.48384 10.6773 9.53585C10.6674 9.58785 10.7278 9.58715 10.7378 9.52966C10.7481 9.47014 10.7651 9.40924 10.78 9.35177C10.7881 9.32033 10.7713 9.29598 10.7519 9.29299C10.7491 9.29256 10.7462 9.2925 10.7434 9.29299ZM7.86764 9.19471C7.85234 9.19937 7.84354 9.23154 7.85498 9.2767C7.91844 9.52715 7.9379 9.65905 7.9267 9.72065C7.9155 9.78223 7.88478 9.79068 7.84373 9.77015C7.80268 9.74963 7.75449 9.72 7.71717 9.69126C7.67985 9.66251 7.64103 9.6969 7.69467 9.7454C7.96713 9.99175 8.156 10.2733 8.22904 10.6147C8.24397 10.6845 8.28383 10.6927 8.27264 10.6147C8.21088 10.1846 8.19901 9.83099 8.29232 9.60928C8.32739 9.52596 8.29207 9.44594 8.23607 9.58143C8.19876 9.67177 8.13836 9.7074 8.08982 9.62939C8.04131 9.55139 7.94109 9.34329 7.91123 9.24885C7.90003 9.21344 7.88621 9.19706 7.87467 9.19471C7.87226 9.19423 7.86982 9.19405 7.86764 9.19471ZM12.099 9.19471C12.0875 9.19706 12.0737 9.21344 12.0625 9.24885C12.0326 9.34329 11.9324 9.55139 11.8839 9.62939C11.8354 9.7074 11.775 9.67177 11.7376 9.58143C11.6816 9.44594 11.6463 9.52596 11.6814 9.60928C11.7747 9.83099 11.7628 10.1846 11.7011 10.6147C11.6899 10.6927 11.7297 10.6845 11.7447 10.6147C11.8177 10.2733 12.0066 9.99175 12.279 9.7454C12.3327 9.6969 12.2939 9.66251 12.2565 9.69126C12.2192 9.72 12.171 9.74963 12.13 9.77015C12.0889 9.79068 12.0582 9.78223 12.047 9.72065C12.0358 9.65905 12.0553 9.52715 12.1187 9.2767C12.1302 9.23154 12.1214 9.19937 12.1061 9.19471C12.1039 9.19405 12.1014 9.19423 12.099 9.19471ZM6.49795 9.31464C6.47338 9.31499 6.453 9.33392 6.4642 9.37497C6.48215 9.44073 6.51927 9.51181 6.5317 9.55286C6.54415 9.59391 6.58416 9.57475 6.5767 9.51728C6.56924 9.45981 6.56556 9.42555 6.55561 9.3626C6.55063 9.33113 6.52252 9.3143 6.49795 9.31464ZM13.4758 9.31464C13.4512 9.3143 13.4231 9.33113 13.4181 9.3626C13.4081 9.42555 13.4045 9.45981 13.397 9.51728C13.3895 9.57475 13.4296 9.59391 13.442 9.55286C13.4544 9.51181 13.4916 9.44073 13.5095 9.37497C13.5207 9.33392 13.5003 9.31499 13.4758 9.31464ZM7.34311 9.22875C7.31453 9.2231 7.31042 9.3042 7.33467 9.33703C7.36702 9.38084 7.41195 9.43379 7.45701 9.49326C7.49433 9.54254 7.51739 9.49873 7.49498 9.45768C7.47259 9.41661 7.43938 9.37297 7.37967 9.26896C7.36474 9.24296 7.35263 9.23063 7.34311 9.22875ZM12.6306 9.22875C12.6211 9.23063 12.609 9.24296 12.594 9.26896C12.5343 9.37297 12.5011 9.41661 12.4787 9.45768C12.4563 9.49873 12.4794 9.54254 12.5167 9.49326C12.5618 9.43379 12.6067 9.38084 12.639 9.33703C12.6633 9.3042 12.6592 9.2231 12.6306 9.22875ZM6.69061 9.42447C6.67288 9.4231 6.65783 9.43892 6.66529 9.47861C6.6757 9.53388 6.69081 9.57975 6.70326 9.63175C6.7157 9.68376 6.74826 9.67485 6.74826 9.62556C6.74826 9.5763 6.74026 9.52133 6.73279 9.46933C6.72906 9.44333 6.70834 9.42584 6.69061 9.42447ZM13.2831 9.42447C13.2654 9.42584 13.2446 9.44333 13.2409 9.46933C13.2335 9.52133 13.2254 9.5763 13.2254 9.62556C13.2254 9.67485 13.258 9.68376 13.2704 9.63175C13.2829 9.57975 13.298 9.53388 13.3084 9.47861C13.3159 9.43892 13.3008 9.4231 13.2831 9.42447ZM7.27982 9.49481C7.25198 9.49944 7.22747 9.52905 7.26014 9.57525C7.31238 9.64914 7.3696 9.70101 7.38951 9.72839C7.40941 9.75576 7.45983 9.74566 7.42748 9.68817C7.39442 9.62944 7.3444 9.55871 7.32201 9.51492C7.31362 9.49849 7.29653 9.49203 7.27982 9.49481ZM12.6826 9.49481C12.6704 9.49622 12.658 9.5026 12.6517 9.51492C12.6293 9.55871 12.5793 9.62944 12.5462 9.68817C12.5139 9.74566 12.5643 9.75576 12.5842 9.72839C12.6041 9.70101 12.6613 9.64914 12.7136 9.57525C12.7462 9.52905 12.7217 9.49944 12.6939 9.49481C12.6897 9.49411 12.6867 9.49434 12.6826 9.49481ZM6.35029 9.70136C6.32832 9.69917 6.32073 9.71867 6.35029 9.76324C6.41747 9.8645 6.49157 10.0178 6.49654 10.0834C6.50153 10.1491 6.472 10.1484 6.44451 10.1484C6.36239 10.1484 6.32228 10.0825 6.24764 10.0633C6.17298 10.0442 6.16215 10.0874 6.21529 10.1298C6.489 10.3488 6.76334 10.5931 6.87342 10.8151C6.9182 10.9054 6.97874 10.9385 6.94514 10.8522C6.84222 10.588 6.81728 10.3643 6.83967 10.2288C6.86208 10.0934 6.89262 10.0021 6.88889 9.92411C6.88516 9.84611 6.84494 9.85144 6.82842 9.92411C6.81722 9.97339 6.79553 10.0387 6.78061 10.0633C6.76568 10.088 6.70565 10.1018 6.64842 10.0169C6.59118 9.93208 6.44679 9.76871 6.39951 9.72766C6.38178 9.71226 6.36348 9.70268 6.35029 9.70136ZM13.6234 9.70136C13.6102 9.70268 13.5919 9.71226 13.5742 9.72766C13.5269 9.76871 13.3825 9.93208 13.3253 10.0169C13.2681 10.1018 13.208 10.088 13.1931 10.0633C13.1782 10.0387 13.1565 9.97339 13.1453 9.92411C13.1288 9.85144 13.0886 9.84611 13.0848 9.92411C13.0811 10.0021 13.1116 10.0934 13.134 10.2288C13.1564 10.3643 13.1315 10.588 13.0286 10.8522C12.995 10.9385 13.0555 10.9054 13.1003 10.8151C13.2104 10.5931 13.4847 10.3488 13.7584 10.1298C13.8116 10.0874 13.8007 10.0442 13.7261 10.0633C13.6514 10.0825 13.6113 10.1484 13.5292 10.1484C13.5017 10.1484 13.4722 10.1491 13.4772 10.0834C13.4821 10.0178 13.5562 9.8645 13.6234 9.76324C13.653 9.71867 13.6454 9.69917 13.6234 9.70136Z" fill="black"/>
<path d="M6.75391 11.3259L6.84164 11.6315ZM6.93438 11.268L7.01212 11.5769ZM7.12933 11.2327L7.18275 11.5478ZM7.31024 11.1929L7.36742 11.5072ZM7.54225 11.1677L7.58873 11.4841ZM7.78905 11.168L7.83911 11.4838ZM8.02997 11.0784L8.06613 11.3965ZM8.25663 11.0945L8.29279 11.4125ZM8.47597 11.0623L8.51213 11.3804ZM8.69614 11.0374L8.71603 11.3571ZM8.93143 11.0373L8.94868 11.3572ZM9.14474 11.0211L9.15944 11.3412ZM9.37996 11.005L9.39216 11.3252ZM9.65048 10.9969L9.66269 11.3171ZM13.2197 11.3259L13.1319 11.6315ZM13.0392 11.268L12.9615 11.5769ZM12.8442 11.2327L12.7908 11.5478ZM12.6633 11.1929L12.6062 11.5072ZM12.4313 11.1677L12.3849 11.4841ZM12.1845 11.168L12.1345 11.4838ZM11.9436 11.0784L11.9075 11.3965ZM11.717 11.0945L11.6808 11.4125ZM11.4976 11.0623L11.4614 11.3804ZM11.2774 11.0374L11.2575 11.3571ZM11.0422 11.0373L11.0249 11.3572ZM10.8288 11.0211L10.8141 11.3412ZM10.5936 11.005L10.5814 11.3252ZM10.3231 10.9969L10.3109 11.3171ZM9.98679 10.9761V11.3287Z" fill="#FFD83D"/>
<path d="M6.75391 11.3259L6.84164 11.6315M6.93438 11.268L7.01212 11.5769M7.12933 11.2327L7.18275 11.5478M7.31024 11.1929L7.36742 11.5072M7.54225 11.1677L7.58873 11.4841M7.78905 11.168L7.83911 11.4838M8.02997 11.0784L8.06613 11.3965M8.25663 11.0945L8.29279 11.4125M8.47597 11.0623L8.51213 11.3804M8.69614 11.0374L8.71603 11.3571M8.93143 11.0373L8.94868 11.3572M9.14474 11.0211L9.15944 11.3412M9.37996 11.005L9.39216 11.3252M9.65048 10.9969L9.66269 11.3171M13.2197 11.3259L13.1319 11.6315M13.0392 11.268L12.9615 11.5769M12.8442 11.2327L12.7908 11.5478M12.6633 11.1929L12.6062 11.5072M12.4313 11.1677L12.3849 11.4841M12.1845 11.168L12.1345 11.4838M11.9436 11.0784L11.9075 11.3965M11.717 11.0945L11.6808 11.4125M11.4976 11.0623L11.4614 11.3804M11.2774 11.0374L11.2575 11.3571M11.0422 11.0373L11.0249 11.3572M10.8288 11.0211L10.8141 11.3412M10.5936 11.005L10.5814 11.3252M10.3231 10.9969L10.3109 11.3171M9.98679 10.9761V11.3287" stroke="black" stroke-width="1.35" stroke-linecap="round" stroke-linejoin="round"/>
</g>
<defs>
<clipPath id="clip0_224_2175">
<rect width="45" height="29.7" fill="white" transform="translate(0 0.799805)"/>
</clipPath>
</defs>
</svg>
