<svg width="80" height="54" viewBox="0 0 80 54" fill="none" xmlns="http://www.w3.org/2000/svg">
<g clip-path="url(#clip0_224_545)">
<path d="M-3.72151 0.333984H80.1625C82.9995 0.333984 85.3316 2.23176 85.3316 4.54039V49.4609C85.3316 51.7695 82.9995 53.6673 80.1625 53.6673H-3.72151C-5.09049 53.6622 -6.40161 53.2173 -7.36964 52.4296C-8.33767 51.6419 -8.8843 50.5749 -8.89062 49.4609V4.54039C-8.89062 2.23176 -6.55851 0.333984 -3.72151 0.333984V0.333984Z" fill="#D21034"/>
<path d="M12.6016 40.7133H67.4046V13.2881H12.6016V40.7133Z" fill="#007E3A"/>
<path d="M45.137 18.0145C44.5737 17.9172 44.0103 17.8589 43.4275 17.8589C38.3765 17.8589 34.2969 21.9435 34.2969 27.0006C34.2969 32.0578 38.3765 36.1424 43.4275 36.1424C44.0103 36.1424 44.5737 36.084 45.137 35.9868C43.0476 35.5903 41.1623 34.4752 39.8072 32.8343C38.452 31.1934 37.7123 29.1298 37.716 27.0006C37.716 22.527 40.902 18.812 45.137 18.0145Z" fill="white"/>
</g>
<defs>
<clipPath id="clip0_224_545">
<rect width="80" height="53.3333" fill="white" transform="translate(0 0.333984)"/>
</clipPath>
</defs>
</svg>
