<svg width="46" height="31" viewBox="0 0 46 31" fill="none" xmlns="http://www.w3.org/2000/svg">
<g clip-path="url(#clip0_224_2040)">
<path d="M47.2992 20.2263V27.7505C47.2992 29.0392 46.1028 30.0999 44.6243 30.0999H1.37414C-0.104404 30.0999 -1.30078 29.0392 -1.30078 27.7505V20.2263H47.2992Z" fill="#21468B"/>
<path d="M47.2992 20.2263H-1.30078V2.74933C-1.30078 1.4507 -0.104404 0.399902 1.37414 0.399902H44.6243C46.1028 0.399902 47.2992 1.4507 47.2992 2.74933V20.2263V20.2263Z" fill="white"/>
<path d="M47.2992 10.2735H-1.30078V2.74933C-1.30078 1.4507 -0.104404 0.399902 1.37414 0.399902H44.6243C46.1028 0.399902 47.2992 1.4507 47.2992 2.74933V10.2735V10.2735Z" fill="#AE1C28"/>
</g>
<defs>
<clipPath id="clip0_224_2040">
<rect width="45" height="29.7" fill="white" transform="translate(0.5 0.399902)"/>
</clipPath>
</defs>
</svg>
