<svg width="80" height="54" viewBox="0 0 80 54" fill="none" xmlns="http://www.w3.org/2000/svg">
<g clip-path="url(#clip0_224_641)">
<path fill-rule="evenodd" clip-rule="evenodd" d="M25.3609 32.8623L26.7784 37.2974L31.1433 35.6413L28.5609 39.543L32.5749 41.9149L27.9293 42.322L28.5749 46.9395L25.3609 43.557L22.1328 46.9395L22.7784 42.322L18.1328 41.9149L22.1468 39.543L19.5644 35.6413L23.9293 37.2974L25.3609 32.8623Z" fill="white"/>
<path fill-rule="evenodd" clip-rule="evenodd" d="M63.3839 7.92212L64.0576 10.0274L66.1488 9.24142L64.9137 11.094L66.8225 12.2309L64.605 12.4274L64.9137 14.6309L63.3839 13.0169L61.8541 14.6309L62.1629 12.4274L59.9453 12.2309L61.8541 11.094L60.619 9.24142L62.6962 10.0274L63.3839 7.92212Z" fill="white"/>
<path d="M2.80469 0.666016V3.12216L41.8924 22.659H46.8047V20.2029L7.731 0.666016H2.80469ZM46.8187 0.666016V3.12216L7.731 22.673H2.80469V20.2169L41.8924 0.666016H46.8187Z" fill="white"/>
<path d="M21.1485 0.666016V22.673H28.4889V0.666016H21.1485ZM2.80469 8.00637V15.3467H46.8047V8.00637H2.80469Z" fill="white"/>
<path d="M2.80469 9.46601V13.873H46.8047V9.46601H2.80469ZM22.6082 0.666016V22.673H27.0152V0.666016H22.6082Z" fill="#FF0000"/>
<path d="M80.774 0.666016H2.04583C-0.629711 0.666016 -2.80859 2.5554 -2.80859 4.87545V49.7899C-2.80859 52.11 -0.629711 53.9993 2.04583 53.9993H80.758C83.4335 53.9993 85.6124 52.0961 85.6124 49.7899V4.87545C85.6284 2.5554 83.4335 0.666016 80.774 0.666016Z" fill="#012169"/>
<path d="M0.339689 2.10796L41.1318 23.1221H46.301V20.4592L5.18394 -0.737549H4.47503C2.62889 -0.737549 1.01907 0.43413 0.339689 2.10796ZM46.3158 -0.737549V1.92536L5.18394 23.1221H0V20.4592L41.1318 -0.737549H46.3158Z" fill="white"/>
<path d="M19.3093 -0.737549V23.1221H27.036V-0.737549H19.3093ZM0 7.22074V15.179H46.3158V7.22074H0Z" fill="white"/>
<path d="M0 8.80327V13.5813H46.3158V8.80327H0ZM20.8458 -0.737549V23.1221H25.4848V-0.737549H20.8458Z" fill="#C8102E"/>
<path d="M0 23.1221L15.4337 15.1638H18.8896L3.45596 23.1221H0ZM0.708915 1.40799C1.0043 0.936279 1.37352 0.52543 1.80183 0.190665L15.4484 7.22074H11.9925L0.708915 1.40799ZM27.4262 7.22074L42.8598 -0.737549H46.3158L30.8673 7.22074H27.4262ZM46.3158 23.1221L30.8673 15.1638H34.3233L46.301 21.3418V23.1221H46.3158Z" fill="#C8102E"/>
<path d="M63.5078 10.9116V12.6099L66.8903 10.9116H63.5078Z" fill="white"/>
<path d="M64.1528 12.9046L63.1563 11.5432L66.8896 10.9116L64.1528 12.9046Z" fill="white"/>
<path d="M63.5075 10.9116V12.6099L60.125 10.9116H63.5075Z" fill="white"/>
<path d="M62.8618 12.9046L63.8583 11.5432L60.125 10.9116L62.8618 12.9046Z" fill="white"/>
<path d="M64.5633 11.6833L62.9492 12.2026L65.6019 14.8974L64.5633 11.6833Z" fill="white"/>
<path d="M62.8594 12.9046L63.8559 11.5432L65.5962 14.8976L62.8594 12.9046Z" fill="white"/>
<path d="M62.4531 11.6834L64.0672 12.2027L63.5058 8.45532L62.4531 11.6834Z" fill="white"/>
<path d="M64.5633 11.6836L62.9492 12.2029L63.5106 8.45557L64.5633 11.6836Z" fill="white"/>
<path d="M62.4566 11.6833L64.0706 12.2026L61.418 14.8974L62.4566 11.6833Z" fill="white"/>
<path d="M64.1548 12.9046L63.1583 11.5432L61.418 14.8976L64.1548 12.9046Z" fill="white"/>
<path d="M63.5078 11.2905V12.4133L65.7394 11.2905H63.5078Z" fill="#C7202F"/>
<path d="M63.9253 12.6098L63.2656 11.6975L65.7358 11.2905L63.9253 12.6098Z" fill="#C7202F"/>
<path d="M63.5089 11.2905V12.4133L61.2773 11.2905H63.5089Z" fill="#C7202F"/>
<path d="M63.0879 12.6098L63.7335 11.6975L61.2773 11.2905L63.0879 12.6098Z" fill="#C7202F"/>
<path d="M64.1956 11.7959L63.1289 12.1327L64.8833 13.9152L64.1956 11.7959Z" fill="#C7202F"/>
<path d="M63.0859 12.6098L63.7316 11.6975L64.8824 13.9151L63.0859 12.6098Z" fill="#C7202F"/>
<path d="M62.8203 11.7959L63.8729 12.1328L63.508 9.6626L62.8203 11.7959Z" fill="#C7202F"/>
<path d="M64.1956 11.7959L63.1289 12.1328L63.5079 9.6626L64.1956 11.7959Z" fill="#C7202F"/>
<path d="M62.8228 11.7959L63.8755 12.1327L62.1211 13.9152L62.8228 11.7959Z" fill="#C7202F"/>
<path d="M63.9316 12.6098L63.272 11.6975L62.1211 13.9151L63.9316 12.6098Z" fill="#C7202F"/>
<path d="M72.3633 18.7432V20.2449L75.3808 18.7432H72.3633Z" fill="white"/>
<path d="M72.9388 20.5116L72.0546 19.2905L75.3809 18.7432L72.9388 20.5116Z" fill="white"/>
<path d="M72.3668 18.7432V20.2449L69.3633 18.7432H72.3668Z" fill="white"/>
<path d="M71.7914 20.5116L72.6896 19.2905L69.3633 18.7432L71.7914 20.5116Z" fill="white"/>
<path d="M73.3066 19.4167L71.875 19.8799L74.2329 22.2799L73.3066 19.4167Z" fill="white"/>
<path d="M71.7852 20.5116L72.6834 19.2905L74.2273 22.28L71.7852 20.5116Z" fill="white"/>
<path d="M71.4336 19.4169L72.8652 19.88L72.3599 16.5537L71.4336 19.4169Z" fill="white"/>
<path d="M73.3066 19.4169L71.875 19.88L72.3662 16.5537L73.3066 19.4169Z" fill="white"/>
<path d="M71.4341 19.4167L72.8657 19.8799L70.5078 22.2799L71.4341 19.4167Z" fill="white"/>
<path d="M72.9359 20.5116L72.0517 19.2905L70.5078 22.28L72.9359 20.5116Z" fill="white"/>
<path d="M72.3633 19.1221V20.0484L74.2299 19.1221H72.3633Z" fill="#C7202F"/>
<path d="M72.7271 20.2168L72.1797 19.4589L74.2288 19.1221L72.7271 20.2168Z" fill="#C7202F"/>
<path d="M72.3604 19.1221V20.0484L70.5078 19.1221H72.3604Z" fill="#C7202F"/>
<path d="M72.0096 20.2168L72.5569 19.4589L70.5078 19.1221L72.0096 20.2168Z" fill="#C7202F"/>
<path d="M72.9528 19.5291L72.0546 19.8238L73.5282 21.3115L72.9528 19.5291Z" fill="#C7202F"/>
<path d="M72.0117 20.2169L72.5591 19.459L73.5275 21.3116L72.0117 20.2169Z" fill="#C7202F"/>
<path d="M71.7852 19.5292L72.6834 19.8239L72.3606 17.7607L71.7852 19.5292Z" fill="#C7202F"/>
<path d="M72.9528 19.5292L72.0546 19.8239L72.3633 17.7607L72.9528 19.5292Z" fill="#C7202F"/>
<path d="M71.7864 19.5291L72.6846 19.8238L71.2109 21.3115L71.7864 19.5291Z" fill="#C7202F"/>
<path d="M72.7267 20.2169L72.1794 19.459L71.2109 21.3116L72.7267 20.2169Z" fill="#C7202F"/>
<path d="M53.1602 21.3257V23.0099L56.5426 21.3257H53.1602Z" fill="white"/>
<path d="M53.809 23.3046L52.8125 21.9432L56.5458 21.3257L53.809 23.3046Z" fill="white"/>
<path d="M53.1598 21.3257V23.0099L49.7773 21.3257H53.1598Z" fill="white"/>
<path d="M52.5142 23.3046L53.5107 21.9432L49.7773 21.3257L52.5142 23.3046Z" fill="white"/>
<path d="M54.2156 22.0835L52.6016 22.6028L55.2542 25.2975L54.2156 22.0835Z" fill="white"/>
<path d="M52.5195 23.3045L53.516 21.9431L55.2564 25.2975L52.5195 23.3045Z" fill="white"/>
<path d="M52.125 22.0835L53.725 22.6028L53.1636 18.8555L52.125 22.0835Z" fill="white"/>
<path d="M54.2156 22.0835L52.6016 22.6028L53.163 18.8555L54.2156 22.0835Z" fill="white"/>
<path d="M52.1269 22.0835L53.7268 22.6028L51.0742 25.2975L52.1269 22.0835Z" fill="white"/>
<path d="M53.8111 23.3045L52.8146 21.9431L51.0742 25.2975L53.8111 23.3045Z" fill="white"/>
<path d="M53.1602 21.6904V22.8132L55.4058 21.6904H53.1602Z" fill="#C7202F"/>
<path d="M53.5971 23.0097L52.9375 22.0974L55.4077 21.6904L53.5971 23.0097Z" fill="#C7202F"/>
<path d="M53.1613 21.6904V22.8132L50.9297 21.6904H53.1613Z" fill="#C7202F"/>
<path d="M52.7402 23.0097L53.3999 22.0974L50.9297 21.6904L52.7402 23.0097Z" fill="#C7202F"/>
<path d="M53.8534 22.1958L52.8008 22.5467L54.5552 24.3291L53.8534 22.1958Z" fill="#C7202F"/>
<path d="M52.7383 23.0099L53.3979 22.0977L54.5488 24.3292L52.7383 23.0099Z" fill="#C7202F"/>
<path d="M52.4765 22.1956L53.5432 22.5465L53.1642 20.0623L52.4765 22.1956Z" fill="#C7202F"/>
<path d="M53.8534 22.1956L52.8008 22.5465L53.1657 20.0623L53.8534 22.1956Z" fill="#C7202F"/>
<path d="M52.4729 22.1958L53.5395 22.5467L51.7852 24.3291L52.4729 22.1958Z" fill="#C7202F"/>
<path d="M53.5957 23.0099L52.936 22.0977L51.7852 24.3292L53.5957 23.0099Z" fill="#C7202F"/>
<path d="M63.5078 37.6484V39.5291L67.2692 37.6484H63.5078Z" fill="white"/>
<path d="M64.222 39.8519L63.1133 38.3362L67.2677 37.6484L64.222 39.8519Z" fill="white"/>
<path d="M63.5076 37.6484V39.5291L59.7462 37.6484H63.5076Z" fill="white"/>
<path d="M62.7918 39.8519L63.9006 38.3362L59.7462 37.6484L62.7918 39.8519Z" fill="white"/>
<path d="M64.6715 38.4905L62.875 39.08L65.8364 42.0694L64.6715 38.4905Z" fill="white"/>
<path d="M62.789 39.852L63.8978 38.3362L65.8346 42.0695L62.789 39.852Z" fill="white"/>
<path d="M62.3438 38.4906L64.1402 39.08L63.5087 34.9116L62.3438 38.4906Z" fill="white"/>
<path d="M64.6715 38.4906L62.875 39.08L63.5066 34.9116L64.6715 38.4906Z" fill="white"/>
<path d="M62.3407 38.4905L64.1372 39.08L61.1758 42.0694L62.3407 38.4905Z" fill="white"/>
<path d="M64.2214 39.852L63.1126 38.3362L61.1758 42.0695L64.2214 39.852Z" fill="white"/>
<path d="M63.5078 38.0273V39.3186L66.1183 38.0273H63.5078Z" fill="#C7202F"/>
<path d="M63.9962 39.5572L63.2383 38.5045L66.1155 38.0273L63.9962 39.5572Z" fill="#C7202F"/>
<path d="M63.509 38.0273V39.3186L60.8984 38.0273H63.509Z" fill="#C7202F"/>
<path d="M63.0037 39.5572L63.7756 38.5045L60.8984 38.0273L63.0037 39.5572Z" fill="#C7202F"/>
<path d="M64.3092 38.6028L63.0741 39.0098L65.1232 41.087L64.3092 38.6028Z" fill="#C7202F"/>
<path d="M63.0039 39.557L63.7758 38.5044L65.1232 41.0869L63.0039 39.557Z" fill="#C7202F"/>
<path d="M62.6953 38.6029L63.9444 39.0099L63.5094 36.1187L62.6953 38.6029Z" fill="#C7202F"/>
<path d="M64.3092 38.6029L63.0741 39.0099L63.5092 36.1187L64.3092 38.6029Z" fill="#C7202F"/>
<path d="M62.6945 38.6028L63.9437 39.0098L61.8945 41.087L62.6945 38.6028Z" fill="#C7202F"/>
<path d="M63.9998 39.557L63.2419 38.5044L61.8945 41.0869L63.9998 39.557Z" fill="#C7202F"/>
</g>
<defs>
<clipPath id="clip0_224_641">
<rect width="80" height="53.3333" fill="white" transform="translate(0 0.666016)"/>
</clipPath>
</defs>
</svg>
