<svg width="45" height="31" viewBox="0 0 45 31" fill="none" xmlns="http://www.w3.org/2000/svg">
<g clip-path="url(#clip0_224_2263)">
<path d="M0.865469 0.786865H44.1331C45.5965 0.786865 46.7994 1.83752 46.7994 3.11564V27.9848C46.7994 29.2629 45.5965 30.3136 44.1331 30.3136H0.865469C0.159341 30.3107 -0.516937 30.0645 -1.01625 29.6283C-1.51556 29.1922 -1.79752 28.6015 -1.80078 27.9848V3.11564C-1.80078 1.83752 -0.597868 0.786865 0.865469 0.786865V0.786865Z" fill="#D82126"/>
<path d="M-0.560665 29.9561L17.6442 18.7997C17.3599 18.482 17.1185 18.1367 16.925 17.7707L-1.80078 26.0893V27.9848C-1.80078 28.808 -1.30473 29.5337 -0.560665 29.9561ZM19.1324 0.786865H25.8662L23.1132 10.2319C22.7054 10.1883 22.2932 10.1883 21.8854 10.2319L19.1324 0.786865ZM45.5593 1.15514C46.3033 1.56673 46.7994 2.29245 46.7994 3.11564V5.01116L28.0736 13.3298C27.8801 12.9637 27.6387 12.6184 27.3544 12.3008L45.5593 1.15514V1.15514ZM46.7994 13.4272V17.6732L28.5945 16.081C28.6069 15.9077 28.6193 15.7344 28.6193 15.5502C28.6193 15.3661 28.6069 15.1928 28.5945 15.0195L46.7994 13.4272V13.4272ZM46.7994 26.0893V27.9848C46.7994 28.808 46.3033 29.5337 45.5593 29.9561L27.3544 18.7997C27.6396 18.4856 27.8752 18.1389 28.0736 17.7707L46.7994 26.0893ZM25.8662 30.3136H19.1324L21.8854 20.8685C22.2931 20.9126 22.7055 20.9126 23.1132 20.8685L25.8662 30.3136V30.3136ZM-1.80078 17.6732V13.4272L16.4041 15.0195C16.3917 15.1928 16.3793 15.3661 16.3793 15.5502C16.3793 15.7344 16.3917 15.9077 16.4041 16.081L-1.80078 17.6732ZM-1.80078 5.01116V3.11564C-1.80078 2.29245 -1.30473 1.56673 -0.560665 1.15514L17.6442 12.3008C17.359 12.6149 17.1234 12.9615 16.925 13.3298L-1.80078 5.01116V5.01116ZM27.3916 15.5502C27.4062 14.981 27.2905 14.4149 27.0513 13.8853C26.812 13.3556 26.454 12.8731 25.9983 12.466C25.5425 12.0588 24.9982 11.7354 24.3974 11.5145C23.7965 11.2937 23.1512 11.1799 22.4993 11.1799C21.8474 11.1799 21.2021 11.2937 20.6012 11.5145C20.0004 11.7354 19.4561 12.0588 19.0003 12.466C18.5446 12.8731 18.1866 13.3556 17.9473 13.8853C17.7081 14.4149 17.5924 14.981 17.607 15.5502C17.5924 16.1195 17.7081 16.6855 17.9473 17.2152C18.1866 17.7448 18.5446 18.2274 19.0003 18.6345C19.4561 19.0416 20.0004 19.3651 20.6012 19.5859C21.2021 19.8068 21.8474 19.9205 22.4993 19.9205C23.1512 19.9205 23.7965 19.8068 24.3974 19.5859C24.9982 19.3651 25.5425 19.0416 25.9983 18.6345C26.454 18.2274 26.812 17.7448 27.0513 17.2152C27.2905 16.6855 27.4062 16.1195 27.3916 15.5502V15.5502Z" fill="#F8E92E"/>
</g>
<defs>
<clipPath id="clip0_224_2263">
<rect width="45" height="29.7" fill="white" transform="translate(0 0.699951)"/>
</clipPath>
</defs>
</svg>
