<svg width="45" height="30" viewBox="0 0 45 30" fill="none" xmlns="http://www.w3.org/2000/svg">
<g clip-path="url(#clip0_224_2033)">
<path d="M0.0714812 0.100098H44.9301C46.4529 0.100098 47.7008 1.15512 47.7008 2.44715V27.453C47.7008 28.7451 46.4529 29.8001 44.9301 29.8001H0.0714812C-1.45377 29.8001 -2.69922 28.7451 -2.69922 27.453V2.44715C-2.69922 1.15512 -1.45377 0.100098 0.0714812 0.100098Z" fill="#EF2B2D"/>
<path d="M20.42 0.100098V29.8001H12.0898V0.100098H20.42Z" fill="white"/>
<path d="M0.00390625 10.9985H45.0039V18.9018H0.00390625V10.9985Z" fill="white"/>
<path d="M18.3409 0.100098V29.8001H14.1758V0.100098H18.3409Z" fill="#002868"/>
<path d="M0.00390625 12.9744H45.0039V16.926H0.00390625V12.9744Z" fill="#002868"/>
</g>
<defs>
<clipPath id="clip0_224_2033">
<rect width="45" height="29.7" fill="white" transform="translate(0 0.100098)"/>
</clipPath>
</defs>
</svg>
