<svg width="80" height="54" viewBox="0 0 80 54" fill="none" xmlns="http://www.w3.org/2000/svg">
<g clip-path="url(#clip0_224_551)">
<path d="M0 0.333984H80V53.6673H0V0.333984Z" fill="white"/>
<path d="M20 0.333984H80V53.6673H20V0.333984Z" fill="#01411C"/>
<path d="M50 43.0007C58.8366 43.0007 66 35.8373 66 27.0007C66 18.1642 58.8366 11.0007 50 11.0007C41.1634 11.0007 34 18.1642 34 27.0007C34 35.8373 41.1634 43.0007 50 43.0007Z" fill="white"/>
<path d="M63.8329 34.3272C69.887 28.9457 70.4323 19.6753 65.0508 13.6212C59.6692 7.5671 50.3988 7.02186 44.3447 12.4034C38.2906 17.7849 37.7454 27.0553 43.1269 33.1094C48.5084 39.1635 57.7788 39.7087 63.8329 34.3272Z" fill="#01411C"/>
<path d="M55.8373 15.0281L62.5773 22.6101L52.668 20.4381L61.9613 16.3714L56.8333 25.1241L55.8373 15.0281Z" fill="white"/>
</g>
<defs>
<clipPath id="clip0_224_551">
<rect width="80" height="53.3333" fill="white" transform="translate(0 0.333984)"/>
</clipPath>
</defs>
</svg>
