<svg width="80" height="54" viewBox="0 0 80 54" fill="none" xmlns="http://www.w3.org/2000/svg">
<g clip-path="url(#clip0_224_557)">
<rect width="80" height="53.3333" fill="white"/>
<path d="M-5.16889 52.4391L47.6791 26.54L80.8158 53.1218C82.5391 52.4531 83.7536 50.9763 83.7536 49.2766V4.22132C83.7536 1.89472 81.5051 0 78.7807 0H-1.88641C-4.62728 0 -6.85938 1.89472 -6.85938 4.22132V49.2627C-6.85938 50.5305 -6.20288 51.659 -5.16889 52.4391ZM77.7303 53.4979H-1.88641C-2.96963 53.4979 -3.97079 53.2054 -4.775 52.7038L77.7303 53.4979ZM47.6791 26.54L-5.15248 52.4391L47.6791 26.54ZM47.6791 26.54L-5.15248 52.4391L47.6791 26.54Z" fill="#0038A8"/>
<path d="M-5.33203 26.6667H48.1301L-3.67342 52.285C-4.68791 51.5124 -5.33203 50.395 -5.33203 49.1396V26.6667ZM83.5569 26.6667V49.1534C83.5569 51.4572 81.3507 53.3334 78.6776 53.3334H-0.452804C-1.69274 53.3334 -2.81995 52.9333 -3.67342 52.285L48.114 26.6667H83.5569V26.6667Z" fill="#CE1126"/>
<path d="M45.3118 26.6536L-5.24227 56.2415C-6.23137 55.3502 -6.85938 54.061 -6.85938 52.6126V1.15603C-6.85938 -0.43558 -6.09007 -1.85211 -4.89687 -2.74341L45.3118 26.6536Z" fill="white"/>
<path d="M21.9546 26.4883C21.9546 23.5528 19.5657 21.1797 16.6413 21.1797C13.717 21.1797 11.3281 23.5665 11.3281 26.4883C11.3281 29.4101 13.717 31.797 16.6413 31.797C19.5657 31.797 21.9546 29.4101 21.9546 26.4883Z" fill="#FCD116"/>
<path d="M5.39844 26.4884L6.09863 27.188L16.6427 26.4884L6.09863 25.7888L5.39844 26.4884Z" fill="#FCD116"/>
<path d="M6.59375 27.8052L7.14292 28.3676L16.6436 26.4883L6.59375 27.8052Z" fill="#FCD116"/>
<path d="M6.59375 25.1715L7.14292 24.6091L16.6436 26.4884L6.59375 25.1715Z" fill="#FCD116"/>
<path d="M8.69531 18.5461V19.5475L16.6445 26.4885L9.67009 18.5461H8.69531Z" fill="#FCD116"/>
<path d="M8.59766 20.3157V21.1113L16.643 26.4885L8.59766 20.3157Z" fill="#FCD116"/>
<path d="M10.4531 18.45H11.2632L16.645 26.4884L10.4531 18.45Z" fill="#FCD116"/>
<path d="M16.6377 15.2676L15.9375 15.9534L16.6377 26.4884L17.3379 15.9534L16.6377 15.2676Z" fill="#FCD116"/>
<path d="M15.3071 16.4473L14.7305 17.0097L16.6388 26.4884L15.3071 16.4473Z" fill="#FCD116"/>
<path d="M17.9449 16.4473L18.5215 17.0097L16.6406 26.4884L17.9449 16.4473Z" fill="#FCD116"/>
<path d="M24.5761 18.5461H23.5876L16.6406 26.4885L24.5761 19.5475V18.5461Z" fill="#FCD116"/>
<path d="M22.8051 18.45H21.995L16.6406 26.4884L22.8051 18.45Z" fill="#FCD116"/>
<path d="M24.6722 20.3157V21.1113L16.6406 26.4885L24.6722 20.3157Z" fill="#FCD116"/>
<path d="M27.8574 26.4884L27.1572 25.7888L16.6406 26.4884L27.1572 27.188L27.8574 26.4884Z" fill="#FCD116"/>
<path d="M26.6904 25.1715L26.1138 24.6091L16.6406 26.4884L26.6904 25.1715Z" fill="#FCD116"/>
<path d="M26.6904 27.8052L26.1138 28.3676L16.6406 26.4883L26.6904 27.8052Z" fill="#FCD116"/>
<path d="M24.5761 34.417V33.4293L16.6406 26.4883L23.5876 34.417H24.5761Z" fill="#FCD116"/>
<path d="M24.6722 32.6474V31.8518L16.6406 26.4883L24.6722 32.6474Z" fill="#FCD116"/>
<path d="M22.8051 34.513H21.995L16.6406 26.4883L22.8051 34.513Z" fill="#FCD116"/>
<path d="M16.6377 37.7091L17.3379 37.0095L16.6377 26.4883L15.9375 37.0095L16.6377 37.7091Z" fill="#FCD116"/>
<path d="M17.9449 36.5294L18.5215 35.9533L16.6406 26.4883L17.9449 36.5294Z" fill="#FCD116"/>
<path d="M15.3071 36.5294L14.7305 35.9533L16.6388 26.4883L15.3071 36.5294Z" fill="#FCD116"/>
<path d="M8.69531 34.417H9.67009L16.6445 26.4883L8.69531 33.4293V34.417Z" fill="#FCD116"/>
<path d="M10.4531 34.513H11.2632L16.645 26.4883L10.4531 34.513Z" fill="#FCD116"/>
<path d="M8.59766 32.6474V31.8518L16.643 26.4883L8.59766 32.6474Z" fill="#FCD116"/>
<path d="M40.8349 26.4883L38.8304 27.1879L38.7892 29.2866L37.5124 27.6131L35.4805 28.2167L36.7024 26.4883H40.8349Z" fill="#FCD116"/>
<path d="M40.8349 26.4883L38.8304 25.7888L38.7892 23.6763L37.5124 25.3498L35.4805 24.7599L36.7024 26.4883H40.8349Z" fill="#FCD116"/>
<path d="M2.74815 48.4501L3.1463 46.3924L1.32031 45.2813L3.43462 45.0207L3.90141 42.9768L4.82127 44.8835L2.74815 48.4501Z" fill="#FCD116"/>
<path d="M2.75 48.4499L4.34259 47.0645L6.19604 48.0933L5.37229 46.1454L6.92369 44.7051L4.82312 44.8834L2.75 48.4499Z" fill="#FCD116"/>
<path d="M2.75 4.52686L4.34259 5.8986L6.19604 4.88351L5.37229 6.81766L6.92369 8.27171L4.82312 8.09338L2.75 4.52686Z" fill="#FCD116"/>
<path d="M2.74815 4.52686L3.1463 6.59819L1.32031 7.68186L3.43462 7.95621L3.90141 10.0138L4.82127 8.09338L2.74815 4.52686Z" fill="#FCD116"/>
</g>
<defs>
<clipPath id="clip0_224_557">
<rect width="80" height="53.3333" fill="white"/>
</clipPath>
</defs>
</svg>
