<svg width="45" height="31" viewBox="0 0 45 31" fill="none" xmlns="http://www.w3.org/2000/svg">
<g clip-path="url(#clip0_224_1893)">
<path d="M0 0.5H45V30.2H0V0.5Z" fill="#FF0000"/>
<path d="M0 0.5H18V30.2H0V0.5Z" fill="#006600"/>
<path fill-rule="evenodd" clip-rule="evenodd" d="M23.8674 19.9564C21.6016 19.8888 11.2119 13.4684 11.1406 12.446L11.7144 11.4988C12.7449 12.9813 23.3664 19.2252 24.4096 19.004L23.8674 19.9561" fill="#FFFF00"/>
<path d="M23.8674 19.9564C21.6016 19.8888 11.2119 13.4684 11.1406 12.446L11.7144 11.4988C12.7449 12.9813 23.3664 19.2252 24.4096 19.004L23.8674 19.9561" stroke="black" stroke-width="0.262466" stroke-linecap="round" stroke-linejoin="round"/>
<path fill-rule="evenodd" clip-rule="evenodd" d="M11.5956 11.3701C11.3924 11.9117 14.3068 13.6955 17.8133 15.8069C21.3197 17.9181 24.3432 19.2228 24.5673 19.0357C24.581 19.0116 24.6776 18.8471 24.6687 18.8484C24.6267 18.911 24.5245 18.9308 24.365 18.8853C23.4176 18.6148 20.9468 17.492 17.8868 15.6549C14.827 13.8178 12.1648 12.1248 11.7511 11.4055C11.7223 11.3556 11.7017 11.2647 11.7059 11.194L11.6959 11.1938L11.6078 11.3463L11.5957 11.3702H11.5956V11.3701ZM23.9226 19.9861C23.8842 20.0551 23.8126 20.0574 23.6765 20.0426C22.829 19.9498 20.2573 18.7117 17.2143 16.9083C13.6736 14.81 10.7493 12.898 11.0666 12.3983L11.1529 12.2473L11.1699 12.2525C10.8846 13.0993 16.941 16.5277 17.2976 16.7463C20.8019 18.8956 23.7562 20.1507 24.0176 19.8245L23.9225 19.9865V19.9863L23.9226 19.9861Z" fill="#FFFF00" stroke="black" stroke-width="0.262466" stroke-linecap="round" stroke-linejoin="round"/>
<path fill-rule="evenodd" clip-rule="evenodd" d="M18.014 13.0651C20.2818 13.0474 23.0803 12.7583 24.6907 12.1229L24.3437 11.5647C23.3918 12.0864 20.578 12.4293 17.9948 12.4806C14.9396 12.4528 12.7831 12.1711 11.7025 11.4534L11.375 12.0477C13.3613 12.8799 15.3967 13.0566 18.014 13.0652" fill="#FFFF00"/>
<path d="M18.014 13.0651C20.2818 13.0474 23.0803 12.7583 24.6907 12.1229L24.3437 11.5647C23.3918 12.0864 20.578 12.4293 17.9948 12.4806C14.9396 12.4528 12.7831 12.1711 11.7025 11.4534L11.375 12.0477C13.3613 12.8799 15.3967 13.0566 18.014 13.0652" stroke="black" stroke-width="0.262466" stroke-linecap="round" stroke-linejoin="round"/>
<path fill-rule="evenodd" clip-rule="evenodd" d="M24.7854 12.1358C24.73 12.2235 23.6797 12.5821 22.1324 12.8467C21.0833 13.0051 19.7149 13.1404 18.0072 13.1421C16.3847 13.1436 15.0593 13.0292 14.0559 12.8946C12.4317 12.6424 11.5934 12.2917 11.2835 12.1677C11.3131 12.1094 11.3322 12.0684 11.3607 12.014C12.2529 12.3656 13.095 12.5776 14.0817 12.7279C15.0785 12.8616 16.388 12.9775 18.0023 12.9761C19.7021 12.9743 21.0556 12.8287 22.0985 12.6751C23.6852 12.4218 24.5519 12.0957 24.6736 11.9443L24.7856 12.1358H24.7855H24.7854ZM24.4809 11.5698C24.3089 11.7065 23.4521 12.0074 21.9444 12.2457C20.9384 12.3884 19.6591 12.5162 18.0246 12.5178C16.4718 12.5193 15.2031 12.4157 14.2383 12.2765C12.7072 12.0786 11.8923 11.7215 11.5986 11.6174C11.6278 11.5674 11.6575 11.5177 11.6881 11.4679C11.9167 11.5819 12.7031 11.8979 14.2551 12.1156C15.2091 12.2494 16.4795 12.3492 18.0247 12.3477C19.6514 12.346 20.9162 12.2158 21.9159 12.0738C23.4313 11.8674 24.2467 11.4837 24.3705 11.3877L24.481 11.5696V11.5698L24.4809 11.5698ZM10.5684 15.7703C11.9633 16.513 15.0613 16.8873 17.993 16.9131C20.6623 16.9172 24.1398 16.5046 25.4402 15.8224L25.4045 15.079C24.9976 15.7084 21.271 16.3122 17.964 16.2875C14.6571 16.2627 11.5862 15.7571 10.5625 15.1025L10.5685 15.7701" fill="#FFFF00"/>
<path d="M10.5684 15.7703C11.9633 16.513 15.0613 16.8873 17.993 16.9131C20.6623 16.9172 24.1398 16.5046 25.4402 15.8224L25.4045 15.079C24.9976 15.7084 21.271 16.3122 17.964 16.2875C14.6571 16.2627 11.5862 15.7571 10.5625 15.1025L10.5685 15.7701M24.7854 12.1358C24.73 12.2235 23.6797 12.5821 22.1324 12.8467C21.0833 13.0051 19.7149 13.1404 18.0072 13.1421C16.3847 13.1436 15.0593 13.0292 14.0559 12.8946C12.4317 12.6424 11.5934 12.2917 11.2835 12.1677C11.3131 12.1094 11.3322 12.0684 11.3607 12.014C12.2529 12.3656 13.095 12.5776 14.0817 12.7279C15.0785 12.8616 16.388 12.9775 18.0023 12.9761C19.7021 12.9743 21.0556 12.8287 22.0985 12.6751C23.6852 12.4218 24.5519 12.0957 24.6736 11.9443L24.7856 12.1358H24.7855H24.7854ZM24.4809 11.5698C24.3089 11.7065 23.4521 12.0074 21.9444 12.2457C20.9384 12.3884 19.6591 12.5162 18.0246 12.5178C16.4718 12.5193 15.2031 12.4157 14.2383 12.2765C12.7072 12.0786 11.8923 11.7215 11.5986 11.6174C11.6278 11.5674 11.6575 11.5177 11.6881 11.4679C11.9167 11.5819 12.7031 11.8979 14.2551 12.1156C15.2091 12.2494 16.4795 12.3492 18.0247 12.3477C19.6514 12.346 20.9162 12.2158 21.9159 12.0738C23.4313 11.8674 24.2467 11.4837 24.3705 11.3877L24.481 11.5696V11.5698L24.4809 11.5698Z" stroke="black" stroke-width="0.262466" stroke-linecap="round" stroke-linejoin="round"/>
<path fill-rule="evenodd" clip-rule="evenodd" d="M25.51 15.6631V15.8403C25.3146 16.0717 24.0891 16.4214 22.5523 16.6676C21.3827 16.8452 19.8578 16.9791 17.9577 16.9791C16.1524 16.9791 14.7129 16.8517 13.5966 16.682C11.8318 16.4276 10.7031 15.9821 10.4766 15.8492L10.4775 15.6423C11.1582 16.0903 13.0021 16.418 13.6213 16.5183C14.7304 16.6869 16.1614 16.8134 17.9576 16.8134C19.8488 16.8134 21.3651 16.6803 22.5274 16.504C23.63 16.3464 25.2007 15.9363 25.5099 15.6632H25.51V15.6631ZM25.5108 15.0326V15.2098C25.3154 15.441 24.0899 15.7907 22.5531 16.037C21.3834 16.2145 19.8585 16.3484 17.9584 16.3484C16.1532 16.3484 14.7137 16.2211 13.5973 16.0513C11.8326 15.7971 10.7038 15.3516 10.4773 15.2185L10.4783 15.0117C11.1589 15.4597 13.0029 15.7874 13.6221 15.8876C14.7312 16.0563 16.1622 16.1828 17.9583 16.1828C19.8495 16.1828 21.3659 16.0497 22.5282 15.8732C23.6307 15.7155 25.2015 15.3055 25.5107 15.0324L25.5108 15.0326V15.0326ZM17.9853 19.8285C14.7774 19.8096 12.0287 18.9629 11.4483 18.8229L11.8715 19.4788C12.8967 19.9058 15.5783 20.5421 18.016 20.4716C20.4538 20.4012 22.5843 20.2143 24.0856 19.4908L24.5196 18.8109C23.4965 19.288 20.0145 19.8236 17.9853 19.8285" fill="#FFFF00"/>
<path d="M17.9853 19.8285C14.7774 19.8096 12.0287 18.9629 11.4483 18.8229L11.8715 19.4788C12.8967 19.9058 15.5783 20.5421 18.016 20.4716C20.4538 20.4012 22.5843 20.2143 24.0856 19.4908L24.5196 18.8109C23.4965 19.288 20.0145 19.8236 17.9853 19.8285M25.51 15.6631V15.8403C25.3146 16.0717 24.0891 16.4214 22.5523 16.6676C21.3827 16.8452 19.8578 16.9791 17.9577 16.9791C16.1524 16.9791 14.7129 16.8517 13.5966 16.682C11.8318 16.4276 10.7031 15.9821 10.4766 15.8492L10.4775 15.6423C11.1582 16.0903 13.0021 16.418 13.6213 16.5183C14.7304 16.6869 16.1614 16.8134 17.9576 16.8134C19.8488 16.8134 21.3651 16.6803 22.5274 16.504C23.63 16.3464 25.2007 15.9363 25.5099 15.6632H25.51V15.6631ZM25.5108 15.0326V15.2098C25.3154 15.441 24.0899 15.7907 22.5531 16.037C21.3834 16.2145 19.8585 16.3484 17.9584 16.3484C16.1532 16.3484 14.7137 16.2211 13.5973 16.0513C11.8326 15.7971 10.7038 15.3516 10.4773 15.2185L10.4783 15.0117C11.1589 15.4597 13.0029 15.7874 13.6221 15.8876C14.7312 16.0563 16.1622 16.1828 17.9583 16.1828C19.8495 16.1828 21.3659 16.0497 22.5282 15.8732C23.6307 15.7155 25.2015 15.3055 25.5107 15.0324L25.5108 15.0326V15.0326Z" stroke="black" stroke-width="0.262466" stroke-linecap="round" stroke-linejoin="round"/>
<path fill-rule="evenodd" clip-rule="evenodd" d="M24.2482 19.3384C24.185 19.4343 24.1201 19.5291 24.0535 19.6228C23.3454 19.87 22.2295 20.1295 21.7587 20.2052C20.7969 20.4014 19.3089 20.5463 17.9882 20.5469C15.1464 20.5058 12.8203 19.955 11.726 19.4852L11.6376 19.335L11.6521 19.3124L11.8018 19.3699C13.7479 20.0592 15.9336 20.3341 18.0042 20.3835C19.3195 20.3881 20.6363 20.2343 21.7011 20.0458C23.3339 19.7219 23.9941 19.4777 24.1967 19.3671L24.2482 19.3384V19.3384ZM24.6245 18.724L24.6294 18.7297C24.5809 18.8108 24.5319 18.8916 24.4822 18.972C24.1046 19.1057 23.0796 19.4025 21.5828 19.6098C20.5966 19.7427 19.9836 19.8716 18.0219 19.9093C14.3457 19.8167 11.9656 19.1051 11.4002 18.9295L11.3164 18.7704C13.4469 19.321 15.6231 19.7054 18.022 19.7446C19.8168 19.7068 20.5804 19.576 21.5584 19.4439C23.3037 19.1752 24.1831 18.8908 24.447 18.8087C24.4434 18.8035 24.4396 18.7986 24.4355 18.7938L24.6247 18.7239L24.6246 18.724H24.6245Z" fill="#FFFF00" stroke="black" stroke-width="0.251931" stroke-linecap="round" stroke-linejoin="round"/>
<path fill-rule="evenodd" clip-rule="evenodd" d="M24.6668 15.1834C24.6773 17.2726 23.5973 19.1473 22.7275 19.9744C21.4969 21.1445 19.8653 21.8972 17.9598 21.9319C15.8321 21.9705 13.8258 20.5973 13.2877 19.994C12.2356 18.8145 11.379 17.3168 11.3516 15.2982C11.4819 13.0181 12.386 11.4298 13.6967 10.3406C15.0073 9.25144 16.7524 8.721 18.2057 8.75894C19.8826 8.80275 21.8414 9.61712 23.1948 11.2338C24.0815 12.2931 24.4655 13.4426 24.6668 15.1834ZM17.9779 8.03003C22.0643 8.03003 25.4251 11.3221 25.4251 15.3587C25.4251 19.3953 22.0643 22.6875 17.9779 22.6875C13.8915 22.6875 10.5586 19.3953 10.5586 15.3587C10.5586 11.3221 13.8915 8.03003 17.9779 8.03003" fill="#FFFF00"/>
<path d="M17.9779 8.03003C22.0643 8.03003 25.4251 11.3221 25.4251 15.3587C25.4251 19.3953 22.0643 22.6875 17.9779 22.6875C13.8915 22.6875 10.5586 19.3953 10.5586 15.3587C10.5586 11.3221 13.8915 8.03003 17.9779 8.03003M24.6668 15.1834C24.6773 17.2726 23.5973 19.1473 22.7275 19.9744C21.4969 21.1445 19.8653 21.8972 17.9598 21.9319C15.8321 21.9705 13.8258 20.5973 13.2877 19.994C12.2356 18.8145 11.379 17.3168 11.3516 15.2982C11.4819 13.0181 12.386 11.4298 13.6967 10.3406C15.0073 9.25144 16.7524 8.721 18.2057 8.75894C19.8826 8.80275 21.8414 9.61712 23.1948 11.2338C24.0815 12.2931 24.4655 13.4426 24.6668 15.1834Z" stroke="black" stroke-width="0.262466" stroke-linecap="round" stroke-linejoin="round"/>
<path fill-rule="evenodd" clip-rule="evenodd" d="M17.9961 8.00513C22.0862 8.00513 25.422 11.308 25.422 15.3575C25.422 19.407 22.0861 22.7097 17.9961 22.7097C13.9061 22.7097 10.5703 19.407 10.5703 15.3575C10.5703 11.308 13.9062 8.00513 17.9961 8.00513V8.00513ZM10.7337 15.3575C10.7337 19.3121 14.0139 22.548 17.9961 22.548C21.9784 22.548 25.2586 19.3121 25.2586 15.3575C25.2586 11.4028 21.9783 8.16684 17.9961 8.16684C14.0139 8.16684 10.7337 11.403 10.7337 15.3575V15.3575Z" fill="#FFFF00" stroke="black" stroke-width="0.262466" stroke-linecap="round" stroke-linejoin="round"/>
<path fill-rule="evenodd" clip-rule="evenodd" d="M18.0012 8.61621C21.731 8.61621 24.8032 11.6472 24.8032 15.351C24.8032 19.0549 21.7309 22.0857 18.0012 22.0857C14.2714 22.0857 11.1992 19.0549 11.1992 15.351C11.1992 11.6472 14.2715 8.61621 18.0012 8.61621V8.61621ZM11.3626 15.3509C11.3626 18.9658 14.361 21.9238 18.0012 21.9238C21.6414 21.9238 24.6398 18.9658 24.6398 15.3509C24.6398 11.736 21.6415 8.77793 18.0012 8.77793C14.361 8.77793 11.3626 11.736 11.3626 15.3509V15.3509Z" fill="#FFFF00" stroke="black" stroke-width="0.262466" stroke-linecap="round" stroke-linejoin="round"/>
<path fill-rule="evenodd" clip-rule="evenodd" d="M18.3004 7.97534H17.6641L17.6648 22.7481H18.3034L18.3004 7.97534Z" fill="#FFFF00" stroke="black" stroke-width="0.262466" stroke-linecap="round" stroke-linejoin="round"/>
<path fill-rule="evenodd" clip-rule="evenodd" d="M18.237 7.89111H18.399L18.4004 22.8339H18.2383L18.2371 7.89111H18.237ZM17.6055 7.89126H17.7687L17.7689 22.8341H17.6055V7.89126H17.6055Z" fill="#FFFF00" stroke="black" stroke-width="0.262466" stroke-linecap="round" stroke-linejoin="round"/>
<path fill-rule="evenodd" clip-rule="evenodd" d="M25.4243 15.642V15.0959L24.9751 14.6816L22.4251 14.0133L18.7501 13.6421L14.3251 13.8648L11.1751 14.6073L10.5391 15.0736V15.6199L12.1501 14.9043L15.9751 14.3103H19.6501L22.3501 14.6073L24.2251 15.0528L25.4243 15.642Z" fill="#FFFF00" stroke="black" stroke-width="0.262466" stroke-linecap="round" stroke-linejoin="round"/>
<path fill-rule="evenodd" clip-rule="evenodd" d="M17.998 14.2191C19.7517 14.2159 21.4533 14.3835 22.8029 14.6438C24.1956 14.9194 25.1757 15.2641 25.5108 15.6513L25.5104 15.8431C25.1063 15.3612 23.7874 15.008 22.7715 14.806C21.4322 14.5481 19.7421 14.3815 17.998 14.3847C16.1577 14.3881 14.444 14.5607 13.1242 14.8156C12.0652 15.0236 10.6529 15.4369 10.4766 15.8445V15.6449C10.5734 15.3627 11.625 14.9411 13.1004 14.6487C14.43 14.392 16.1469 14.2224 17.998 14.2191V14.2191ZM17.9988 13.5885C19.7525 13.5854 21.454 13.7531 22.8036 14.0132C24.1963 14.2889 25.1764 14.6336 25.5115 15.0208L25.5111 15.2126C25.107 14.7308 23.7882 14.3775 22.7723 14.1756C21.4329 13.9175 19.7428 13.751 17.9988 13.7543C16.1584 13.7576 14.4531 13.9303 13.1331 14.1851C12.1112 14.3769 10.6412 14.8065 10.4772 15.2142V15.0144C10.5741 14.7352 11.647 14.2985 13.1011 14.0182C14.4308 13.7615 16.1476 13.592 17.9988 13.5885V13.5885ZM17.9628 10.3722C20.7264 10.3585 23.137 10.7547 24.2399 11.314L24.6422 12.003C23.6836 11.4916 21.083 10.9598 17.9668 11.0393C15.4278 11.0547 12.7148 11.316 11.3536 12.035L11.8338 11.2399C12.951 10.6663 15.5855 10.3754 17.9628 10.3723" fill="#FFFF00"/>
<path d="M17.9628 10.3722C20.7264 10.3585 23.137 10.7547 24.2399 11.314L24.6422 12.003C23.6836 11.4916 21.083 10.9598 17.9668 11.0393C15.4278 11.0547 12.7148 11.316 11.3536 12.035L11.8338 11.2399C12.951 10.6663 15.5855 10.3754 17.9628 10.3723M17.998 14.2191C19.7517 14.2159 21.4533 14.3835 22.8029 14.6438C24.1956 14.9194 25.1757 15.2641 25.5108 15.6513L25.5104 15.8431C25.1063 15.3612 23.7874 15.008 22.7715 14.806C21.4322 14.5481 19.7421 14.3815 17.998 14.3847C16.1577 14.3881 14.444 14.5607 13.1242 14.8156C12.0652 15.0236 10.6529 15.4369 10.4766 15.8445V15.6449C10.5734 15.3627 11.625 14.9411 13.1004 14.6487C14.43 14.392 16.1469 14.2224 17.998 14.2191V14.2191ZM17.9988 13.5885C19.7525 13.5854 21.454 13.7531 22.8036 14.0132C24.1963 14.2889 25.1764 14.6336 25.5115 15.0208L25.5111 15.2126C25.107 14.7308 23.7882 14.3775 22.7723 14.1756C21.4329 13.9175 19.7428 13.751 17.9988 13.7543C16.1584 13.7576 14.4531 13.9303 13.1331 14.1851C12.1112 14.3769 10.6412 14.8065 10.4772 15.2142V15.0144C10.5741 14.7352 11.647 14.2985 13.1011 14.0182C14.4308 13.7615 16.1476 13.592 17.9988 13.5885V13.5885Z" stroke="black" stroke-width="0.262466" stroke-linecap="round" stroke-linejoin="round"/>
<path fill-rule="evenodd" clip-rule="evenodd" d="M17.9988 10.9409C19.5751 10.9367 21.0982 11.0248 22.3095 11.2411C23.4376 11.449 24.5134 11.7609 24.6672 11.9287L24.7865 12.1373C24.4124 11.8955 23.4815 11.6262 22.286 11.4018C21.0856 11.1785 19.5635 11.1044 17.996 11.1085C16.2169 11.1025 14.8346 11.1955 13.6484 11.4002C12.3938 11.6326 11.5233 11.9646 11.3086 12.1224L11.4254 11.9019C11.8427 11.6912 12.5047 11.4371 13.6172 11.2388C14.8439 11.017 16.2409 10.9504 17.9989 10.9409H17.9988ZM17.9981 10.3109C19.5066 10.307 20.996 10.3902 22.157 10.5968C23.0727 10.7733 23.9783 11.0488 24.3098 11.294L24.4843 11.5683C24.1877 11.242 23.0716 10.9328 22.0862 10.7596C20.9342 10.5629 19.5066 10.485 17.9981 10.4726C16.415 10.477 14.952 10.573 13.8167 10.7776C12.7337 10.9817 12.0347 11.2232 11.739 11.4119L11.8924 11.1827C12.3005 10.97 12.9598 10.7747 13.7901 10.615C14.9338 10.4088 16.4058 10.3153 17.9982 10.3109H17.9981ZM21.6873 18.4134C20.321 18.1609 18.9521 18.1242 17.996 18.1353C13.3905 18.1888 11.9027 19.0716 11.7212 19.3389L11.3769 18.7834C12.5495 17.942 15.0575 17.4701 18.021 17.5184C19.5599 17.5433 20.8878 17.6444 22.0049 17.8587L21.6872 18.4135" fill="#FFFF00"/>
<path d="M21.6873 18.4134C20.321 18.1609 18.9521 18.1242 17.996 18.1353C13.3905 18.1888 11.9027 19.0716 11.7212 19.3389L11.3769 18.7834C12.5495 17.942 15.0575 17.4701 18.021 17.5184C19.5599 17.5433 20.8878 17.6444 22.0049 17.8587L21.6872 18.4135M17.9988 10.9409C19.5751 10.9367 21.0982 11.0248 22.3095 11.2411C23.4376 11.449 24.5134 11.7609 24.6672 11.9287L24.7865 12.1373C24.4124 11.8955 23.4815 11.6262 22.286 11.4018C21.0856 11.1785 19.5635 11.1044 17.996 11.1085C16.2169 11.1025 14.8346 11.1955 13.6484 11.4002C12.3938 11.6326 11.5233 11.9646 11.3086 12.1224L11.4254 11.9019C11.8427 11.6912 12.5047 11.4371 13.6172 11.2388C14.8439 11.017 16.2409 10.9504 17.9989 10.9409H17.9988ZM17.9981 10.3109C19.5066 10.307 20.996 10.3902 22.157 10.5968C23.0727 10.7733 23.9783 11.0488 24.3098 11.294L24.4843 11.5683C24.1877 11.242 23.0716 10.9328 22.0862 10.7596C20.9342 10.5629 19.5066 10.485 17.9981 10.4726C16.415 10.477 14.952 10.573 13.8167 10.7776C12.7337 10.9817 12.0347 11.2232 11.739 11.4119L11.8924 11.1827C12.3005 10.97 12.9598 10.7747 13.7901 10.615C14.9338 10.4088 16.4058 10.3153 17.9982 10.3109H17.9981Z" stroke="black" stroke-width="0.262466" stroke-linecap="round" stroke-linejoin="round"/>
<path fill-rule="evenodd" clip-rule="evenodd" d="M17.9701 18.057C19.2513 18.0759 20.5088 18.1282 21.7226 18.3523L21.6347 18.506C20.5074 18.3 19.3056 18.2211 17.9745 18.2276C16.2747 18.2144 14.5556 18.3716 13.0589 18.7968C12.5866 18.9269 11.8048 19.2274 11.7251 19.4759L11.6376 19.3331C11.6628 19.1863 12.1353 18.8816 13.0187 18.6359C14.733 18.1499 16.3367 18.0679 17.9702 18.0568V18.057H17.9701ZM18.0282 17.4187C19.3556 17.4432 20.7264 17.504 22.0587 17.7653L21.9672 17.9252C20.7641 17.6887 19.6145 17.6099 18.0361 17.5858C16.331 17.589 14.5223 17.7093 12.8778 18.1826C12.3468 18.3358 11.4305 18.6667 11.4 18.9288L11.3125 18.7755C11.3324 18.5374 12.1257 18.2269 12.8394 18.0214C14.4966 17.5444 16.31 17.4217 18.0283 17.4187H18.0282Z" fill="#FFFF00" stroke="black" stroke-width="0.251931" stroke-linecap="round" stroke-linejoin="round"/>
<path fill-rule="evenodd" clip-rule="evenodd" d="M24.571 18.8679L24.0176 19.7179L22.4275 18.3199L18.3025 15.5726L13.6525 13.0481L11.2383 12.2307L11.7528 11.2862L11.9275 11.1919L13.4275 11.5631L18.3775 14.0876L21.2275 15.8696L23.6275 17.5774L24.6025 18.6911L24.571 18.8679Z" fill="#FFFF00" stroke="black" stroke-width="0.262466" stroke-linecap="round" stroke-linejoin="round"/>
<path fill-rule="evenodd" clip-rule="evenodd" d="M11.1482 12.2529C11.5717 11.9685 14.6836 13.341 17.9398 15.2848C21.1874 17.2341 24.2906 19.4369 24.0105 19.8492L23.9184 19.9926L23.8761 20.0256C23.8851 20.0192 23.9318 19.9627 23.8716 19.8099C23.7331 19.3592 21.5319 17.6202 17.8795 15.4369C14.3188 13.3349 11.3515 12.0681 11.0547 12.4302L11.1482 12.2528V12.2529ZM24.6812 18.8557C24.949 18.3321 22.0625 16.1794 18.4838 14.0835C14.8228 12.0293 12.1843 10.8201 11.7023 11.1807L11.5952 11.3737C11.5943 11.3843 11.5991 11.3605 11.6218 11.3432C11.7094 11.2675 11.8546 11.2727 11.9202 11.2714C12.7501 11.2837 15.1202 12.3636 18.4456 14.2509C19.9027 15.0911 24.601 18.0741 24.583 18.9131C24.5843 18.9851 24.589 19 24.5617 19.0357L24.6812 18.8558V18.8556V18.8557Z" fill="#FFFF00" stroke="black" stroke-width="0.262466" stroke-linecap="round" stroke-linejoin="round"/>
<path d="M13.544 16.1674C13.544 17.3755 14.0437 18.4682 14.8533 19.2667C15.6644 20.067 16.7667 20.572 17.989 20.572C19.2175 20.572 20.3325 20.078 21.1402 19.2808C21.9478 18.4838 22.4484 17.3836 22.4486 16.1713H22.4485V10.2915L13.543 10.281L13.5439 16.1674H13.544V16.1674Z" fill="white" stroke="black" stroke-width="0.306898"/>
<path d="M13.7111 16.1757V16.179C13.7111 17.3341 14.1942 18.386 14.9692 19.1497C15.7458 19.9148 16.8153 20.3905 17.9853 20.3905C19.1613 20.3905 20.2287 19.9183 21.0019 19.1561C21.775 18.3939 22.2542 17.3419 22.2543 16.1828H22.2542V10.4785L13.7162 10.4771L13.7109 16.1756M20.5376 12.1849L20.5379 15.815L20.5348 16.1991C20.5348 16.3001 20.5287 16.4153 20.5168 16.5134C20.4474 17.0873 20.1808 17.5875 19.7859 17.9767C19.3236 18.4323 18.6856 18.7149 17.9824 18.7149C17.2829 18.7149 16.6594 18.4225 16.1952 17.9649C15.719 17.4957 15.4429 16.8522 15.4429 16.1869L15.442 12.1757L20.5375 12.1847L20.5377 12.1849H20.5376Z" fill="#FF0000"/>
<path d="M13.7111 16.1757V16.179C13.7111 17.3341 14.1942 18.386 14.9692 19.1497C15.7458 19.9148 16.8153 20.3905 17.9853 20.3905C19.1613 20.3905 20.2287 19.9183 21.0019 19.1561C21.775 18.3939 22.2542 17.3419 22.2543 16.1828H22.2542V10.4785L13.7162 10.4771L13.7109 16.1756M20.5376 12.1849L20.5379 15.815L20.5348 16.1991C20.5348 16.3001 20.5287 16.4153 20.5168 16.5134C20.4474 17.0873 20.1808 17.5875 19.7859 17.9767C19.3236 18.4323 18.6856 18.7149 17.9824 18.7149C17.2829 18.7149 16.6594 18.4225 16.1952 17.9649C15.719 17.4957 15.4429 16.8522 15.4429 16.1869L15.442 12.1757L20.5375 12.1847L20.5377 12.1849H20.5376Z" stroke="black" stroke-width="0.232235"/>
<path d="M14.2617 11.9662C14.2718 11.5562 14.5656 11.4592 14.5677 11.4578C14.5699 11.4564 14.8851 11.5622 14.8841 11.97L14.2617 11.9662Z" fill="#FFFF00"/>
<path d="M14.0114 11.4659L13.9602 11.937L14.2707 11.9376C14.2737 11.5478 14.5689 11.483 14.576 11.4845C14.5827 11.4841 14.8752 11.5706 14.883 11.9376H15.1943L15.138 11.4629L14.0114 11.4657V11.4659ZM13.9394 11.9388H15.2103C15.2371 11.9388 15.2591 11.965 15.2591 11.997C15.2591 12.029 15.2371 12.055 15.2103 12.055H13.9394C13.9126 12.055 13.8906 12.029 13.8906 11.997C13.8906 11.965 13.9126 11.9388 13.9394 11.9388Z" fill="#FFFF00" stroke="black" stroke-width="0.229028"/>
<path d="M14.4036 11.9365C14.4049 11.6906 14.5732 11.621 14.5741 11.6211C14.5741 11.6211 14.7498 11.6929 14.7511 11.9365H14.4036ZM13.9686 11.2698H15.187C15.2126 11.2698 15.2337 11.2934 15.2337 11.3221C15.2337 11.3509 15.2127 11.3744 15.187 11.3744H13.9686C13.943 11.3744 13.9219 11.351 13.9219 11.3221C13.9219 11.2934 13.9429 11.2698 13.9686 11.2698ZM13.9941 11.3752H15.1594C15.184 11.3752 15.2041 11.3988 15.2041 11.4275C15.2041 11.4563 15.184 11.4798 15.1594 11.4798H13.9941C13.9696 11.4798 13.9495 11.4563 13.9495 11.4275C13.9495 11.3988 13.9696 11.3752 13.9941 11.3752ZM14.3706 10.5889L14.4626 10.5891V10.6537H14.5297V10.5876L14.624 10.5879V10.6538H14.6913V10.5877H14.7856L14.7855 10.737C14.7855 10.7605 14.7664 10.7756 14.7443 10.7756H14.4136C14.3913 10.7756 14.3708 10.758 14.3707 10.7366L14.3704 10.589H14.3705L14.3706 10.5889ZM14.7171 10.7886L14.7379 11.2676L14.4151 11.2665L14.4365 10.7874L14.7171 10.7886Z" fill="#FFFF00" stroke="black" stroke-width="0.229028"/>
<path d="M14.3199 11.0107L14.3298 11.2697L14.0195 11.2698L14.0283 11.0107H14.32H14.3199Z" fill="#FFFF00" stroke="black" stroke-width="0.229028"/>
<path d="M15.1207 11.0107L15.1305 11.2697L14.8203 11.2698L14.829 11.0107H15.1208H15.1207Z" fill="#FFFF00" stroke="black" stroke-width="0.229028"/>
<path d="M13.9727 10.8238L14.0627 10.824V10.8887H14.1285V10.8225L14.2208 10.8228V10.8888H14.2867V10.8225L14.3789 10.8227L14.3788 10.972C14.3788 10.9954 14.3601 11.0105 14.3386 11.0105H14.0148C13.9931 11.0105 13.9729 10.9931 13.9728 10.9715L13.9727 10.8238L13.9727 10.8238Z" fill="#FFFF00" stroke="black" stroke-width="0.229028"/>
<path d="M14.7696 10.8238L14.8596 10.824V10.8887H14.9254V10.8225L15.0176 10.8228V10.8888H15.0836V10.8225L15.1758 10.8227L15.1757 10.972C15.1757 10.9954 15.157 11.0105 15.1355 11.0105H14.8117C14.7899 11.0105 14.7698 10.9931 14.7697 10.9715L14.7695 10.8238L14.7696 10.8238Z" fill="#FFFF00" stroke="black" stroke-width="0.229028"/>
<path d="M14.5391 10.9401C14.5372 10.8936 14.6049 10.8931 14.6041 10.9401V11.0542H14.5391V10.9401Z" fill="black"/>
<path d="M14.1445 11.1056C14.1443 11.0606 14.2073 11.0597 14.2065 11.1056V11.1937H14.1445V11.1056Z" fill="black"/>
<path d="M14.9414 11.1056C14.9412 11.0606 15.0042 11.0597 15.0034 11.1056V11.1937H14.9414V11.1056Z" fill="black"/>
<path d="M14.2617 15.4056C14.2718 14.9957 14.5656 14.8986 14.5677 14.8972C14.5699 14.8958 14.8851 15.0017 14.8841 15.4094L14.2617 15.4056Z" fill="#FFFF00"/>
<path d="M14.0114 14.9053L13.9602 15.3764L14.2707 15.3771C14.2737 14.9873 14.5689 14.9225 14.576 14.924C14.5827 14.9236 14.8752 15.0101 14.883 15.3771H15.1943L15.138 14.9023L14.0114 14.9052V14.9053ZM13.9394 15.3783H15.2103C15.2371 15.3783 15.2591 15.4045 15.2591 15.4365C15.2591 15.4684 15.2371 15.4945 15.2103 15.4945H13.9394C13.9126 15.4945 13.8906 15.4685 13.8906 15.4365C13.8906 15.4045 13.9126 15.3783 13.9394 15.3783Z" fill="#FFFF00" stroke="black" stroke-width="0.229028"/>
<path d="M14.4036 15.376C14.4049 15.13 14.5732 15.0604 14.5741 15.0606C14.5741 15.0606 14.7498 15.1323 14.7511 15.376H14.4036ZM13.9686 14.7092H15.187C15.2126 14.7092 15.2337 14.7328 15.2337 14.7616C15.2337 14.7903 15.2127 14.8139 15.187 14.8139H13.9686C13.943 14.8139 13.9219 14.7905 13.9219 14.7616C13.9219 14.7328 13.9429 14.7092 13.9686 14.7092ZM13.9941 14.8147H15.1594C15.184 14.8147 15.2041 14.8382 15.2041 14.8669C15.2041 14.8957 15.184 14.9192 15.1594 14.9192H13.9941C13.9696 14.9192 13.9495 14.8957 13.9495 14.8669C13.9495 14.8382 13.9696 14.8147 13.9941 14.8147ZM14.3706 14.0284L14.4626 14.0285V14.0932H14.5297V14.0271L14.624 14.0274V14.0933H14.6913V14.0272H14.7856L14.7855 14.1764C14.7855 14.2 14.7664 14.2151 14.7443 14.2151H14.4136C14.3913 14.2151 14.3708 14.1975 14.3707 14.176L14.3704 14.0284H14.3705L14.3706 14.0284ZM14.7171 14.2281L14.7379 14.7071L14.4151 14.706L14.4365 14.2268L14.7171 14.2281Z" fill="#FFFF00" stroke="black" stroke-width="0.229028"/>
<path d="M14.3199 14.4502L14.3298 14.7092L14.0195 14.7092L14.0283 14.4502H14.32H14.3199Z" fill="#FFFF00" stroke="black" stroke-width="0.229028"/>
<path d="M15.1207 14.4502L15.1305 14.7092L14.8203 14.7092L14.829 14.4502H15.1208H15.1207Z" fill="#FFFF00" stroke="black" stroke-width="0.229028"/>
<path d="M13.9727 14.2632L14.0627 14.2634V14.3282H14.1285V14.262L14.2208 14.2623V14.3283H14.2867V14.262L14.3789 14.2621L14.3788 14.4115C14.3788 14.4348 14.3601 14.45 14.3386 14.45H14.0148C13.9931 14.45 13.9729 14.4325 13.9728 14.411L13.9727 14.2633L13.9727 14.2632Z" fill="#FFFF00" stroke="black" stroke-width="0.229028"/>
<path d="M14.7696 14.2632L14.8596 14.2634V14.3282H14.9254V14.262L15.0176 14.2623V14.3283H15.0836V14.262L15.1758 14.2621L15.1757 14.4115C15.1757 14.4348 15.157 14.45 15.1355 14.45H14.8117C14.7899 14.45 14.7698 14.4325 14.7697 14.411L14.7695 14.2633L14.7696 14.2632Z" fill="#FFFF00" stroke="black" stroke-width="0.229028"/>
<path d="M14.5391 14.3796C14.5372 14.333 14.6049 14.3325 14.6041 14.3796V14.4936H14.5391V14.3796Z" fill="black"/>
<path d="M14.1445 14.5451C14.1443 14.5001 14.2073 14.4992 14.2065 14.5451V14.6332H14.1445V14.5451Z" fill="black"/>
<path d="M14.9414 14.5451C14.9412 14.5001 15.0042 14.4992 15.0034 14.5451V14.6332H14.9414V14.5451Z" fill="black"/>
<path d="M15.6222 18.9857C15.3355 18.6897 15.473 18.4149 15.4734 18.4125C15.474 18.41 15.772 18.2631 16.0634 18.5511L15.6222 18.9857Z" fill="#FFFF00"/>
<path d="M15.0833 18.8111L15.3849 19.1789L15.6042 18.9613C15.3269 18.6845 15.4884 18.4315 15.4945 18.4276C15.499 18.4226 15.767 18.2781 16.0356 18.5312L16.2549 18.3125L15.875 18.0175L15.0832 18.811L15.0833 18.8111ZM15.3716 19.1949L16.2671 18.302C16.286 18.2832 16.3202 18.2862 16.3432 18.3088C16.3661 18.3313 16.3693 18.3651 16.3504 18.3839L15.4549 19.2768C15.436 19.2956 15.4019 19.2927 15.3789 19.2702C15.356 19.2476 15.3527 19.2137 15.3716 19.1949Z" fill="#FFFF00" stroke="black" stroke-width="0.229028"/>
<path d="M15.7008 18.8686C15.5254 18.6943 15.5941 18.5271 15.5949 18.5265C15.5949 18.5265 15.7701 18.4537 15.9457 18.6244L15.7008 18.8686ZM14.9164 18.7044L15.7749 17.8484C15.793 17.8304 15.8247 17.8323 15.8453 17.8525C15.8659 17.8728 15.868 17.9041 15.8499 17.9222L14.9914 18.7781C14.9733 18.7961 14.9417 18.7944 14.921 18.7741C14.9004 18.7538 14.8982 18.7225 14.9164 18.7044ZM15.0099 18.7608L15.8311 17.9421C15.8483 17.9248 15.8794 17.9273 15.9 17.9476C15.9206 17.9679 15.9233 17.9985 15.906 18.0157L15.0848 18.8344C15.0676 18.8517 15.0366 18.8492 15.0159 18.8289C14.9953 18.8087 14.9926 18.778 15.0099 18.7608ZM14.7116 17.9422L14.7766 17.8777L14.8229 17.9233L14.8702 17.8761L14.8229 17.8295L14.8895 17.7635L14.9367 17.8099L14.9841 17.7627L14.9367 17.7161L15.0032 17.6498L15.1101 17.7551C15.127 17.7717 15.1244 17.7957 15.1088 17.8113L14.8757 18.0436C14.8601 18.0593 14.833 18.0613 14.8175 18.0462L14.7116 17.9424L14.7116 17.9423L14.7116 17.9422ZM15.0989 17.8395L15.4569 18.1624L15.2287 18.3884L14.9003 18.0358L15.0989 17.8395Z" fill="#FFFF00" stroke="black" stroke-width="0.229028"/>
<path d="M14.9773 18.2721L15.1698 18.4477L14.9513 18.6657L14.7718 18.477L14.9773 18.2721L14.9773 18.2721Z" fill="#FFFF00" stroke="black" stroke-width="0.229028"/>
<path d="M15.5398 17.7133L15.7323 17.8888L15.5138 18.1068L15.3343 17.9182L15.5398 17.7132L15.5398 17.7133Z" fill="#FFFF00" stroke="black" stroke-width="0.229028"/>
<path d="M14.5986 18.3854L14.6622 18.3223L14.7086 18.3679L14.7549 18.3217L14.7075 18.275L14.7727 18.2104L14.82 18.2569L14.8664 18.2106L14.8189 18.1639L14.884 18.0992L14.991 18.2046C15.0077 18.221 15.0054 18.2448 14.9902 18.2599L14.7621 18.4874C14.7468 18.5027 14.7201 18.5045 14.7046 18.4894L14.5986 18.3855L14.5986 18.3854Z" fill="#FFFF00" stroke="black" stroke-width="0.229028"/>
<path d="M15.1572 17.8263L15.2208 17.7632L15.2672 17.8088L15.3135 17.7626L15.2661 17.716L15.3313 17.6514L15.3786 17.6979L15.425 17.6515L15.3775 17.6048L15.4426 17.5401L15.5496 17.6455C15.5663 17.6619 15.564 17.6857 15.5488 17.7008L15.3207 17.9283C15.3054 17.9436 15.2786 17.9454 15.2632 17.9303L15.1572 17.8264L15.1572 17.8263Z" fill="#FFFF00" stroke="black" stroke-width="0.229028"/>
<path d="M15.0839 18.0673C15.049 18.0357 15.0966 17.9875 15.1299 18.0215L15.2121 18.1022L15.1661 18.1481L15.0839 18.0673Z" fill="black"/>
<path d="M14.9191 18.4648C14.8865 18.4331 14.9305 18.388 14.963 18.4211L15.0264 18.4835L14.9826 18.5272L14.9191 18.4648Z" fill="black"/>
<path d="M15.4816 17.904C15.449 17.8723 15.493 17.8272 15.5255 17.8603L15.5889 17.9227L15.5451 17.9664L15.4816 17.904Z" fill="black"/>
<path d="M17.6914 11.9662C17.7015 11.5562 17.9953 11.4592 17.9974 11.4578C17.9996 11.4564 18.3148 11.5622 18.3138 11.97L17.6914 11.9662Z" fill="#FFFF00"/>
<path d="M17.4411 11.4659L17.3899 11.937L17.7004 11.9376C17.7034 11.5478 17.9985 11.483 18.0057 11.4845C18.0124 11.4841 18.3048 11.5706 18.3126 11.9376H18.624L18.5677 11.4629L17.4411 11.4657V11.4659ZM17.3691 11.9388H18.64C18.6668 11.9388 18.6888 11.965 18.6888 11.997C18.6888 12.029 18.6668 12.055 18.64 12.055H17.3691C17.3423 12.055 17.3203 12.029 17.3203 11.997C17.3203 11.965 17.3423 11.9388 17.3691 11.9388Z" fill="#FFFF00" stroke="black" stroke-width="0.229028"/>
<path d="M17.8333 11.9365C17.8346 11.6906 18.0029 11.621 18.0038 11.6211C18.0038 11.6211 18.1795 11.6929 18.1808 11.9365H17.8333ZM17.3983 11.2698H18.6167C18.6423 11.2698 18.6634 11.2934 18.6634 11.3221C18.6634 11.3509 18.6424 11.3744 18.6167 11.3744H17.3983C17.3726 11.3744 17.3516 11.351 17.3516 11.3221C17.3516 11.2934 17.3726 11.2698 17.3983 11.2698ZM17.4238 11.3752H18.5891C18.6137 11.3752 18.6338 11.3988 18.6338 11.4275C18.6338 11.4563 18.6137 11.4798 18.5891 11.4798H17.4238C17.3993 11.4798 17.3792 11.4563 17.3792 11.4275C17.3792 11.3988 17.3993 11.3752 17.4238 11.3752ZM17.8003 10.5889L17.8923 10.5891V10.6537H17.9594V10.5876L18.0537 10.5879V10.6538H18.121V10.5877H18.2153L18.2152 10.737C18.2152 10.7605 18.1961 10.7756 18.174 10.7756H17.8433C17.821 10.7756 17.8005 10.758 17.8004 10.7366L17.8001 10.589H17.8002L17.8003 10.5889ZM18.1468 10.7886L18.1676 11.2676L17.8448 11.2665L17.8662 10.7874L18.1468 10.7886Z" fill="#FFFF00" stroke="black" stroke-width="0.229028"/>
<path d="M17.7496 11.0107L17.7595 11.2697L17.4492 11.2698L17.4579 11.0107H17.7497H17.7496Z" fill="#FFFF00" stroke="black" stroke-width="0.229028"/>
<path d="M18.5504 11.0107L18.5602 11.2697L18.25 11.2698L18.2587 11.0107H18.5505H18.5504Z" fill="#FFFF00" stroke="black" stroke-width="0.229028"/>
<path d="M17.4024 10.8238L17.4924 10.824V10.8887H17.5582V10.8225L17.6504 10.8228V10.8888H17.7164V10.8225L17.8086 10.8227L17.8085 10.972C17.8085 10.9954 17.7898 11.0105 17.7683 11.0105H17.4445C17.4227 11.0105 17.4026 10.9931 17.4025 10.9715L17.4023 10.8238L17.4024 10.8238Z" fill="#FFFF00" stroke="black" stroke-width="0.229028"/>
<path d="M18.1993 10.8238L18.2893 10.824V10.8887H18.3551V10.8225L18.4473 10.8228V10.8888H18.5132V10.8225L18.6055 10.8227L18.6053 10.972C18.6053 10.9954 18.5867 11.0105 18.5651 11.0105H18.2414C18.2196 11.0105 18.1994 10.9931 18.1994 10.9715L18.1992 10.8238L18.1993 10.8238Z" fill="#FFFF00" stroke="black" stroke-width="0.229028"/>
<path d="M17.9688 10.9401C17.9668 10.8936 18.0346 10.8931 18.0337 10.9401V11.0542H17.9688V10.9401Z" fill="black"/>
<path d="M17.5742 11.1059C17.574 11.0609 17.637 11.06 17.6362 11.1059V11.194H17.5742V11.1059Z" fill="black"/>
<path d="M18.3711 11.1059C18.3709 11.0609 18.4339 11.06 18.433 11.1059V11.194H18.3711V11.1059Z" fill="black"/>
<path d="M21.7188 11.9662C21.7086 11.5562 21.4148 11.4592 21.4127 11.4578C21.4106 11.4564 21.0953 11.5622 21.0964 11.97L21.7188 11.9662Z" fill="#FFFF00"/>
<path d="M21.9691 11.4659L22.0202 11.937L21.7097 11.9376C21.7067 11.5478 21.4116 11.483 21.4045 11.4845C21.3977 11.4841 21.1053 11.5706 21.0975 11.9376H20.7862L20.8424 11.4629L21.9691 11.4657V11.4659ZM22.0411 11.9388H20.7701C20.7434 11.9388 20.7214 11.965 20.7214 11.997C20.7214 12.029 20.7434 12.055 20.7701 12.055H22.0411C22.0679 12.055 22.0898 12.029 22.0898 11.997C22.0898 11.965 22.0679 11.9388 22.0411 11.9388Z" fill="#FFFF00" stroke="black" stroke-width="0.229028"/>
<path d="M21.5769 11.9365C21.5755 11.6906 21.4072 11.621 21.4063 11.6211C21.4063 11.6211 21.2307 11.6929 21.2293 11.9365H21.5769ZM22.0119 11.2698H20.7935C20.7678 11.2698 20.7468 11.2934 20.7468 11.3221C20.7468 11.3509 20.7678 11.3744 20.7935 11.3744H22.0119C22.0375 11.3744 22.0586 11.351 22.0586 11.3221C22.0586 11.2934 22.0376 11.2698 22.0119 11.2698ZM21.9864 11.3752H20.821C20.7965 11.3752 20.7764 11.3988 20.7764 11.4275C20.7764 11.4563 20.7965 11.4798 20.821 11.4798H21.9864C22.0109 11.4798 22.031 11.4563 22.031 11.4275C22.031 11.3988 22.0109 11.3752 21.9864 11.3752ZM21.6099 10.5889L21.5178 10.5891V10.6537H21.4507V10.5876L21.3564 10.5879V10.6538H21.2892V10.5877H21.1948L21.195 10.737C21.195 10.7605 21.214 10.7756 21.2361 10.7756H21.5669C21.5892 10.7756 21.6096 10.758 21.6098 10.7366L21.61 10.589H21.6099L21.6099 10.5889ZM21.2634 10.7886L21.2426 11.2676L21.5653 11.2665L21.5439 10.7874L21.2634 10.7886Z" fill="#FFFF00" stroke="black" stroke-width="0.229028"/>
<path d="M21.6606 11.0107L21.6507 11.2697L21.9609 11.2698L21.9522 11.0107H21.6605H21.6606Z" fill="#FFFF00" stroke="black" stroke-width="0.229028"/>
<path d="M20.8598 11.0107L20.8499 11.2697L21.1602 11.2698L21.1514 11.0107H20.8597H20.8598Z" fill="#FFFF00" stroke="black" stroke-width="0.229028"/>
<path d="M22.0077 10.8238L21.9177 10.824V10.8887H21.852V10.8225L21.7597 10.8228V10.8888H21.6938V10.8225L21.6015 10.8227L21.6017 10.972C21.6017 10.9954 21.6204 11.0105 21.6419 11.0105H21.9657C21.9874 11.0105 22.0076 10.9931 22.0077 10.9715L22.0078 10.8238L22.0077 10.8238Z" fill="#FFFF00" stroke="black" stroke-width="0.229028"/>
<path d="M21.2109 10.8238L21.1209 10.824V10.8887H21.0551V10.8225L20.9628 10.8228V10.8888H20.8969V10.8225L20.8047 10.8227L20.8048 10.972C20.8048 10.9954 20.8235 11.0105 20.845 11.0105H21.1688C21.1905 11.0105 21.2107 10.9931 21.2108 10.9715L21.2109 10.8238L21.2109 10.8238Z" fill="#FFFF00" stroke="black" stroke-width="0.229028"/>
<path d="M21.4375 10.9401C21.4394 10.8936 21.3717 10.8931 21.3725 10.9401V11.0542H21.4375V10.9401Z" fill="black"/>
<path d="M21.8359 11.1056C21.8362 11.0606 21.7732 11.0597 21.774 11.1056V11.1937H21.8359V11.1056Z" fill="black"/>
<path d="M21.0391 11.1056C21.0393 11.0606 20.9763 11.0597 20.9771 11.1056V11.1937H21.0391V11.1056Z" fill="black"/>
<path d="M21.7188 15.4056C21.7086 14.9957 21.4148 14.8986 21.4127 14.8972C21.4106 14.8958 21.0953 15.0017 21.0964 15.4094L21.7188 15.4056Z" fill="#FFFF00"/>
<path d="M21.9691 14.9053L22.0202 15.3764L21.7097 15.3771C21.7067 14.9873 21.4116 14.9225 21.4045 14.924C21.3977 14.9236 21.1053 15.0101 21.0975 15.3771H20.7862L20.8424 14.9023L21.9691 14.9052V14.9053ZM22.0411 15.3783H20.7701C20.7434 15.3783 20.7214 15.4045 20.7214 15.4365C20.7214 15.4684 20.7434 15.4945 20.7701 15.4945H22.0411C22.0679 15.4945 22.0898 15.4685 22.0898 15.4365C22.0898 15.4045 22.0679 15.3783 22.0411 15.3783Z" fill="#FFFF00" stroke="black" stroke-width="0.229028"/>
<path d="M21.5769 15.376C21.5755 15.13 21.4072 15.0604 21.4063 15.0606C21.4063 15.0606 21.2307 15.1323 21.2293 15.376H21.5769ZM22.0119 14.7092H20.7935C20.7678 14.7092 20.7468 14.7328 20.7468 14.7616C20.7468 14.7903 20.7678 14.8139 20.7935 14.8139H22.0119C22.0375 14.8139 22.0586 14.7905 22.0586 14.7616C22.0586 14.7328 22.0376 14.7092 22.0119 14.7092ZM21.9864 14.8147H20.821C20.7965 14.8147 20.7764 14.8382 20.7764 14.8669C20.7764 14.8957 20.7965 14.9192 20.821 14.9192H21.9864C22.0109 14.9192 22.031 14.8957 22.031 14.8669C22.031 14.8382 22.0109 14.8147 21.9864 14.8147ZM21.6099 14.0284L21.5178 14.0285V14.0932H21.4507V14.0271L21.3564 14.0274V14.0933H21.2892V14.0272H21.1948L21.195 14.1764C21.195 14.2 21.214 14.2151 21.2361 14.2151H21.5669C21.5892 14.2151 21.6096 14.1975 21.6098 14.176L21.61 14.0284H21.6099L21.6099 14.0284ZM21.2634 14.2281L21.2426 14.7071L21.5653 14.706L21.5439 14.2268L21.2634 14.2281Z" fill="#FFFF00" stroke="black" stroke-width="0.229028"/>
<path d="M21.6606 14.4502L21.6507 14.7092L21.9609 14.7092L21.9522 14.4502H21.6605H21.6606Z" fill="#FFFF00" stroke="black" stroke-width="0.229028"/>
<path d="M20.8598 14.4502L20.8499 14.7092L21.1602 14.7092L21.1514 14.4502H20.8597H20.8598Z" fill="#FFFF00" stroke="black" stroke-width="0.229028"/>
<path d="M22.0077 14.2632L21.9177 14.2634V14.3282H21.852V14.262L21.7597 14.2623V14.3283H21.6938V14.262L21.6015 14.2621L21.6017 14.4115C21.6017 14.4348 21.6204 14.45 21.6419 14.45H21.9657C21.9874 14.45 22.0076 14.4325 22.0077 14.411L22.0078 14.2633L22.0077 14.2632Z" fill="#FFFF00" stroke="black" stroke-width="0.229028"/>
<path d="M21.2109 14.2632L21.1209 14.2634V14.3282H21.0551V14.262L20.9628 14.2623V14.3283H20.8969V14.262L20.8047 14.2621L20.8048 14.4115C20.8048 14.4348 20.8235 14.45 20.845 14.45H21.1688C21.1905 14.45 21.2107 14.4325 21.2108 14.411L21.2109 14.2633L21.2109 14.2632Z" fill="#FFFF00" stroke="black" stroke-width="0.229028"/>
<path d="M21.4375 14.3796C21.4394 14.333 21.3717 14.3325 21.3725 14.3796V14.4936H21.4375V14.3796Z" fill="black"/>
<path d="M21.8359 14.5451C21.8362 14.5001 21.7732 14.4992 21.774 14.5451V14.6332H21.8359V14.5451Z" fill="black"/>
<path d="M21.0391 14.5451C21.0393 14.5001 20.9763 14.4992 20.9771 14.5451V14.6332H21.0391V14.5451Z" fill="black"/>
<path d="M20.3622 18.9857C20.6489 18.6897 20.5114 18.4149 20.5109 18.4125C20.5104 18.41 20.2124 18.2631 19.9209 18.5511L20.3622 18.9857Z" fill="#FFFF00"/>
<path d="M20.9011 18.8111L20.5994 19.1789L20.3802 18.9613C20.6575 18.6845 20.496 18.4315 20.4899 18.4276C20.4854 18.4226 20.2173 18.2781 19.9488 18.5312L19.7294 18.3125L20.1093 18.0175L20.9012 18.811L20.9011 18.8111ZM20.6128 19.1949L19.7173 18.302C19.6984 18.2832 19.6641 18.2862 19.6412 18.3088C19.6183 18.3313 19.6151 18.3651 19.634 18.3839L20.5295 19.2768C20.5484 19.2956 20.5825 19.2927 20.6054 19.2702C20.6284 19.2476 20.6317 19.2137 20.6128 19.1949Z" fill="#FFFF00" stroke="black" stroke-width="0.229028"/>
<path d="M20.2836 18.8686C20.459 18.6943 20.3902 18.5271 20.3895 18.5265C20.3895 18.5265 20.2143 18.4537 20.0387 18.6244L20.2836 18.8686ZM21.068 18.7044L20.2095 17.8484C20.1914 17.8304 20.1597 17.8323 20.1391 17.8525C20.1185 17.8728 20.1164 17.9041 20.1345 17.9222L20.993 18.7781C21.0111 18.7961 21.0427 18.7944 21.0634 18.7741C21.084 18.7538 21.0861 18.7225 21.068 18.7044ZM20.9745 18.7608L20.1533 17.9421C20.136 17.9248 20.105 17.9273 20.0844 17.9476C20.0638 17.9679 20.0611 17.9985 20.0784 18.0157L20.8995 18.8344C20.9168 18.8517 20.9478 18.8492 20.9685 18.8289C20.989 18.8087 20.9918 18.778 20.9745 18.7608ZM21.2728 17.9422L21.2078 17.8777L21.1614 17.9233L21.1142 17.8761L21.1615 17.8295L21.0949 17.7635L21.0477 17.8099L21.0003 17.7627L21.0476 17.7161L20.9811 17.6498L20.8743 17.7551C20.8574 17.7717 20.86 17.7957 20.8756 17.8113L21.1086 18.0436C21.1243 18.0593 21.1514 18.0613 21.1668 18.0462L21.2728 17.9424L21.2728 17.9423L21.2728 17.9422ZM20.8854 17.8395L20.5275 18.1624L20.7557 18.3884L21.084 18.0358L20.8854 17.8395Z" fill="#FFFF00" stroke="black" stroke-width="0.229028"/>
<path d="M21.0071 18.2721L20.8145 18.4477L21.0331 18.6657L21.2126 18.477L21.007 18.2721L21.0071 18.2721Z" fill="#FFFF00" stroke="black" stroke-width="0.229028"/>
<path d="M20.4446 17.7133L20.252 17.8888L20.4706 18.1068L20.6501 17.9182L20.4445 17.7132L20.4446 17.7133Z" fill="#FFFF00" stroke="black" stroke-width="0.229028"/>
<path d="M21.3858 18.3854L21.3222 18.3223L21.2758 18.3679L21.2294 18.3217L21.2769 18.275L21.2117 18.2104L21.1644 18.2569L21.1179 18.2106L21.1654 18.1639L21.1003 18.0992L20.9934 18.2046C20.9767 18.221 20.979 18.2448 20.9941 18.2599L21.2223 18.4874C21.2376 18.5027 21.2643 18.5045 21.2798 18.4894L21.3858 18.3855L21.3858 18.3854Z" fill="#FFFF00" stroke="black" stroke-width="0.229028"/>
<path d="M20.8272 17.8263L20.7636 17.7632L20.7172 17.8088L20.6708 17.7626L20.7183 17.716L20.6531 17.6514L20.6058 17.6979L20.5593 17.6515L20.6069 17.6048L20.5417 17.5401L20.4348 17.6455C20.4181 17.6619 20.4204 17.6857 20.4355 17.7008L20.6637 17.9283C20.679 17.9436 20.7057 17.9454 20.7212 17.9303L20.8272 17.8264L20.8272 17.8263Z" fill="#FFFF00" stroke="black" stroke-width="0.229028"/>
<path d="M20.9005 18.0673C20.9354 18.0357 20.8878 17.9875 20.8545 18.0215L20.7723 18.1022L20.8183 18.1481L20.9005 18.0673Z" fill="black"/>
<path d="M21.0653 18.4648C21.0979 18.4331 21.0539 18.388 21.0214 18.4211L20.9579 18.4835L21.0018 18.5272L21.0653 18.4648Z" fill="black"/>
<path d="M20.5028 17.904C20.5354 17.8723 20.4914 17.8272 20.4589 17.8603L20.3954 17.9227L20.4393 17.9664L20.5028 17.904Z" fill="black"/>
<path d="M17.4454 15.5287V15.5291C17.4454 15.6933 17.5091 15.8429 17.6113 15.9516C17.7137 16.0604 17.8547 16.128 18.0089 16.128C18.164 16.128 18.3047 16.0608 18.4067 15.9524C18.5085 15.8441 18.5718 15.6946 18.5718 15.5297V14.7302L17.4474 14.7292L17.4453 15.5286" fill="#003399"/>
<path d="M17.7016 15.1441C17.7633 15.1441 17.8134 15.0946 17.8134 15.0335C17.8134 14.9724 17.7633 14.9229 17.7016 14.9229C17.6399 14.9229 17.5898 14.9724 17.5898 15.0335C17.5898 15.0946 17.6399 15.1441 17.7016 15.1441Z" fill="white"/>
<path d="M18.3266 15.1449C18.3883 15.1449 18.4384 15.0953 18.4384 15.0342C18.4384 14.9731 18.3883 14.9236 18.3266 14.9236C18.2649 14.9236 18.2148 14.9731 18.2148 15.0342C18.2148 15.0953 18.2649 15.1449 18.3266 15.1449Z" fill="white"/>
<path d="M18.0141 15.4413C18.0758 15.4413 18.1259 15.3917 18.1259 15.3306C18.1259 15.2695 18.0758 15.22 18.0141 15.22C17.9524 15.22 17.9023 15.2695 17.9023 15.3306C17.9023 15.3917 17.9524 15.4413 18.0141 15.4413Z" fill="white"/>
<path d="M17.7016 15.7518C17.7633 15.7518 17.8134 15.7023 17.8134 15.6412C17.8134 15.5801 17.7633 15.5305 17.7016 15.5305C17.6399 15.5305 17.5898 15.5801 17.5898 15.6412C17.5898 15.7023 17.6399 15.7518 17.7016 15.7518Z" fill="white"/>
<path d="M18.3266 15.7511C18.3883 15.7511 18.4384 15.7015 18.4384 15.6404C18.4384 15.5793 18.3883 15.5298 18.3266 15.5298C18.2649 15.5298 18.2148 15.5793 18.2148 15.6404C18.2148 15.7015 18.2649 15.7511 18.3266 15.7511Z" fill="white"/>
<path d="M17.4454 13.5971V13.5974C17.4454 13.7617 17.5091 13.9113 17.6113 14.0199C17.7137 14.1288 17.8547 14.1964 18.0089 14.1964C18.164 14.1964 18.3047 14.1292 18.4067 14.0208C18.5085 13.9125 18.5718 13.763 18.5718 13.5981V12.7986L17.4474 12.7976L17.4453 13.597" fill="#003399"/>
<path d="M17.7016 13.2125C17.7633 13.2125 17.8134 13.163 17.8134 13.1019C17.8134 13.0407 17.7633 12.9912 17.7016 12.9912C17.6399 12.9912 17.5898 13.0407 17.5898 13.1019C17.5898 13.163 17.6399 13.2125 17.7016 13.2125Z" fill="white"/>
<path d="M18.3266 13.2132C18.3883 13.2132 18.4384 13.1637 18.4384 13.1026C18.4384 13.0415 18.3883 12.9919 18.3266 12.9919C18.2649 12.9919 18.2148 13.0415 18.2148 13.1026C18.2148 13.1637 18.2649 13.2132 18.3266 13.2132Z" fill="white"/>
<path d="M18.0141 13.5096C18.0758 13.5096 18.1259 13.4601 18.1259 13.399C18.1259 13.3379 18.0758 13.2883 18.0141 13.2883C17.9524 13.2883 17.9023 13.3379 17.9023 13.399C17.9023 13.4601 17.9524 13.5096 18.0141 13.5096Z" fill="white"/>
<path d="M17.7016 13.8202C17.7633 13.8202 17.8134 13.7706 17.8134 13.7095C17.8134 13.6484 17.7633 13.5989 17.7016 13.5989C17.6399 13.5989 17.5898 13.6484 17.5898 13.7095C17.5898 13.7706 17.6399 13.8202 17.7016 13.8202Z" fill="white"/>
<path d="M18.3266 13.8194C18.3883 13.8194 18.4384 13.7699 18.4384 13.7088C18.4384 13.6477 18.3883 13.5981 18.3266 13.5981C18.2649 13.5981 18.2148 13.6477 18.2148 13.7088C18.2148 13.7699 18.2649 13.8194 18.3266 13.8194Z" fill="white"/>
<path d="M15.8868 15.5287V15.5291C15.8868 15.6933 15.9505 15.8429 16.0527 15.9516C16.1551 16.0604 16.2961 16.128 16.4503 16.128C16.6054 16.128 16.7461 16.0608 16.8481 15.9524C16.9499 15.8441 17.0132 15.6946 17.0132 15.5297V14.7302L15.8888 14.7292L15.8867 15.5286" fill="#003399"/>
<path d="M16.143 15.1441C16.2047 15.1441 16.2548 15.0946 16.2548 15.0335C16.2548 14.9724 16.2047 14.9229 16.143 14.9229C16.0813 14.9229 16.0312 14.9724 16.0312 15.0335C16.0312 15.0946 16.0813 15.1441 16.143 15.1441Z" fill="white"/>
<path d="M16.768 15.1449C16.8297 15.1449 16.8798 15.0953 16.8798 15.0342C16.8798 14.9731 16.8297 14.9236 16.768 14.9236C16.7063 14.9236 16.6562 14.9731 16.6562 15.0342C16.6562 15.0953 16.7063 15.1449 16.768 15.1449Z" fill="white"/>
<path d="M16.4555 15.4413C16.5172 15.4413 16.5673 15.3917 16.5673 15.3306C16.5673 15.2695 16.5172 15.22 16.4555 15.22C16.3938 15.22 16.3438 15.2695 16.3438 15.3306C16.3438 15.3917 16.3938 15.4413 16.4555 15.4413Z" fill="white"/>
<path d="M16.143 15.7518C16.2047 15.7518 16.2548 15.7023 16.2548 15.6412C16.2548 15.5801 16.2047 15.5305 16.143 15.5305C16.0813 15.5305 16.0312 15.5801 16.0312 15.6412C16.0312 15.7023 16.0813 15.7518 16.143 15.7518Z" fill="white"/>
<path d="M16.768 15.7511C16.8297 15.7511 16.8798 15.7015 16.8798 15.6404C16.8798 15.5793 16.8297 15.5298 16.768 15.5298C16.7063 15.5298 16.6562 15.5793 16.6562 15.6404C16.6562 15.7015 16.7063 15.7511 16.768 15.7511Z" fill="white"/>
<path d="M19.004 15.5287V15.5291C19.004 15.6933 19.0677 15.8429 19.1699 15.9516C19.2723 16.0604 19.4133 16.128 19.5675 16.128C19.7226 16.128 19.8633 16.0608 19.9653 15.9524C20.0671 15.8441 20.1304 15.6946 20.1304 15.5297V14.7302L19.006 14.7292L19.0039 15.5286" fill="#003399"/>
<path d="M19.2602 15.1441C19.3219 15.1441 19.372 15.0946 19.372 15.0335C19.372 14.9724 19.3219 14.9229 19.2602 14.9229C19.1985 14.9229 19.1484 14.9724 19.1484 15.0335C19.1484 15.0946 19.1985 15.1441 19.2602 15.1441Z" fill="white"/>
<path d="M19.8852 15.1449C19.9469 15.1449 19.997 15.0953 19.997 15.0342C19.997 14.9731 19.9469 14.9236 19.8852 14.9236C19.8235 14.9236 19.7734 14.9731 19.7734 15.0342C19.7734 15.0953 19.8235 15.1449 19.8852 15.1449Z" fill="white"/>
<path d="M19.5727 15.4413C19.6344 15.4413 19.6845 15.3917 19.6845 15.3306C19.6845 15.2695 19.6344 15.22 19.5727 15.22C19.511 15.22 19.4609 15.2695 19.4609 15.3306C19.4609 15.3917 19.511 15.4413 19.5727 15.4413Z" fill="white"/>
<path d="M19.2602 15.7518C19.3219 15.7518 19.372 15.7023 19.372 15.6412C19.372 15.5801 19.3219 15.5305 19.2602 15.5305C19.1985 15.5305 19.1484 15.5801 19.1484 15.6412C19.1484 15.7023 19.1985 15.7518 19.2602 15.7518Z" fill="white"/>
<path d="M19.8852 15.7511C19.9469 15.7511 19.997 15.7015 19.997 15.6404C19.997 15.5793 19.9469 15.5298 19.8852 15.5298C19.8235 15.5298 19.7734 15.5793 19.7734 15.6404C19.7734 15.7015 19.8235 15.7511 19.8852 15.7511Z" fill="white"/>
<path d="M17.4454 17.4432V17.4436C17.4454 17.6079 17.5091 17.7575 17.6113 17.8661C17.7137 17.975 17.8547 18.0426 18.0089 18.0426C18.164 18.0426 18.3047 17.9754 18.4067 17.867C18.5085 17.7587 18.5718 17.6092 18.5718 17.4443V16.6448L17.4474 16.6438L17.4453 17.4432" fill="#003399"/>
<path d="M17.7016 17.0587C17.7633 17.0587 17.8134 17.0092 17.8134 16.948C17.8134 16.8869 17.7633 16.8374 17.7016 16.8374C17.6399 16.8374 17.5898 16.8869 17.5898 16.948C17.5898 17.0092 17.6399 17.0587 17.7016 17.0587Z" fill="white"/>
<path d="M18.3266 17.0594C18.3883 17.0594 18.4384 17.0099 18.4384 16.9488C18.4384 16.8877 18.3883 16.8381 18.3266 16.8381C18.2649 16.8381 18.2148 16.8877 18.2148 16.9488C18.2148 17.0099 18.2649 17.0594 18.3266 17.0594Z" fill="white"/>
<path d="M18.0141 17.3558C18.0758 17.3558 18.1259 17.3063 18.1259 17.2452C18.1259 17.1841 18.0758 17.1345 18.0141 17.1345C17.9524 17.1345 17.9023 17.1841 17.9023 17.2452C17.9023 17.3063 17.9524 17.3558 18.0141 17.3558Z" fill="white"/>
<path d="M17.7016 17.6664C17.7633 17.6664 17.8134 17.6168 17.8134 17.5557C17.8134 17.4946 17.7633 17.4451 17.7016 17.4451C17.6399 17.4451 17.5898 17.4946 17.5898 17.5557C17.5898 17.6168 17.6399 17.6664 17.7016 17.6664Z" fill="white"/>
<path d="M18.3266 17.6656C18.3883 17.6656 18.4384 17.6161 18.4384 17.555C18.4384 17.4939 18.3883 17.4443 18.3266 17.4443C18.2649 17.4443 18.2148 17.4939 18.2148 17.555C18.2148 17.6161 18.2649 17.6656 18.3266 17.6656Z" fill="white"/>
</g>
<defs>
<clipPath id="clip0_224_1893">
<rect width="45" height="29.7" fill="white" transform="translate(0 0.5)"/>
</clipPath>
</defs>
</svg>
