<svg width="80" height="54" viewBox="0 0 80 54" fill="none" xmlns="http://www.w3.org/2000/svg">
<g clip-path="url(#clip0_224_594)">
<rect width="80" height="53.3333" transform="translate(0 0.333984)" fill="white"/>
<path d="M-7.10938 27.0007H85.3351V4.54232C85.3351 2.23676 83.0742 0.347873 80.2942 0.333984H-2.06847C-4.84851 0.347873 -7.10938 2.23676 -7.10938 4.54232V27.0007Z" fill="#ED2939"/>
<path d="M4.14079 53.5843H70.5067C72.7472 53.5705 74.5693 51.6875 74.5693 49.3891V27.0007H0.078125V49.3891C0.078125 51.6875 1.90025 53.5705 4.14079 53.5843Z" fill="white"/>
<path d="M25.1306 13.7089C25.1306 19.2333 20.771 23.7055 15.3856 23.7055C10.0002 23.7055 5.64062 19.2333 5.64062 13.7089C5.64062 8.18454 10.0002 3.7124 15.3856 3.7124C20.7575 3.7124 25.1306 8.18454 25.1306 13.7089Z" fill="white"/>
<path d="M28.1837 13.7091C28.1837 18.9289 24.0535 23.1518 18.9785 23.1518C13.8901 23.1518 9.77344 18.915 9.77344 13.7091C9.77344 8.48927 13.9036 4.26636 18.9785 4.26636C24.067 4.26636 28.1837 8.48927 28.1837 13.7091Z" fill="#ED2939"/>
<path d="M16.5899 13.9445L15.2672 12.9061L13.9444 13.9445L14.4573 12.2692L13.1211 11.2307L14.7678 11.2446L15.2672 9.55542L15.7666 11.2446L17.3997 11.2307L16.077 12.2692L16.5899 13.9445Z" fill="white"/>
<path d="M26.9631 13.9445L25.6404 12.9061L24.3176 13.9445L24.8305 12.2692L23.5078 11.2307L25.141 11.2446L25.6404 9.55542L26.1533 11.2446L27.7864 11.2307L26.4637 12.2692L26.9631 13.9445Z" fill="white"/>
<path d="M21.7813 9.99819L20.4586 8.95977L19.1358 9.99819L19.6487 8.32287L18.3125 7.28445H19.9592L20.4586 5.60913L20.958 7.28445H22.6046L21.2684 8.30903L21.7813 9.99819Z" fill="white"/>
<path d="M18.5313 20.2716L17.2086 19.2332L15.8858 20.2716L16.3987 18.5963L15.0625 17.5579L16.7092 17.5717L17.2086 15.8826L17.708 17.5717L19.3411 17.5579L18.0184 18.5963L18.5313 20.2716Z" fill="white"/>
<path d="M25.0178 20.2716L23.6951 19.2332L22.3723 20.2716L22.8852 18.5963L21.5625 17.5579L23.1957 17.5717L23.6951 15.8826L24.208 17.5717L25.8411 17.5579L24.5184 18.5963L25.0178 20.2716Z" fill="white"/>
</g>
<defs>
<clipPath id="clip0_224_594">
<rect width="80" height="53.3333" fill="white" transform="translate(0 0.333984)"/>
</clipPath>
</defs>
</svg>
