<svg width="45" height="31" viewBox="0 0 45 31" fill="none" xmlns="http://www.w3.org/2000/svg">
<g clip-path="url(#clip0_224_1321)">
<path d="M0.872851 0.799805H44.1295C44.8376 0.801641 45.5161 1.04971 46.0164 1.48974C46.5167 1.92976 46.7982 2.52591 46.7992 3.14774V28.1553C46.7971 28.7766 46.5152 29.3718 46.015 29.8111C45.5148 30.2504 44.8369 30.498 44.1295 30.4998H0.872851C0.164765 30.4989 -0.51408 30.2517 -1.01514 29.8123C-1.51621 29.3729 -1.79869 28.7772 -1.80078 28.1553V3.14774C-1.79974 2.52531 -1.51771 1.92864 -1.01654 1.48851C-0.51536 1.04839 0.164081 0.800723 0.872851 0.799805Z" fill="#FF0000"/>
<path d="M47.7008 20.5963H-2.69922V3.13735C-2.69813 2.51768 -2.40567 1.92364 -1.88593 1.48547C-1.36619 1.04729 -0.661584 0.800719 0.0734374 0.799805H44.9322C45.6665 0.801633 46.3701 1.04861 46.8889 1.48668C47.4078 1.92476 47.6997 2.51828 47.7008 3.13735V20.5998V20.5963Z" fill="#005CE5"/>
<path d="M50.4016 10.6998H-5.39844V3.17047C-5.39724 2.54202 -5.07343 1.93957 -4.49801 1.49518C-3.92258 1.0508 -3.14248 0.800732 -2.32871 0.799805H47.3364C48.1494 0.801659 48.9283 1.05213 49.5027 1.49642C50.0772 1.9407 50.4004 2.54262 50.4016 3.17047V10.6998Z" fill="white"/>
<path fill-rule="evenodd" clip-rule="evenodd" d="M6.61269 5.88574H6.40111C5.16245 5.92011 3.94343 6.18792 2.81527 6.6735V6.6735L2.52344 6.79098L2.83715 11.4761C2.90505 12.495 3.30501 13.4689 3.98188 14.2635C4.65876 15.0581 5.57921 15.6342 6.61634 15.9124C7.65252 15.6331 8.57188 15.0566 9.24798 14.2622C9.92408 13.4678 10.3237 12.4944 10.3919 11.4761L10.7056 6.8048C10.6109 6.75508 10.5135 6.7101 10.4138 6.67005V6.67005C9.22035 6.15876 7.92615 5.89264 6.61634 5.8892V5.8892L6.61269 5.88574Z" fill="#005CE5"/>
<path fill-rule="evenodd" clip-rule="evenodd" d="M6.6176 9.12671L5.69104 10.837L5.10374 10.101L3.53516 12.0566C3.56069 12.1776 3.59352 12.295 3.63 12.4021C3.72092 12.5689 3.85489 12.7111 4.01944 12.8156C4.18399 12.9201 4.37378 12.9835 4.57115 12.9999C4.9104 12.9999 5.2533 12.7407 5.59255 12.7407C5.9318 12.7407 6.2747 12.9999 6.6176 12.9999C6.9605 12.9999 7.29975 12.7407 7.639 12.7407C7.97825 12.7407 8.32115 12.9999 8.66405 12.9999C8.85951 12.9834 9.04746 12.9207 9.21063 12.8174C9.37381 12.7142 9.50698 12.5738 9.5979 12.409C9.63438 12.2916 9.66721 12.1764 9.69639 12.0635L8.13876 10.1114L7.54051 10.8473L6.6176 9.12671ZM5.59255 13.0068C5.2533 13.0068 4.9104 13.2659 4.57115 13.2659C4.32438 13.2647 4.08482 13.187 3.889 13.0448C3.9505 13.1712 4.01868 13.2946 4.09328 13.4145C4.23563 13.5023 4.40129 13.5502 4.57115 13.5527C4.9104 13.5527 5.2533 13.2936 5.59255 13.2936C5.9318 13.2936 6.2747 13.5527 6.6176 13.5527C6.9605 13.5527 7.29975 13.2936 7.639 13.2936C7.97825 13.2936 8.32115 13.5527 8.66405 13.5527C8.83103 13.5498 8.9939 13.5031 9.13462 13.4179C9.20758 13.3005 9.27324 13.1761 9.3389 13.0517C9.14404 13.1898 8.90744 13.2649 8.66405 13.2659C8.32115 13.2659 7.9819 13.0068 7.639 13.0068C7.2961 13.0068 6.95685 13.2659 6.6176 13.2659C6.27835 13.2659 5.93545 13.0068 5.59255 13.0068V13.0068ZM5.59255 13.5527C5.2533 13.5527 4.9104 13.8118 4.57115 13.8118C4.50494 13.8108 4.43899 13.8039 4.37416 13.7911C4.94718 14.4964 5.72777 15.0254 6.6176 15.3113C7.51378 15.0244 8.29889 14.4902 8.87198 13.7773C8.80368 13.7914 8.73395 13.7983 8.66405 13.798C8.32115 13.798 7.9819 13.5389 7.639 13.5389C7.2961 13.5389 6.95685 13.798 6.6176 13.798C6.27835 13.798 5.93545 13.5389 5.59255 13.5389V13.5527Z" fill="white"/>
<path fill-rule="evenodd" clip-rule="evenodd" d="M5.07812 6.93258L5.2058 6.72181L5.07812 6.51105H5.33712L5.4648 6.30029L5.59247 6.51105H5.85147L5.7238 6.72181L5.85147 6.93258H5.59247L5.4648 7.14679L5.33712 6.93258H5.07812ZM6.2272 8.40099L6.35852 8.18678L6.2272 7.97601H6.4862L6.61387 7.76525L6.7452 7.97601H7.00055L6.87287 8.18678L7.00055 8.40099H6.7452L6.61387 8.61175L6.4862 8.40099H6.2272ZM7.37992 6.93603L7.51125 6.72527L7.37992 6.51451H7.65716L7.78849 6.30375L7.91616 6.51451H8.17516L8.04383 6.72527L8.17516 6.93603H7.91616L7.78849 7.15025L7.65716 6.93258L7.37992 6.93603Z" fill="#FFE500"/>
<path fill-rule="evenodd" clip-rule="evenodd" d="M2.81527 6.67362L2.52344 6.79109L2.83715 11.4762C2.90505 12.4951 3.30501 13.469 3.98188 14.2636C4.65876 15.0582 5.57921 15.6343 6.61634 15.9125C7.65252 15.6333 8.57188 15.0567 9.24798 14.2623C9.92408 13.4679 10.3237 12.4946 10.3919 11.4762L10.7056 6.80491C10.6109 6.7552 10.5135 6.71022 10.4138 6.67017L10.1219 11.3207C10.0744 12.293 9.7126 13.2281 9.08561 13.9993C8.45862 14.7705 7.59666 15.3407 6.61634 15.6327C5.63533 15.3412 4.77258 14.7713 4.1449 14.0001C3.51722 13.2288 3.15493 12.2935 3.1071 11.3207L2.81527 6.67362Z" fill="#FF0000"/>
</g>
<defs>
<clipPath id="clip0_224_1321">
<rect width="45" height="29.7" fill="white" transform="translate(0 0.799805)"/>
</clipPath>
</defs>
</svg>
