<svg width="45" height="31" viewBox="0 0 45 31" fill="none" xmlns="http://www.w3.org/2000/svg">
<g clip-path="url(#clip0_224_1329)">
<path d="M0 0.699951H45V30.4H0V0.699951Z" fill="#EE1C25"/>
<path d="M0 0.699951H45V20.4999H0V0.699951Z" fill="#0B4EA2"/>
<path d="M0 0.699951H45V10.5999H0V0.699951Z" fill="white"/>
<path d="M15.8213 23.6445C13.1313 22.3625 9.28125 19.8182 9.28125 14.784C9.28125 9.74986 9.53125 7.45801 9.53125 7.45801H22.1063C22.1063 7.45801 22.3512 9.74986 22.3512 14.784C22.3512 19.8182 18.5012 22.3575 15.8162 23.6445H15.8213Z" fill="white"/>
<path d="M15.8086 22.975C13.3386 21.7969 9.80859 19.4605 9.80859 14.8422C9.80859 10.2238 10.0336 8.125 10.0336 8.125H21.5786C21.5786 8.125 21.8036 10.2238 21.8036 14.8422C21.8036 19.4655 18.2736 21.7969 15.8036 22.975H15.8086Z" fill="#EE1C25"/>
<path d="M16.3491 13.6339C17.0191 13.6438 18.3191 13.6685 19.4791 13.2874C19.4791 13.2874 19.4491 13.6982 19.4491 14.1784C19.4491 14.6536 19.4791 15.0694 19.4791 15.0694C18.4191 14.713 17.1041 14.7031 16.3491 14.713V17.2672H15.2941V14.708C14.5441 14.6981 13.2291 14.708 12.1641 15.0595C12.1641 15.0595 12.1941 14.6486 12.1941 14.1685C12.1941 13.6933 12.1641 13.2775 12.1641 13.2775C13.3241 13.6636 14.6241 13.6388 15.2941 13.624V12.035C14.4532 12.0119 13.6146 12.1307 12.8141 12.3865C12.8141 12.3865 12.8491 11.9756 12.8491 11.4955C12.8491 11.0203 12.8141 10.6045 12.8141 10.6045C13.8091 10.9361 14.6841 10.9658 15.2941 10.9609C15.2591 9.94611 14.9641 8.66406 14.9641 8.66406C14.9641 8.66406 15.5741 8.71356 15.8241 8.71356C16.0691 8.71356 16.6841 8.66406 16.6841 8.66406C16.6841 8.66406 16.3841 9.94611 16.3541 10.9609C17.1938 10.9803 18.0308 10.8582 18.8291 10.5995C18.8291 10.5995 18.7991 11.0104 18.7991 11.4905C18.7991 11.9657 18.8291 12.3815 18.8291 12.3815C18.0289 12.1241 17.1902 12.0036 16.3491 12.0251V13.6289V13.6339Z" fill="white"/>
<path d="M15.8089 16.9856C14.5639 16.9856 13.8989 18.6983 13.8989 18.6983C13.8989 18.6983 13.5289 17.8865 12.5139 17.8865C11.8289 17.8865 11.3239 18.4904 11.0039 19.0497C12.2539 21.0149 14.2439 22.2276 15.8039 22.9751C17.3689 22.2326 19.3639 21.0149 20.6089 19.0497C20.2889 18.4904 19.7839 17.8865 19.0989 17.8865C18.0839 17.8865 17.7139 18.6983 17.7139 18.6983C17.7139 18.6983 17.0489 16.9905 15.8039 16.9905L15.8089 16.9856Z" fill="#0B4EA2"/>
</g>
<defs>
<clipPath id="clip0_224_1329">
<rect width="45" height="29.7" fill="white" transform="translate(0 0.699951)"/>
</clipPath>
</defs>
</svg>
