<svg width="80" height="54" viewBox="0 0 80 54" fill="none" xmlns="http://www.w3.org/2000/svg">
<rect width="80" height="53.3333" transform="translate(0 0.666016)" fill="white"/>
<path d="M18.012 21.2453L25.6529 10.2908L18.012 21.2453ZM15.1395 19.4219L22.7948 8.46728L15.1395 19.4219ZM12.2813 17.5984L19.9366 6.6438L12.2813 17.5984Z" fill="#252422"/>
<path d="M18.012 21.2453L25.6529 10.2908M15.1395 19.4219L22.7948 8.46728M12.2813 17.5984L19.9366 6.6438" stroke="#252422" stroke-width="1.6002"/>
<path d="M60.0772 48.0217L67.7324 37.0671L60.0772 48.0217ZM57.2046 46.1982L64.8599 35.2436L57.2046 46.1982ZM54.3321 44.3747L61.9874 33.4202L54.3321 44.3747Z" fill="#252422"/>
<path d="M60.0772 48.0217L67.7324 37.0671M57.2046 46.1982L64.8599 35.2436M54.3321 44.3747L61.9874 33.4202" stroke="#252422" stroke-width="1.6002"/>
<path d="M56.2579 37.6704L65.809 43.7578" stroke="#FEFEFE" stroke-width="0.7999"/>
<path d="M28.5242 20.0388C32.7468 13.9925 41.3069 12.361 47.6409 16.3918C53.9748 20.4227 55.684 28.5941 51.4613 34.6403C47.2387 40.6866 38.6786 42.3182 32.3446 38.2873C26.0107 34.2565 24.3016 26.0851 28.5242 20.0388Z" fill="#C62631"/>
<path d="M28.5235 20.0388C26.4122 23.0688 27.274 27.1545 30.4337 29.1699C33.6079 31.1853 37.888 30.3627 39.9993 27.3464C42.1106 24.3165 46.3907 23.5075 49.5648 25.523C52.7389 27.5384 53.5863 31.6241 51.475 34.6541C47.2524 40.7003 38.6923 42.3319 32.3583 38.301C26.01 34.2565 24.3009 26.0851 28.5235 20.0388Z" fill="#303C70"/>
<path d="M25.6517 44.3747L18.0107 33.4202L25.6517 44.3747ZM22.7935 46.1982L15.1382 35.2436L22.7935 46.1982ZM19.921 48.0217L12.2657 37.0671L19.921 48.0217Z" fill="#252422"/>
<path d="M25.6517 44.3747L18.0107 33.4202M22.7935 46.1982L15.1382 35.2436M19.921 48.0217L12.2657 37.0671" stroke="#252422" stroke-width="1.6002"/>
<path d="M67.7181 17.5984L60.0628 6.6438L67.7181 17.5984ZM64.8599 19.4219L57.2046 8.46728L64.8599 19.4219ZM61.9874 21.2453L54.3321 10.2908L61.9874 21.2453Z" fill="#252422"/>
<path d="M67.7181 17.5984L60.0628 6.6438M64.8599 19.4219L57.2046 8.46728M61.9874 21.2453L54.3321 10.2908" stroke="#252422" stroke-width="1.6002"/>
<path d="M62.4616 13.033L65.3341 11.2095L62.4616 13.033ZM56.2569 16.9952L59.6034 14.8701L56.2569 16.9952ZM17.5352 41.6328L20.4077 39.8093L17.5352 41.6328Z" fill="#252422"/>
<path d="M62.4616 13.033L65.3341 11.2095M56.2569 16.9952L59.6034 14.8701M17.5352 41.6328L20.4077 39.8093" stroke="#FEFEFE" stroke-width="0.7999"/>
</svg>
