<svg width="45" height="31" viewBox="0 0 45 31" fill="none" xmlns="http://www.w3.org/2000/svg">
<g clip-path="url(#clip0_224_1068)">
<path d="M0.00390625 0.500244V30.2002H45.0039V0.500244H0.00390625Z" fill="#012169"/>
<path d="M0.00390625 0.500244L45.0039 30.2002ZM45.0039 0.500244L0.00390625 30.2002Z" fill="black"/>
<path d="M0.00390625 0.500244L45.0039 30.2002M45.0039 0.500244L0.00390625 30.2002" stroke="white" stroke-width="11.7413"/>
<path d="M0.00390625 0.500244L45.0039 30.2002ZM45.0039 0.500244L0.00390625 30.2002Z" fill="black"/>
<path d="M0.00390625 0.500244L45.0039 30.2002M45.0039 0.500244L0.00390625 30.2002" stroke="#C8102E" stroke-width="7.82754"/>
<path d="M22.5039 0.500244V30.2002ZM0.00390625 15.3502H45.0039Z" fill="black"/>
<path d="M22.5039 0.500244V30.2002M0.00390625 15.3502H45.0039" stroke="white" stroke-width="19.5689"/>
<path d="M22.5039 0.500244V30.2002ZM0.00390625 15.3502H45.0039Z" fill="black"/>
<path d="M22.5039 0.500244V30.2002M0.00390625 15.3502H45.0039" stroke="#C8102E" stroke-width="11.7413"/>
</g>
<defs>
<clipPath id="clip0_224_1068">
<rect width="45" height="29.7" fill="white" transform="translate(0 0.5)"/>
</clipPath>
</defs>
</svg>
