<svg width="110" height="74" viewBox="0 0 110 74" fill="none" xmlns="http://www.w3.org/2000/svg">
<g clip-path="url(#clip0_224_735)">
<path d="M0 0.333984H146.667V73.6673H0V0.333984Z" fill="#1EB53A"/>
<path d="M0 0.333984H146.667V37.0007H0V0.333984Z" fill="#0099B5"/>
<path d="M0 23.8005H146.667V50.2005H0V23.8005Z" fill="#CE1126"/>
<path d="M0 25.2673H146.667V48.734H0V25.2673Z" fill="white"/>
<path d="M20.5344 20.8671C25.3945 20.8671 29.3344 16.9272 29.3344 12.0671C29.3344 7.20698 25.3945 3.26709 20.5344 3.26709C15.6743 3.26709 11.7344 7.20698 11.7344 12.0671C11.7344 16.9272 15.6743 20.8671 20.5344 20.8671Z" fill="white"/>
<path d="M23.468 20.8673C28.3281 20.8673 32.268 16.9274 32.268 12.0673C32.268 7.20723 28.3281 3.26733 23.468 3.26733C18.6079 3.26733 14.668 7.20723 14.668 12.0673C14.668 16.9274 18.6079 20.8673 23.468 20.8673Z" fill="#0099B5"/>
<path d="M39.9062 17.3472L39.3624 19.021L40.1993 19.293" fill="white"/>
<path d="M39.9062 17.3472L40.4501 19.021L39.6132 19.293" fill="white"/>
<path d="M41.5781 18.562L39.8181 18.562L39.8181 19.442" fill="white"/>
<path d="M41.5781 18.562L40.1543 19.5965L39.637 18.8846" fill="white"/>
<path d="M38.2266 18.5632L39.6504 19.5977L40.1677 18.8858" fill="white"/>
<path d="M38.2266 18.5635L39.9866 18.5635L39.9866 19.4435" fill="white"/>
<path d="M40.9375 20.531L40.3936 18.8571L39.5567 19.1291" fill="white"/>
<path d="M40.9375 20.531L39.5136 19.4965L40.0309 18.7846" fill="white"/>
<path d="M38.8673 20.531L40.2912 19.4965L39.7739 18.7846" fill="white"/>
<path d="M38.8673 20.531L39.4112 18.8571L40.2481 19.1291" fill="white"/>
<path d="M39.9062 10.3071L39.3624 11.981L40.1993 12.2529" fill="white"/>
<path d="M39.9062 10.3071L40.4501 11.981L39.6132 12.2529" fill="white"/>
<path d="M41.5781 11.522L39.8181 11.522L39.8181 12.402" fill="white"/>
<path d="M41.5781 11.522L40.1543 12.5565L39.637 11.8445" fill="white"/>
<path d="M38.2266 11.5232L39.6504 12.5577L40.1677 11.8458" fill="white"/>
<path d="M38.2266 11.5234L39.9866 11.5234L39.9866 12.4034" fill="white"/>
<path d="M40.9375 13.491L40.3936 11.8171L39.5567 12.089" fill="white"/>
<path d="M40.9375 13.491L39.5136 12.4565L40.0309 11.7445" fill="white"/>
<path d="M38.8673 13.491L40.2912 12.4565L39.7739 11.7445" fill="white"/>
<path d="M38.8673 13.491L39.4112 11.8171L40.2481 12.089" fill="white"/>
<path d="M39.9062 3.26709L39.3624 4.94095L40.1993 5.21288" fill="white"/>
<path d="M39.9062 3.26709L40.4501 4.94095L39.6132 5.21288" fill="white"/>
<path d="M41.5781 4.48193L39.8181 4.48194L39.8181 5.36193" fill="white"/>
<path d="M41.5781 4.48193L40.1543 5.51644L39.637 4.80451" fill="white"/>
<path d="M38.2266 4.48315L39.6504 5.51766L40.1677 4.80573" fill="white"/>
<path d="M38.2266 4.4834L39.9866 4.4834L39.9866 5.3634" fill="white"/>
<path d="M40.9375 6.45093L40.3936 4.77707L39.5567 5.049" fill="white"/>
<path d="M40.9375 6.45093L39.5136 5.41643L40.0309 4.70449" fill="white"/>
<path d="M38.8673 6.45093L40.2912 5.41643L39.7739 4.70449" fill="white"/>
<path d="M38.8673 6.45093L39.4112 4.77707L40.2481 5.049" fill="white"/>
<path d="M46.9414 17.3472L46.3975 19.021L47.2345 19.293" fill="white"/>
<path d="M46.9414 17.3472L47.4853 19.021L46.6483 19.293" fill="white"/>
<path d="M48.6133 18.562L46.8533 18.562L46.8533 19.442" fill="white"/>
<path d="M48.6133 18.562L47.1894 19.5965L46.6722 18.8846" fill="white"/>
<path d="M45.2617 18.5632L46.6856 19.5977L47.2028 18.8858" fill="white"/>
<path d="M45.2617 18.5635L47.0217 18.5635L47.0217 19.4435" fill="white"/>
<path d="M47.9727 20.531L47.4288 18.8571L46.5919 19.1291" fill="white"/>
<path d="M47.9727 20.531L46.5488 19.4965L47.066 18.7846" fill="white"/>
<path d="M45.9025 20.531L47.3263 19.4965L46.8091 18.7846" fill="white"/>
<path d="M45.9025 20.531L46.4463 18.8571L47.2833 19.1291" fill="white"/>
<path d="M46.9414 10.3071L46.3975 11.981L47.2345 12.2529" fill="white"/>
<path d="M46.9414 10.3071L47.4853 11.981L46.6483 12.2529" fill="white"/>
<path d="M48.6133 11.522L46.8533 11.522L46.8533 12.402" fill="white"/>
<path d="M48.6133 11.522L47.1894 12.5565L46.6722 11.8445" fill="white"/>
<path d="M45.2617 11.5232L46.6856 12.5577L47.2028 11.8458" fill="white"/>
<path d="M45.2617 11.5234L47.0217 11.5234L47.0217 12.4034" fill="white"/>
<path d="M47.9727 13.491L47.4288 11.8171L46.5919 12.089" fill="white"/>
<path d="M47.9727 13.491L46.5488 12.4565L47.066 11.7445" fill="white"/>
<path d="M45.9025 13.491L47.3263 12.4565L46.8091 11.7445" fill="white"/>
<path d="M45.9025 13.491L46.4463 11.8171L47.2833 12.089" fill="white"/>
<path d="M46.9414 3.26709L46.3975 4.94095L47.2345 5.21288" fill="white"/>
<path d="M46.9414 3.26709L47.4853 4.94095L46.6483 5.21288" fill="white"/>
<path d="M48.6133 4.48193L46.8533 4.48194L46.8533 5.36193" fill="white"/>
<path d="M48.6133 4.48193L47.1894 5.51644L46.6722 4.80451" fill="white"/>
<path d="M45.2617 4.48315L46.6856 5.51766L47.2028 4.80573" fill="white"/>
<path d="M45.2617 4.4834L47.0217 4.4834L47.0217 5.3634" fill="white"/>
<path d="M47.9727 6.45093L47.4288 4.77707L46.5919 5.049" fill="white"/>
<path d="M47.9727 6.45093L46.5488 5.41643L47.066 4.70449" fill="white"/>
<path d="M45.9025 6.45093L47.3263 5.41643L46.8091 4.70449" fill="white"/>
<path d="M45.9025 6.45093L46.4463 4.77707L47.2833 5.049" fill="white"/>
<path d="M53.9805 17.3472L53.4366 19.021L54.2735 19.293" fill="white"/>
<path d="M53.9805 17.3472L54.5243 19.021L53.6874 19.293" fill="white"/>
<path d="M55.6523 18.562L53.8923 18.562L53.8923 19.442" fill="white"/>
<path d="M55.6523 18.562L54.2285 19.5965L53.7112 18.8846" fill="white"/>
<path d="M52.3008 18.5632L53.7246 19.5977L54.2419 18.8858" fill="white"/>
<path d="M52.3008 18.5635L54.0608 18.5635L54.0608 19.4435" fill="white"/>
<path d="M55.0117 20.531L54.4678 18.8571L53.6309 19.1291" fill="white"/>
<path d="M55.0117 20.531L53.5878 19.4965L54.1051 18.7846" fill="white"/>
<path d="M52.9415 20.531L54.3654 19.4965L53.8481 18.7846" fill="white"/>
<path d="M52.9415 20.531L53.4854 18.8571L54.3223 19.1291" fill="white"/>
<path d="M53.9805 10.3071L53.4366 11.981L54.2735 12.2529" fill="white"/>
<path d="M53.9805 10.3071L54.5243 11.981L53.6874 12.2529" fill="white"/>
<path d="M55.6523 11.522L53.8923 11.522L53.8923 12.402" fill="white"/>
<path d="M55.6523 11.522L54.2285 12.5565L53.7112 11.8445" fill="white"/>
<path d="M52.3008 11.5232L53.7246 12.5577L54.2419 11.8458" fill="white"/>
<path d="M52.3008 11.5234L54.0608 11.5234L54.0608 12.4034" fill="white"/>
<path d="M55.0117 13.491L54.4678 11.8171L53.6309 12.089" fill="white"/>
<path d="M55.0117 13.491L53.5878 12.4565L54.1051 11.7445" fill="white"/>
<path d="M52.9415 13.491L54.3654 12.4565L53.8481 11.7445" fill="white"/>
<path d="M52.9415 13.491L53.4854 11.8171L54.3223 12.089" fill="white"/>
<path d="M53.9805 3.26709L53.4366 4.94095L54.2735 5.21288" fill="white"/>
<path d="M53.9805 3.26709L54.5243 4.94095L53.6874 5.21288" fill="white"/>
<path d="M55.6523 4.48193L53.8923 4.48194L53.8923 5.36193" fill="white"/>
<path d="M55.6523 4.48193L54.2285 5.51644L53.7112 4.80451" fill="white"/>
<path d="M52.3008 4.48315L53.7246 5.51766L54.2419 4.80573" fill="white"/>
<path d="M52.3008 4.4834L54.0608 4.4834L54.0608 5.3634" fill="white"/>
<path d="M55.0117 6.45093L54.4678 4.77707L53.6309 5.049" fill="white"/>
<path d="M55.0117 6.45093L53.5878 5.41643L54.1051 4.70449" fill="white"/>
<path d="M52.9415 6.45093L54.3654 5.41643L53.8481 4.70449" fill="white"/>
<path d="M52.9415 6.45093L53.4854 4.77707L54.3223 5.049" fill="white"/>
<path d="M25.8203 17.3472L25.2764 19.021L26.1134 19.293" fill="white"/>
<path d="M25.8203 17.3472L26.3642 19.021L25.5273 19.293" fill="white"/>
<path d="M27.4922 18.562L25.7322 18.562L25.7322 19.442" fill="white"/>
<path d="M27.4922 18.562L26.0683 19.5965L25.5511 18.8846" fill="white"/>
<path d="M24.1406 18.5632L25.5645 19.5977L26.0817 18.8858" fill="white"/>
<path d="M24.1406 18.5635L25.9006 18.5635L25.9006 19.4435" fill="white"/>
<path d="M26.8516 20.531L26.3077 18.8571L25.4708 19.1291" fill="white"/>
<path d="M26.8516 20.531L25.4277 19.4965L25.9449 18.7846" fill="white"/>
<path d="M24.7814 20.531L26.2052 19.4965L25.688 18.7846" fill="white"/>
<path d="M24.7814 20.531L25.3252 18.8571L26.1622 19.1291" fill="white"/>
<path d="M32.8594 17.3472L32.3155 19.021L33.1524 19.293" fill="white"/>
<path d="M32.8594 17.3472L33.4032 19.021L32.5663 19.293" fill="white"/>
<path d="M34.5312 18.562L32.7713 18.562L32.7713 19.442" fill="white"/>
<path d="M34.5312 18.562L33.1074 19.5965L32.5901 18.8846" fill="white"/>
<path d="M31.1797 18.5632L32.6036 19.5977L33.1208 18.8858" fill="white"/>
<path d="M31.1797 18.5635L32.9397 18.5635L32.9397 19.4435" fill="white"/>
<path d="M33.8906 20.531L33.3468 18.8571L32.5098 19.1291" fill="white"/>
<path d="M33.8906 20.531L32.4668 19.4965L32.984 18.7846" fill="white"/>
<path d="M31.8204 20.531L33.2443 19.4965L32.7271 18.7846" fill="white"/>
<path d="M31.8204 20.531L32.3643 18.8571L33.2012 19.1291" fill="white"/>
<path d="M32.8594 10.3071L32.3155 11.981L33.1524 12.2529" fill="white"/>
<path d="M32.8594 10.3071L33.4032 11.981L32.5663 12.2529" fill="white"/>
<path d="M34.5312 11.522L32.7713 11.522L32.7713 12.402" fill="white"/>
<path d="M34.5312 11.522L33.1074 12.5565L32.5901 11.8445" fill="white"/>
<path d="M31.1797 11.5232L32.6036 12.5577L33.1208 11.8458" fill="white"/>
<path d="M31.1797 11.5234L32.9397 11.5234L32.9397 12.4034" fill="white"/>
<path d="M33.8906 13.491L33.3468 11.8171L32.5098 12.089" fill="white"/>
<path d="M33.8906 13.491L32.4668 12.4565L32.984 11.7445" fill="white"/>
<path d="M31.8204 13.491L33.2443 12.4565L32.7271 11.7445" fill="white"/>
<path d="M31.8204 13.491L32.3643 11.8171L33.2012 12.089" fill="white"/>
</g>
<defs>
<clipPath id="clip0_224_735">
<rect width="110" height="73.3333" fill="white" transform="translate(0 0.333984)"/>
</clipPath>
</defs>
</svg>
