<svg width="50" height="50" viewBox="0 0 50 50" fill="none" xmlns="http://www.w3.org/2000/svg">
<path d="M34.6106 0C34.7255 0 34.8405 0 34.962 0C35.2441 3.6633 33.9141 6.40051 32.2976 8.38271C30.7115 10.3512 28.5396 12.2604 25.0269 11.9707C24.7925 8.3599 26.1247 5.8257 27.739 3.84806C29.2361 2.00501 31.9808 0.364961 34.6106 0Z" fill="#808080"/>
<path d="M46 36.6814C46 36.7165 46 36.7473 46 36.7803C44.9952 39.8104 43.562 42.4073 41.813 44.8172C40.2164 47.0051 38.2598 49.9494 34.7662 49.9494C31.7474 49.9494 29.7422 48.0166 26.6483 47.9638C23.3756 47.9111 21.5758 49.58 18.5835 50C18.2412 50 17.8989 50 17.5632 50C15.3659 49.6834 13.5926 47.9506 12.3008 46.3894C8.49138 41.7762 5.54767 35.8172 5 28.1915C5 27.4439 5 26.6984 5 25.9508C5.23188 20.4932 7.89513 16.0558 11.4351 13.9053C13.3034 12.7619 15.8716 11.7878 18.7314 12.2232C19.9571 12.4123 21.2092 12.8301 22.3067 13.2435C23.3469 13.6415 24.6476 14.3473 25.8798 14.3099C26.7146 14.2857 27.5449 13.8526 28.3863 13.5469C30.8508 12.6608 33.2667 11.6449 36.4511 12.122C40.2782 12.6982 42.9945 14.3913 44.6728 17.0036C41.4354 19.0551 38.8759 22.1468 39.3132 27.4263C39.7018 32.222 42.502 35.0278 46 36.6814Z" fill="#808080"/>
</svg>
