<svg width="50" height="50" viewBox="0 0 50 50" fill="none" xmlns="http://www.w3.org/2000/svg">
<g clip-path="url(#clip0_87_71)">
<path d="M0 25C0 11.215 11.215 0 25 0C30.5674 0 35.8369 1.79119 40.239 5.18L34.4295 12.7267C31.7076 10.6314 28.4469 9.52381 25 9.52381C16.4664 9.52381 9.52381 16.4664 9.52381 25C9.52381 33.5336 16.4664 40.4762 25 40.4762C31.8731 40.4762 37.7138 35.9731 39.7267 29.7619H25V20.2381H50V25C50 38.785 38.785 50 25 50C11.215 50 0 38.785 0 25Z" fill="#808080"/>
</g>
<defs>
<clipPath id="clip0_87_71">
<rect width="50" height="50" fill="white"/>
</clipPath>
</defs>
</svg>
