<svg width="50" height="50" viewBox="0 0 50 50" fill="none" xmlns="http://www.w3.org/2000/svg">
<path d="M49.0199 37.0965C42.3352 35.9935 39.3225 29.1284 39.2007 28.837C39.1913 28.8182 39.185 28.7994 39.1725 28.7806C38.8319 28.085 38.7506 27.5116 38.9382 27.0761C39.3038 26.2175 40.7039 25.7726 41.6289 25.4781C41.8977 25.3935 42.1508 25.312 42.3602 25.2305C43.2727 24.8702 43.9228 24.4785 44.354 24.0367C44.8666 23.5072 44.9666 22.9996 44.9603 22.6706C44.9447 21.8685 44.3322 21.1541 43.354 20.8063C43.0258 20.6715 42.6477 20.5995 42.2664 20.5995C42.007 20.5995 41.6195 20.6339 41.2539 20.8063C40.4726 21.1729 39.7726 21.3734 39.1694 21.4016C38.8506 21.3859 38.6256 21.317 38.4788 21.2512C38.4975 20.9379 38.5163 20.6151 38.5381 20.283L38.5475 20.1389C38.7631 16.7455 39.0288 12.5249 37.91 10.0182C37.1443 8.30113 36.1161 6.82533 34.8505 5.6284C33.791 4.62573 32.5597 3.81107 31.1909 3.20947C28.8127 2.15667 26.5938 2 25.4813 2H25.4781C25.4344 2 25.3938 2 25.3563 2C25.0469 2.00313 24.5437 2.0094 24.4969 2.0094C23.3874 2.0094 21.1654 2.16607 18.781 3.21887C17.4153 3.82047 16.1902 4.632 15.1339 5.63467C13.8745 6.8316 12.8494 8.30427 12.0869 10.0151C10.9681 12.5186 11.2337 16.7392 11.4462 20.1295V20.1357C11.4681 20.4992 11.4931 20.8783 11.515 21.2481C11.3525 21.3201 11.0869 21.4016 10.6962 21.4016C10.0649 21.4016 9.31489 21.2011 8.46798 20.8031C8.21797 20.6872 7.93358 20.6277 7.62106 20.6277C7.11792 20.6277 6.58352 20.7749 6.12412 21.0475C5.54284 21.3891 5.16782 21.8685 5.06469 22.4043C4.99907 22.7552 5.00219 23.4539 5.77723 24.1621C6.20537 24.5506 6.8304 24.9109 7.63981 25.2305C7.85232 25.3151 8.10546 25.3935 8.3711 25.4781C9.29614 25.7726 10.6993 26.2175 11.065 27.0761C11.2494 27.5116 11.1681 28.085 10.8275 28.7806C10.8181 28.7994 10.8087 28.8182 10.8025 28.837C10.715 29.0375 9.91805 30.8392 8.2836 32.7411C7.35543 33.8221 6.3335 34.7277 5.24595 35.4295C3.91777 36.2881 2.48332 36.8458 0.980129 37.0933C0.389476 37.1905 -0.0324184 37.7169 0.00195816 38.3153C0.0113336 38.4877 0.0519605 38.66 0.123839 38.8261V38.8292C0.364475 39.3901 0.917626 39.8632 1.81767 40.2799C2.91772 40.7907 4.56155 41.2199 6.70852 41.5552C6.8179 41.762 6.93041 42.279 7.00854 42.6331C7.08979 43.0091 7.17417 43.3976 7.29605 43.8081C7.42731 44.253 7.76482 44.7857 8.63674 44.7857C8.968 44.7857 9.34614 44.7105 9.78679 44.6259C10.4306 44.5005 11.3119 44.3282 12.4088 44.3282C13.0182 44.3282 13.6495 44.3815 14.2839 44.488C15.5089 44.6917 16.5652 45.4374 17.7872 46.3022C19.5747 47.5681 21.5998 49 24.6937 49C24.7781 49 24.8625 48.9969 24.9469 48.9906C25.0469 48.9969 25.175 49 25.3063 49C28.4002 49 30.4253 47.5681 32.2128 46.3053L32.216 46.3022C33.4379 45.4405 34.4942 44.6948 35.7192 44.4911C36.3537 44.3846 36.9849 44.3313 37.5943 44.3313C38.6444 44.3313 39.4757 44.4661 40.2163 44.6102C40.7007 44.7042 41.0758 44.7512 41.3664 44.7512H41.3945H41.4226C42.0602 44.7512 42.5289 44.4003 42.7071 43.7893C42.8258 43.3851 42.9102 43.0091 42.9946 42.6237C43.0665 42.2915 43.1852 41.7589 43.2915 41.5521C45.4385 41.2137 47.0823 40.7875 48.1823 40.2768C49.0793 39.8601 49.6324 39.3869 49.873 38.8292C49.9449 38.6631 49.9887 38.4908 49.998 38.3122C50.0324 37.72 49.6105 37.1905 49.0199 37.0965Z" fill="#808080"/>
</svg>
