<svg width="50" height="50" viewBox="0 0 50 50" fill="none" xmlns="http://www.w3.org/2000/svg">
<path d="M46.9764 12.5193C44.1138 12.5193 41.4727 11.5725 39.3517 9.97535C36.9193 8.1444 35.1716 5.45862 34.5544 2.36302C34.4015 1.59817 34.3193 0.808865 34.3114 0H26.1342V22.3079L26.1245 34.5269C26.1245 37.7937 23.9937 40.5636 21.0401 41.5377C20.1829 41.8204 19.2571 41.9544 18.2931 41.9016C17.0627 41.8341 15.9096 41.4634 14.9074 40.8648C12.7747 39.5914 11.3287 37.2812 11.2896 34.6384C11.2278 30.508 14.5724 27.1405 18.7065 27.1405C19.5226 27.1405 20.3063 27.2735 21.0401 27.5151V21.4178V19.226C20.2661 19.1115 19.4785 19.0519 18.682 19.0519C14.157 19.0519 9.9249 20.9298 6.89973 24.3129C4.61322 26.8696 3.24171 30.1315 3.0301 33.5518C2.75286 38.045 4.39966 42.3163 7.59333 45.4676C8.06258 45.9302 8.55535 46.3596 9.07065 46.7557C11.8088 48.8596 15.1563 50 18.682 50C19.4785 50 20.2661 49.9413 21.0401 49.8269C24.3336 49.3398 27.3725 47.8345 29.7707 45.4676C32.7175 42.5598 34.3457 38.6994 34.3633 34.5905L34.3212 16.3436C35.727 17.4263 37.2641 18.3222 38.9138 19.0176C41.4795 20.0984 44.2 20.6461 46.9999 20.6451V14.717V12.5174C47.0018 12.5193 46.9783 12.5193 46.9764 12.5193Z" fill="#808080"/>
</svg>
