<svg width="50" height="50" viewBox="0 0 50 50" fill="none" xmlns="http://www.w3.org/2000/svg">
<path d="M50 9.85377C48.1406 10.6769 46.1594 11.2225 44.0938 11.4875C46.2188 10.207 47.8406 8.19485 48.6031 5.76954C46.6219 6.96169 44.4344 7.80377 42.1031 8.27369C40.2219 6.25208 37.5406 5 34.6156 5C28.9406 5 24.3719 9.64877 24.3719 15.3478C24.3719 16.1678 24.4406 16.9562 24.6094 17.7068C16.0875 17.2874 8.54688 13.1653 3.48125 6.886C2.59687 8.43454 2.07812 10.207 2.07812 12.1151C2.07812 15.6978 3.90625 18.8738 6.63125 20.7125C4.98438 20.6809 3.36875 20.1984 2 19.4383C2 19.4698 2 19.5108 2 19.5518C2 24.5791 5.55312 28.7548 10.2125 29.7167C9.37812 29.9469 8.46875 30.0573 7.525 30.0573C6.86875 30.0573 6.20625 30.0195 5.58437 29.8807C6.9125 33.9775 10.6813 36.9895 15.1625 37.0872C11.675 39.8405 7.24688 41.4995 2.45312 41.4995C1.6125 41.4995 0.80625 41.4616 0 41.3575C4.54062 44.3127 9.92188 46 15.725 46C34.5875 46 44.9 30.2308 44.9 16.562C44.9 16.1047 44.8844 15.6632 44.8625 15.2248C46.8969 13.7677 48.6063 11.9479 50 9.85377Z" fill="#808080"/>
</svg>
